<?xml version="1.0" encoding="utf-8" standalone="no"?>
<!DOCTYPE svg PUBLIC "-//W3C//DTD SVG 1.1//EN"
  "http://www.w3.org/Graphics/SVG/1.1/DTD/svg11.dtd">
<svg xmlns:xlink="http://www.w3.org/1999/xlink" width="276.702055pt" height="225.314678pt" viewBox="0 0 276.702055 225.314678" xmlns="http://www.w3.org/2000/svg" version="1.1">
 <metadata>
  <rdf:RDF xmlns:dc="http://purl.org/dc/elements/1.1/" xmlns:cc="http://creativecommons.org/ns#" xmlns:rdf="http://www.w3.org/1999/02/22-rdf-syntax-ns#">
   <cc:Work>
    <dc:type rdf:resource="http://purl.org/dc/dcmitype/StillImage"/>
    <dc:date>2025-09-15T11:28:30.693019</dc:date>
    <dc:format>image/svg+xml</dc:format>
    <dc:creator>
     <cc:Agent>
      <dc:title>Matplotlib v3.10.1, https://matplotlib.org/</dc:title>
     </cc:Agent>
    </dc:creator>
   </cc:Work>
  </rdf:RDF>
 </metadata>
 <defs>
  <style type="text/css">*{stroke-linejoin: round; stroke-linecap: butt}</style>
 </defs>
 <g id="figure_1">
  <g id="patch_1">
   <path d="M 0 225.314678
L 276.702055 225.314678
L 276.702055 -0
L 0 -0
z
" style="fill: #ffffff"/>
  </g>
  <g id="axes_1">
   <g id="patch_2">
    <path d="M 33.97 191.1168
L 200.4916 191.1168
L 200.4916 43.2864
L 33.97 43.2864
z
" style="fill: #ffffff"/>
   </g>
   <g id="patch_3">
    <path d="M 41.539164 191.1168
L 71.815818 191.1168
L 71.815818 186.759954
L 41.539164 186.759954
z
" clip-path="url(#pab30bf2ff6)" style="fill: #dda0dd; opacity: 0.9; stroke: #ffffff; stroke-width: 0.2; stroke-linejoin: miter"/>
   </g>
   <g id="patch_4">
    <path d="M 102.092473 191.1168
L 132.369127 191.1168
L 132.369127 169.355226
L 102.092473 169.355226
z
" clip-path="url(#pab30bf2ff6)" style="fill: #dda0dd; opacity: 0.9; stroke: #ffffff; stroke-width: 0.2; stroke-linejoin: miter"/>
   </g>
   <g id="patch_5">
    <path d="M 162.645782 191.1168
L 192.922436 191.1168
L 192.922436 187.561472
L 162.645782 187.561472
z
" clip-path="url(#pab30bf2ff6)" style="fill: #dda0dd; opacity: 0.9; stroke: #ffffff; stroke-width: 0.2; stroke-linejoin: miter"/>
   </g>
   <g id="patch_6">
    <path d="M 41.539164 186.759954
L 71.815818 186.759954
L 71.815818 162.117947
L 41.539164 162.117947
z
" clip-path="url(#pab30bf2ff6)" style="fill: #f0e68c; opacity: 0.9; stroke: #ffffff; stroke-width: 0.2; stroke-linejoin: miter"/>
   </g>
   <g id="patch_7">
    <path d="M 102.092473 169.355226
L 132.369127 169.355226
L 132.369127 137.751459
L 102.092473 137.751459
z
" clip-path="url(#pab30bf2ff6)" style="fill: #f0e68c; opacity: 0.9; stroke: #ffffff; stroke-width: 0.2; stroke-linejoin: miter"/>
   </g>
   <g id="patch_8">
    <path d="M 162.645782 187.561472
L 192.922436 187.561472
L 192.922436 170.708644
L 162.645782 170.708644
z
" clip-path="url(#pab30bf2ff6)" style="fill: #f0e68c; opacity: 0.9; stroke: #ffffff; stroke-width: 0.2; stroke-linejoin: miter"/>
   </g>
   <g id="patch_9">
    <path d="M 41.539164 162.117947
L 71.815818 162.117947
L 71.815818 134.663737
L 41.539164 134.663737
z
" clip-path="url(#pab30bf2ff6)" style="fill: #98fb98; opacity: 0.9; stroke: #ffffff; stroke-width: 0.2; stroke-linejoin: miter"/>
   </g>
   <g id="patch_10">
    <path d="M 102.092473 137.751459
L 132.369127 137.751459
L 132.369127 125.168999
L 102.092473 125.168999
z
" clip-path="url(#pab30bf2ff6)" style="fill: #98fb98; opacity: 0.9; stroke: #ffffff; stroke-width: 0.2; stroke-linejoin: miter"/>
   </g>
   <g id="patch_11">
    <path d="M 162.645782 170.708644
L 192.922436 170.708644
L 192.922436 152.672987
L 162.645782 152.672987
z
" clip-path="url(#pab30bf2ff6)" style="fill: #98fb98; opacity: 0.9; stroke: #ffffff; stroke-width: 0.2; stroke-linejoin: miter"/>
   </g>
   <g id="patch_12">
    <path d="M 41.539164 134.663737
L 71.815818 134.663737
L 71.815818 57.847123
L 41.539164 57.847123
z
" clip-path="url(#pab30bf2ff6)" style="fill: #87ceeb; opacity: 0.9; stroke: #ffffff; stroke-width: 0.2; stroke-linejoin: miter"/>
   </g>
   <g id="patch_13">
    <path d="M 102.092473 125.168999
L 132.369127 125.168999
L 132.369127 59.264299
L 102.092473 59.264299
z
" clip-path="url(#pab30bf2ff6)" style="fill: #87ceeb; opacity: 0.9; stroke: #ffffff; stroke-width: 0.2; stroke-linejoin: miter"/>
   </g>
   <g id="patch_14">
    <path d="M 162.645782 152.672987
L 192.922436 152.672987
L 192.922436 56.982365
L 162.645782 56.982365
z
" clip-path="url(#pab30bf2ff6)" style="fill: #87ceeb; opacity: 0.9; stroke: #ffffff; stroke-width: 0.2; stroke-linejoin: miter"/>
   </g>
   <g id="patch_15">
    <path d="M 41.539164 57.847123
L 71.815818 57.847123
L 71.815818 56.725527
L 41.539164 56.725527
z
" clip-path="url(#pab30bf2ff6)" style="fill: #ffb6c1; opacity: 0.9; stroke: #ffffff; stroke-width: 0.2; stroke-linejoin: miter"/>
   </g>
   <g id="patch_16">
    <path d="M 102.092473 59.264299
L 132.369127 59.264299
L 132.369127 56.725527
L 102.092473 56.725527
z
" clip-path="url(#pab30bf2ff6)" style="fill: #ffb6c1; opacity: 0.9; stroke: #ffffff; stroke-width: 0.2; stroke-linejoin: miter"/>
   </g>
   <g id="patch_17">
    <path d="M 162.645782 56.982365
L 192.922436 56.982365
L 192.922436 56.725527
L 162.645782 56.725527
z
" clip-path="url(#pab30bf2ff6)" style="fill: #ffb6c1; opacity: 0.9; stroke: #ffffff; stroke-width: 0.2; stroke-linejoin: miter"/>
   </g>
   <g id="matplotlib.axis_1">
    <g id="xtick_1">
     <g id="line2d_1"/>
     <g id="text_1">
      <!-- control -->
      <g transform="translate(43.101041 208.886828) rotate(-45) scale(0.06 -0.06)">
       <defs>
        <path id="ArialMT-63" d="M 2588 1216
L 3141 1144
Q 3050 572 2676 248
Q 2303 -75 1759 -75
Q 1078 -75 664 370
Q 250 816 250 1647
Q 250 2184 428 2587
Q 606 2991 970 3192
Q 1334 3394 1763 3394
Q 2303 3394 2647 3120
Q 2991 2847 3088 2344
L 2541 2259
Q 2463 2594 2264 2762
Q 2066 2931 1784 2931
Q 1359 2931 1093 2626
Q 828 2322 828 1663
Q 828 994 1084 691
Q 1341 388 1753 388
Q 2084 388 2306 591
Q 2528 794 2588 1216
z
" transform="scale(0.015625)"/>
        <path id="ArialMT-6f" d="M 213 1659
Q 213 2581 725 3025
Q 1153 3394 1769 3394
Q 2453 3394 2887 2945
Q 3322 2497 3322 1706
Q 3322 1066 3130 698
Q 2938 331 2570 128
Q 2203 -75 1769 -75
Q 1072 -75 642 372
Q 213 819 213 1659
z
M 791 1659
Q 791 1022 1069 705
Q 1347 388 1769 388
Q 2188 388 2466 706
Q 2744 1025 2744 1678
Q 2744 2294 2464 2611
Q 2184 2928 1769 2928
Q 1347 2928 1069 2612
Q 791 2297 791 1659
z
" transform="scale(0.015625)"/>
        <path id="ArialMT-6e" d="M 422 0
L 422 3319
L 928 3319
L 928 2847
Q 1294 3394 1984 3394
Q 2284 3394 2536 3286
Q 2788 3178 2913 3003
Q 3038 2828 3088 2588
Q 3119 2431 3119 2041
L 3119 0
L 2556 0
L 2556 2019
Q 2556 2363 2490 2533
Q 2425 2703 2258 2804
Q 2091 2906 1866 2906
Q 1506 2906 1245 2678
Q 984 2450 984 1813
L 984 0
L 422 0
z
" transform="scale(0.015625)"/>
        <path id="ArialMT-74" d="M 1650 503
L 1731 6
Q 1494 -44 1306 -44
Q 1000 -44 831 53
Q 663 150 594 308
Q 525 466 525 972
L 525 2881
L 113 2881
L 113 3319
L 525 3319
L 525 4141
L 1084 4478
L 1084 3319
L 1650 3319
L 1650 2881
L 1084 2881
L 1084 941
Q 1084 700 1114 631
Q 1144 563 1211 522
Q 1278 481 1403 481
Q 1497 481 1650 503
z
" transform="scale(0.015625)"/>
        <path id="ArialMT-72" d="M 416 0
L 416 3319
L 922 3319
L 922 2816
Q 1116 3169 1280 3281
Q 1444 3394 1641 3394
Q 1925 3394 2219 3213
L 2025 2691
Q 1819 2813 1613 2813
Q 1428 2813 1281 2702
Q 1134 2591 1072 2394
Q 978 2094 978 1738
L 978 0
L 416 0
z
" transform="scale(0.015625)"/>
        <path id="ArialMT-6c" d="M 409 0
L 409 4581
L 972 4581
L 972 0
L 409 0
z
" transform="scale(0.015625)"/>
       </defs>
       <use xlink:href="#ArialMT-63"/>
       <use xlink:href="#ArialMT-6f" transform="translate(50 0)"/>
       <use xlink:href="#ArialMT-6e" transform="translate(105.615234 0)"/>
       <use xlink:href="#ArialMT-74" transform="translate(161.230469 0)"/>
       <use xlink:href="#ArialMT-72" transform="translate(189.013672 0)"/>
       <use xlink:href="#ArialMT-6f" transform="translate(222.314453 0)"/>
       <use xlink:href="#ArialMT-6c" transform="translate(277.929688 0)"/>
      </g>
     </g>
    </g>
    <g id="xtick_2">
     <g id="line2d_2"/>
     <g id="text_2">
      <!-- cond01 -->
      <g transform="translate(102.469725 210.071453) rotate(-45) scale(0.06 -0.06)">
       <defs>
        <path id="ArialMT-64" d="M 2575 0
L 2575 419
Q 2259 -75 1647 -75
Q 1250 -75 917 144
Q 584 363 401 755
Q 219 1147 219 1656
Q 219 2153 384 2558
Q 550 2963 881 3178
Q 1213 3394 1622 3394
Q 1922 3394 2156 3267
Q 2391 3141 2538 2938
L 2538 4581
L 3097 4581
L 3097 0
L 2575 0
z
M 797 1656
Q 797 1019 1065 703
Q 1334 388 1700 388
Q 2069 388 2326 689
Q 2584 991 2584 1609
Q 2584 2291 2321 2609
Q 2059 2928 1675 2928
Q 1300 2928 1048 2622
Q 797 2316 797 1656
z
" transform="scale(0.015625)"/>
        <path id="ArialMT-30" d="M 266 2259
Q 266 3072 433 3567
Q 600 4063 929 4331
Q 1259 4600 1759 4600
Q 2128 4600 2406 4451
Q 2684 4303 2865 4023
Q 3047 3744 3150 3342
Q 3253 2941 3253 2259
Q 3253 1453 3087 958
Q 2922 463 2592 192
Q 2263 -78 1759 -78
Q 1097 -78 719 397
Q 266 969 266 2259
z
M 844 2259
Q 844 1131 1108 757
Q 1372 384 1759 384
Q 2147 384 2411 759
Q 2675 1134 2675 2259
Q 2675 3391 2411 3762
Q 2147 4134 1753 4134
Q 1366 4134 1134 3806
Q 844 3388 844 2259
z
" transform="scale(0.015625)"/>
        <path id="ArialMT-31" d="M 2384 0
L 1822 0
L 1822 3584
Q 1619 3391 1289 3197
Q 959 3003 697 2906
L 697 3450
Q 1169 3672 1522 3987
Q 1875 4303 2022 4600
L 2384 4600
L 2384 0
z
" transform="scale(0.015625)"/>
       </defs>
       <use xlink:href="#ArialMT-63"/>
       <use xlink:href="#ArialMT-6f" transform="translate(50 0)"/>
       <use xlink:href="#ArialMT-6e" transform="translate(105.615234 0)"/>
       <use xlink:href="#ArialMT-64" transform="translate(161.230469 0)"/>
       <use xlink:href="#ArialMT-30" transform="translate(216.845703 0)"/>
       <use xlink:href="#ArialMT-31" transform="translate(272.460938 0)"/>
      </g>
     </g>
    </g>
    <g id="xtick_3">
     <g id="line2d_3"/>
     <g id="text_3">
      <!-- cond02 -->
      <g transform="translate(163.023034 210.071453) rotate(-45) scale(0.06 -0.06)">
       <defs>
        <path id="ArialMT-32" d="M 3222 541
L 3222 0
L 194 0
Q 188 203 259 391
Q 375 700 629 1000
Q 884 1300 1366 1694
Q 2113 2306 2375 2664
Q 2638 3022 2638 3341
Q 2638 3675 2398 3904
Q 2159 4134 1775 4134
Q 1369 4134 1125 3890
Q 881 3647 878 3216
L 300 3275
Q 359 3922 746 4261
Q 1134 4600 1788 4600
Q 2447 4600 2831 4234
Q 3216 3869 3216 3328
Q 3216 3053 3103 2787
Q 2991 2522 2730 2228
Q 2469 1934 1863 1422
Q 1356 997 1212 845
Q 1069 694 975 541
L 3222 541
z
" transform="scale(0.015625)"/>
       </defs>
       <use xlink:href="#ArialMT-63"/>
       <use xlink:href="#ArialMT-6f" transform="translate(50 0)"/>
       <use xlink:href="#ArialMT-6e" transform="translate(105.615234 0)"/>
       <use xlink:href="#ArialMT-64" transform="translate(161.230469 0)"/>
       <use xlink:href="#ArialMT-30" transform="translate(216.845703 0)"/>
       <use xlink:href="#ArialMT-32" transform="translate(272.460938 0)"/>
      </g>
     </g>
    </g>
   </g>
   <g id="matplotlib.axis_2">
    <g id="ytick_1">
     <g id="line2d_4"/>
     <g id="text_4">
      <!-- 0 -->
      <g transform="translate(28.633437 193.264144) scale(0.06 -0.06)">
       <use xlink:href="#ArialMT-30"/>
      </g>
     </g>
    </g>
    <g id="ytick_2">
     <g id="line2d_5"/>
     <g id="text_5">
      <!-- 20 -->
      <g transform="translate(25.296875 166.385889) scale(0.06 -0.06)">
       <use xlink:href="#ArialMT-32"/>
       <use xlink:href="#ArialMT-30" transform="translate(55.615234 0)"/>
      </g>
     </g>
    </g>
    <g id="ytick_3">
     <g id="line2d_6"/>
     <g id="text_6">
      <!-- 40 -->
      <g transform="translate(25.296875 139.507635) scale(0.06 -0.06)">
       <defs>
        <path id="ArialMT-34" d="M 2069 0
L 2069 1097
L 81 1097
L 81 1613
L 2172 4581
L 2631 4581
L 2631 1613
L 3250 1613
L 3250 1097
L 2631 1097
L 2631 0
L 2069 0
z
M 2069 1613
L 2069 3678
L 634 1613
L 2069 1613
z
" transform="scale(0.015625)"/>
       </defs>
       <use xlink:href="#ArialMT-34"/>
       <use xlink:href="#ArialMT-30" transform="translate(55.615234 0)"/>
      </g>
     </g>
    </g>
    <g id="ytick_4">
     <g id="line2d_7"/>
     <g id="text_7">
      <!-- 60 -->
      <g transform="translate(25.296875 112.62938) scale(0.06 -0.06)">
       <defs>
        <path id="ArialMT-36" d="M 3184 3459
L 2625 3416
Q 2550 3747 2413 3897
Q 2184 4138 1850 4138
Q 1581 4138 1378 3988
Q 1113 3794 959 3422
Q 806 3050 800 2363
Q 1003 2672 1297 2822
Q 1591 2972 1913 2972
Q 2475 2972 2870 2558
Q 3266 2144 3266 1488
Q 3266 1056 3080 686
Q 2894 316 2569 119
Q 2244 -78 1831 -78
Q 1128 -78 684 439
Q 241 956 241 2144
Q 241 3472 731 4075
Q 1159 4600 1884 4600
Q 2425 4600 2770 4297
Q 3116 3994 3184 3459
z
M 888 1484
Q 888 1194 1011 928
Q 1134 663 1356 523
Q 1578 384 1822 384
Q 2178 384 2434 671
Q 2691 959 2691 1453
Q 2691 1928 2437 2201
Q 2184 2475 1800 2475
Q 1419 2475 1153 2201
Q 888 1928 888 1484
z
" transform="scale(0.015625)"/>
       </defs>
       <use xlink:href="#ArialMT-36"/>
       <use xlink:href="#ArialMT-30" transform="translate(55.615234 0)"/>
      </g>
     </g>
    </g>
    <g id="ytick_5">
     <g id="line2d_8"/>
     <g id="text_8">
      <!-- 80 -->
      <g transform="translate(25.296875 85.751126) scale(0.06 -0.06)">
       <defs>
        <path id="ArialMT-38" d="M 1131 2484
Q 781 2613 612 2850
Q 444 3088 444 3419
Q 444 3919 803 4259
Q 1163 4600 1759 4600
Q 2359 4600 2725 4251
Q 3091 3903 3091 3403
Q 3091 3084 2923 2848
Q 2756 2613 2416 2484
Q 2838 2347 3058 2040
Q 3278 1734 3278 1309
Q 3278 722 2862 322
Q 2447 -78 1769 -78
Q 1091 -78 675 323
Q 259 725 259 1325
Q 259 1772 486 2073
Q 713 2375 1131 2484
z
M 1019 3438
Q 1019 3113 1228 2906
Q 1438 2700 1772 2700
Q 2097 2700 2305 2904
Q 2513 3109 2513 3406
Q 2513 3716 2298 3927
Q 2084 4138 1766 4138
Q 1444 4138 1231 3931
Q 1019 3725 1019 3438
z
M 838 1322
Q 838 1081 952 856
Q 1066 631 1291 507
Q 1516 384 1775 384
Q 2178 384 2440 643
Q 2703 903 2703 1303
Q 2703 1709 2433 1975
Q 2163 2241 1756 2241
Q 1359 2241 1098 1978
Q 838 1716 838 1322
z
" transform="scale(0.015625)"/>
       </defs>
       <use xlink:href="#ArialMT-38"/>
       <use xlink:href="#ArialMT-30" transform="translate(55.615234 0)"/>
      </g>
     </g>
    </g>
    <g id="ytick_6">
     <g id="line2d_9"/>
     <g id="text_9">
      <!-- 100 -->
      <g transform="translate(21.960313 58.872871) scale(0.06 -0.06)">
       <use xlink:href="#ArialMT-31"/>
       <use xlink:href="#ArialMT-30" transform="translate(55.615234 0)"/>
       <use xlink:href="#ArialMT-30" transform="translate(111.230469 0)"/>
      </g>
     </g>
    </g>
    <g id="text_10">
     <!-- % of population -->
     <g transform="translate(18.767812 137.882381) rotate(-90) scale(0.06 -0.06)">
      <defs>
       <path id="ArialMT-25" d="M 372 3481
Q 372 3972 619 4315
Q 866 4659 1334 4659
Q 1766 4659 2048 4351
Q 2331 4044 2331 3447
Q 2331 2866 2045 2552
Q 1759 2238 1341 2238
Q 925 2238 648 2547
Q 372 2856 372 3481
z
M 1350 4272
Q 1141 4272 1002 4090
Q 863 3909 863 3425
Q 863 2984 1003 2804
Q 1144 2625 1350 2625
Q 1563 2625 1702 2806
Q 1841 2988 1841 3469
Q 1841 3913 1700 4092
Q 1559 4272 1350 4272
z
M 1353 -169
L 3859 4659
L 4316 4659
L 1819 -169
L 1353 -169
z
M 3334 1075
Q 3334 1569 3581 1911
Q 3828 2253 4300 2253
Q 4731 2253 5014 1945
Q 5297 1638 5297 1041
Q 5297 459 5011 145
Q 4725 -169 4303 -169
Q 3888 -169 3611 142
Q 3334 453 3334 1075
z
M 4316 1866
Q 4103 1866 3964 1684
Q 3825 1503 3825 1019
Q 3825 581 3965 400
Q 4106 219 4313 219
Q 4528 219 4667 400
Q 4806 581 4806 1063
Q 4806 1506 4665 1686
Q 4525 1866 4316 1866
z
" transform="scale(0.015625)"/>
       <path id="ArialMT-20" transform="scale(0.015625)"/>
       <path id="ArialMT-66" d="M 556 0
L 556 2881
L 59 2881
L 59 3319
L 556 3319
L 556 3672
Q 556 4006 616 4169
Q 697 4388 901 4523
Q 1106 4659 1475 4659
Q 1713 4659 2000 4603
L 1916 4113
Q 1741 4144 1584 4144
Q 1328 4144 1222 4034
Q 1116 3925 1116 3625
L 1116 3319
L 1763 3319
L 1763 2881
L 1116 2881
L 1116 0
L 556 0
z
" transform="scale(0.015625)"/>
       <path id="ArialMT-70" d="M 422 -1272
L 422 3319
L 934 3319
L 934 2888
Q 1116 3141 1344 3267
Q 1572 3394 1897 3394
Q 2322 3394 2647 3175
Q 2972 2956 3137 2557
Q 3303 2159 3303 1684
Q 3303 1175 3120 767
Q 2938 359 2589 142
Q 2241 -75 1856 -75
Q 1575 -75 1351 44
Q 1128 163 984 344
L 984 -1272
L 422 -1272
z
M 931 1641
Q 931 1000 1190 694
Q 1450 388 1819 388
Q 2194 388 2461 705
Q 2728 1022 2728 1688
Q 2728 2322 2467 2637
Q 2206 2953 1844 2953
Q 1484 2953 1207 2617
Q 931 2281 931 1641
z
" transform="scale(0.015625)"/>
       <path id="ArialMT-75" d="M 2597 0
L 2597 488
Q 2209 -75 1544 -75
Q 1250 -75 995 37
Q 741 150 617 320
Q 494 491 444 738
Q 409 903 409 1263
L 409 3319
L 972 3319
L 972 1478
Q 972 1038 1006 884
Q 1059 663 1231 536
Q 1403 409 1656 409
Q 1909 409 2131 539
Q 2353 669 2445 892
Q 2538 1116 2538 1541
L 2538 3319
L 3100 3319
L 3100 0
L 2597 0
z
" transform="scale(0.015625)"/>
       <path id="ArialMT-61" d="M 2588 409
Q 2275 144 1986 34
Q 1697 -75 1366 -75
Q 819 -75 525 192
Q 231 459 231 875
Q 231 1119 342 1320
Q 453 1522 633 1644
Q 813 1766 1038 1828
Q 1203 1872 1538 1913
Q 2219 1994 2541 2106
Q 2544 2222 2544 2253
Q 2544 2597 2384 2738
Q 2169 2928 1744 2928
Q 1347 2928 1158 2789
Q 969 2650 878 2297
L 328 2372
Q 403 2725 575 2942
Q 747 3159 1072 3276
Q 1397 3394 1825 3394
Q 2250 3394 2515 3294
Q 2781 3194 2906 3042
Q 3031 2891 3081 2659
Q 3109 2516 3109 2141
L 3109 1391
Q 3109 606 3145 398
Q 3181 191 3288 0
L 2700 0
Q 2613 175 2588 409
z
M 2541 1666
Q 2234 1541 1622 1453
Q 1275 1403 1131 1340
Q 988 1278 909 1158
Q 831 1038 831 891
Q 831 666 1001 516
Q 1172 366 1500 366
Q 1825 366 2078 508
Q 2331 650 2450 897
Q 2541 1088 2541 1459
L 2541 1666
z
" transform="scale(0.015625)"/>
       <path id="ArialMT-69" d="M 425 3934
L 425 4581
L 988 4581
L 988 3934
L 425 3934
z
M 425 0
L 425 3319
L 988 3319
L 988 0
L 425 0
z
" transform="scale(0.015625)"/>
      </defs>
      <use xlink:href="#ArialMT-25"/>
      <use xlink:href="#ArialMT-20" transform="translate(88.916016 0)"/>
      <use xlink:href="#ArialMT-6f" transform="translate(116.699219 0)"/>
      <use xlink:href="#ArialMT-66" transform="translate(172.314453 0)"/>
      <use xlink:href="#ArialMT-20" transform="translate(200.097656 0)"/>
      <use xlink:href="#ArialMT-70" transform="translate(227.880859 0)"/>
      <use xlink:href="#ArialMT-6f" transform="translate(283.496094 0)"/>
      <use xlink:href="#ArialMT-70" transform="translate(339.111328 0)"/>
      <use xlink:href="#ArialMT-75" transform="translate(394.726562 0)"/>
      <use xlink:href="#ArialMT-6c" transform="translate(450.341797 0)"/>
      <use xlink:href="#ArialMT-61" transform="translate(472.558594 0)"/>
      <use xlink:href="#ArialMT-74" transform="translate(528.173828 0)"/>
      <use xlink:href="#ArialMT-69" transform="translate(555.957031 0)"/>
      <use xlink:href="#ArialMT-6f" transform="translate(578.173828 0)"/>
      <use xlink:href="#ArialMT-6e" transform="translate(633.789062 0)"/>
     </g>
    </g>
   </g>
   <g id="LineCollection_1">
    <path d="M 56.677491 187.634494
L 56.677491 185.885414
" clip-path="url(#pab30bf2ff6)" style="fill: none; stroke: #000000; stroke-width: 0.5"/>
    <path d="M 117.2308 175.064093
L 117.2308 163.646359
" clip-path="url(#pab30bf2ff6)" style="fill: none; stroke: #000000; stroke-width: 0.5"/>
    <path d="M 177.784109 188.559196
L 177.784109 186.563748
" clip-path="url(#pab30bf2ff6)" style="fill: none; stroke: #000000; stroke-width: 0.5"/>
   </g>
   <g id="line2d_10">
    <defs>
     <path id="m65e73292d8" d="M 3 0
L -3 -0
" style="stroke: #000000"/>
    </defs>
    <g clip-path="url(#pab30bf2ff6)">
     <use xlink:href="#m65e73292d8" x="56.677491" y="187.634494" style="stroke: #000000"/>
     <use xlink:href="#m65e73292d8" x="117.2308" y="175.064093" style="stroke: #000000"/>
     <use xlink:href="#m65e73292d8" x="177.784109" y="188.559196" style="stroke: #000000"/>
    </g>
   </g>
   <g id="line2d_11">
    <g clip-path="url(#pab30bf2ff6)">
     <use xlink:href="#m65e73292d8" x="56.677491" y="185.885414" style="stroke: #000000"/>
     <use xlink:href="#m65e73292d8" x="117.2308" y="163.646359" style="stroke: #000000"/>
     <use xlink:href="#m65e73292d8" x="177.784109" y="186.563748" style="stroke: #000000"/>
    </g>
   </g>
   <g id="LineCollection_2">
    <path d="M 56.677491 162.884312
L 56.677491 161.351582
" clip-path="url(#pab30bf2ff6)" style="fill: none; stroke: #000000; stroke-width: 0.5"/>
    <path d="M 117.2308 140.319886
L 117.2308 135.183032
" clip-path="url(#pab30bf2ff6)" style="fill: none; stroke: #000000; stroke-width: 0.5"/>
    <path d="M 177.784109 172.437301
L 177.784109 168.979986
" clip-path="url(#pab30bf2ff6)" style="fill: none; stroke: #000000; stroke-width: 0.5"/>
   </g>
   <g id="line2d_12">
    <g clip-path="url(#pab30bf2ff6)">
     <use xlink:href="#m65e73292d8" x="56.677491" y="162.884312" style="stroke: #000000"/>
     <use xlink:href="#m65e73292d8" x="117.2308" y="140.319886" style="stroke: #000000"/>
     <use xlink:href="#m65e73292d8" x="177.784109" y="172.437301" style="stroke: #000000"/>
    </g>
   </g>
   <g id="line2d_13">
    <g clip-path="url(#pab30bf2ff6)">
     <use xlink:href="#m65e73292d8" x="56.677491" y="161.351582" style="stroke: #000000"/>
     <use xlink:href="#m65e73292d8" x="117.2308" y="135.183032" style="stroke: #000000"/>
     <use xlink:href="#m65e73292d8" x="177.784109" y="168.979986" style="stroke: #000000"/>
    </g>
   </g>
   <g id="LineCollection_3">
    <path d="M 56.677491 138.458776
L 56.677491 130.868698
" clip-path="url(#pab30bf2ff6)" style="fill: none; stroke: #000000; stroke-width: 0.5"/>
    <path d="M 117.2308 127.193644
L 117.2308 123.144355
" clip-path="url(#pab30bf2ff6)" style="fill: none; stroke: #000000; stroke-width: 0.5"/>
    <path d="M 177.784109 156.422638
L 177.784109 148.923336
" clip-path="url(#pab30bf2ff6)" style="fill: none; stroke: #000000; stroke-width: 0.5"/>
   </g>
   <g id="line2d_14">
    <g clip-path="url(#pab30bf2ff6)">
     <use xlink:href="#m65e73292d8" x="56.677491" y="138.458776" style="stroke: #000000"/>
     <use xlink:href="#m65e73292d8" x="117.2308" y="127.193644" style="stroke: #000000"/>
     <use xlink:href="#m65e73292d8" x="177.784109" y="156.422638" style="stroke: #000000"/>
    </g>
   </g>
   <g id="line2d_15">
    <g clip-path="url(#pab30bf2ff6)">
     <use xlink:href="#m65e73292d8" x="56.677491" y="130.868698" style="stroke: #000000"/>
     <use xlink:href="#m65e73292d8" x="117.2308" y="123.144355" style="stroke: #000000"/>
     <use xlink:href="#m65e73292d8" x="177.784109" y="148.923336" style="stroke: #000000"/>
    </g>
   </g>
   <g id="LineCollection_4">
    <path d="M 56.677491 61.396446
L 56.677491 54.2978
" clip-path="url(#pab30bf2ff6)" style="fill: none; stroke: #000000; stroke-width: 0.5"/>
    <path d="M 117.2308 63.846578
L 117.2308 54.682019
" clip-path="url(#pab30bf2ff6)" style="fill: none; stroke: #000000; stroke-width: 0.5"/>
    <path d="M 177.784109 63.325379
L 177.784109 50.63935
" clip-path="url(#pab30bf2ff6)" style="fill: none; stroke: #000000; stroke-width: 0.5"/>
   </g>
   <g id="line2d_16">
    <g clip-path="url(#pab30bf2ff6)">
     <use xlink:href="#m65e73292d8" x="56.677491" y="61.396446" style="stroke: #000000"/>
     <use xlink:href="#m65e73292d8" x="117.2308" y="63.846578" style="stroke: #000000"/>
     <use xlink:href="#m65e73292d8" x="177.784109" y="63.325379" style="stroke: #000000"/>
    </g>
   </g>
   <g id="line2d_17">
    <g clip-path="url(#pab30bf2ff6)">
     <use xlink:href="#m65e73292d8" x="56.677491" y="54.2978" style="stroke: #000000"/>
     <use xlink:href="#m65e73292d8" x="117.2308" y="54.682019" style="stroke: #000000"/>
     <use xlink:href="#m65e73292d8" x="177.784109" y="50.63935" style="stroke: #000000"/>
    </g>
   </g>
   <g id="LineCollection_5">
    <path d="M 56.677491 57.264783
L 56.677491 56.186272
" clip-path="url(#pab30bf2ff6)" style="fill: none; stroke: #000000; stroke-width: 0.5"/>
    <path d="M 117.2308 56.967854
L 117.2308 56.4832
" clip-path="url(#pab30bf2ff6)" style="fill: none; stroke: #000000; stroke-width: 0.5"/>
    <path d="M 177.784109 56.793374
L 177.784109 56.65768
" clip-path="url(#pab30bf2ff6)" style="fill: none; stroke: #000000; stroke-width: 0.5"/>
   </g>
   <g id="line2d_18">
    <g clip-path="url(#pab30bf2ff6)">
     <use xlink:href="#m65e73292d8" x="56.677491" y="57.264783" style="stroke: #000000"/>
     <use xlink:href="#m65e73292d8" x="117.2308" y="56.967854" style="stroke: #000000"/>
     <use xlink:href="#m65e73292d8" x="177.784109" y="56.793374" style="stroke: #000000"/>
    </g>
   </g>
   <g id="line2d_19">
    <g clip-path="url(#pab30bf2ff6)">
     <use xlink:href="#m65e73292d8" x="56.677491" y="56.186272" style="stroke: #000000"/>
     <use xlink:href="#m65e73292d8" x="117.2308" y="56.4832" style="stroke: #000000"/>
     <use xlink:href="#m65e73292d8" x="177.784109" y="56.65768" style="stroke: #000000"/>
    </g>
   </g>
   <g id="patch_18">
    <path d="M 33.97 191.1168
L 33.97 43.2864
" style="fill: none; stroke: #000000; stroke-width: 0.5; stroke-linejoin: miter; stroke-linecap: square"/>
   </g>
   <g id="patch_19">
    <path d="M 33.97 191.1168
L 200.4916 191.1168
" style="fill: none; stroke: #000000; stroke-width: 0.5; stroke-linejoin: miter; stroke-linecap: square"/>
   </g>
   <g id="legend_1">
    <g id="patch_20">
     <path d="M 213.01768 91.723275
L 261.102055 91.723275
Q 262.302055 91.723275 262.302055 90.523275
L 262.302055 47.4864
Q 262.302055 46.2864 261.102055 46.2864
L 213.01768 46.2864
Q 211.81768 46.2864 211.81768 47.4864
L 211.81768 90.523275
Q 211.81768 91.723275 213.01768 91.723275
z
" style="fill: #ffffff; stroke: #cccccc; stroke-linejoin: miter"/>
    </g>
    <g id="text_11">
     <!-- Cell Cycle Phase -->
     <g transform="translate(214.21768 53.054213) scale(0.06 -0.06)">
      <defs>
       <path id="ArialMT-43" d="M 3763 1606
L 4369 1453
Q 4178 706 3683 314
Q 3188 -78 2472 -78
Q 1731 -78 1267 223
Q 803 525 561 1097
Q 319 1669 319 2325
Q 319 3041 592 3573
Q 866 4106 1370 4382
Q 1875 4659 2481 4659
Q 3169 4659 3637 4309
Q 4106 3959 4291 3325
L 3694 3184
Q 3534 3684 3231 3912
Q 2928 4141 2469 4141
Q 1941 4141 1586 3887
Q 1231 3634 1087 3207
Q 944 2781 944 2328
Q 944 1744 1114 1308
Q 1284 872 1643 656
Q 2003 441 2422 441
Q 2931 441 3284 734
Q 3638 1028 3763 1606
z
" transform="scale(0.015625)"/>
       <path id="ArialMT-65" d="M 2694 1069
L 3275 997
Q 3138 488 2766 206
Q 2394 -75 1816 -75
Q 1088 -75 661 373
Q 234 822 234 1631
Q 234 2469 665 2931
Q 1097 3394 1784 3394
Q 2450 3394 2872 2941
Q 3294 2488 3294 1666
Q 3294 1616 3291 1516
L 816 1516
Q 847 969 1125 678
Q 1403 388 1819 388
Q 2128 388 2347 550
Q 2566 713 2694 1069
z
M 847 1978
L 2700 1978
Q 2663 2397 2488 2606
Q 2219 2931 1791 2931
Q 1403 2931 1139 2672
Q 875 2413 847 1978
z
" transform="scale(0.015625)"/>
       <path id="ArialMT-79" d="M 397 -1278
L 334 -750
Q 519 -800 656 -800
Q 844 -800 956 -737
Q 1069 -675 1141 -563
Q 1194 -478 1313 -144
Q 1328 -97 1363 -6
L 103 3319
L 709 3319
L 1400 1397
Q 1534 1031 1641 628
Q 1738 1016 1872 1384
L 2581 3319
L 3144 3319
L 1881 -56
Q 1678 -603 1566 -809
Q 1416 -1088 1222 -1217
Q 1028 -1347 759 -1347
Q 597 -1347 397 -1278
z
" transform="scale(0.015625)"/>
       <path id="ArialMT-50" d="M 494 0
L 494 4581
L 2222 4581
Q 2678 4581 2919 4538
Q 3256 4481 3484 4323
Q 3713 4166 3852 3881
Q 3991 3597 3991 3256
Q 3991 2672 3619 2267
Q 3247 1863 2275 1863
L 1100 1863
L 1100 0
L 494 0
z
M 1100 2403
L 2284 2403
Q 2872 2403 3119 2622
Q 3366 2841 3366 3238
Q 3366 3525 3220 3729
Q 3075 3934 2838 4000
Q 2684 4041 2272 4041
L 1100 4041
L 1100 2403
z
" transform="scale(0.015625)"/>
       <path id="ArialMT-68" d="M 422 0
L 422 4581
L 984 4581
L 984 2938
Q 1378 3394 1978 3394
Q 2347 3394 2619 3248
Q 2891 3103 3008 2847
Q 3125 2591 3125 2103
L 3125 0
L 2563 0
L 2563 2103
Q 2563 2525 2380 2717
Q 2197 2909 1863 2909
Q 1613 2909 1392 2779
Q 1172 2650 1078 2428
Q 984 2206 984 1816
L 984 0
L 422 0
z
" transform="scale(0.015625)"/>
       <path id="ArialMT-73" d="M 197 991
L 753 1078
Q 800 744 1014 566
Q 1228 388 1613 388
Q 2000 388 2187 545
Q 2375 703 2375 916
Q 2375 1106 2209 1216
Q 2094 1291 1634 1406
Q 1016 1563 777 1677
Q 538 1791 414 1992
Q 291 2194 291 2438
Q 291 2659 392 2848
Q 494 3038 669 3163
Q 800 3259 1026 3326
Q 1253 3394 1513 3394
Q 1903 3394 2198 3281
Q 2494 3169 2634 2976
Q 2775 2784 2828 2463
L 2278 2388
Q 2241 2644 2061 2787
Q 1881 2931 1553 2931
Q 1166 2931 1000 2803
Q 834 2675 834 2503
Q 834 2394 903 2306
Q 972 2216 1119 2156
Q 1203 2125 1616 2013
Q 2213 1853 2448 1751
Q 2684 1650 2818 1456
Q 2953 1263 2953 975
Q 2953 694 2789 445
Q 2625 197 2315 61
Q 2006 -75 1616 -75
Q 969 -75 630 194
Q 291 463 197 991
z
" transform="scale(0.015625)"/>
      </defs>
      <use xlink:href="#ArialMT-43"/>
      <use xlink:href="#ArialMT-65" transform="translate(72.216797 0)"/>
      <use xlink:href="#ArialMT-6c" transform="translate(127.832031 0)"/>
      <use xlink:href="#ArialMT-6c" transform="translate(150.048828 0)"/>
      <use xlink:href="#ArialMT-20" transform="translate(172.265625 0)"/>
      <use xlink:href="#ArialMT-43" transform="translate(200.048828 0)"/>
      <use xlink:href="#ArialMT-79" transform="translate(272.265625 0)"/>
      <use xlink:href="#ArialMT-63" transform="translate(322.265625 0)"/>
      <use xlink:href="#ArialMT-6c" transform="translate(372.265625 0)"/>
      <use xlink:href="#ArialMT-65" transform="translate(394.482422 0)"/>
      <use xlink:href="#ArialMT-20" transform="translate(450.097656 0)"/>
      <use xlink:href="#ArialMT-50" transform="translate(477.880859 0)"/>
      <use xlink:href="#ArialMT-68" transform="translate(544.580078 0)"/>
      <use xlink:href="#ArialMT-61" transform="translate(600.195312 0)"/>
      <use xlink:href="#ArialMT-73" transform="translate(655.810547 0)"/>
      <use xlink:href="#ArialMT-65" transform="translate(705.810547 0)"/>
     </g>
    </g>
    <g id="patch_21">
     <path d="M 216.485961 60.111713
L 228.485961 60.111713
L 228.485961 55.911713
L 216.485961 55.911713
z
" style="fill: #ffb6c1; opacity: 0.9; stroke: #ffffff; stroke-width: 0.2; stroke-linejoin: miter"/>
    </g>
    <g id="text_12">
     <!-- Sub-G1 -->
     <g transform="translate(233.285961 60.111713) scale(0.06 -0.06)">
      <defs>
       <path id="ArialMT-53" d="M 288 1472
L 859 1522
Q 900 1178 1048 958
Q 1197 738 1509 602
Q 1822 466 2213 466
Q 2559 466 2825 569
Q 3091 672 3220 851
Q 3350 1031 3350 1244
Q 3350 1459 3225 1620
Q 3100 1781 2813 1891
Q 2628 1963 1997 2114
Q 1366 2266 1113 2400
Q 784 2572 623 2826
Q 463 3081 463 3397
Q 463 3744 659 4045
Q 856 4347 1234 4503
Q 1613 4659 2075 4659
Q 2584 4659 2973 4495
Q 3363 4331 3572 4012
Q 3781 3694 3797 3291
L 3216 3247
Q 3169 3681 2898 3903
Q 2628 4125 2100 4125
Q 1550 4125 1298 3923
Q 1047 3722 1047 3438
Q 1047 3191 1225 3031
Q 1400 2872 2139 2705
Q 2878 2538 3153 2413
Q 3553 2228 3743 1945
Q 3934 1663 3934 1294
Q 3934 928 3725 604
Q 3516 281 3123 101
Q 2731 -78 2241 -78
Q 1619 -78 1198 103
Q 778 284 539 648
Q 300 1013 288 1472
z
" transform="scale(0.015625)"/>
       <path id="ArialMT-62" d="M 941 0
L 419 0
L 419 4581
L 981 4581
L 981 2947
Q 1338 3394 1891 3394
Q 2197 3394 2470 3270
Q 2744 3147 2920 2923
Q 3097 2700 3197 2384
Q 3297 2069 3297 1709
Q 3297 856 2875 390
Q 2453 -75 1863 -75
Q 1275 -75 941 416
L 941 0
z
M 934 1684
Q 934 1088 1097 822
Q 1363 388 1816 388
Q 2184 388 2453 708
Q 2722 1028 2722 1663
Q 2722 2313 2464 2622
Q 2206 2931 1841 2931
Q 1472 2931 1203 2611
Q 934 2291 934 1684
z
" transform="scale(0.015625)"/>
       <path id="ArialMT-2d" d="M 203 1375
L 203 1941
L 1931 1941
L 1931 1375
L 203 1375
z
" transform="scale(0.015625)"/>
       <path id="ArialMT-47" d="M 2638 1797
L 2638 2334
L 4578 2338
L 4578 638
Q 4131 281 3656 101
Q 3181 -78 2681 -78
Q 2006 -78 1454 211
Q 903 500 622 1047
Q 341 1594 341 2269
Q 341 2938 620 3517
Q 900 4097 1425 4378
Q 1950 4659 2634 4659
Q 3131 4659 3532 4498
Q 3934 4338 4162 4050
Q 4391 3763 4509 3300
L 3963 3150
Q 3859 3500 3706 3700
Q 3553 3900 3268 4020
Q 2984 4141 2638 4141
Q 2222 4141 1919 4014
Q 1616 3888 1430 3681
Q 1244 3475 1141 3228
Q 966 2803 966 2306
Q 966 1694 1177 1281
Q 1388 869 1791 669
Q 2194 469 2647 469
Q 3041 469 3416 620
Q 3791 772 3984 944
L 3984 1797
L 2638 1797
z
" transform="scale(0.015625)"/>
      </defs>
      <use xlink:href="#ArialMT-53"/>
      <use xlink:href="#ArialMT-75" transform="translate(66.699219 0)"/>
      <use xlink:href="#ArialMT-62" transform="translate(122.314453 0)"/>
      <use xlink:href="#ArialMT-2d" transform="translate(177.929688 0)"/>
      <use xlink:href="#ArialMT-47" transform="translate(211.230469 0)"/>
      <use xlink:href="#ArialMT-31" transform="translate(289.013672 0)"/>
     </g>
    </g>
    <g id="patch_22">
     <path d="M 216.485961 67.0989
L 228.485961 67.0989
L 228.485961 62.8989
L 216.485961 62.8989
z
" style="fill: #87ceeb; opacity: 0.9; stroke: #ffffff; stroke-width: 0.2; stroke-linejoin: miter"/>
    </g>
    <g id="text_13">
     <!-- G1 -->
     <g transform="translate(233.285961 67.0989) scale(0.06 -0.06)">
      <use xlink:href="#ArialMT-47"/>
      <use xlink:href="#ArialMT-31" transform="translate(77.783203 0)"/>
     </g>
    </g>
    <g id="patch_23">
     <path d="M 216.485961 74.086088
L 228.485961 74.086088
L 228.485961 69.886088
L 216.485961 69.886088
z
" style="fill: #98fb98; opacity: 0.9; stroke: #ffffff; stroke-width: 0.2; stroke-linejoin: miter"/>
    </g>
    <g id="text_14">
     <!-- S -->
     <g transform="translate(233.285961 74.086088) scale(0.06 -0.06)">
      <use xlink:href="#ArialMT-53"/>
     </g>
    </g>
    <g id="patch_24">
     <path d="M 216.485961 81.073275
L 228.485961 81.073275
L 228.485961 76.873275
L 216.485961 76.873275
z
" style="fill: #f0e68c; opacity: 0.9; stroke: #ffffff; stroke-width: 0.2; stroke-linejoin: miter"/>
    </g>
    <g id="text_15">
     <!-- G2/M -->
     <g transform="translate(233.285961 81.073275) scale(0.06 -0.06)">
      <defs>
       <path id="ArialMT-2f" d="M 0 -78
L 1328 4659
L 1778 4659
L 453 -78
L 0 -78
z
" transform="scale(0.015625)"/>
       <path id="ArialMT-4d" d="M 475 0
L 475 4581
L 1388 4581
L 2472 1338
Q 2622 884 2691 659
Q 2769 909 2934 1394
L 4031 4581
L 4847 4581
L 4847 0
L 4263 0
L 4263 3834
L 2931 0
L 2384 0
L 1059 3900
L 1059 0
L 475 0
z
" transform="scale(0.015625)"/>
      </defs>
      <use xlink:href="#ArialMT-47"/>
      <use xlink:href="#ArialMT-32" transform="translate(77.783203 0)"/>
      <use xlink:href="#ArialMT-2f" transform="translate(133.398438 0)"/>
      <use xlink:href="#ArialMT-4d" transform="translate(161.181641 0)"/>
     </g>
    </g>
    <g id="patch_25">
     <path d="M 216.485961 88.060462
L 228.485961 88.060462
L 228.485961 83.860462
L 216.485961 83.860462
z
" style="fill: #dda0dd; opacity: 0.9; stroke: #ffffff; stroke-width: 0.2; stroke-linejoin: miter"/>
    </g>
    <g id="text_16">
     <!-- Polyploid -->
     <g transform="translate(233.285961 88.060462) scale(0.06 -0.06)">
      <use xlink:href="#ArialMT-50"/>
      <use xlink:href="#ArialMT-6f" transform="translate(66.699219 0)"/>
      <use xlink:href="#ArialMT-6c" transform="translate(122.314453 0)"/>
      <use xlink:href="#ArialMT-79" transform="translate(144.53125 0)"/>
      <use xlink:href="#ArialMT-70" transform="translate(194.53125 0)"/>
      <use xlink:href="#ArialMT-6c" transform="translate(250.146484 0)"/>
      <use xlink:href="#ArialMT-6f" transform="translate(272.363281 0)"/>
      <use xlink:href="#ArialMT-69" transform="translate(327.978516 0)"/>
      <use xlink:href="#ArialMT-64" transform="translate(350.195312 0)"/>
     </g>
    </g>
   </g>
  </g>
  <g id="text_17">
   <!-- cellcycle stacked custom colors -->
   <g transform="translate(32.2708 19.410469) scale(0.07 -0.07)">
    <defs>
     <path id="Arial-BoldMT-63" d="M 3353 2338
L 2488 2181
Q 2444 2441 2289 2572
Q 2134 2703 1888 2703
Q 1559 2703 1364 2476
Q 1169 2250 1169 1719
Q 1169 1128 1367 884
Q 1566 641 1900 641
Q 2150 641 2309 783
Q 2469 925 2534 1272
L 3397 1125
Q 3263 531 2881 228
Q 2500 -75 1859 -75
Q 1131 -75 698 384
Q 266 844 266 1656
Q 266 2478 700 2936
Q 1134 3394 1875 3394
Q 2481 3394 2839 3133
Q 3197 2872 3353 2338
z
" transform="scale(0.015625)"/>
     <path id="Arial-BoldMT-65" d="M 2381 1056
L 3256 909
Q 3088 428 2723 176
Q 2359 -75 1813 -75
Q 947 -75 531 491
Q 203 944 203 1634
Q 203 2459 634 2926
Q 1066 3394 1725 3394
Q 2466 3394 2894 2905
Q 3322 2416 3303 1406
L 1103 1406
Q 1113 1016 1316 798
Q 1519 581 1822 581
Q 2028 581 2168 693
Q 2309 806 2381 1056
z
M 2431 1944
Q 2422 2325 2234 2523
Q 2047 2722 1778 2722
Q 1491 2722 1303 2513
Q 1116 2303 1119 1944
L 2431 1944
z
" transform="scale(0.015625)"/>
     <path id="Arial-BoldMT-6c" d="M 459 0
L 459 4581
L 1338 4581
L 1338 0
L 459 0
z
" transform="scale(0.015625)"/>
     <path id="Arial-BoldMT-79" d="M 44 3319
L 978 3319
L 1772 963
L 2547 3319
L 3456 3319
L 2284 125
L 2075 -453
Q 1959 -744 1854 -897
Q 1750 -1050 1614 -1145
Q 1478 -1241 1279 -1294
Q 1081 -1347 831 -1347
Q 578 -1347 334 -1294
L 256 -606
Q 463 -647 628 -647
Q 934 -647 1081 -467
Q 1228 -288 1306 -9
L 44 3319
z
" transform="scale(0.015625)"/>
     <path id="Arial-BoldMT-20" transform="scale(0.015625)"/>
     <path id="Arial-BoldMT-73" d="M 150 947
L 1031 1081
Q 1088 825 1259 692
Q 1431 559 1741 559
Q 2081 559 2253 684
Q 2369 772 2369 919
Q 2369 1019 2306 1084
Q 2241 1147 2013 1200
Q 950 1434 666 1628
Q 272 1897 272 2375
Q 272 2806 612 3100
Q 953 3394 1669 3394
Q 2350 3394 2681 3172
Q 3013 2950 3138 2516
L 2309 2363
Q 2256 2556 2107 2659
Q 1959 2763 1684 2763
Q 1338 2763 1188 2666
Q 1088 2597 1088 2488
Q 1088 2394 1175 2328
Q 1294 2241 1995 2081
Q 2697 1922 2975 1691
Q 3250 1456 3250 1038
Q 3250 581 2869 253
Q 2488 -75 1741 -75
Q 1063 -75 667 200
Q 272 475 150 947
z
" transform="scale(0.015625)"/>
     <path id="Arial-BoldMT-74" d="M 1981 3319
L 1981 2619
L 1381 2619
L 1381 1281
Q 1381 875 1398 808
Q 1416 741 1477 697
Q 1538 653 1625 653
Q 1747 653 1978 738
L 2053 56
Q 1747 -75 1359 -75
Q 1122 -75 931 4
Q 741 84 652 211
Q 563 338 528 553
Q 500 706 500 1172
L 500 2619
L 97 2619
L 97 3319
L 500 3319
L 500 3978
L 1381 4491
L 1381 3319
L 1981 3319
z
" transform="scale(0.015625)"/>
     <path id="Arial-BoldMT-61" d="M 1116 2306
L 319 2450
Q 453 2931 781 3162
Q 1109 3394 1756 3394
Q 2344 3394 2631 3255
Q 2919 3116 3036 2902
Q 3153 2688 3153 2116
L 3144 1091
Q 3144 653 3186 445
Q 3228 238 3344 0
L 2475 0
Q 2441 88 2391 259
Q 2369 338 2359 363
Q 2134 144 1878 34
Q 1622 -75 1331 -75
Q 819 -75 523 203
Q 228 481 228 906
Q 228 1188 362 1408
Q 497 1628 739 1745
Q 981 1863 1438 1950
Q 2053 2066 2291 2166
L 2291 2253
Q 2291 2506 2166 2614
Q 2041 2722 1694 2722
Q 1459 2722 1328 2630
Q 1197 2538 1116 2306
z
M 2291 1594
Q 2122 1538 1756 1459
Q 1391 1381 1278 1306
Q 1106 1184 1106 997
Q 1106 813 1243 678
Q 1381 544 1594 544
Q 1831 544 2047 700
Q 2206 819 2256 991
Q 2291 1103 2291 1419
L 2291 1594
z
" transform="scale(0.015625)"/>
     <path id="Arial-BoldMT-6b" d="M 428 0
L 428 4581
L 1306 4581
L 1306 2150
L 2334 3319
L 3416 3319
L 2281 2106
L 3497 0
L 2550 0
L 1716 1491
L 1306 1063
L 1306 0
L 428 0
z
" transform="scale(0.015625)"/>
     <path id="Arial-BoldMT-64" d="M 3503 0
L 2688 0
L 2688 488
Q 2484 203 2207 64
Q 1931 -75 1650 -75
Q 1078 -75 670 386
Q 263 847 263 1672
Q 263 2516 659 2955
Q 1056 3394 1663 3394
Q 2219 3394 2625 2931
L 2625 4581
L 3503 4581
L 3503 0
z
M 1159 1731
Q 1159 1200 1306 963
Q 1519 619 1900 619
Q 2203 619 2415 876
Q 2628 1134 2628 1647
Q 2628 2219 2422 2470
Q 2216 2722 1894 2722
Q 1581 2722 1370 2473
Q 1159 2225 1159 1731
z
" transform="scale(0.015625)"/>
     <path id="Arial-BoldMT-75" d="M 2644 0
L 2644 497
Q 2463 231 2167 78
Q 1872 -75 1544 -75
Q 1209 -75 943 72
Q 678 219 559 484
Q 441 750 441 1219
L 441 3319
L 1319 3319
L 1319 1794
Q 1319 1094 1367 936
Q 1416 778 1544 686
Q 1672 594 1869 594
Q 2094 594 2272 717
Q 2450 841 2515 1023
Q 2581 1206 2581 1919
L 2581 3319
L 3459 3319
L 3459 0
L 2644 0
z
" transform="scale(0.015625)"/>
     <path id="Arial-BoldMT-6f" d="M 256 1706
Q 256 2144 472 2553
Q 688 2963 1083 3178
Q 1478 3394 1966 3394
Q 2719 3394 3200 2905
Q 3681 2416 3681 1669
Q 3681 916 3195 420
Q 2709 -75 1972 -75
Q 1516 -75 1102 131
Q 688 338 472 736
Q 256 1134 256 1706
z
M 1156 1659
Q 1156 1166 1390 903
Q 1625 641 1969 641
Q 2313 641 2545 903
Q 2778 1166 2778 1666
Q 2778 2153 2545 2415
Q 2313 2678 1969 2678
Q 1625 2678 1390 2415
Q 1156 2153 1156 1659
z
" transform="scale(0.015625)"/>
     <path id="Arial-BoldMT-6d" d="M 394 3319
L 1203 3319
L 1203 2866
Q 1638 3394 2238 3394
Q 2556 3394 2790 3262
Q 3025 3131 3175 2866
Q 3394 3131 3647 3262
Q 3900 3394 4188 3394
Q 4553 3394 4806 3245
Q 5059 3097 5184 2809
Q 5275 2597 5275 2122
L 5275 0
L 4397 0
L 4397 1897
Q 4397 2391 4306 2534
Q 4184 2722 3931 2722
Q 3747 2722 3584 2609
Q 3422 2497 3350 2280
Q 3278 2063 3278 1594
L 3278 0
L 2400 0
L 2400 1819
Q 2400 2303 2353 2443
Q 2306 2584 2207 2653
Q 2109 2722 1941 2722
Q 1738 2722 1575 2612
Q 1413 2503 1342 2297
Q 1272 2091 1272 1613
L 1272 0
L 394 0
L 394 3319
z
" transform="scale(0.015625)"/>
     <path id="Arial-BoldMT-72" d="M 1300 0
L 422 0
L 422 3319
L 1238 3319
L 1238 2847
Q 1447 3181 1614 3287
Q 1781 3394 1994 3394
Q 2294 3394 2572 3228
L 2300 2463
Q 2078 2606 1888 2606
Q 1703 2606 1575 2504
Q 1447 2403 1373 2137
Q 1300 1872 1300 1025
L 1300 0
z
" transform="scale(0.015625)"/>
    </defs>
    <use xlink:href="#Arial-BoldMT-63"/>
    <use xlink:href="#Arial-BoldMT-65" transform="translate(55.615234 0)"/>
    <use xlink:href="#Arial-BoldMT-6c" transform="translate(111.230469 0)"/>
    <use xlink:href="#Arial-BoldMT-6c" transform="translate(139.013672 0)"/>
    <use xlink:href="#Arial-BoldMT-63" transform="translate(166.796875 0)"/>
    <use xlink:href="#Arial-BoldMT-79" transform="translate(222.412109 0)"/>
    <use xlink:href="#Arial-BoldMT-63" transform="translate(278.027344 0)"/>
    <use xlink:href="#Arial-BoldMT-6c" transform="translate(333.642578 0)"/>
    <use xlink:href="#Arial-BoldMT-65" transform="translate(361.425781 0)"/>
    <use xlink:href="#Arial-BoldMT-20" transform="translate(417.041016 0)"/>
    <use xlink:href="#Arial-BoldMT-73" transform="translate(444.824219 0)"/>
    <use xlink:href="#Arial-BoldMT-74" transform="translate(500.439453 0)"/>
    <use xlink:href="#Arial-BoldMT-61" transform="translate(533.740234 0)"/>
    <use xlink:href="#Arial-BoldMT-63" transform="translate(589.355469 0)"/>
    <use xlink:href="#Arial-BoldMT-6b" transform="translate(644.970703 0)"/>
    <use xlink:href="#Arial-BoldMT-65" transform="translate(700.585938 0)"/>
    <use xlink:href="#Arial-BoldMT-64" transform="translate(756.201172 0)"/>
    <use xlink:href="#Arial-BoldMT-20" transform="translate(817.285156 0)"/>
    <use xlink:href="#Arial-BoldMT-63" transform="translate(845.068359 0)"/>
    <use xlink:href="#Arial-BoldMT-75" transform="translate(900.683594 0)"/>
    <use xlink:href="#Arial-BoldMT-73" transform="translate(961.767578 0)"/>
    <use xlink:href="#Arial-BoldMT-74" transform="translate(1017.382812 0)"/>
    <use xlink:href="#Arial-BoldMT-6f" transform="translate(1050.683594 0)"/>
    <use xlink:href="#Arial-BoldMT-6d" transform="translate(1111.767578 0)"/>
    <use xlink:href="#Arial-BoldMT-20" transform="translate(1200.683594 0)"/>
    <use xlink:href="#Arial-BoldMT-63" transform="translate(1228.466797 0)"/>
    <use xlink:href="#Arial-BoldMT-6f" transform="translate(1284.082031 0)"/>
    <use xlink:href="#Arial-BoldMT-6c" transform="translate(1345.166016 0)"/>
    <use xlink:href="#Arial-BoldMT-6f" transform="translate(1372.949219 0)"/>
    <use xlink:href="#Arial-BoldMT-72" transform="translate(1434.033203 0)"/>
    <use xlink:href="#Arial-BoldMT-73" transform="translate(1472.949219 0)"/>
   </g>
  </g>
 </g>
 <defs>
  <clipPath id="pab30bf2ff6">
   <rect x="33.97" y="43.2864" width="166.5216" height="147.8304"/>
  </clipPath>
 </defs>
</svg>
