<?xml version="1.0" encoding="utf-8" standalone="no"?>
<!DOCTYPE svg PUBLIC "-//W3C//DTD SVG 1.1//EN"
  "http://www.w3.org/Graphics/SVG/1.1/DTD/svg11.dtd">
<svg xmlns:xlink="http://www.w3.org/1999/xlink" width="282.212899pt" height="227.497673pt" viewBox="0 0 282.212899 227.497673" xmlns="http://www.w3.org/2000/svg" version="1.1">
 <metadata>
  <rdf:RDF xmlns:dc="http://purl.org/dc/elements/1.1/" xmlns:cc="http://creativecommons.org/ns#" xmlns:rdf="http://www.w3.org/1999/02/22-rdf-syntax-ns#">
   <cc:Work>
    <dc:type rdf:resource="http://purl.org/dc/dcmitype/StillImage"/>
    <dc:date>2025-09-10T13:55:53.352191</dc:date>
    <dc:format>image/svg+xml</dc:format>
    <dc:creator>
     <cc:Agent>
      <dc:title>Matplotlib v3.10.1, https://matplotlib.org/</dc:title>
     </cc:Agent>
    </dc:creator>
   </cc:Work>
  </rdf:RDF>
 </metadata>
 <defs>
  <style type="text/css">*{stroke-linejoin: round; stroke-linecap: butt}</style>
 </defs>
 <g id="figure_1">
  <g id="patch_1">
   <path d="M 0 227.497673 
L 282.212899 227.497673 
L 282.212899 0 
L 0 0 
z
" style="fill: #ffffff"/>
  </g>
  <g id="axes_1">
   <g id="patch_2">
    <path d="M 35.659375 191.28189 
L 202.33654 191.28189 
L 202.33654 43.313386 
L 35.659375 43.313386 
z
" style="fill: #ffffff"/>
   </g>
   <g id="patch_3">
    <path d="M 43.23561 191.28189 
L 73.540549 191.28189 
L 73.540549 186.920974 
L 43.23561 186.920974 
z
" clip-path="url(#p9e194c770e)" style="fill: #526c94; opacity: 0.9; stroke: #ffffff; stroke-width: 0.2; stroke-linejoin: miter"/>
   </g>
   <g id="patch_4">
    <path d="M 103.845488 191.28189 
L 134.150427 191.28189 
L 134.150427 169.499986 
L 103.845488 169.499986 
z
" clip-path="url(#p9e194c770e)" style="fill: #526c94; opacity: 0.9; stroke: #ffffff; stroke-width: 0.2; stroke-linejoin: miter"/>
   </g>
   <g id="patch_5">
    <path d="M 164.455366 191.28189 
L 194.760306 191.28189 
L 194.760306 187.72324 
L 164.455366 187.72324 
z
" clip-path="url(#p9e194c770e)" style="fill: #526c94; opacity: 0.9; stroke: #ffffff; stroke-width: 0.2; stroke-linejoin: miter"/>
   </g>
   <g id="patch_6">
    <path d="M 43.23561 186.920974 
L 73.540549 186.920974 
L 73.540549 162.255946 
L 43.23561 162.255946 
z
" clip-path="url(#p9e194c770e)" style="fill: #d8c367; opacity: 0.9; stroke: #ffffff; stroke-width: 0.2; stroke-linejoin: miter"/>
   </g>
   <g id="patch_7">
    <path d="M 103.845488 169.499986 
L 134.150427 169.499986 
L 134.150427 137.866695 
L 103.845488 137.866695 
z
" clip-path="url(#p9e194c770e)" style="fill: #d8c367; opacity: 0.9; stroke: #ffffff; stroke-width: 0.2; stroke-linejoin: miter"/>
   </g>
   <g id="patch_8">
    <path d="M 164.455366 187.72324 
L 194.760306 187.72324 
L 194.760306 170.854668 
L 164.455366 170.854668 
z
" clip-path="url(#p9e194c770e)" style="fill: #d8c367; opacity: 0.9; stroke: #ffffff; stroke-width: 0.2; stroke-linejoin: miter"/>
   </g>
   <g id="patch_9">
    <path d="M 43.23561 162.255946 
L 73.540549 162.255946 
L 73.540549 134.776088 
L 43.23561 134.776088 
z
" clip-path="url(#p9e194c770e)" style="fill: #75b1ce; opacity: 0.9; stroke: #ffffff; stroke-width: 0.2; stroke-linejoin: miter"/>
   </g>
   <g id="patch_10">
    <path d="M 103.845488 137.866695 
L 134.150427 137.866695 
L 134.150427 125.27248 
L 103.845488 125.27248 
z
" clip-path="url(#p9e194c770e)" style="fill: #75b1ce; opacity: 0.9; stroke: #ffffff; stroke-width: 0.2; stroke-linejoin: miter"/>
   </g>
   <g id="patch_11">
    <path d="M 164.455366 170.854668 
L 194.760306 170.854668 
L 194.760306 152.802162 
L 164.455366 152.802162 
z
" clip-path="url(#p9e194c770e)" style="fill: #75b1ce; opacity: 0.9; stroke: #ffffff; stroke-width: 0.2; stroke-linejoin: miter"/>
   </g>
   <g id="patch_12">
    <path d="M 43.23561 134.776088 
L 73.540549 134.776088 
L 73.540549 57.887712 
L 43.23561 57.887712 
z
" clip-path="url(#p9e194c770e)" style="fill: #dc6b83; opacity: 0.9; stroke: #ffffff; stroke-width: 0.2; stroke-linejoin: miter"/>
   </g>
   <g id="patch_13">
    <path d="M 103.845488 125.27248 
L 134.150427 125.27248 
L 134.150427 59.306211 
L 103.845488 59.306211 
z
" clip-path="url(#p9e194c770e)" style="fill: #dc6b83; opacity: 0.9; stroke: #ffffff; stroke-width: 0.2; stroke-linejoin: miter"/>
   </g>
   <g id="patch_14">
    <path d="M 164.455366 152.802162 
L 194.760306 152.802162 
L 194.760306 57.022145 
L 164.455366 57.022145 
z
" clip-path="url(#p9e194c770e)" style="fill: #dc6b83; opacity: 0.9; stroke: #ffffff; stroke-width: 0.2; stroke-linejoin: miter"/>
   </g>
   <g id="patch_15">
    <path d="M 43.23561 57.887712 
L 73.540549 57.887712 
L 73.540549 56.765068 
L 43.23561 56.765068 
z
" clip-path="url(#p9e194c770e)" style="fill: #d4d3cf; opacity: 0.9; stroke: #ffffff; stroke-width: 0.2; stroke-linejoin: miter"/>
   </g>
   <g id="patch_16">
    <path d="M 103.845488 59.306211 
L 134.150427 59.306211 
L 134.150427 56.765068 
L 103.845488 56.765068 
z
" clip-path="url(#p9e194c770e)" style="fill: #d4d3cf; opacity: 0.9; stroke: #ffffff; stroke-width: 0.2; stroke-linejoin: miter"/>
   </g>
   <g id="patch_17">
    <path d="M 164.455366 57.022145 
L 194.760306 57.022145 
L 194.760306 56.765068 
L 164.455366 56.765068 
z
" clip-path="url(#p9e194c770e)" style="fill: #d4d3cf; opacity: 0.9; stroke: #ffffff; stroke-width: 0.2; stroke-linejoin: miter"/>
   </g>
   <g id="matplotlib.axis_1">
    <g id="xtick_1">
     <g id="line2d_1"/>
     <g id="text_1">
      <!-- control -->
      <g transform="translate(42.801678 211.209698) rotate(-45) scale(0.06 -0.06)">
       <defs>
        <path id="DejaVuSans-63" d="M 3122 3366 
L 3122 2828 
Q 2878 2963 2633 3030 
Q 2388 3097 2138 3097 
Q 1578 3097 1268 2742 
Q 959 2388 959 1747 
Q 959 1106 1268 751 
Q 1578 397 2138 397 
Q 2388 397 2633 464 
Q 2878 531 3122 666 
L 3122 134 
Q 2881 22 2623 -34 
Q 2366 -91 2075 -91 
Q 1284 -91 818 406 
Q 353 903 353 1747 
Q 353 2603 823 3093 
Q 1294 3584 2113 3584 
Q 2378 3584 2631 3529 
Q 2884 3475 3122 3366 
z
" transform="scale(0.015625)"/>
        <path id="DejaVuSans-6f" d="M 1959 3097 
Q 1497 3097 1228 2736 
Q 959 2375 959 1747 
Q 959 1119 1226 758 
Q 1494 397 1959 397 
Q 2419 397 2687 759 
Q 2956 1122 2956 1747 
Q 2956 2369 2687 2733 
Q 2419 3097 1959 3097 
z
M 1959 3584 
Q 2709 3584 3137 3096 
Q 3566 2609 3566 1747 
Q 3566 888 3137 398 
Q 2709 -91 1959 -91 
Q 1206 -91 779 398 
Q 353 888 353 1747 
Q 353 2609 779 3096 
Q 1206 3584 1959 3584 
z
" transform="scale(0.015625)"/>
        <path id="DejaVuSans-6e" d="M 3513 2113 
L 3513 0 
L 2938 0 
L 2938 2094 
Q 2938 2591 2744 2837 
Q 2550 3084 2163 3084 
Q 1697 3084 1428 2787 
Q 1159 2491 1159 1978 
L 1159 0 
L 581 0 
L 581 3500 
L 1159 3500 
L 1159 2956 
Q 1366 3272 1645 3428 
Q 1925 3584 2291 3584 
Q 2894 3584 3203 3211 
Q 3513 2838 3513 2113 
z
" transform="scale(0.015625)"/>
        <path id="DejaVuSans-74" d="M 1172 4494 
L 1172 3500 
L 2356 3500 
L 2356 3053 
L 1172 3053 
L 1172 1153 
Q 1172 725 1289 603 
Q 1406 481 1766 481 
L 2356 481 
L 2356 0 
L 1766 0 
Q 1100 0 847 248 
Q 594 497 594 1153 
L 594 3053 
L 172 3053 
L 172 3500 
L 594 3500 
L 594 4494 
L 1172 4494 
z
" transform="scale(0.015625)"/>
        <path id="DejaVuSans-72" d="M 2631 2963 
Q 2534 3019 2420 3045 
Q 2306 3072 2169 3072 
Q 1681 3072 1420 2755 
Q 1159 2438 1159 1844 
L 1159 0 
L 581 0 
L 581 3500 
L 1159 3500 
L 1159 2956 
Q 1341 3275 1631 3429 
Q 1922 3584 2338 3584 
Q 2397 3584 2469 3576 
Q 2541 3569 2628 3553 
L 2631 2963 
z
" transform="scale(0.015625)"/>
        <path id="DejaVuSans-6c" d="M 603 4863 
L 1178 4863 
L 1178 0 
L 603 0 
L 603 4863 
z
" transform="scale(0.015625)"/>
       </defs>
       <use xlink:href="#DejaVuSans-63"/>
       <use xlink:href="#DejaVuSans-6f" transform="translate(54.980469 0)"/>
       <use xlink:href="#DejaVuSans-6e" transform="translate(116.162109 0)"/>
       <use xlink:href="#DejaVuSans-74" transform="translate(179.541016 0)"/>
       <use xlink:href="#DejaVuSans-72" transform="translate(218.75 0)"/>
       <use xlink:href="#DejaVuSans-6f" transform="translate(257.613281 0)"/>
       <use xlink:href="#DejaVuSans-6c" transform="translate(318.794922 0)"/>
      </g>
     </g>
    </g>
    <g id="xtick_2">
     <g id="line2d_2"/>
     <g id="text_2">
      <!-- cond01 -->
      <g transform="translate(102.405918 212.215337) rotate(-45) scale(0.06 -0.06)">
       <defs>
        <path id="DejaVuSans-64" d="M 2906 2969 
L 2906 4863 
L 3481 4863 
L 3481 0 
L 2906 0 
L 2906 525 
Q 2725 213 2448 61 
Q 2172 -91 1784 -91 
Q 1150 -91 751 415 
Q 353 922 353 1747 
Q 353 2572 751 3078 
Q 1150 3584 1784 3584 
Q 2172 3584 2448 3432 
Q 2725 3281 2906 2969 
z
M 947 1747 
Q 947 1113 1208 752 
Q 1469 391 1925 391 
Q 2381 391 2643 752 
Q 2906 1113 2906 1747 
Q 2906 2381 2643 2742 
Q 2381 3103 1925 3103 
Q 1469 3103 1208 2742 
Q 947 2381 947 1747 
z
" transform="scale(0.015625)"/>
        <path id="DejaVuSans-30" d="M 2034 4250 
Q 1547 4250 1301 3770 
Q 1056 3291 1056 2328 
Q 1056 1369 1301 889 
Q 1547 409 2034 409 
Q 2525 409 2770 889 
Q 3016 1369 3016 2328 
Q 3016 3291 2770 3770 
Q 2525 4250 2034 4250 
z
M 2034 4750 
Q 2819 4750 3233 4129 
Q 3647 3509 3647 2328 
Q 3647 1150 3233 529 
Q 2819 -91 2034 -91 
Q 1250 -91 836 529 
Q 422 1150 422 2328 
Q 422 3509 836 4129 
Q 1250 4750 2034 4750 
z
" transform="scale(0.015625)"/>
        <path id="DejaVuSans-31" d="M 794 531 
L 1825 531 
L 1825 4091 
L 703 3866 
L 703 4441 
L 1819 4666 
L 2450 4666 
L 2450 531 
L 3481 531 
L 3481 0 
L 794 0 
L 794 531 
z
" transform="scale(0.015625)"/>
       </defs>
       <use xlink:href="#DejaVuSans-63"/>
       <use xlink:href="#DejaVuSans-6f" transform="translate(54.980469 0)"/>
       <use xlink:href="#DejaVuSans-6e" transform="translate(116.162109 0)"/>
       <use xlink:href="#DejaVuSans-64" transform="translate(179.541016 0)"/>
       <use xlink:href="#DejaVuSans-30" transform="translate(243.017578 0)"/>
       <use xlink:href="#DejaVuSans-31" transform="translate(306.640625 0)"/>
      </g>
     </g>
    </g>
    <g id="xtick_3">
     <g id="line2d_3"/>
     <g id="text_3">
      <!-- cond02 -->
      <g transform="translate(163.015796 212.215337) rotate(-45) scale(0.06 -0.06)">
       <defs>
        <path id="DejaVuSans-32" d="M 1228 531 
L 3431 531 
L 3431 0 
L 469 0 
L 469 531 
Q 828 903 1448 1529 
Q 2069 2156 2228 2338 
Q 2531 2678 2651 2914 
Q 2772 3150 2772 3378 
Q 2772 3750 2511 3984 
Q 2250 4219 1831 4219 
Q 1534 4219 1204 4116 
Q 875 4013 500 3803 
L 500 4441 
Q 881 4594 1212 4672 
Q 1544 4750 1819 4750 
Q 2544 4750 2975 4387 
Q 3406 4025 3406 3419 
Q 3406 3131 3298 2873 
Q 3191 2616 2906 2266 
Q 2828 2175 2409 1742 
Q 1991 1309 1228 531 
z
" transform="scale(0.015625)"/>
       </defs>
       <use xlink:href="#DejaVuSans-63"/>
       <use xlink:href="#DejaVuSans-6f" transform="translate(54.980469 0)"/>
       <use xlink:href="#DejaVuSans-6e" transform="translate(116.162109 0)"/>
       <use xlink:href="#DejaVuSans-64" transform="translate(179.541016 0)"/>
       <use xlink:href="#DejaVuSans-30" transform="translate(243.017578 0)"/>
       <use xlink:href="#DejaVuSans-32" transform="translate(306.640625 0)"/>
      </g>
     </g>
    </g>
   </g>
   <g id="matplotlib.axis_2">
    <g id="ytick_1">
     <g id="line2d_4"/>
     <g id="text_4">
      <!-- 0 -->
      <g transform="translate(29.841875 193.561421) scale(0.06 -0.06)">
       <use xlink:href="#DejaVuSans-30"/>
      </g>
     </g>
    </g>
    <g id="ytick_2">
     <g id="line2d_5"/>
     <g id="text_5">
      <!-- 20 -->
      <g transform="translate(26.024375 166.658057) scale(0.06 -0.06)">
       <use xlink:href="#DejaVuSans-32"/>
       <use xlink:href="#DejaVuSans-30" transform="translate(63.623047 0)"/>
      </g>
     </g>
    </g>
    <g id="ytick_3">
     <g id="line2d_6"/>
     <g id="text_6">
      <!-- 40 -->
      <g transform="translate(26.024375 139.754692) scale(0.06 -0.06)">
       <defs>
        <path id="DejaVuSans-34" d="M 2419 4116 
L 825 1625 
L 2419 1625 
L 2419 4116 
z
M 2253 4666 
L 3047 4666 
L 3047 1625 
L 3713 1625 
L 3713 1100 
L 3047 1100 
L 3047 0 
L 2419 0 
L 2419 1100 
L 313 1100 
L 313 1709 
L 2253 4666 
z
" transform="scale(0.015625)"/>
       </defs>
       <use xlink:href="#DejaVuSans-34"/>
       <use xlink:href="#DejaVuSans-30" transform="translate(63.623047 0)"/>
      </g>
     </g>
    </g>
    <g id="ytick_4">
     <g id="line2d_7"/>
     <g id="text_7">
      <!-- 60 -->
      <g transform="translate(26.024375 112.851328) scale(0.06 -0.06)">
       <defs>
        <path id="DejaVuSans-36" d="M 2113 2584 
Q 1688 2584 1439 2293 
Q 1191 2003 1191 1497 
Q 1191 994 1439 701 
Q 1688 409 2113 409 
Q 2538 409 2786 701 
Q 3034 994 3034 1497 
Q 3034 2003 2786 2293 
Q 2538 2584 2113 2584 
z
M 3366 4563 
L 3366 3988 
Q 3128 4100 2886 4159 
Q 2644 4219 2406 4219 
Q 1781 4219 1451 3797 
Q 1122 3375 1075 2522 
Q 1259 2794 1537 2939 
Q 1816 3084 2150 3084 
Q 2853 3084 3261 2657 
Q 3669 2231 3669 1497 
Q 3669 778 3244 343 
Q 2819 -91 2113 -91 
Q 1303 -91 875 529 
Q 447 1150 447 2328 
Q 447 3434 972 4092 
Q 1497 4750 2381 4750 
Q 2619 4750 2861 4703 
Q 3103 4656 3366 4563 
z
" transform="scale(0.015625)"/>
       </defs>
       <use xlink:href="#DejaVuSans-36"/>
       <use xlink:href="#DejaVuSans-30" transform="translate(63.623047 0)"/>
      </g>
     </g>
    </g>
    <g id="ytick_5">
     <g id="line2d_8"/>
     <g id="text_8">
      <!-- 80 -->
      <g transform="translate(26.024375 85.947964) scale(0.06 -0.06)">
       <defs>
        <path id="DejaVuSans-38" d="M 2034 2216 
Q 1584 2216 1326 1975 
Q 1069 1734 1069 1313 
Q 1069 891 1326 650 
Q 1584 409 2034 409 
Q 2484 409 2743 651 
Q 3003 894 3003 1313 
Q 3003 1734 2745 1975 
Q 2488 2216 2034 2216 
z
M 1403 2484 
Q 997 2584 770 2862 
Q 544 3141 544 3541 
Q 544 4100 942 4425 
Q 1341 4750 2034 4750 
Q 2731 4750 3128 4425 
Q 3525 4100 3525 3541 
Q 3525 3141 3298 2862 
Q 3072 2584 2669 2484 
Q 3125 2378 3379 2068 
Q 3634 1759 3634 1313 
Q 3634 634 3220 271 
Q 2806 -91 2034 -91 
Q 1263 -91 848 271 
Q 434 634 434 1313 
Q 434 1759 690 2068 
Q 947 2378 1403 2484 
z
M 1172 3481 
Q 1172 3119 1398 2916 
Q 1625 2713 2034 2713 
Q 2441 2713 2670 2916 
Q 2900 3119 2900 3481 
Q 2900 3844 2670 4047 
Q 2441 4250 2034 4250 
Q 1625 4250 1398 4047 
Q 1172 3844 1172 3481 
z
" transform="scale(0.015625)"/>
       </defs>
       <use xlink:href="#DejaVuSans-38"/>
       <use xlink:href="#DejaVuSans-30" transform="translate(63.623047 0)"/>
      </g>
     </g>
    </g>
    <g id="ytick_6">
     <g id="line2d_9"/>
     <g id="text_9">
      <!-- 100 -->
      <g transform="translate(22.206875 59.044599) scale(0.06 -0.06)">
       <use xlink:href="#DejaVuSans-31"/>
       <use xlink:href="#DejaVuSans-30" transform="translate(63.623047 0)"/>
       <use xlink:href="#DejaVuSans-30" transform="translate(127.246094 0)"/>
      </g>
     </g>
    </g>
    <g id="text_10">
     <!-- % of population -->
     <g transform="translate(18.959062 140.910919) rotate(-90) scale(0.06 -0.06)">
      <defs>
       <path id="DejaVuSans-25" d="M 4653 2053 
Q 4381 2053 4226 1822 
Q 4072 1591 4072 1178 
Q 4072 772 4226 539 
Q 4381 306 4653 306 
Q 4919 306 5073 539 
Q 5228 772 5228 1178 
Q 5228 1588 5073 1820 
Q 4919 2053 4653 2053 
z
M 4653 2450 
Q 5147 2450 5437 2106 
Q 5728 1763 5728 1178 
Q 5728 594 5436 251 
Q 5144 -91 4653 -91 
Q 4153 -91 3862 251 
Q 3572 594 3572 1178 
Q 3572 1766 3864 2108 
Q 4156 2450 4653 2450 
z
M 1428 4353 
Q 1159 4353 1004 4120 
Q 850 3888 850 3481 
Q 850 3069 1003 2837 
Q 1156 2606 1428 2606 
Q 1700 2606 1854 2837 
Q 2009 3069 2009 3481 
Q 2009 3884 1853 4118 
Q 1697 4353 1428 4353 
z
M 4250 4750 
L 4750 4750 
L 1831 -91 
L 1331 -91 
L 4250 4750 
z
M 1428 4750 
Q 1922 4750 2215 4408 
Q 2509 4066 2509 3481 
Q 2509 2891 2217 2550 
Q 1925 2209 1428 2209 
Q 931 2209 642 2551 
Q 353 2894 353 3481 
Q 353 4063 643 4406 
Q 934 4750 1428 4750 
z
" transform="scale(0.015625)"/>
       <path id="DejaVuSans-20" transform="scale(0.015625)"/>
       <path id="DejaVuSans-66" d="M 2375 4863 
L 2375 4384 
L 1825 4384 
Q 1516 4384 1395 4259 
Q 1275 4134 1275 3809 
L 1275 3500 
L 2222 3500 
L 2222 3053 
L 1275 3053 
L 1275 0 
L 697 0 
L 697 3053 
L 147 3053 
L 147 3500 
L 697 3500 
L 697 3744 
Q 697 4328 969 4595 
Q 1241 4863 1831 4863 
L 2375 4863 
z
" transform="scale(0.015625)"/>
       <path id="DejaVuSans-70" d="M 1159 525 
L 1159 -1331 
L 581 -1331 
L 581 3500 
L 1159 3500 
L 1159 2969 
Q 1341 3281 1617 3432 
Q 1894 3584 2278 3584 
Q 2916 3584 3314 3078 
Q 3713 2572 3713 1747 
Q 3713 922 3314 415 
Q 2916 -91 2278 -91 
Q 1894 -91 1617 61 
Q 1341 213 1159 525 
z
M 3116 1747 
Q 3116 2381 2855 2742 
Q 2594 3103 2138 3103 
Q 1681 3103 1420 2742 
Q 1159 2381 1159 1747 
Q 1159 1113 1420 752 
Q 1681 391 2138 391 
Q 2594 391 2855 752 
Q 3116 1113 3116 1747 
z
" transform="scale(0.015625)"/>
       <path id="DejaVuSans-75" d="M 544 1381 
L 544 3500 
L 1119 3500 
L 1119 1403 
Q 1119 906 1312 657 
Q 1506 409 1894 409 
Q 2359 409 2629 706 
Q 2900 1003 2900 1516 
L 2900 3500 
L 3475 3500 
L 3475 0 
L 2900 0 
L 2900 538 
Q 2691 219 2414 64 
Q 2138 -91 1772 -91 
Q 1169 -91 856 284 
Q 544 659 544 1381 
z
M 1991 3584 
L 1991 3584 
z
" transform="scale(0.015625)"/>
       <path id="DejaVuSans-61" d="M 2194 1759 
Q 1497 1759 1228 1600 
Q 959 1441 959 1056 
Q 959 750 1161 570 
Q 1363 391 1709 391 
Q 2188 391 2477 730 
Q 2766 1069 2766 1631 
L 2766 1759 
L 2194 1759 
z
M 3341 1997 
L 3341 0 
L 2766 0 
L 2766 531 
Q 2569 213 2275 61 
Q 1981 -91 1556 -91 
Q 1019 -91 701 211 
Q 384 513 384 1019 
Q 384 1609 779 1909 
Q 1175 2209 1959 2209 
L 2766 2209 
L 2766 2266 
Q 2766 2663 2505 2880 
Q 2244 3097 1772 3097 
Q 1472 3097 1187 3025 
Q 903 2953 641 2809 
L 641 3341 
Q 956 3463 1253 3523 
Q 1550 3584 1831 3584 
Q 2591 3584 2966 3190 
Q 3341 2797 3341 1997 
z
" transform="scale(0.015625)"/>
       <path id="DejaVuSans-69" d="M 603 3500 
L 1178 3500 
L 1178 0 
L 603 0 
L 603 3500 
z
M 603 4863 
L 1178 4863 
L 1178 4134 
L 603 4134 
L 603 4863 
z
" transform="scale(0.015625)"/>
      </defs>
      <use xlink:href="#DejaVuSans-25"/>
      <use xlink:href="#DejaVuSans-20" transform="translate(95.019531 0)"/>
      <use xlink:href="#DejaVuSans-6f" transform="translate(126.806641 0)"/>
      <use xlink:href="#DejaVuSans-66" transform="translate(187.988281 0)"/>
      <use xlink:href="#DejaVuSans-20" transform="translate(223.193359 0)"/>
      <use xlink:href="#DejaVuSans-70" transform="translate(254.980469 0)"/>
      <use xlink:href="#DejaVuSans-6f" transform="translate(318.457031 0)"/>
      <use xlink:href="#DejaVuSans-70" transform="translate(379.638672 0)"/>
      <use xlink:href="#DejaVuSans-75" transform="translate(443.115234 0)"/>
      <use xlink:href="#DejaVuSans-6c" transform="translate(506.494141 0)"/>
      <use xlink:href="#DejaVuSans-61" transform="translate(534.277344 0)"/>
      <use xlink:href="#DejaVuSans-74" transform="translate(595.556641 0)"/>
      <use xlink:href="#DejaVuSans-69" transform="translate(634.765625 0)"/>
      <use xlink:href="#DejaVuSans-6f" transform="translate(662.548828 0)"/>
      <use xlink:href="#DejaVuSans-6e" transform="translate(723.730469 0)"/>
     </g>
    </g>
   </g>
   <g id="LineCollection_1">
    <path d="M 58.388079 187.79633 
L 58.388079 186.045617 
" clip-path="url(#p9e194c770e)" style="fill: none; stroke: #000000; stroke-width: 0.5"/>
    <path d="M 118.997958 175.214186 
L 118.997958 163.785786 
" clip-path="url(#p9e194c770e)" style="fill: none; stroke: #000000; stroke-width: 0.5"/>
    <path d="M 179.607836 188.721896 
L 179.607836 186.724585 
" clip-path="url(#p9e194c770e)" style="fill: none; stroke: #000000; stroke-width: 0.5"/>
   </g>
   <g id="line2d_10">
    <defs>
     <path id="m6a1606a6e7" d="M 3 0 
L -3 -0 
" style="stroke: #000000"/>
    </defs>
    <g clip-path="url(#p9e194c770e)">
     <use xlink:href="#m6a1606a6e7" x="58.388079" y="187.79633" style="stroke: #000000"/>
     <use xlink:href="#m6a1606a6e7" x="118.997958" y="175.214186" style="stroke: #000000"/>
     <use xlink:href="#m6a1606a6e7" x="179.607836" y="188.721896" style="stroke: #000000"/>
    </g>
   </g>
   <g id="line2d_11">
    <g clip-path="url(#p9e194c770e)">
     <use xlink:href="#m6a1606a6e7" x="58.388079" y="186.045617" style="stroke: #000000"/>
     <use xlink:href="#m6a1606a6e7" x="118.997958" y="163.785786" style="stroke: #000000"/>
     <use xlink:href="#m6a1606a6e7" x="179.607836" y="186.724585" style="stroke: #000000"/>
    </g>
   </g>
   <g id="LineCollection_2">
    <path d="M 58.388079 163.023027 
L 58.388079 161.488865 
" clip-path="url(#p9e194c770e)" style="fill: none; stroke: #000000; stroke-width: 0.5"/>
    <path d="M 118.997958 140.437521 
L 118.997958 135.295868 
" clip-path="url(#p9e194c770e)" style="fill: none; stroke: #000000; stroke-width: 0.5"/>
    <path d="M 179.607836 172.58494 
L 179.607836 169.124396 
" clip-path="url(#p9e194c770e)" style="fill: none; stroke: #000000; stroke-width: 0.5"/>
   </g>
   <g id="line2d_12">
    <g clip-path="url(#p9e194c770e)">
     <use xlink:href="#m6a1606a6e7" x="58.388079" y="163.023027" style="stroke: #000000"/>
     <use xlink:href="#m6a1606a6e7" x="118.997958" y="140.437521" style="stroke: #000000"/>
     <use xlink:href="#m6a1606a6e7" x="179.607836" y="172.58494" style="stroke: #000000"/>
    </g>
   </g>
   <g id="line2d_13">
    <g clip-path="url(#p9e194c770e)">
     <use xlink:href="#m6a1606a6e7" x="58.388079" y="161.488865" style="stroke: #000000"/>
     <use xlink:href="#m6a1606a6e7" x="118.997958" y="135.295868" style="stroke: #000000"/>
     <use xlink:href="#m6a1606a6e7" x="179.607836" y="169.124396" style="stroke: #000000"/>
    </g>
   </g>
   <g id="LineCollection_3">
    <path d="M 58.388079 138.574673 
L 58.388079 130.977504 
" clip-path="url(#p9e194c770e)" style="fill: none; stroke: #000000; stroke-width: 0.5"/>
    <path d="M 118.997958 127.299016 
L 118.997958 123.245944 
" clip-path="url(#p9e194c770e)" style="fill: none; stroke: #000000; stroke-width: 0.5"/>
    <path d="M 179.607836 156.555316 
L 179.607836 149.049008 
" clip-path="url(#p9e194c770e)" style="fill: none; stroke: #000000; stroke-width: 0.5"/>
   </g>
   <g id="line2d_14">
    <g clip-path="url(#p9e194c770e)">
     <use xlink:href="#m6a1606a6e7" x="58.388079" y="138.574673" style="stroke: #000000"/>
     <use xlink:href="#m6a1606a6e7" x="118.997958" y="127.299016" style="stroke: #000000"/>
     <use xlink:href="#m6a1606a6e7" x="179.607836" y="156.555316" style="stroke: #000000"/>
    </g>
   </g>
   <g id="line2d_15">
    <g clip-path="url(#p9e194c770e)">
     <use xlink:href="#m6a1606a6e7" x="58.388079" y="130.977504" style="stroke: #000000"/>
     <use xlink:href="#m6a1606a6e7" x="118.997958" y="123.245944" style="stroke: #000000"/>
     <use xlink:href="#m6a1606a6e7" x="179.607836" y="149.049008" style="stroke: #000000"/>
    </g>
   </g>
   <g id="LineCollection_4">
    <path d="M 58.388079 61.44035 
L 58.388079 54.335073 
" clip-path="url(#p9e194c770e)" style="fill: none; stroke: #000000; stroke-width: 0.5"/>
    <path d="M 118.997958 63.892772 
L 118.997958 54.719651 
" clip-path="url(#p9e194c770e)" style="fill: none; stroke: #000000; stroke-width: 0.5"/>
    <path d="M 179.607836 63.371085 
L 179.607836 50.673205 
" clip-path="url(#p9e194c770e)" style="fill: none; stroke: #000000; stroke-width: 0.5"/>
   </g>
   <g id="line2d_16">
    <g clip-path="url(#p9e194c770e)">
     <use xlink:href="#m6a1606a6e7" x="58.388079" y="61.44035" style="stroke: #000000"/>
     <use xlink:href="#m6a1606a6e7" x="118.997958" y="63.892772" style="stroke: #000000"/>
     <use xlink:href="#m6a1606a6e7" x="179.607836" y="63.371085" style="stroke: #000000"/>
    </g>
   </g>
   <g id="line2d_17">
    <g clip-path="url(#p9e194c770e)">
     <use xlink:href="#m6a1606a6e7" x="58.388079" y="54.335073" style="stroke: #000000"/>
     <use xlink:href="#m6a1606a6e7" x="118.997958" y="54.719651" style="stroke: #000000"/>
     <use xlink:href="#m6a1606a6e7" x="179.607836" y="50.673205" style="stroke: #000000"/>
    </g>
   </g>
   <g id="LineCollection_5">
    <path d="M 58.388079 57.304827 
L 58.388079 56.225309 
" clip-path="url(#p9e194c770e)" style="fill: none; stroke: #000000; stroke-width: 0.5"/>
    <path d="M 118.997958 57.007621 
L 118.997958 56.522515 
" clip-path="url(#p9e194c770e)" style="fill: none; stroke: #000000; stroke-width: 0.5"/>
    <path d="M 179.607836 56.832978 
L 179.607836 56.697158 
" clip-path="url(#p9e194c770e)" style="fill: none; stroke: #000000; stroke-width: 0.5"/>
   </g>
   <g id="line2d_18">
    <g clip-path="url(#p9e194c770e)">
     <use xlink:href="#m6a1606a6e7" x="58.388079" y="57.304827" style="stroke: #000000"/>
     <use xlink:href="#m6a1606a6e7" x="118.997958" y="57.007621" style="stroke: #000000"/>
     <use xlink:href="#m6a1606a6e7" x="179.607836" y="56.832978" style="stroke: #000000"/>
    </g>
   </g>
   <g id="line2d_19">
    <g clip-path="url(#p9e194c770e)">
     <use xlink:href="#m6a1606a6e7" x="58.388079" y="56.225309" style="stroke: #000000"/>
     <use xlink:href="#m6a1606a6e7" x="118.997958" y="56.522515" style="stroke: #000000"/>
     <use xlink:href="#m6a1606a6e7" x="179.607836" y="56.697158" style="stroke: #000000"/>
    </g>
   </g>
   <g id="patch_18">
    <path d="M 35.659375 191.28189 
L 35.659375 43.313386 
" style="fill: none; stroke: #000000; stroke-width: 0.5; stroke-linejoin: miter; stroke-linecap: square"/>
   </g>
   <g id="patch_19">
    <path d="M 35.659375 191.28189 
L 202.33654 191.28189 
" style="fill: none; stroke: #000000; stroke-width: 0.5; stroke-linejoin: miter; stroke-linecap: square"/>
   </g>
   <g id="legend_1">
    <g id="patch_20">
     <path d="M 214.870399 93.454636 
L 266.612899 93.454636 
Q 267.812899 93.454636 267.812899 92.254636 
L 267.812899 47.513386 
Q 267.812899 46.313386 266.612899 46.313386 
L 214.870399 46.313386 
Q 213.670399 46.313386 213.670399 47.513386 
L 213.670399 92.254636 
Q 213.670399 93.454636 214.870399 93.454636 
z
" style="fill: #ffffff; stroke: #cccccc; stroke-linejoin: miter"/>
    </g>
    <g id="text_11">
     <!-- Cell Cycle Phase -->
     <g transform="translate(216.070399 53.272448) scale(0.06 -0.06)">
      <defs>
       <path id="DejaVuSans-43" d="M 4122 4306 
L 4122 3641 
Q 3803 3938 3442 4084 
Q 3081 4231 2675 4231 
Q 1875 4231 1450 3742 
Q 1025 3253 1025 2328 
Q 1025 1406 1450 917 
Q 1875 428 2675 428 
Q 3081 428 3442 575 
Q 3803 722 4122 1019 
L 4122 359 
Q 3791 134 3420 21 
Q 3050 -91 2638 -91 
Q 1578 -91 968 557 
Q 359 1206 359 2328 
Q 359 3453 968 4101 
Q 1578 4750 2638 4750 
Q 3056 4750 3426 4639 
Q 3797 4528 4122 4306 
z
" transform="scale(0.015625)"/>
       <path id="DejaVuSans-65" d="M 3597 1894 
L 3597 1613 
L 953 1613 
Q 991 1019 1311 708 
Q 1631 397 2203 397 
Q 2534 397 2845 478 
Q 3156 559 3463 722 
L 3463 178 
Q 3153 47 2828 -22 
Q 2503 -91 2169 -91 
Q 1331 -91 842 396 
Q 353 884 353 1716 
Q 353 2575 817 3079 
Q 1281 3584 2069 3584 
Q 2775 3584 3186 3129 
Q 3597 2675 3597 1894 
z
M 3022 2063 
Q 3016 2534 2758 2815 
Q 2500 3097 2075 3097 
Q 1594 3097 1305 2825 
Q 1016 2553 972 2059 
L 3022 2063 
z
" transform="scale(0.015625)"/>
       <path id="DejaVuSans-79" d="M 2059 -325 
Q 1816 -950 1584 -1140 
Q 1353 -1331 966 -1331 
L 506 -1331 
L 506 -850 
L 844 -850 
Q 1081 -850 1212 -737 
Q 1344 -625 1503 -206 
L 1606 56 
L 191 3500 
L 800 3500 
L 1894 763 
L 2988 3500 
L 3597 3500 
L 2059 -325 
z
" transform="scale(0.015625)"/>
       <path id="DejaVuSans-50" d="M 1259 4147 
L 1259 2394 
L 2053 2394 
Q 2494 2394 2734 2622 
Q 2975 2850 2975 3272 
Q 2975 3691 2734 3919 
Q 2494 4147 2053 4147 
L 1259 4147 
z
M 628 4666 
L 2053 4666 
Q 2838 4666 3239 4311 
Q 3641 3956 3641 3272 
Q 3641 2581 3239 2228 
Q 2838 1875 2053 1875 
L 1259 1875 
L 1259 0 
L 628 0 
L 628 4666 
z
" transform="scale(0.015625)"/>
       <path id="DejaVuSans-68" d="M 3513 2113 
L 3513 0 
L 2938 0 
L 2938 2094 
Q 2938 2591 2744 2837 
Q 2550 3084 2163 3084 
Q 1697 3084 1428 2787 
Q 1159 2491 1159 1978 
L 1159 0 
L 581 0 
L 581 4863 
L 1159 4863 
L 1159 2956 
Q 1366 3272 1645 3428 
Q 1925 3584 2291 3584 
Q 2894 3584 3203 3211 
Q 3513 2838 3513 2113 
z
" transform="scale(0.015625)"/>
       <path id="DejaVuSans-73" d="M 2834 3397 
L 2834 2853 
Q 2591 2978 2328 3040 
Q 2066 3103 1784 3103 
Q 1356 3103 1142 2972 
Q 928 2841 928 2578 
Q 928 2378 1081 2264 
Q 1234 2150 1697 2047 
L 1894 2003 
Q 2506 1872 2764 1633 
Q 3022 1394 3022 966 
Q 3022 478 2636 193 
Q 2250 -91 1575 -91 
Q 1294 -91 989 -36 
Q 684 19 347 128 
L 347 722 
Q 666 556 975 473 
Q 1284 391 1588 391 
Q 1994 391 2212 530 
Q 2431 669 2431 922 
Q 2431 1156 2273 1281 
Q 2116 1406 1581 1522 
L 1381 1569 
Q 847 1681 609 1914 
Q 372 2147 372 2553 
Q 372 3047 722 3315 
Q 1072 3584 1716 3584 
Q 2034 3584 2315 3537 
Q 2597 3491 2834 3397 
z
" transform="scale(0.015625)"/>
      </defs>
      <use xlink:href="#DejaVuSans-43"/>
      <use xlink:href="#DejaVuSans-65" transform="translate(69.824219 0)"/>
      <use xlink:href="#DejaVuSans-6c" transform="translate(131.347656 0)"/>
      <use xlink:href="#DejaVuSans-6c" transform="translate(159.130859 0)"/>
      <use xlink:href="#DejaVuSans-20" transform="translate(186.914062 0)"/>
      <use xlink:href="#DejaVuSans-43" transform="translate(218.701172 0)"/>
      <use xlink:href="#DejaVuSans-79" transform="translate(288.525391 0)"/>
      <use xlink:href="#DejaVuSans-63" transform="translate(347.705078 0)"/>
      <use xlink:href="#DejaVuSans-6c" transform="translate(402.685547 0)"/>
      <use xlink:href="#DejaVuSans-65" transform="translate(430.46875 0)"/>
      <use xlink:href="#DejaVuSans-20" transform="translate(491.992188 0)"/>
      <use xlink:href="#DejaVuSans-50" transform="translate(523.779297 0)"/>
      <use xlink:href="#DejaVuSans-68" transform="translate(584.082031 0)"/>
      <use xlink:href="#DejaVuSans-61" transform="translate(647.460938 0)"/>
      <use xlink:href="#DejaVuSans-73" transform="translate(708.740234 0)"/>
      <use xlink:href="#DejaVuSans-65" transform="translate(760.839844 0)"/>
     </g>
    </g>
    <g id="patch_21">
     <path d="M 225.674617 60.579323 
L 237.674617 60.579323 
L 237.674617 56.379323 
L 225.674617 56.379323 
z
" style="fill: #d4d3cf; opacity: 0.9; stroke: #ffffff; stroke-width: 0.2; stroke-linejoin: miter"/>
    </g>
    <g id="text_12">
     <!-- &lt;2N -->
     <g transform="translate(242.474617 60.579323) scale(0.06 -0.06)">
      <defs>
       <path id="DejaVuSans-3c" d="M 4684 3150 
L 1459 2003 
L 4684 863 
L 4684 294 
L 678 1747 
L 678 2266 
L 4684 3719 
L 4684 3150 
z
" transform="scale(0.015625)"/>
       <path id="DejaVuSans-4e" d="M 628 4666 
L 1478 4666 
L 3547 763 
L 3547 4666 
L 4159 4666 
L 4159 0 
L 3309 0 
L 1241 3903 
L 1241 0 
L 628 0 
L 628 4666 
z
" transform="scale(0.015625)"/>
      </defs>
      <use xlink:href="#DejaVuSans-3c"/>
      <use xlink:href="#DejaVuSans-32" transform="translate(83.789062 0)"/>
      <use xlink:href="#DejaVuSans-4e" transform="translate(147.412109 0)"/>
     </g>
    </g>
    <g id="patch_22">
     <path d="M 225.674617 67.886198 
L 237.674617 67.886198 
L 237.674617 63.686198 
L 225.674617 63.686198 
z
" style="fill: #dc6b83; opacity: 0.9; stroke: #ffffff; stroke-width: 0.2; stroke-linejoin: miter"/>
    </g>
    <g id="text_13">
     <!-- 2N -->
     <g transform="translate(242.474617 67.886198) scale(0.06 -0.06)">
      <use xlink:href="#DejaVuSans-32"/>
      <use xlink:href="#DejaVuSans-4e" transform="translate(63.623047 0)"/>
     </g>
    </g>
    <g id="patch_23">
     <path d="M 225.674617 75.193073 
L 237.674617 75.193073 
L 237.674617 70.993073 
L 225.674617 70.993073 
z
" style="fill: #75b1ce; opacity: 0.9; stroke: #ffffff; stroke-width: 0.2; stroke-linejoin: miter"/>
    </g>
    <g id="text_14">
     <!-- S -->
     <g transform="translate(242.474617 75.193073) scale(0.06 -0.06)">
      <defs>
       <path id="DejaVuSans-53" d="M 3425 4513 
L 3425 3897 
Q 3066 4069 2747 4153 
Q 2428 4238 2131 4238 
Q 1616 4238 1336 4038 
Q 1056 3838 1056 3469 
Q 1056 3159 1242 3001 
Q 1428 2844 1947 2747 
L 2328 2669 
Q 3034 2534 3370 2195 
Q 3706 1856 3706 1288 
Q 3706 609 3251 259 
Q 2797 -91 1919 -91 
Q 1588 -91 1214 -16 
Q 841 59 441 206 
L 441 856 
Q 825 641 1194 531 
Q 1563 422 1919 422 
Q 2459 422 2753 634 
Q 3047 847 3047 1241 
Q 3047 1584 2836 1778 
Q 2625 1972 2144 2069 
L 1759 2144 
Q 1053 2284 737 2584 
Q 422 2884 422 3419 
Q 422 4038 858 4394 
Q 1294 4750 2059 4750 
Q 2388 4750 2728 4690 
Q 3069 4631 3425 4513 
z
" transform="scale(0.015625)"/>
      </defs>
      <use xlink:href="#DejaVuSans-53"/>
     </g>
    </g>
    <g id="patch_24">
     <path d="M 225.674617 82.499948 
L 237.674617 82.499948 
L 237.674617 78.299948 
L 225.674617 78.299948 
z
" style="fill: #d8c367; opacity: 0.9; stroke: #ffffff; stroke-width: 0.2; stroke-linejoin: miter"/>
    </g>
    <g id="text_15">
     <!-- 4N -->
     <g transform="translate(242.474617 82.499948) scale(0.06 -0.06)">
      <use xlink:href="#DejaVuSans-34"/>
      <use xlink:href="#DejaVuSans-4e" transform="translate(63.623047 0)"/>
     </g>
    </g>
    <g id="patch_25">
     <path d="M 225.674617 89.806823 
L 237.674617 89.806823 
L 237.674617 85.606823 
L 225.674617 85.606823 
z
" style="fill: #526c94; opacity: 0.9; stroke: #ffffff; stroke-width: 0.2; stroke-linejoin: miter"/>
    </g>
    <g id="text_16">
     <!-- &gt;4N -->
     <g transform="translate(242.474617 89.806823) scale(0.06 -0.06)">
      <defs>
       <path id="DejaVuSans-3e" d="M 678 3150 
L 678 3719 
L 4684 2266 
L 4684 1747 
L 678 294 
L 678 863 
L 3897 2003 
L 678 3150 
z
" transform="scale(0.015625)"/>
      </defs>
      <use xlink:href="#DejaVuSans-3e"/>
      <use xlink:href="#DejaVuSans-34" transform="translate(83.789062 0)"/>
      <use xlink:href="#DejaVuSans-4e" transform="translate(147.412109 0)"/>
     </g>
    </g>
   </g>
  </g>
  <g id="text_17">
   <!-- cellcycle stacked DNA content -->
   <g transform="translate(33.958588 19.718906) scale(0.07 -0.07)">
    <defs>
     <path id="DejaVuSans-Bold-63" d="M 3366 3391 
L 3366 2478 
Q 3138 2634 2908 2709 
Q 2678 2784 2431 2784 
Q 1963 2784 1702 2511 
Q 1441 2238 1441 1747 
Q 1441 1256 1702 982 
Q 1963 709 2431 709 
Q 2694 709 2930 787 
Q 3166 866 3366 1019 
L 3366 103 
Q 3103 6 2833 -42 
Q 2563 -91 2291 -91 
Q 1344 -91 809 395 
Q 275 881 275 1747 
Q 275 2613 809 3098 
Q 1344 3584 2291 3584 
Q 2566 3584 2833 3536 
Q 3100 3488 3366 3391 
z
" transform="scale(0.015625)"/>
     <path id="DejaVuSans-Bold-65" d="M 4031 1759 
L 4031 1441 
L 1416 1441 
Q 1456 1047 1700 850 
Q 1944 653 2381 653 
Q 2734 653 3104 758 
Q 3475 863 3866 1075 
L 3866 213 
Q 3469 63 3072 -14 
Q 2675 -91 2278 -91 
Q 1328 -91 801 392 
Q 275 875 275 1747 
Q 275 2603 792 3093 
Q 1309 3584 2216 3584 
Q 3041 3584 3536 3087 
Q 4031 2591 4031 1759 
z
M 2881 2131 
Q 2881 2450 2695 2645 
Q 2509 2841 2209 2841 
Q 1884 2841 1681 2658 
Q 1478 2475 1428 2131 
L 2881 2131 
z
" transform="scale(0.015625)"/>
     <path id="DejaVuSans-Bold-6c" d="M 538 4863 
L 1656 4863 
L 1656 0 
L 538 0 
L 538 4863 
z
" transform="scale(0.015625)"/>
     <path id="DejaVuSans-Bold-79" d="M 78 3500 
L 1197 3500 
L 2138 1125 
L 2938 3500 
L 4056 3500 
L 2584 -331 
Q 2363 -916 2067 -1148 
Q 1772 -1381 1288 -1381 
L 641 -1381 
L 641 -647 
L 991 -647 
Q 1275 -647 1404 -556 
Q 1534 -466 1606 -231 
L 1638 -134 
L 78 3500 
z
" transform="scale(0.015625)"/>
     <path id="DejaVuSans-Bold-20" transform="scale(0.015625)"/>
     <path id="DejaVuSans-Bold-73" d="M 3272 3391 
L 3272 2541 
Q 2913 2691 2578 2766 
Q 2244 2841 1947 2841 
Q 1628 2841 1473 2761 
Q 1319 2681 1319 2516 
Q 1319 2381 1436 2309 
Q 1553 2238 1856 2203 
L 2053 2175 
Q 2913 2066 3209 1816 
Q 3506 1566 3506 1031 
Q 3506 472 3093 190 
Q 2681 -91 1863 -91 
Q 1516 -91 1145 -36 
Q 775 19 384 128 
L 384 978 
Q 719 816 1070 734 
Q 1422 653 1784 653 
Q 2113 653 2278 743 
Q 2444 834 2444 1013 
Q 2444 1163 2330 1236 
Q 2216 1309 1875 1350 
L 1678 1375 
Q 931 1469 631 1722 
Q 331 1975 331 2491 
Q 331 3047 712 3315 
Q 1094 3584 1881 3584 
Q 2191 3584 2531 3537 
Q 2872 3491 3272 3391 
z
" transform="scale(0.015625)"/>
     <path id="DejaVuSans-Bold-74" d="M 1759 4494 
L 1759 3500 
L 2913 3500 
L 2913 2700 
L 1759 2700 
L 1759 1216 
Q 1759 972 1856 886 
Q 1953 800 2241 800 
L 2816 800 
L 2816 0 
L 1856 0 
Q 1194 0 917 276 
Q 641 553 641 1216 
L 641 2700 
L 84 2700 
L 84 3500 
L 641 3500 
L 641 4494 
L 1759 4494 
z
" transform="scale(0.015625)"/>
     <path id="DejaVuSans-Bold-61" d="M 2106 1575 
Q 1756 1575 1579 1456 
Q 1403 1338 1403 1106 
Q 1403 894 1545 773 
Q 1688 653 1941 653 
Q 2256 653 2472 879 
Q 2688 1106 2688 1447 
L 2688 1575 
L 2106 1575 
z
M 3816 1997 
L 3816 0 
L 2688 0 
L 2688 519 
Q 2463 200 2181 54 
Q 1900 -91 1497 -91 
Q 953 -91 614 226 
Q 275 544 275 1050 
Q 275 1666 698 1953 
Q 1122 2241 2028 2241 
L 2688 2241 
L 2688 2328 
Q 2688 2594 2478 2717 
Q 2269 2841 1825 2841 
Q 1466 2841 1156 2769 
Q 847 2697 581 2553 
L 581 3406 
Q 941 3494 1303 3539 
Q 1666 3584 2028 3584 
Q 2975 3584 3395 3211 
Q 3816 2838 3816 1997 
z
" transform="scale(0.015625)"/>
     <path id="DejaVuSans-Bold-6b" d="M 538 4863 
L 1656 4863 
L 1656 2216 
L 2944 3500 
L 4244 3500 
L 2534 1894 
L 4378 0 
L 3022 0 
L 1656 1459 
L 1656 0 
L 538 0 
L 538 4863 
z
" transform="scale(0.015625)"/>
     <path id="DejaVuSans-Bold-64" d="M 2919 2988 
L 2919 4863 
L 4044 4863 
L 4044 0 
L 2919 0 
L 2919 506 
Q 2688 197 2409 53 
Q 2131 -91 1766 -91 
Q 1119 -91 703 423 
Q 288 938 288 1747 
Q 288 2556 703 3070 
Q 1119 3584 1766 3584 
Q 2128 3584 2408 3439 
Q 2688 3294 2919 2988 
z
M 2181 722 
Q 2541 722 2730 984 
Q 2919 1247 2919 1747 
Q 2919 2247 2730 2509 
Q 2541 2772 2181 2772 
Q 1825 2772 1636 2509 
Q 1447 2247 1447 1747 
Q 1447 1247 1636 984 
Q 1825 722 2181 722 
z
" transform="scale(0.015625)"/>
     <path id="DejaVuSans-Bold-44" d="M 1791 3756 
L 1791 909 
L 2222 909 
Q 2959 909 3348 1275 
Q 3738 1641 3738 2338 
Q 3738 3031 3350 3393 
Q 2963 3756 2222 3756 
L 1791 3756 
z
M 588 4666 
L 1856 4666 
Q 2919 4666 3439 4514 
Q 3959 4363 4331 4000 
Q 4659 3684 4818 3271 
Q 4978 2859 4978 2338 
Q 4978 1809 4818 1395 
Q 4659 981 4331 666 
Q 3956 303 3431 151 
Q 2906 0 1856 0 
L 588 0 
L 588 4666 
z
" transform="scale(0.015625)"/>
     <path id="DejaVuSans-Bold-4e" d="M 588 4666 
L 1931 4666 
L 3628 1466 
L 3628 4666 
L 4769 4666 
L 4769 0 
L 3425 0 
L 1728 3200 
L 1728 0 
L 588 0 
L 588 4666 
z
" transform="scale(0.015625)"/>
     <path id="DejaVuSans-Bold-41" d="M 3419 850 
L 1538 850 
L 1241 0 
L 31 0 
L 1759 4666 
L 3194 4666 
L 4922 0 
L 3713 0 
L 3419 850 
z
M 1838 1716 
L 3116 1716 
L 2478 3572 
L 1838 1716 
z
" transform="scale(0.015625)"/>
     <path id="DejaVuSans-Bold-6f" d="M 2203 2784 
Q 1831 2784 1636 2517 
Q 1441 2250 1441 1747 
Q 1441 1244 1636 976 
Q 1831 709 2203 709 
Q 2569 709 2762 976 
Q 2956 1244 2956 1747 
Q 2956 2250 2762 2517 
Q 2569 2784 2203 2784 
z
M 2203 3584 
Q 3106 3584 3614 3096 
Q 4122 2609 4122 1747 
Q 4122 884 3614 396 
Q 3106 -91 2203 -91 
Q 1297 -91 786 396 
Q 275 884 275 1747 
Q 275 2609 786 3096 
Q 1297 3584 2203 3584 
z
" transform="scale(0.015625)"/>
     <path id="DejaVuSans-Bold-6e" d="M 4056 2131 
L 4056 0 
L 2931 0 
L 2931 347 
L 2931 1631 
Q 2931 2084 2911 2256 
Q 2891 2428 2841 2509 
Q 2775 2619 2662 2680 
Q 2550 2741 2406 2741 
Q 2056 2741 1856 2470 
Q 1656 2200 1656 1722 
L 1656 0 
L 538 0 
L 538 3500 
L 1656 3500 
L 1656 2988 
Q 1909 3294 2193 3439 
Q 2478 3584 2822 3584 
Q 3428 3584 3742 3212 
Q 4056 2841 4056 2131 
z
" transform="scale(0.015625)"/>
    </defs>
    <use xlink:href="#DejaVuSans-Bold-63"/>
    <use xlink:href="#DejaVuSans-Bold-65" transform="translate(59.277344 0)"/>
    <use xlink:href="#DejaVuSans-Bold-6c" transform="translate(127.099609 0)"/>
    <use xlink:href="#DejaVuSans-Bold-6c" transform="translate(161.376953 0)"/>
    <use xlink:href="#DejaVuSans-Bold-63" transform="translate(195.654297 0)"/>
    <use xlink:href="#DejaVuSans-Bold-79" transform="translate(254.931641 0)"/>
    <use xlink:href="#DejaVuSans-Bold-63" transform="translate(320.117188 0)"/>
    <use xlink:href="#DejaVuSans-Bold-6c" transform="translate(379.394531 0)"/>
    <use xlink:href="#DejaVuSans-Bold-65" transform="translate(413.671875 0)"/>
    <use xlink:href="#DejaVuSans-Bold-20" transform="translate(481.494141 0)"/>
    <use xlink:href="#DejaVuSans-Bold-73" transform="translate(516.308594 0)"/>
    <use xlink:href="#DejaVuSans-Bold-74" transform="translate(575.830078 0)"/>
    <use xlink:href="#DejaVuSans-Bold-61" transform="translate(623.632812 0)"/>
    <use xlink:href="#DejaVuSans-Bold-63" transform="translate(691.113281 0)"/>
    <use xlink:href="#DejaVuSans-Bold-6b" transform="translate(750.390625 0)"/>
    <use xlink:href="#DejaVuSans-Bold-65" transform="translate(814.269531 0)"/>
    <use xlink:href="#DejaVuSans-Bold-64" transform="translate(882.091797 0)"/>
    <use xlink:href="#DejaVuSans-Bold-20" transform="translate(953.673828 0)"/>
    <use xlink:href="#DejaVuSans-Bold-44" transform="translate(988.488281 0)"/>
    <use xlink:href="#DejaVuSans-Bold-4e" transform="translate(1071.496094 0)"/>
    <use xlink:href="#DejaVuSans-Bold-41" transform="translate(1155.1875 0)"/>
    <use xlink:href="#DejaVuSans-Bold-20" transform="translate(1232.580078 0)"/>
    <use xlink:href="#DejaVuSans-Bold-63" transform="translate(1267.394531 0)"/>
    <use xlink:href="#DejaVuSans-Bold-6f" transform="translate(1326.671875 0)"/>
    <use xlink:href="#DejaVuSans-Bold-6e" transform="translate(1395.373047 0)"/>
    <use xlink:href="#DejaVuSans-Bold-74" transform="translate(1466.564453 0)"/>
    <use xlink:href="#DejaVuSans-Bold-65" transform="translate(1514.367188 0)"/>
    <use xlink:href="#DejaVuSans-Bold-6e" transform="translate(1582.189453 0)"/>
    <use xlink:href="#DejaVuSans-Bold-74" transform="translate(1653.380859 0)"/>
   </g>
  </g>
 </g>
 <defs>
  <clipPath id="p9e194c770e">
   <rect x="35.659375" y="43.313386" width="166.677165" height="147.968504"/>
  </clipPath>
 </defs>
</svg>
