<?xml version="1.0" encoding="utf-8" standalone="no"?>
<!DOCTYPE svg PUBLIC "-//W3C//DTD SVG 1.1//EN"
  "http://www.w3.org/Graphics/SVG/1.1/DTD/svg11.dtd">
<svg xmlns:xlink="http://www.w3.org/1999/xlink" width="257.891403pt" height="198.017358pt" viewBox="0 0 257.891403 198.017358" xmlns="http://www.w3.org/2000/svg" version="1.1">
 <metadata>
  <rdf:RDF xmlns:dc="http://purl.org/dc/elements/1.1/" xmlns:cc="http://creativecommons.org/ns#" xmlns:rdf="http://www.w3.org/1999/02/22-rdf-syntax-ns#">
   <cc:Work>
    <dc:type rdf:resource="http://purl.org/dc/dcmitype/StillImage"/>
    <dc:date>2025-09-10T13:55:51.577414</dc:date>
    <dc:format>image/svg+xml</dc:format>
    <dc:creator>
     <cc:Agent>
      <dc:title>Matplotlib v3.10.1, https://matplotlib.org/</dc:title>
     </cc:Agent>
    </dc:creator>
   </cc:Work>
  </rdf:RDF>
 </metadata>
 <defs>
  <style type="text/css">*{stroke-linejoin: round; stroke-linecap: butt}</style>
 </defs>
 <g id="figure_1">
  <g id="patch_1">
   <path d="M 0 198.017358 
L 257.891403 198.017358 
L 257.891403 0 
L 0 0 
z
" style="fill: #ffffff"/>
  </g>
  <g id="axes_1">
   <g id="patch_2">
    <path d="M 31.841875 94.543164 
L 107.604223 94.543164 
L 107.604223 38.494488 
L 31.841875 38.494488 
z
" style="fill: #ffffff"/>
   </g>
   <g id="patch_3">
    <path d="M 35.285618 94.543164 
L 49.785589 94.543164 
L 49.785589 54.407005 
L 35.285618 54.407005 
z
" clip-path="url(#p10587d61aa)" style="fill: #80adc3"/>
   </g>
   <g id="patch_4">
    <path d="M 53.410582 94.543164 
L 67.910553 94.543164 
L 67.910553 60.108405 
L 53.410582 60.108405 
z
" clip-path="url(#p10587d61aa)" style="fill: #80adc3"/>
   </g>
   <g id="patch_5">
    <path d="M 71.535545 94.543164 
L 86.035516 94.543164 
L 86.035516 44.545464 
L 71.535545 44.545464 
z
" clip-path="url(#p10587d61aa)" style="fill: #80adc3"/>
   </g>
   <g id="patch_6">
    <path d="M 89.660509 94.543164 
L 104.16048 94.543164 
L 104.16048 63.300486 
L 89.660509 63.300486 
z
" clip-path="url(#p10587d61aa)" style="fill: #80adc3"/>
   </g>
   <g id="matplotlib.axis_1">
    <g id="xtick_1">
     <g id="line2d_1"/>
    </g>
    <g id="xtick_2">
     <g id="line2d_2"/>
    </g>
    <g id="xtick_3">
     <g id="line2d_3"/>
    </g>
    <g id="xtick_4">
     <g id="line2d_4"/>
    </g>
   </g>
   <g id="matplotlib.axis_2">
    <g id="ytick_1">
     <g id="line2d_5"/>
     <g id="text_1">
      <!-- 0 -->
      <g transform="translate(26.024375 96.822695) scale(0.06 -0.06)">
       <defs>
        <path id="DejaVuSans-30" d="M 2034 4250 
Q 1547 4250 1301 3770 
Q 1056 3291 1056 2328 
Q 1056 1369 1301 889 
Q 1547 409 2034 409 
Q 2525 409 2770 889 
Q 3016 1369 3016 2328 
Q 3016 3291 2770 3770 
Q 2525 4250 2034 4250 
z
M 2034 4750 
Q 2819 4750 3233 4129 
Q 3647 3509 3647 2328 
Q 3647 1150 3233 529 
Q 2819 -91 2034 -91 
Q 1250 -91 836 529 
Q 422 1150 422 2328 
Q 422 3509 836 4129 
Q 1250 4750 2034 4750 
z
" transform="scale(0.015625)"/>
       </defs>
       <use xlink:href="#DejaVuSans-30"/>
      </g>
     </g>
    </g>
    <g id="ytick_2">
     <g id="line2d_6"/>
     <g id="text_2">
      <!-- 20 -->
      <g transform="translate(22.206875 82.77899) scale(0.06 -0.06)">
       <defs>
        <path id="DejaVuSans-32" d="M 1228 531 
L 3431 531 
L 3431 0 
L 469 0 
L 469 531 
Q 828 903 1448 1529 
Q 2069 2156 2228 2338 
Q 2531 2678 2651 2914 
Q 2772 3150 2772 3378 
Q 2772 3750 2511 3984 
Q 2250 4219 1831 4219 
Q 1534 4219 1204 4116 
Q 875 4013 500 3803 
L 500 4441 
Q 881 4594 1212 4672 
Q 1544 4750 1819 4750 
Q 2544 4750 2975 4387 
Q 3406 4025 3406 3419 
Q 3406 3131 3298 2873 
Q 3191 2616 2906 2266 
Q 2828 2175 2409 1742 
Q 1991 1309 1228 531 
z
" transform="scale(0.015625)"/>
       </defs>
       <use xlink:href="#DejaVuSans-32"/>
       <use xlink:href="#DejaVuSans-30" transform="translate(63.623047 0)"/>
      </g>
     </g>
    </g>
    <g id="ytick_3">
     <g id="line2d_7"/>
     <g id="text_3">
      <!-- 40 -->
      <g transform="translate(22.206875 68.735284) scale(0.06 -0.06)">
       <defs>
        <path id="DejaVuSans-34" d="M 2419 4116 
L 825 1625 
L 2419 1625 
L 2419 4116 
z
M 2253 4666 
L 3047 4666 
L 3047 1625 
L 3713 1625 
L 3713 1100 
L 3047 1100 
L 3047 0 
L 2419 0 
L 2419 1100 
L 313 1100 
L 313 1709 
L 2253 4666 
z
" transform="scale(0.015625)"/>
       </defs>
       <use xlink:href="#DejaVuSans-34"/>
       <use xlink:href="#DejaVuSans-30" transform="translate(63.623047 0)"/>
      </g>
     </g>
    </g>
    <g id="ytick_4">
     <g id="line2d_8"/>
     <g id="text_4">
      <!-- 60 -->
      <g transform="translate(22.206875 54.691579) scale(0.06 -0.06)">
       <defs>
        <path id="DejaVuSans-36" d="M 2113 2584 
Q 1688 2584 1439 2293 
Q 1191 2003 1191 1497 
Q 1191 994 1439 701 
Q 1688 409 2113 409 
Q 2538 409 2786 701 
Q 3034 994 3034 1497 
Q 3034 2003 2786 2293 
Q 2538 2584 2113 2584 
z
M 3366 4563 
L 3366 3988 
Q 3128 4100 2886 4159 
Q 2644 4219 2406 4219 
Q 1781 4219 1451 3797 
Q 1122 3375 1075 2522 
Q 1259 2794 1537 2939 
Q 1816 3084 2150 3084 
Q 2853 3084 3261 2657 
Q 3669 2231 3669 1497 
Q 3669 778 3244 343 
Q 2819 -91 2113 -91 
Q 1303 -91 875 529 
Q 447 1150 447 2328 
Q 447 3434 972 4092 
Q 1497 4750 2381 4750 
Q 2619 4750 2861 4703 
Q 3103 4656 3366 4563 
z
" transform="scale(0.015625)"/>
       </defs>
       <use xlink:href="#DejaVuSans-36"/>
       <use xlink:href="#DejaVuSans-30" transform="translate(63.623047 0)"/>
      </g>
     </g>
    </g>
    <g id="text_5">
     <!-- percent -->
     <g transform="translate(18.959063 78.007889) rotate(-90) scale(0.06 -0.06)">
      <defs>
       <path id="DejaVuSans-70" d="M 1159 525 
L 1159 -1331 
L 581 -1331 
L 581 3500 
L 1159 3500 
L 1159 2969 
Q 1341 3281 1617 3432 
Q 1894 3584 2278 3584 
Q 2916 3584 3314 3078 
Q 3713 2572 3713 1747 
Q 3713 922 3314 415 
Q 2916 -91 2278 -91 
Q 1894 -91 1617 61 
Q 1341 213 1159 525 
z
M 3116 1747 
Q 3116 2381 2855 2742 
Q 2594 3103 2138 3103 
Q 1681 3103 1420 2742 
Q 1159 2381 1159 1747 
Q 1159 1113 1420 752 
Q 1681 391 2138 391 
Q 2594 391 2855 752 
Q 3116 1113 3116 1747 
z
" transform="scale(0.015625)"/>
       <path id="DejaVuSans-65" d="M 3597 1894 
L 3597 1613 
L 953 1613 
Q 991 1019 1311 708 
Q 1631 397 2203 397 
Q 2534 397 2845 478 
Q 3156 559 3463 722 
L 3463 178 
Q 3153 47 2828 -22 
Q 2503 -91 2169 -91 
Q 1331 -91 842 396 
Q 353 884 353 1716 
Q 353 2575 817 3079 
Q 1281 3584 2069 3584 
Q 2775 3584 3186 3129 
Q 3597 2675 3597 1894 
z
M 3022 2063 
Q 3016 2534 2758 2815 
Q 2500 3097 2075 3097 
Q 1594 3097 1305 2825 
Q 1016 2553 972 2059 
L 3022 2063 
z
" transform="scale(0.015625)"/>
       <path id="DejaVuSans-72" d="M 2631 2963 
Q 2534 3019 2420 3045 
Q 2306 3072 2169 3072 
Q 1681 3072 1420 2755 
Q 1159 2438 1159 1844 
L 1159 0 
L 581 0 
L 581 3500 
L 1159 3500 
L 1159 2956 
Q 1341 3275 1631 3429 
Q 1922 3584 2338 3584 
Q 2397 3584 2469 3576 
Q 2541 3569 2628 3553 
L 2631 2963 
z
" transform="scale(0.015625)"/>
       <path id="DejaVuSans-63" d="M 3122 3366 
L 3122 2828 
Q 2878 2963 2633 3030 
Q 2388 3097 2138 3097 
Q 1578 3097 1268 2742 
Q 959 2388 959 1747 
Q 959 1106 1268 751 
Q 1578 397 2138 397 
Q 2388 397 2633 464 
Q 2878 531 3122 666 
L 3122 134 
Q 2881 22 2623 -34 
Q 2366 -91 2075 -91 
Q 1284 -91 818 406 
Q 353 903 353 1747 
Q 353 2603 823 3093 
Q 1294 3584 2113 3584 
Q 2378 3584 2631 3529 
Q 2884 3475 3122 3366 
z
" transform="scale(0.015625)"/>
       <path id="DejaVuSans-6e" d="M 3513 2113 
L 3513 0 
L 2938 0 
L 2938 2094 
Q 2938 2591 2744 2837 
Q 2550 3084 2163 3084 
Q 1697 3084 1428 2787 
Q 1159 2491 1159 1978 
L 1159 0 
L 581 0 
L 581 3500 
L 1159 3500 
L 1159 2956 
Q 1366 3272 1645 3428 
Q 1925 3584 2291 3584 
Q 2894 3584 3203 3211 
Q 3513 2838 3513 2113 
z
" transform="scale(0.015625)"/>
       <path id="DejaVuSans-74" d="M 1172 4494 
L 1172 3500 
L 2356 3500 
L 2356 3053 
L 1172 3053 
L 1172 1153 
Q 1172 725 1289 603 
Q 1406 481 1766 481 
L 2356 481 
L 2356 0 
L 1766 0 
Q 1100 0 847 248 
Q 594 497 594 1153 
L 594 3053 
L 172 3053 
L 172 3500 
L 594 3500 
L 594 4494 
L 1172 4494 
z
" transform="scale(0.015625)"/>
      </defs>
      <use xlink:href="#DejaVuSans-70"/>
      <use xlink:href="#DejaVuSans-65" transform="translate(63.476562 0)"/>
      <use xlink:href="#DejaVuSans-72" transform="translate(125 0)"/>
      <use xlink:href="#DejaVuSans-63" transform="translate(163.863281 0)"/>
      <use xlink:href="#DejaVuSans-65" transform="translate(218.84375 0)"/>
      <use xlink:href="#DejaVuSans-6e" transform="translate(280.367188 0)"/>
      <use xlink:href="#DejaVuSans-74" transform="translate(343.746094 0)"/>
     </g>
    </g>
   </g>
   <g id="line2d_9">
    <path d="M 42.535604 56.499058 
L 42.535604 52.965194 
" clip-path="url(#p10587d61aa)" style="fill: none; stroke: #424242; stroke-width: 0.75"/>
   </g>
   <g id="line2d_10">
    <path d="M 60.660567 62.640474 
L 60.660567 57.881271 
" clip-path="url(#p10587d61aa)" style="fill: none; stroke: #424242; stroke-width: 0.75"/>
   </g>
   <g id="line2d_11">
    <path d="M 78.785531 47.787396 
L 78.785531 41.163473 
" clip-path="url(#p10587d61aa)" style="fill: none; stroke: #424242; stroke-width: 0.75"/>
   </g>
   <g id="line2d_12">
    <path d="M 96.910494 64.684258 
L 96.910494 60.816748 
" clip-path="url(#p10587d61aa)" style="fill: none; stroke: #424242; stroke-width: 0.75"/>
   </g>
   <g id="patch_7">
    <path d="M 31.841875 94.543164 
L 31.841875 38.494488 
" style="fill: none; stroke: #000000; stroke-width: 0.5; stroke-linejoin: miter; stroke-linecap: square"/>
   </g>
   <g id="patch_8">
    <path d="M 31.841875 94.543164 
L 107.604223 94.543164 
" style="fill: none; stroke: #000000; stroke-width: 0.5; stroke-linejoin: miter; stroke-linecap: square"/>
   </g>
   <g id="PathCollection_1">
    <defs>
     <path id="ma8bbe07e28" d="M -2.5 2.5 
L 2.5 2.5 
L 2.5 -2.5 
L -2.5 -2.5 
z
" style="stroke: #000000; stroke-opacity: 0.8; stroke-width: 0.5"/>
    </defs>
    <g clip-path="url(#p10587d61aa)">
     <use xlink:href="#ma8bbe07e28" x="42.889981" y="52.965194" style="fill: #d3d3d3; fill-opacity: 0.8; stroke: #000000; stroke-opacity: 0.8; stroke-width: 0.5"/>
    </g>
   </g>
   <g id="PathCollection_2">
    <g clip-path="url(#p10587d61aa)">
     <use xlink:href="#ma8bbe07e28" x="59.731666" y="57.881271" style="fill: #d3d3d3; fill-opacity: 0.8; stroke: #000000; stroke-opacity: 0.8; stroke-width: 0.5"/>
    </g>
   </g>
   <g id="PathCollection_3">
    <g clip-path="url(#p10587d61aa)">
     <use xlink:href="#ma8bbe07e28" x="78.605494" y="41.163473" style="fill: #d3d3d3; fill-opacity: 0.8; stroke: #000000; stroke-opacity: 0.8; stroke-width: 0.5"/>
    </g>
   </g>
   <g id="PathCollection_4">
    <g clip-path="url(#p10587d61aa)">
     <use xlink:href="#ma8bbe07e28" x="96.484994" y="60.816748" style="fill: #d3d3d3; fill-opacity: 0.8; stroke: #000000; stroke-opacity: 0.8; stroke-width: 0.5"/>
    </g>
   </g>
   <g id="PathCollection_5">
    <defs>
     <path id="ma016c18115" d="M 0 2.5 
C 0.663008 2.5 1.29895 2.236584 1.767767 1.767767 
C 2.236584 1.29895 2.5 0.663008 2.5 0 
C 2.5 -0.663008 2.236584 -1.29895 1.767767 -1.767767 
C 1.29895 -2.236584 0.663008 -2.5 0 -2.5 
C -0.663008 -2.5 -1.29895 -2.236584 -1.767767 -1.767767 
C -2.236584 -1.29895 -2.5 -0.663008 -2.5 0 
C -2.5 0.663008 -2.236584 1.29895 -1.767767 1.767767 
C -1.29895 2.236584 -0.663008 2.5 0 2.5 
z
" style="stroke: #000000; stroke-opacity: 0.8; stroke-width: 0.5"/>
    </defs>
    <g clip-path="url(#p10587d61aa)">
     <use xlink:href="#ma016c18115" x="43.945044" y="53.756763" style="fill: #d3d3d3; fill-opacity: 0.8; stroke: #000000; stroke-opacity: 0.8; stroke-width: 0.5"/>
    </g>
   </g>
   <g id="PathCollection_6">
    <g clip-path="url(#p10587d61aa)">
     <use xlink:href="#ma016c18115" x="60.461924" y="62.640474" style="fill: #d3d3d3; fill-opacity: 0.8; stroke: #000000; stroke-opacity: 0.8; stroke-width: 0.5"/>
    </g>
   </g>
   <g id="PathCollection_7">
    <g clip-path="url(#p10587d61aa)">
     <use xlink:href="#ma016c18115" x="79.483092" y="44.685523" style="fill: #d3d3d3; fill-opacity: 0.8; stroke: #000000; stroke-opacity: 0.8; stroke-width: 0.5"/>
    </g>
   </g>
   <g id="PathCollection_8">
    <g clip-path="url(#p10587d61aa)">
     <use xlink:href="#ma016c18115" x="97.854197" y="64.400453" style="fill: #d3d3d3; fill-opacity: 0.8; stroke: #000000; stroke-opacity: 0.8; stroke-width: 0.5"/>
    </g>
   </g>
   <g id="PathCollection_9">
    <defs>
     <path id="m49073e6408" d="M 0 -2.5 
L -2.5 2.5 
L 2.5 2.5 
z
" style="stroke: #000000; stroke-opacity: 0.8; stroke-width: 0.5"/>
    </defs>
    <g clip-path="url(#p10587d61aa)">
     <use xlink:href="#m49073e6408" x="42.494941" y="56.499058" style="fill: #d3d3d3; fill-opacity: 0.8; stroke: #000000; stroke-opacity: 0.8; stroke-width: 0.5"/>
    </g>
   </g>
   <g id="PathCollection_10">
    <g clip-path="url(#p10587d61aa)">
     <use xlink:href="#m49073e6408" x="60.610818" y="59.803472" style="fill: #d3d3d3; fill-opacity: 0.8; stroke: #000000; stroke-opacity: 0.8; stroke-width: 0.5"/>
    </g>
   </g>
   <g id="PathCollection_11">
    <g clip-path="url(#p10587d61aa)">
     <use xlink:href="#m49073e6408" x="79.726717" y="47.787396" style="fill: #d3d3d3; fill-opacity: 0.8; stroke: #000000; stroke-opacity: 0.8; stroke-width: 0.5"/>
    </g>
   </g>
   <g id="PathCollection_12">
    <g clip-path="url(#p10587d61aa)">
     <use xlink:href="#m49073e6408" x="97.03072" y="64.684258" style="fill: #d3d3d3; fill-opacity: 0.8; stroke: #000000; stroke-opacity: 0.8; stroke-width: 0.5"/>
    </g>
   </g>
   <g id="text_6">
    <!-- * -->
    <g transform="translate(59.160567 37.246676) scale(0.06 -0.06)">
     <defs>
      <path id="DejaVuSans-2a" d="M 3009 3897 
L 1888 3291 
L 3009 2681 
L 2828 2375 
L 1778 3009 
L 1778 1831 
L 1422 1831 
L 1422 3009 
L 372 2375 
L 191 2681 
L 1313 3291 
L 191 3897 
L 372 4206 
L 1422 3572 
L 1422 4750 
L 1778 4750 
L 1778 3572 
L 2828 4206 
L 3009 3897 
z
" transform="scale(0.015625)"/>
     </defs>
     <use xlink:href="#DejaVuSans-2a"/>
    </g>
   </g>
   <g id="text_7">
    <!-- * -->
    <g transform="translate(77.285531 37.246676) scale(0.06 -0.06)">
     <use xlink:href="#DejaVuSans-2a"/>
    </g>
   </g>
   <g id="text_8">
    <!-- ** -->
    <g transform="translate(93.910494 37.246676) scale(0.06 -0.06)">
     <use xlink:href="#DejaVuSans-2a"/>
     <use xlink:href="#DejaVuSans-2a" transform="translate(50 0)"/>
    </g>
   </g>
   <g id="text_9">
    <!-- 2N -->
    <g transform="translate(31.841875 32.692054) scale(0.06 -0.06)">
     <defs>
      <path id="DejaVuSans-4e" d="M 628 4666 
L 1478 4666 
L 3547 763 
L 3547 4666 
L 4159 4666 
L 4159 0 
L 3309 0 
L 1241 3903 
L 1241 0 
L 628 0 
L 628 4666 
z
" transform="scale(0.015625)"/>
     </defs>
     <use xlink:href="#DejaVuSans-32"/>
     <use xlink:href="#DejaVuSans-4e" transform="translate(63.623047 0)"/>
    </g>
   </g>
  </g>
  <g id="axes_2">
   <g id="patch_9">
    <path d="M 122.756692 94.543164 
L 198.51904 94.543164 
L 198.51904 38.494488 
L 122.756692 38.494488 
z
" style="fill: #ffffff"/>
   </g>
   <g id="patch_10">
    <path d="M 126.200436 94.543164 
L 140.700406 94.543164 
L 140.700406 47.909917 
L 126.200436 47.909917 
z
" clip-path="url(#p96906281bf)" style="fill: #caba75"/>
   </g>
   <g id="patch_11">
    <path d="M 144.325399 94.543164 
L 158.82537 94.543164 
L 158.82537 73.170814 
L 144.325399 73.170814 
z
" clip-path="url(#p96906281bf)" style="fill: #caba75"/>
   </g>
   <g id="patch_12">
    <path d="M 162.450363 94.543164 
L 176.950334 94.543164 
L 176.950334 63.908108 
L 162.450363 63.908108 
z
" clip-path="url(#p96906281bf)" style="fill: #caba75"/>
   </g>
   <g id="patch_13">
    <path d="M 180.575326 94.543164 
L 195.075297 94.543164 
L 195.075297 88.772854 
L 180.575326 88.772854 
z
" clip-path="url(#p96906281bf)" style="fill: #caba75"/>
   </g>
   <g id="matplotlib.axis_3">
    <g id="xtick_5">
     <g id="line2d_13"/>
    </g>
    <g id="xtick_6">
     <g id="line2d_14"/>
    </g>
    <g id="xtick_7">
     <g id="line2d_15"/>
    </g>
    <g id="xtick_8">
     <g id="line2d_16"/>
    </g>
   </g>
   <g id="matplotlib.axis_4">
    <g id="ytick_5">
     <g id="line2d_17"/>
     <g id="text_10">
      <!-- 0 -->
      <g transform="translate(116.939192 96.822695) scale(0.06 -0.06)">
       <use xlink:href="#DejaVuSans-30"/>
      </g>
     </g>
    </g>
    <g id="ytick_6">
     <g id="line2d_18"/>
     <g id="text_11">
      <!-- 10 -->
      <g transform="translate(113.121692 73.995225) scale(0.06 -0.06)">
       <defs>
        <path id="DejaVuSans-31" d="M 794 531 
L 1825 531 
L 1825 4091 
L 703 3866 
L 703 4441 
L 1819 4666 
L 2450 4666 
L 2450 531 
L 3481 531 
L 3481 0 
L 794 0 
L 794 531 
z
" transform="scale(0.015625)"/>
       </defs>
       <use xlink:href="#DejaVuSans-31"/>
       <use xlink:href="#DejaVuSans-30" transform="translate(63.623047 0)"/>
      </g>
     </g>
    </g>
    <g id="ytick_7">
     <g id="line2d_19"/>
     <g id="text_12">
      <!-- 20 -->
      <g transform="translate(113.121692 51.167755) scale(0.06 -0.06)">
       <use xlink:href="#DejaVuSans-32"/>
       <use xlink:href="#DejaVuSans-30" transform="translate(63.623047 0)"/>
      </g>
     </g>
    </g>
   </g>
   <g id="line2d_20">
    <path d="M 133.450421 54.00664 
L 133.450421 41.163473 
" clip-path="url(#p96906281bf)" style="fill: none; stroke: #424242; stroke-width: 0.75"/>
   </g>
   <g id="line2d_21">
    <path d="M 151.575385 76.065756 
L 151.575385 69.369328 
" clip-path="url(#p96906281bf)" style="fill: none; stroke: #424242; stroke-width: 0.75"/>
   </g>
   <g id="line2d_22">
    <path d="M 169.700348 70.497563 
L 169.700348 57.785015 
" clip-path="url(#p96906281bf)" style="fill: none; stroke: #424242; stroke-width: 0.75"/>
   </g>
   <g id="line2d_23">
    <path d="M 187.825312 91.359563 
L 187.825312 86.204362 
" clip-path="url(#p96906281bf)" style="fill: none; stroke: #424242; stroke-width: 0.75"/>
   </g>
   <g id="patch_14">
    <path d="M 122.756692 94.543164 
L 122.756692 38.494488 
" style="fill: none; stroke: #000000; stroke-width: 0.5; stroke-linejoin: miter; stroke-linecap: square"/>
   </g>
   <g id="patch_15">
    <path d="M 122.756692 94.543164 
L 198.51904 94.543164 
" style="fill: none; stroke: #000000; stroke-width: 0.5; stroke-linejoin: miter; stroke-linecap: square"/>
   </g>
   <g id="PathCollection_13">
    <g clip-path="url(#p96906281bf)">
     <use xlink:href="#ma8bbe07e28" x="134.823923" y="54.00664" style="fill: #d3d3d3; fill-opacity: 0.8; stroke: #000000; stroke-opacity: 0.8; stroke-width: 0.5"/>
    </g>
   </g>
   <g id="PathCollection_14">
    <g clip-path="url(#p96906281bf)">
     <use xlink:href="#ma8bbe07e28" x="153.199984" y="69.369328" style="fill: #d3d3d3; fill-opacity: 0.8; stroke: #000000; stroke-opacity: 0.8; stroke-width: 0.5"/>
    </g>
   </g>
   <g id="PathCollection_15">
    <g clip-path="url(#p96906281bf)">
     <use xlink:href="#ma8bbe07e28" x="171.223171" y="70.497563" style="fill: #d3d3d3; fill-opacity: 0.8; stroke: #000000; stroke-opacity: 0.8; stroke-width: 0.5"/>
    </g>
   </g>
   <g id="PathCollection_16">
    <g clip-path="url(#p96906281bf)">
     <use xlink:href="#ma8bbe07e28" x="186.891333" y="91.359563" style="fill: #d3d3d3; fill-opacity: 0.8; stroke: #000000; stroke-opacity: 0.8; stroke-width: 0.5"/>
    </g>
   </g>
   <g id="PathCollection_17">
    <g clip-path="url(#p96906281bf)">
     <use xlink:href="#ma016c18115" x="134.183554" y="48.559637" style="fill: #d3d3d3; fill-opacity: 0.8; stroke: #000000; stroke-opacity: 0.8; stroke-width: 0.5"/>
    </g>
   </g>
   <g id="PathCollection_18">
    <g clip-path="url(#p96906281bf)">
     <use xlink:href="#ma016c18115" x="151.7528" y="74.077359" style="fill: #d3d3d3; fill-opacity: 0.8; stroke: #000000; stroke-opacity: 0.8; stroke-width: 0.5"/>
    </g>
   </g>
   <g id="PathCollection_19">
    <g clip-path="url(#p96906281bf)">
     <use xlink:href="#ma016c18115" x="168.308975" y="63.441746" style="fill: #d3d3d3; fill-opacity: 0.8; stroke: #000000; stroke-opacity: 0.8; stroke-width: 0.5"/>
    </g>
   </g>
   <g id="PathCollection_20">
    <g clip-path="url(#p96906281bf)">
     <use xlink:href="#ma016c18115" x="187.800238" y="88.754637" style="fill: #d3d3d3; fill-opacity: 0.8; stroke: #000000; stroke-opacity: 0.8; stroke-width: 0.5"/>
    </g>
   </g>
   <g id="PathCollection_21">
    <g clip-path="url(#p96906281bf)">
     <use xlink:href="#m49073e6408" x="133.26525" y="41.163473" style="fill: #d3d3d3; fill-opacity: 0.8; stroke: #000000; stroke-opacity: 0.8; stroke-width: 0.5"/>
    </g>
   </g>
   <g id="PathCollection_22">
    <g clip-path="url(#p96906281bf)">
     <use xlink:href="#m49073e6408" x="152.812797" y="76.065756" style="fill: #d3d3d3; fill-opacity: 0.8; stroke: #000000; stroke-opacity: 0.8; stroke-width: 0.5"/>
    </g>
   </g>
   <g id="PathCollection_23">
    <g clip-path="url(#p96906281bf)">
     <use xlink:href="#m49073e6408" x="170.887233" y="57.785015" style="fill: #d3d3d3; fill-opacity: 0.8; stroke: #000000; stroke-opacity: 0.8; stroke-width: 0.5"/>
    </g>
   </g>
   <g id="PathCollection_24">
    <g clip-path="url(#p96906281bf)">
     <use xlink:href="#m49073e6408" x="188.592944" y="86.204362" style="fill: #d3d3d3; fill-opacity: 0.8; stroke: #000000; stroke-opacity: 0.8; stroke-width: 0.5"/>
    </g>
   </g>
   <g id="text_13">
    <!-- ** -->
    <g transform="translate(148.575385 37.246676) scale(0.06 -0.06)">
     <use xlink:href="#DejaVuSans-2a"/>
     <use xlink:href="#DejaVuSans-2a" transform="translate(50 0)"/>
    </g>
   </g>
   <g id="text_14">
    <!-- * -->
    <g transform="translate(168.200348 37.246676) scale(0.06 -0.06)">
     <use xlink:href="#DejaVuSans-2a"/>
    </g>
   </g>
   <g id="text_15">
    <!-- *** -->
    <g transform="translate(183.325312 37.246676) scale(0.06 -0.06)">
     <use xlink:href="#DejaVuSans-2a"/>
     <use xlink:href="#DejaVuSans-2a" transform="translate(50 0)"/>
     <use xlink:href="#DejaVuSans-2a" transform="translate(100 0)"/>
    </g>
   </g>
   <g id="text_16">
    <!-- S -->
    <g transform="translate(122.756692 32.692054) scale(0.06 -0.06)">
     <defs>
      <path id="DejaVuSans-53" d="M 3425 4513 
L 3425 3897 
Q 3066 4069 2747 4153 
Q 2428 4238 2131 4238 
Q 1616 4238 1336 4038 
Q 1056 3838 1056 3469 
Q 1056 3159 1242 3001 
Q 1428 2844 1947 2747 
L 2328 2669 
Q 3034 2534 3370 2195 
Q 3706 1856 3706 1288 
Q 3706 609 3251 259 
Q 2797 -91 1919 -91 
Q 1588 -91 1214 -16 
Q 841 59 441 206 
L 441 856 
Q 825 641 1194 531 
Q 1563 422 1919 422 
Q 2459 422 2753 634 
Q 3047 847 3047 1241 
Q 3047 1584 2836 1778 
Q 2625 1972 2144 2069 
L 1759 2144 
Q 1053 2284 737 2584 
Q 422 2884 422 3419 
Q 422 4038 858 4394 
Q 1294 4750 2059 4750 
Q 2388 4750 2728 4690 
Q 3069 4631 3425 4513 
z
" transform="scale(0.015625)"/>
     </defs>
     <use xlink:href="#DejaVuSans-53"/>
    </g>
   </g>
  </g>
  <g id="axes_3">
   <g id="patch_16">
    <path d="M 31.841875 161.801575 
L 107.604223 161.801575 
L 107.604223 105.752899 
L 31.841875 105.752899 
z
" style="fill: #ffffff"/>
   </g>
   <g id="patch_17">
    <path d="M 35.285618 161.801575 
L 49.785589 161.801575 
L 49.785589 133.194934 
L 35.285618 133.194934 
z
" clip-path="url(#p0292844789)" style="fill: #5a6e8c"/>
   </g>
   <g id="patch_18">
    <path d="M 53.410582 161.801575 
L 67.910553 161.801575 
L 67.910553 125.113102 
L 53.410582 125.113102 
z
" clip-path="url(#p0292844789)" style="fill: #5a6e8c"/>
   </g>
   <g id="patch_19">
    <path d="M 71.535545 161.801575 
L 86.035516 161.801575 
L 86.035516 142.237308 
L 71.535545 142.237308 
z
" clip-path="url(#p0292844789)" style="fill: #5a6e8c"/>
   </g>
   <g id="patch_20">
    <path d="M 89.660509 161.801575 
L 104.16048 161.801575 
L 104.16048 111.862571 
L 89.660509 111.862571 
z
" clip-path="url(#p0292844789)" style="fill: #5a6e8c"/>
   </g>
   <g id="matplotlib.axis_5">
    <g id="xtick_9">
     <g id="line2d_24"/>
     <g id="text_17">
      <!-- control -->
      <g transform="translate(26.949202 181.729383) rotate(-45) scale(0.06 -0.06)">
       <defs>
        <path id="DejaVuSans-6f" d="M 1959 3097 
Q 1497 3097 1228 2736 
Q 959 2375 959 1747 
Q 959 1119 1226 758 
Q 1494 397 1959 397 
Q 2419 397 2687 759 
Q 2956 1122 2956 1747 
Q 2956 2369 2687 2733 
Q 2419 3097 1959 3097 
z
M 1959 3584 
Q 2709 3584 3137 3096 
Q 3566 2609 3566 1747 
Q 3566 888 3137 398 
Q 2709 -91 1959 -91 
Q 1206 -91 779 398 
Q 353 888 353 1747 
Q 353 2609 779 3096 
Q 1206 3584 1959 3584 
z
" transform="scale(0.015625)"/>
        <path id="DejaVuSans-6c" d="M 603 4863 
L 1178 4863 
L 1178 0 
L 603 0 
L 603 4863 
z
" transform="scale(0.015625)"/>
       </defs>
       <use xlink:href="#DejaVuSans-63"/>
       <use xlink:href="#DejaVuSans-6f" transform="translate(54.980469 0)"/>
       <use xlink:href="#DejaVuSans-6e" transform="translate(116.162109 0)"/>
       <use xlink:href="#DejaVuSans-74" transform="translate(179.541016 0)"/>
       <use xlink:href="#DejaVuSans-72" transform="translate(218.75 0)"/>
       <use xlink:href="#DejaVuSans-6f" transform="translate(257.613281 0)"/>
       <use xlink:href="#DejaVuSans-6c" transform="translate(318.794922 0)"/>
      </g>
     </g>
    </g>
    <g id="xtick_10">
     <g id="line2d_25"/>
     <g id="text_18">
      <!-- cond01 -->
      <g transform="translate(44.068527 182.735022) rotate(-45) scale(0.06 -0.06)">
       <defs>
        <path id="DejaVuSans-64" d="M 2906 2969 
L 2906 4863 
L 3481 4863 
L 3481 0 
L 2906 0 
L 2906 525 
Q 2725 213 2448 61 
Q 2172 -91 1784 -91 
Q 1150 -91 751 415 
Q 353 922 353 1747 
Q 353 2572 751 3078 
Q 1150 3584 1784 3584 
Q 2172 3584 2448 3432 
Q 2725 3281 2906 2969 
z
M 947 1747 
Q 947 1113 1208 752 
Q 1469 391 1925 391 
Q 2381 391 2643 752 
Q 2906 1113 2906 1747 
Q 2906 2381 2643 2742 
Q 2381 3103 1925 3103 
Q 1469 3103 1208 2742 
Q 947 2381 947 1747 
z
" transform="scale(0.015625)"/>
       </defs>
       <use xlink:href="#DejaVuSans-63"/>
       <use xlink:href="#DejaVuSans-6f" transform="translate(54.980469 0)"/>
       <use xlink:href="#DejaVuSans-6e" transform="translate(116.162109 0)"/>
       <use xlink:href="#DejaVuSans-64" transform="translate(179.541016 0)"/>
       <use xlink:href="#DejaVuSans-30" transform="translate(243.017578 0)"/>
       <use xlink:href="#DejaVuSans-31" transform="translate(306.640625 0)"/>
      </g>
     </g>
    </g>
    <g id="xtick_11">
     <g id="line2d_26"/>
     <g id="text_19">
      <!-- cond02 -->
      <g transform="translate(62.193491 182.735022) rotate(-45) scale(0.06 -0.06)">
       <use xlink:href="#DejaVuSans-63"/>
       <use xlink:href="#DejaVuSans-6f" transform="translate(54.980469 0)"/>
       <use xlink:href="#DejaVuSans-6e" transform="translate(116.162109 0)"/>
       <use xlink:href="#DejaVuSans-64" transform="translate(179.541016 0)"/>
       <use xlink:href="#DejaVuSans-30" transform="translate(243.017578 0)"/>
       <use xlink:href="#DejaVuSans-32" transform="translate(306.640625 0)"/>
      </g>
     </g>
    </g>
    <g id="xtick_12">
     <g id="line2d_27"/>
     <g id="text_20">
      <!-- cond03 -->
      <g transform="translate(80.318455 182.735022) rotate(-45) scale(0.06 -0.06)">
       <defs>
        <path id="DejaVuSans-33" d="M 2597 2516 
Q 3050 2419 3304 2112 
Q 3559 1806 3559 1356 
Q 3559 666 3084 287 
Q 2609 -91 1734 -91 
Q 1441 -91 1130 -33 
Q 819 25 488 141 
L 488 750 
Q 750 597 1062 519 
Q 1375 441 1716 441 
Q 2309 441 2620 675 
Q 2931 909 2931 1356 
Q 2931 1769 2642 2001 
Q 2353 2234 1838 2234 
L 1294 2234 
L 1294 2753 
L 1863 2753 
Q 2328 2753 2575 2939 
Q 2822 3125 2822 3475 
Q 2822 3834 2567 4026 
Q 2313 4219 1838 4219 
Q 1578 4219 1281 4162 
Q 984 4106 628 3988 
L 628 4550 
Q 988 4650 1302 4700 
Q 1616 4750 1894 4750 
Q 2613 4750 3031 4423 
Q 3450 4097 3450 3541 
Q 3450 3153 3228 2886 
Q 3006 2619 2597 2516 
z
" transform="scale(0.015625)"/>
       </defs>
       <use xlink:href="#DejaVuSans-63"/>
       <use xlink:href="#DejaVuSans-6f" transform="translate(54.980469 0)"/>
       <use xlink:href="#DejaVuSans-6e" transform="translate(116.162109 0)"/>
       <use xlink:href="#DejaVuSans-64" transform="translate(179.541016 0)"/>
       <use xlink:href="#DejaVuSans-30" transform="translate(243.017578 0)"/>
       <use xlink:href="#DejaVuSans-33" transform="translate(306.640625 0)"/>
      </g>
     </g>
    </g>
   </g>
   <g id="matplotlib.axis_6">
    <g id="ytick_8">
     <g id="line2d_28"/>
     <g id="text_21">
      <!-- 0 -->
      <g transform="translate(26.024375 164.081106) scale(0.06 -0.06)">
       <use xlink:href="#DejaVuSans-30"/>
      </g>
     </g>
    </g>
    <g id="ytick_9">
     <g id="line2d_29"/>
     <g id="text_22">
      <!-- 10 -->
      <g transform="translate(22.206875 148.479768) scale(0.06 -0.06)">
       <use xlink:href="#DejaVuSans-31"/>
       <use xlink:href="#DejaVuSans-30" transform="translate(63.623047 0)"/>
      </g>
     </g>
    </g>
    <g id="ytick_10">
     <g id="line2d_30"/>
     <g id="text_23">
      <!-- 20 -->
      <g transform="translate(22.206875 132.87843) scale(0.06 -0.06)">
       <use xlink:href="#DejaVuSans-32"/>
       <use xlink:href="#DejaVuSans-30" transform="translate(63.623047 0)"/>
      </g>
     </g>
    </g>
    <g id="ytick_11">
     <g id="line2d_31"/>
     <g id="text_24">
      <!-- 30 -->
      <g transform="translate(22.206875 117.277092) scale(0.06 -0.06)">
       <use xlink:href="#DejaVuSans-33"/>
       <use xlink:href="#DejaVuSans-30" transform="translate(63.623047 0)"/>
      </g>
     </g>
    </g>
    <g id="text_25">
     <!-- percent -->
     <g transform="translate(18.959063 145.266299) rotate(-90) scale(0.06 -0.06)">
      <use xlink:href="#DejaVuSans-70"/>
      <use xlink:href="#DejaVuSans-65" transform="translate(63.476562 0)"/>
      <use xlink:href="#DejaVuSans-72" transform="translate(125 0)"/>
      <use xlink:href="#DejaVuSans-63" transform="translate(163.863281 0)"/>
      <use xlink:href="#DejaVuSans-65" transform="translate(218.84375 0)"/>
      <use xlink:href="#DejaVuSans-6e" transform="translate(280.367188 0)"/>
      <use xlink:href="#DejaVuSans-74" transform="translate(343.746094 0)"/>
     </g>
    </g>
   </g>
   <g id="line2d_32">
    <path d="M 42.535604 133.772497 
L 42.535604 132.170409 
" clip-path="url(#p0292844789)" style="fill: none; stroke: #424242; stroke-width: 0.75"/>
   </g>
   <g id="line2d_33">
    <path d="M 60.660567 128.277103 
L 60.660567 122.355467 
" clip-path="url(#p0292844789)" style="fill: none; stroke: #424242; stroke-width: 0.75"/>
   </g>
   <g id="line2d_34">
    <path d="M 78.785531 144.441145 
L 78.785531 140.515315 
" clip-path="url(#p0292844789)" style="fill: none; stroke: #424242; stroke-width: 0.75"/>
   </g>
   <g id="line2d_35">
    <path d="M 96.910494 117.010062 
L 96.910494 108.421884 
" clip-path="url(#p0292844789)" style="fill: none; stroke: #424242; stroke-width: 0.75"/>
   </g>
   <g id="patch_21">
    <path d="M 31.841875 161.801575 
L 31.841875 105.752899 
" style="fill: none; stroke: #000000; stroke-width: 0.5; stroke-linejoin: miter; stroke-linecap: square"/>
   </g>
   <g id="patch_22">
    <path d="M 31.841875 161.801575 
L 107.604223 161.801575 
" style="fill: none; stroke: #000000; stroke-width: 0.5; stroke-linejoin: miter; stroke-linecap: square"/>
   </g>
   <g id="PathCollection_25">
    <g clip-path="url(#p0292844789)">
     <use xlink:href="#ma8bbe07e28" x="42.696747" y="132.170409" style="fill: #d3d3d3; fill-opacity: 0.8; stroke: #000000; stroke-opacity: 0.8; stroke-width: 0.5"/>
    </g>
   </g>
   <g id="PathCollection_26">
    <g clip-path="url(#p0292844789)">
     <use xlink:href="#ma8bbe07e28" x="59.679541" y="124.706737" style="fill: #d3d3d3; fill-opacity: 0.8; stroke: #000000; stroke-opacity: 0.8; stroke-width: 0.5"/>
    </g>
   </g>
   <g id="PathCollection_27">
    <g clip-path="url(#p0292844789)">
     <use xlink:href="#ma8bbe07e28" x="78.633898" y="144.441145" style="fill: #d3d3d3; fill-opacity: 0.8; stroke: #000000; stroke-opacity: 0.8; stroke-width: 0.5"/>
    </g>
   </g>
   <g id="PathCollection_28">
    <g clip-path="url(#p0292844789)">
     <use xlink:href="#ma8bbe07e28" x="95.938575" y="110.155766" style="fill: #d3d3d3; fill-opacity: 0.8; stroke: #000000; stroke-opacity: 0.8; stroke-width: 0.5"/>
    </g>
   </g>
   <g id="PathCollection_29">
    <g clip-path="url(#p0292844789)">
     <use xlink:href="#ma016c18115" x="43.189455" y="133.772497" style="fill: #d3d3d3; fill-opacity: 0.8; stroke: #000000; stroke-opacity: 0.8; stroke-width: 0.5"/>
    </g>
   </g>
   <g id="PathCollection_30">
    <g clip-path="url(#p0292844789)">
     <use xlink:href="#ma016c18115" x="59.95244" y="122.355467" style="fill: #d3d3d3; fill-opacity: 0.8; stroke: #000000; stroke-opacity: 0.8; stroke-width: 0.5"/>
    </g>
   </g>
   <g id="PathCollection_31">
    <g clip-path="url(#p0292844789)">
     <use xlink:href="#ma016c18115" x="78.068456" y="141.755464" style="fill: #d3d3d3; fill-opacity: 0.8; stroke: #000000; stroke-opacity: 0.8; stroke-width: 0.5"/>
    </g>
   </g>
   <g id="PathCollection_32">
    <g clip-path="url(#p0292844789)">
     <use xlink:href="#ma016c18115" x="96.981517" y="108.421884" style="fill: #d3d3d3; fill-opacity: 0.8; stroke: #000000; stroke-opacity: 0.8; stroke-width: 0.5"/>
    </g>
   </g>
   <g id="PathCollection_33">
    <g clip-path="url(#p0292844789)">
     <use xlink:href="#m49073e6408" x="43.397344" y="133.641897" style="fill: #d3d3d3; fill-opacity: 0.8; stroke: #000000; stroke-opacity: 0.8; stroke-width: 0.5"/>
    </g>
   </g>
   <g id="PathCollection_34">
    <g clip-path="url(#p0292844789)">
     <use xlink:href="#m49073e6408" x="61.30748" y="128.277103" style="fill: #d3d3d3; fill-opacity: 0.8; stroke: #000000; stroke-opacity: 0.8; stroke-width: 0.5"/>
    </g>
   </g>
   <g id="PathCollection_35">
    <g clip-path="url(#p0292844789)">
     <use xlink:href="#m49073e6408" x="78.072164" y="140.515315" style="fill: #d3d3d3; fill-opacity: 0.8; stroke: #000000; stroke-opacity: 0.8; stroke-width: 0.5"/>
    </g>
   </g>
   <g id="PathCollection_36">
    <g clip-path="url(#p0292844789)">
     <use xlink:href="#m49073e6408" x="96.93152" y="117.010062" style="fill: #d3d3d3; fill-opacity: 0.8; stroke: #000000; stroke-opacity: 0.8; stroke-width: 0.5"/>
    </g>
   </g>
   <g id="text_26">
    <!-- * -->
    <g transform="translate(59.160567 104.505087) scale(0.06 -0.06)">
     <use xlink:href="#DejaVuSans-2a"/>
    </g>
   </g>
   <g id="text_27">
    <!-- ** -->
    <g transform="translate(75.785531 104.505087) scale(0.06 -0.06)">
     <use xlink:href="#DejaVuSans-2a"/>
     <use xlink:href="#DejaVuSans-2a" transform="translate(50 0)"/>
    </g>
   </g>
   <g id="text_28">
    <!-- ** -->
    <g transform="translate(93.910494 104.505087) scale(0.06 -0.06)">
     <use xlink:href="#DejaVuSans-2a"/>
     <use xlink:href="#DejaVuSans-2a" transform="translate(50 0)"/>
    </g>
   </g>
   <g id="text_29">
    <!-- 4N -->
    <g transform="translate(31.841875 99.950465) scale(0.06 -0.06)">
     <use xlink:href="#DejaVuSans-34"/>
     <use xlink:href="#DejaVuSans-4e" transform="translate(63.623047 0)"/>
    </g>
   </g>
  </g>
  <g id="axes_4">
   <g id="patch_23">
    <path d="M 122.756692 161.801575 
L 198.51904 161.801575 
L 198.51904 105.752899 
L 122.756692 105.752899 
z
" style="fill: #ffffff"/>
   </g>
   <g id="patch_24">
    <path d="M 126.200436 161.801575 
L 140.700406 161.801575 
L 140.700406 154.684497 
L 126.200436 154.684497 
z
" clip-path="url(#p318d25e801)" style="fill: #5a6e8c"/>
   </g>
   <g id="patch_25">
    <path d="M 144.325399 161.801575 
L 158.82537 161.801575 
L 158.82537 126.253196 
L 144.325399 126.253196 
z
" clip-path="url(#p318d25e801)" style="fill: #5a6e8c"/>
   </g>
   <g id="patch_26">
    <path d="M 162.450363 161.801575 
L 176.950334 161.801575 
L 176.950334 155.993808 
L 162.450363 155.993808 
z
" clip-path="url(#p318d25e801)" style="fill: #5a6e8c"/>
   </g>
   <g id="patch_27">
    <path d="M 180.575326 161.801575 
L 195.075297 161.801575 
L 195.075297 117.150083 
L 180.575326 117.150083 
z
" clip-path="url(#p318d25e801)" style="fill: #5a6e8c"/>
   </g>
   <g id="matplotlib.axis_7">
    <g id="xtick_13">
     <g id="line2d_36"/>
     <g id="text_30">
      <!-- control -->
      <g transform="translate(117.86402 181.729383) rotate(-45) scale(0.06 -0.06)">
       <use xlink:href="#DejaVuSans-63"/>
       <use xlink:href="#DejaVuSans-6f" transform="translate(54.980469 0)"/>
       <use xlink:href="#DejaVuSans-6e" transform="translate(116.162109 0)"/>
       <use xlink:href="#DejaVuSans-74" transform="translate(179.541016 0)"/>
       <use xlink:href="#DejaVuSans-72" transform="translate(218.75 0)"/>
       <use xlink:href="#DejaVuSans-6f" transform="translate(257.613281 0)"/>
       <use xlink:href="#DejaVuSans-6c" transform="translate(318.794922 0)"/>
      </g>
     </g>
    </g>
    <g id="xtick_14">
     <g id="line2d_37"/>
     <g id="text_31">
      <!-- cond01 -->
      <g transform="translate(134.983345 182.735022) rotate(-45) scale(0.06 -0.06)">
       <use xlink:href="#DejaVuSans-63"/>
       <use xlink:href="#DejaVuSans-6f" transform="translate(54.980469 0)"/>
       <use xlink:href="#DejaVuSans-6e" transform="translate(116.162109 0)"/>
       <use xlink:href="#DejaVuSans-64" transform="translate(179.541016 0)"/>
       <use xlink:href="#DejaVuSans-30" transform="translate(243.017578 0)"/>
       <use xlink:href="#DejaVuSans-31" transform="translate(306.640625 0)"/>
      </g>
     </g>
    </g>
    <g id="xtick_15">
     <g id="line2d_38"/>
     <g id="text_32">
      <!-- cond02 -->
      <g transform="translate(153.108309 182.735022) rotate(-45) scale(0.06 -0.06)">
       <use xlink:href="#DejaVuSans-63"/>
       <use xlink:href="#DejaVuSans-6f" transform="translate(54.980469 0)"/>
       <use xlink:href="#DejaVuSans-6e" transform="translate(116.162109 0)"/>
       <use xlink:href="#DejaVuSans-64" transform="translate(179.541016 0)"/>
       <use xlink:href="#DejaVuSans-30" transform="translate(243.017578 0)"/>
       <use xlink:href="#DejaVuSans-32" transform="translate(306.640625 0)"/>
      </g>
     </g>
    </g>
    <g id="xtick_16">
     <g id="line2d_39"/>
     <g id="text_33">
      <!-- cond03 -->
      <g transform="translate(171.233272 182.735022) rotate(-45) scale(0.06 -0.06)">
       <use xlink:href="#DejaVuSans-63"/>
       <use xlink:href="#DejaVuSans-6f" transform="translate(54.980469 0)"/>
       <use xlink:href="#DejaVuSans-6e" transform="translate(116.162109 0)"/>
       <use xlink:href="#DejaVuSans-64" transform="translate(179.541016 0)"/>
       <use xlink:href="#DejaVuSans-30" transform="translate(243.017578 0)"/>
       <use xlink:href="#DejaVuSans-33" transform="translate(306.640625 0)"/>
      </g>
     </g>
    </g>
   </g>
   <g id="matplotlib.axis_8">
    <g id="ytick_12">
     <g id="line2d_40"/>
     <g id="text_34">
      <!-- 0 -->
      <g transform="translate(116.939192 164.081106) scale(0.06 -0.06)">
       <use xlink:href="#DejaVuSans-30"/>
      </g>
     </g>
    </g>
    <g id="ytick_13">
     <g id="line2d_41"/>
     <g id="text_35">
      <!-- 10 -->
      <g transform="translate(113.121692 142.127768) scale(0.06 -0.06)">
       <use xlink:href="#DejaVuSans-31"/>
       <use xlink:href="#DejaVuSans-30" transform="translate(63.623047 0)"/>
      </g>
     </g>
    </g>
    <g id="ytick_14">
     <g id="line2d_42"/>
     <g id="text_36">
      <!-- 20 -->
      <g transform="translate(113.121692 120.17443) scale(0.06 -0.06)">
       <use xlink:href="#DejaVuSans-32"/>
       <use xlink:href="#DejaVuSans-30" transform="translate(63.623047 0)"/>
      </g>
     </g>
    </g>
   </g>
   <g id="line2d_43">
    <path d="M 133.450421 156.293825 
L 133.450421 153.566095 
" clip-path="url(#p318d25e801)" style="fill: none; stroke: #424242; stroke-width: 0.75"/>
   </g>
   <g id="line2d_44">
    <path d="M 151.575385 136.999632 
L 151.575385 120.285462 
" clip-path="url(#p318d25e801)" style="fill: none; stroke: #424242; stroke-width: 0.75"/>
   </g>
   <g id="line2d_45">
    <path d="M 169.700348 157.247963 
L 169.700348 154.151561 
" clip-path="url(#p318d25e801)" style="fill: none; stroke: #424242; stroke-width: 0.75"/>
   </g>
   <g id="line2d_46">
    <path d="M 187.825312 124.926696 
L 187.825312 108.421884 
" clip-path="url(#p318d25e801)" style="fill: none; stroke: #424242; stroke-width: 0.75"/>
   </g>
   <g id="patch_28">
    <path d="M 122.756692 161.801575 
L 122.756692 105.752899 
" style="fill: none; stroke: #000000; stroke-width: 0.5; stroke-linejoin: miter; stroke-linecap: square"/>
   </g>
   <g id="patch_29">
    <path d="M 122.756692 161.801575 
L 198.51904 161.801575 
" style="fill: none; stroke: #000000; stroke-width: 0.5; stroke-linejoin: miter; stroke-linecap: square"/>
   </g>
   <g id="PathCollection_37">
    <g clip-path="url(#p318d25e801)">
     <use xlink:href="#ma8bbe07e28" x="134.37331" y="154.193571" style="fill: #d3d3d3; fill-opacity: 0.8; stroke: #000000; stroke-opacity: 0.8; stroke-width: 0.5"/>
    </g>
   </g>
   <g id="PathCollection_38">
    <g clip-path="url(#p318d25e801)">
     <use xlink:href="#ma8bbe07e28" x="151.050477" y="136.999632" style="fill: #d3d3d3; fill-opacity: 0.8; stroke: #000000; stroke-opacity: 0.8; stroke-width: 0.5"/>
    </g>
   </g>
   <g id="PathCollection_39">
    <g clip-path="url(#p318d25e801)">
     <use xlink:href="#ma8bbe07e28" x="170.788343" y="157.247963" style="fill: #d3d3d3; fill-opacity: 0.8; stroke: #000000; stroke-opacity: 0.8; stroke-width: 0.5"/>
    </g>
   </g>
   <g id="PathCollection_40">
    <g clip-path="url(#p318d25e801)">
     <use xlink:href="#ma8bbe07e28" x="187.927219" y="124.926696" style="fill: #d3d3d3; fill-opacity: 0.8; stroke: #000000; stroke-opacity: 0.8; stroke-width: 0.5"/>
    </g>
   </g>
   <g id="PathCollection_41">
    <g clip-path="url(#p318d25e801)">
     <use xlink:href="#ma016c18115" x="134.632968" y="156.293825" style="fill: #d3d3d3; fill-opacity: 0.8; stroke: #000000; stroke-opacity: 0.8; stroke-width: 0.5"/>
    </g>
   </g>
   <g id="PathCollection_42">
    <g clip-path="url(#p318d25e801)">
     <use xlink:href="#ma016c18115" x="151.80445" y="121.474494" style="fill: #d3d3d3; fill-opacity: 0.8; stroke: #000000; stroke-opacity: 0.8; stroke-width: 0.5"/>
    </g>
   </g>
   <g id="PathCollection_43">
    <g clip-path="url(#p318d25e801)">
     <use xlink:href="#ma016c18115" x="171.12405" y="156.5819" style="fill: #d3d3d3; fill-opacity: 0.8; stroke: #000000; stroke-opacity: 0.8; stroke-width: 0.5"/>
    </g>
   </g>
   <g id="PathCollection_44">
    <g clip-path="url(#p318d25e801)">
     <use xlink:href="#ma016c18115" x="184.768105" y="118.101669" style="fill: #d3d3d3; fill-opacity: 0.8; stroke: #000000; stroke-opacity: 0.8; stroke-width: 0.5"/>
    </g>
   </g>
   <g id="PathCollection_45">
    <g clip-path="url(#p318d25e801)">
     <use xlink:href="#m49073e6408" x="132.777875" y="153.566095" style="fill: #d3d3d3; fill-opacity: 0.8; stroke: #000000; stroke-opacity: 0.8; stroke-width: 0.5"/>
    </g>
   </g>
   <g id="PathCollection_46">
    <g clip-path="url(#p318d25e801)">
     <use xlink:href="#m49073e6408" x="151.938998" y="120.285462" style="fill: #d3d3d3; fill-opacity: 0.8; stroke: #000000; stroke-opacity: 0.8; stroke-width: 0.5"/>
    </g>
   </g>
   <g id="PathCollection_47">
    <g clip-path="url(#p318d25e801)">
     <use xlink:href="#m49073e6408" x="168.443297" y="154.151561" style="fill: #d3d3d3; fill-opacity: 0.8; stroke: #000000; stroke-opacity: 0.8; stroke-width: 0.5"/>
    </g>
   </g>
   <g id="PathCollection_48">
    <g clip-path="url(#p318d25e801)">
     <use xlink:href="#m49073e6408" x="187.419261" y="108.421884" style="fill: #d3d3d3; fill-opacity: 0.8; stroke: #000000; stroke-opacity: 0.8; stroke-width: 0.5"/>
    </g>
   </g>
   <g id="text_37">
    <!-- ** -->
    <g transform="translate(148.575385 104.505087) scale(0.06 -0.06)">
     <use xlink:href="#DejaVuSans-2a"/>
     <use xlink:href="#DejaVuSans-2a" transform="translate(50 0)"/>
    </g>
   </g>
   <g id="text_38">
    <!-- ns -->
    <g transform="translate(166.236286 104.505087) scale(0.06 -0.06)">
     <defs>
      <path id="DejaVuSans-73" d="M 2834 3397 
L 2834 2853 
Q 2591 2978 2328 3040 
Q 2066 3103 1784 3103 
Q 1356 3103 1142 2972 
Q 928 2841 928 2578 
Q 928 2378 1081 2264 
Q 1234 2150 1697 2047 
L 1894 2003 
Q 2506 1872 2764 1633 
Q 3022 1394 3022 966 
Q 3022 478 2636 193 
Q 2250 -91 1575 -91 
Q 1294 -91 989 -36 
Q 684 19 347 128 
L 347 722 
Q 666 556 975 473 
Q 1284 391 1588 391 
Q 1994 391 2212 530 
Q 2431 669 2431 922 
Q 2431 1156 2273 1281 
Q 2116 1406 1581 1522 
L 1381 1569 
Q 847 1681 609 1914 
Q 372 2147 372 2553 
Q 372 3047 722 3315 
Q 1072 3584 1716 3584 
Q 2034 3584 2315 3537 
Q 2597 3491 2834 3397 
z
" transform="scale(0.015625)"/>
     </defs>
     <use xlink:href="#DejaVuSans-6e"/>
     <use xlink:href="#DejaVuSans-73" transform="translate(63.378906 0)"/>
    </g>
   </g>
   <g id="text_39">
    <!-- ** -->
    <g transform="translate(184.825312 104.505087) scale(0.06 -0.06)">
     <use xlink:href="#DejaVuSans-2a"/>
     <use xlink:href="#DejaVuSans-2a" transform="translate(50 0)"/>
    </g>
   </g>
   <g id="text_40">
    <!-- &gt;4N -->
    <g transform="translate(122.756692 99.950465) scale(0.06 -0.06)">
     <defs>
      <path id="DejaVuSans-3e" d="M 678 3150 
L 678 3719 
L 4684 2266 
L 4684 1747 
L 678 294 
L 678 863 
L 3897 2003 
L 678 3150 
z
" transform="scale(0.015625)"/>
     </defs>
     <use xlink:href="#DejaVuSans-3e"/>
     <use xlink:href="#DejaVuSans-34" transform="translate(83.789062 0)"/>
     <use xlink:href="#DejaVuSans-4e" transform="translate(147.412109 0)"/>
    </g>
   </g>
  </g>
  <g id="text_41">
   <!-- cellcycle plot combined -->
   <g transform="translate(30.141088 19.718906) scale(0.07 -0.07)">
    <defs>
     <path id="DejaVuSans-Bold-63" d="M 3366 3391 
L 3366 2478 
Q 3138 2634 2908 2709 
Q 2678 2784 2431 2784 
Q 1963 2784 1702 2511 
Q 1441 2238 1441 1747 
Q 1441 1256 1702 982 
Q 1963 709 2431 709 
Q 2694 709 2930 787 
Q 3166 866 3366 1019 
L 3366 103 
Q 3103 6 2833 -42 
Q 2563 -91 2291 -91 
Q 1344 -91 809 395 
Q 275 881 275 1747 
Q 275 2613 809 3098 
Q 1344 3584 2291 3584 
Q 2566 3584 2833 3536 
Q 3100 3488 3366 3391 
z
" transform="scale(0.015625)"/>
     <path id="DejaVuSans-Bold-65" d="M 4031 1759 
L 4031 1441 
L 1416 1441 
Q 1456 1047 1700 850 
Q 1944 653 2381 653 
Q 2734 653 3104 758 
Q 3475 863 3866 1075 
L 3866 213 
Q 3469 63 3072 -14 
Q 2675 -91 2278 -91 
Q 1328 -91 801 392 
Q 275 875 275 1747 
Q 275 2603 792 3093 
Q 1309 3584 2216 3584 
Q 3041 3584 3536 3087 
Q 4031 2591 4031 1759 
z
M 2881 2131 
Q 2881 2450 2695 2645 
Q 2509 2841 2209 2841 
Q 1884 2841 1681 2658 
Q 1478 2475 1428 2131 
L 2881 2131 
z
" transform="scale(0.015625)"/>
     <path id="DejaVuSans-Bold-6c" d="M 538 4863 
L 1656 4863 
L 1656 0 
L 538 0 
L 538 4863 
z
" transform="scale(0.015625)"/>
     <path id="DejaVuSans-Bold-79" d="M 78 3500 
L 1197 3500 
L 2138 1125 
L 2938 3500 
L 4056 3500 
L 2584 -331 
Q 2363 -916 2067 -1148 
Q 1772 -1381 1288 -1381 
L 641 -1381 
L 641 -647 
L 991 -647 
Q 1275 -647 1404 -556 
Q 1534 -466 1606 -231 
L 1638 -134 
L 78 3500 
z
" transform="scale(0.015625)"/>
     <path id="DejaVuSans-Bold-20" transform="scale(0.015625)"/>
     <path id="DejaVuSans-Bold-70" d="M 1656 506 
L 1656 -1331 
L 538 -1331 
L 538 3500 
L 1656 3500 
L 1656 2988 
Q 1888 3294 2169 3439 
Q 2450 3584 2816 3584 
Q 3463 3584 3878 3070 
Q 4294 2556 4294 1747 
Q 4294 938 3878 423 
Q 3463 -91 2816 -91 
Q 2450 -91 2169 54 
Q 1888 200 1656 506 
z
M 2400 2772 
Q 2041 2772 1848 2508 
Q 1656 2244 1656 1747 
Q 1656 1250 1848 986 
Q 2041 722 2400 722 
Q 2759 722 2948 984 
Q 3138 1247 3138 1747 
Q 3138 2247 2948 2509 
Q 2759 2772 2400 2772 
z
" transform="scale(0.015625)"/>
     <path id="DejaVuSans-Bold-6f" d="M 2203 2784 
Q 1831 2784 1636 2517 
Q 1441 2250 1441 1747 
Q 1441 1244 1636 976 
Q 1831 709 2203 709 
Q 2569 709 2762 976 
Q 2956 1244 2956 1747 
Q 2956 2250 2762 2517 
Q 2569 2784 2203 2784 
z
M 2203 3584 
Q 3106 3584 3614 3096 
Q 4122 2609 4122 1747 
Q 4122 884 3614 396 
Q 3106 -91 2203 -91 
Q 1297 -91 786 396 
Q 275 884 275 1747 
Q 275 2609 786 3096 
Q 1297 3584 2203 3584 
z
" transform="scale(0.015625)"/>
     <path id="DejaVuSans-Bold-74" d="M 1759 4494 
L 1759 3500 
L 2913 3500 
L 2913 2700 
L 1759 2700 
L 1759 1216 
Q 1759 972 1856 886 
Q 1953 800 2241 800 
L 2816 800 
L 2816 0 
L 1856 0 
Q 1194 0 917 276 
Q 641 553 641 1216 
L 641 2700 
L 84 2700 
L 84 3500 
L 641 3500 
L 641 4494 
L 1759 4494 
z
" transform="scale(0.015625)"/>
     <path id="DejaVuSans-Bold-6d" d="M 3781 2919 
Q 3994 3244 4286 3414 
Q 4578 3584 4928 3584 
Q 5531 3584 5847 3212 
Q 6163 2841 6163 2131 
L 6163 0 
L 5038 0 
L 5038 1825 
Q 5041 1866 5042 1909 
Q 5044 1953 5044 2034 
Q 5044 2406 4934 2573 
Q 4825 2741 4581 2741 
Q 4263 2741 4089 2478 
Q 3916 2216 3909 1719 
L 3909 0 
L 2784 0 
L 2784 1825 
Q 2784 2406 2684 2573 
Q 2584 2741 2328 2741 
Q 2006 2741 1831 2477 
Q 1656 2213 1656 1722 
L 1656 0 
L 531 0 
L 531 3500 
L 1656 3500 
L 1656 2988 
Q 1863 3284 2130 3434 
Q 2397 3584 2719 3584 
Q 3081 3584 3359 3409 
Q 3638 3234 3781 2919 
z
" transform="scale(0.015625)"/>
     <path id="DejaVuSans-Bold-62" d="M 2400 722 
Q 2759 722 2948 984 
Q 3138 1247 3138 1747 
Q 3138 2247 2948 2509 
Q 2759 2772 2400 2772 
Q 2041 2772 1848 2508 
Q 1656 2244 1656 1747 
Q 1656 1250 1848 986 
Q 2041 722 2400 722 
z
M 1656 2988 
Q 1888 3294 2169 3439 
Q 2450 3584 2816 3584 
Q 3463 3584 3878 3070 
Q 4294 2556 4294 1747 
Q 4294 938 3878 423 
Q 3463 -91 2816 -91 
Q 2450 -91 2169 54 
Q 1888 200 1656 506 
L 1656 0 
L 538 0 
L 538 4863 
L 1656 4863 
L 1656 2988 
z
" transform="scale(0.015625)"/>
     <path id="DejaVuSans-Bold-69" d="M 538 3500 
L 1656 3500 
L 1656 0 
L 538 0 
L 538 3500 
z
M 538 4863 
L 1656 4863 
L 1656 3950 
L 538 3950 
L 538 4863 
z
" transform="scale(0.015625)"/>
     <path id="DejaVuSans-Bold-6e" d="M 4056 2131 
L 4056 0 
L 2931 0 
L 2931 347 
L 2931 1631 
Q 2931 2084 2911 2256 
Q 2891 2428 2841 2509 
Q 2775 2619 2662 2680 
Q 2550 2741 2406 2741 
Q 2056 2741 1856 2470 
Q 1656 2200 1656 1722 
L 1656 0 
L 538 0 
L 538 3500 
L 1656 3500 
L 1656 2988 
Q 1909 3294 2193 3439 
Q 2478 3584 2822 3584 
Q 3428 3584 3742 3212 
Q 4056 2841 4056 2131 
z
" transform="scale(0.015625)"/>
     <path id="DejaVuSans-Bold-64" d="M 2919 2988 
L 2919 4863 
L 4044 4863 
L 4044 0 
L 2919 0 
L 2919 506 
Q 2688 197 2409 53 
Q 2131 -91 1766 -91 
Q 1119 -91 703 423 
Q 288 938 288 1747 
Q 288 2556 703 3070 
Q 1119 3584 1766 3584 
Q 2128 3584 2408 3439 
Q 2688 3294 2919 2988 
z
M 2181 722 
Q 2541 722 2730 984 
Q 2919 1247 2919 1747 
Q 2919 2247 2730 2509 
Q 2541 2772 2181 2772 
Q 1825 2772 1636 2509 
Q 1447 2247 1447 1747 
Q 1447 1247 1636 984 
Q 1825 722 2181 722 
z
" transform="scale(0.015625)"/>
    </defs>
    <use xlink:href="#DejaVuSans-Bold-63"/>
    <use xlink:href="#DejaVuSans-Bold-65" transform="translate(59.277344 0)"/>
    <use xlink:href="#DejaVuSans-Bold-6c" transform="translate(127.099609 0)"/>
    <use xlink:href="#DejaVuSans-Bold-6c" transform="translate(161.376953 0)"/>
    <use xlink:href="#DejaVuSans-Bold-63" transform="translate(195.654297 0)"/>
    <use xlink:href="#DejaVuSans-Bold-79" transform="translate(254.931641 0)"/>
    <use xlink:href="#DejaVuSans-Bold-63" transform="translate(320.117188 0)"/>
    <use xlink:href="#DejaVuSans-Bold-6c" transform="translate(379.394531 0)"/>
    <use xlink:href="#DejaVuSans-Bold-65" transform="translate(413.671875 0)"/>
    <use xlink:href="#DejaVuSans-Bold-20" transform="translate(481.494141 0)"/>
    <use xlink:href="#DejaVuSans-Bold-70" transform="translate(516.308594 0)"/>
    <use xlink:href="#DejaVuSans-Bold-6c" transform="translate(587.890625 0)"/>
    <use xlink:href="#DejaVuSans-Bold-6f" transform="translate(622.167969 0)"/>
    <use xlink:href="#DejaVuSans-Bold-74" transform="translate(690.869141 0)"/>
    <use xlink:href="#DejaVuSans-Bold-20" transform="translate(738.671875 0)"/>
    <use xlink:href="#DejaVuSans-Bold-63" transform="translate(773.486328 0)"/>
    <use xlink:href="#DejaVuSans-Bold-6f" transform="translate(832.763672 0)"/>
    <use xlink:href="#DejaVuSans-Bold-6d" transform="translate(901.464844 0)"/>
    <use xlink:href="#DejaVuSans-Bold-62" transform="translate(1005.664062 0)"/>
    <use xlink:href="#DejaVuSans-Bold-69" transform="translate(1077.246094 0)"/>
    <use xlink:href="#DejaVuSans-Bold-6e" transform="translate(1111.523438 0)"/>
    <use xlink:href="#DejaVuSans-Bold-65" transform="translate(1182.714844 0)"/>
    <use xlink:href="#DejaVuSans-Bold-64" transform="translate(1250.537109 0)"/>
   </g>
  </g>
  <g id="legend_1">
   <g id="patch_30">
    <path d="M 207.821403 85.360571 
L 242.291403 85.360571 
Q 243.491403 85.360571 243.491403 84.160571 
L 243.491403 54.033071 
Q 243.491403 52.833071 242.291403 52.833071 
L 207.821403 52.833071 
Q 206.621403 52.833071 206.621403 54.033071 
L 206.621403 84.160571 
Q 206.621403 85.360571 207.821403 85.360571 
z
" style="fill: #ffffff; stroke: #cccccc; stroke-linejoin: miter"/>
   </g>
   <g id="text_42">
    <!-- Plate ID -->
    <g transform="translate(213.405153 59.792133) scale(0.06 -0.06)">
     <defs>
      <path id="DejaVuSans-50" d="M 1259 4147 
L 1259 2394 
L 2053 2394 
Q 2494 2394 2734 2622 
Q 2975 2850 2975 3272 
Q 2975 3691 2734 3919 
Q 2494 4147 2053 4147 
L 1259 4147 
z
M 628 4666 
L 2053 4666 
Q 2838 4666 3239 4311 
Q 3641 3956 3641 3272 
Q 3641 2581 3239 2228 
Q 2838 1875 2053 1875 
L 1259 1875 
L 1259 0 
L 628 0 
L 628 4666 
z
" transform="scale(0.015625)"/>
      <path id="DejaVuSans-61" d="M 2194 1759 
Q 1497 1759 1228 1600 
Q 959 1441 959 1056 
Q 959 750 1161 570 
Q 1363 391 1709 391 
Q 2188 391 2477 730 
Q 2766 1069 2766 1631 
L 2766 1759 
L 2194 1759 
z
M 3341 1997 
L 3341 0 
L 2766 0 
L 2766 531 
Q 2569 213 2275 61 
Q 1981 -91 1556 -91 
Q 1019 -91 701 211 
Q 384 513 384 1019 
Q 384 1609 779 1909 
Q 1175 2209 1959 2209 
L 2766 2209 
L 2766 2266 
Q 2766 2663 2505 2880 
Q 2244 3097 1772 3097 
Q 1472 3097 1187 3025 
Q 903 2953 641 2809 
L 641 3341 
Q 956 3463 1253 3523 
Q 1550 3584 1831 3584 
Q 2591 3584 2966 3190 
Q 3341 2797 3341 1997 
z
" transform="scale(0.015625)"/>
      <path id="DejaVuSans-20" transform="scale(0.015625)"/>
      <path id="DejaVuSans-49" d="M 628 4666 
L 1259 4666 
L 1259 0 
L 628 0 
L 628 4666 
z
" transform="scale(0.015625)"/>
      <path id="DejaVuSans-44" d="M 1259 4147 
L 1259 519 
L 2022 519 
Q 2988 519 3436 956 
Q 3884 1394 3884 2338 
Q 3884 3275 3436 3711 
Q 2988 4147 2022 4147 
L 1259 4147 
z
M 628 4666 
L 1925 4666 
Q 3281 4666 3915 4102 
Q 4550 3538 4550 2338 
Q 4550 1131 3912 565 
Q 3275 0 1925 0 
L 628 0 
L 628 4666 
z
" transform="scale(0.015625)"/>
     </defs>
     <use xlink:href="#DejaVuSans-50"/>
     <use xlink:href="#DejaVuSans-6c" transform="translate(60.302734 0)"/>
     <use xlink:href="#DejaVuSans-61" transform="translate(88.085938 0)"/>
     <use xlink:href="#DejaVuSans-74" transform="translate(149.365234 0)"/>
     <use xlink:href="#DejaVuSans-65" transform="translate(188.574219 0)"/>
     <use xlink:href="#DejaVuSans-20" transform="translate(250.097656 0)"/>
     <use xlink:href="#DejaVuSans-49" transform="translate(281.884766 0)"/>
     <use xlink:href="#DejaVuSans-44" transform="translate(311.376953 0)"/>
    </g>
   </g>
   <g id="line2d_47">
    <defs>
     <path id="me75598c886" d="M -3 3 
L 3 3 
L 3 -3 
L -3 -3 
z
" style="stroke: #000000; stroke-width: 0.5; stroke-linejoin: miter"/>
    </defs>
    <g>
     <use xlink:href="#me75598c886" x="215.021403" y="64.999008" style="fill: #d3d3d3; stroke: #000000; stroke-width: 0.5; stroke-linejoin: miter"/>
    </g>
   </g>
   <g id="text_43">
    <!-- 2301 -->
    <g transform="translate(225.821403 67.099008) scale(0.06 -0.06)">
     <use xlink:href="#DejaVuSans-32"/>
     <use xlink:href="#DejaVuSans-33" transform="translate(63.623047 0)"/>
     <use xlink:href="#DejaVuSans-30" transform="translate(127.246094 0)"/>
     <use xlink:href="#DejaVuSans-31" transform="translate(190.869141 0)"/>
    </g>
   </g>
   <g id="line2d_48">
    <defs>
     <path id="mc21e9048e3" d="M 0 3 
C 0.795609 3 1.55874 2.683901 2.12132 2.12132 
C 2.683901 1.55874 3 0.795609 3 0 
C 3 -0.795609 2.683901 -1.55874 2.12132 -2.12132 
C 1.55874 -2.683901 0.795609 -3 0 -3 
C -0.795609 -3 -1.55874 -2.683901 -2.12132 -2.12132 
C -2.683901 -1.55874 -3 -0.795609 -3 0 
C -3 0.795609 -2.683901 1.55874 -2.12132 2.12132 
C -1.55874 2.683901 -0.795609 3 0 3 
z
" style="stroke: #000000; stroke-width: 0.5"/>
    </defs>
    <g>
     <use xlink:href="#mc21e9048e3" x="215.021403" y="72.305883" style="fill: #d3d3d3; stroke: #000000; stroke-width: 0.5"/>
    </g>
   </g>
   <g id="text_44">
    <!-- 2361 -->
    <g transform="translate(225.821403 74.405883) scale(0.06 -0.06)">
     <use xlink:href="#DejaVuSans-32"/>
     <use xlink:href="#DejaVuSans-33" transform="translate(63.623047 0)"/>
     <use xlink:href="#DejaVuSans-36" transform="translate(127.246094 0)"/>
     <use xlink:href="#DejaVuSans-31" transform="translate(190.869141 0)"/>
    </g>
   </g>
   <g id="line2d_49">
    <defs>
     <path id="mad520e49cd" d="M 0 -3 
L -3 3 
L 3 3 
z
" style="stroke: #000000; stroke-width: 0.5; stroke-linejoin: miter"/>
    </defs>
    <g>
     <use xlink:href="#mad520e49cd" x="215.021403" y="79.612758" style="fill: #d3d3d3; stroke: #000000; stroke-width: 0.5; stroke-linejoin: miter"/>
    </g>
   </g>
   <g id="text_45">
    <!-- 2362 -->
    <g transform="translate(225.821403 81.712758) scale(0.06 -0.06)">
     <use xlink:href="#DejaVuSans-32"/>
     <use xlink:href="#DejaVuSans-33" transform="translate(63.623047 0)"/>
     <use xlink:href="#DejaVuSans-36" transform="translate(127.246094 0)"/>
     <use xlink:href="#DejaVuSans-32" transform="translate(190.869141 0)"/>
    </g>
   </g>
  </g>
 </g>
 <defs>
  <clipPath id="p10587d61aa">
   <rect x="31.841875" y="38.494488" width="75.762348" height="56.048676"/>
  </clipPath>
  <clipPath id="p96906281bf">
   <rect x="122.756692" y="38.494488" width="75.762348" height="56.048676"/>
  </clipPath>
  <clipPath id="p0292844789">
   <rect x="31.841875" y="105.752899" width="75.762348" height="56.048676"/>
  </clipPath>
  <clipPath id="p318d25e801">
   <rect x="122.756692" y="105.752899" width="75.762348" height="56.048676"/>
  </clipPath>
 </defs>
</svg>
