<?xml version="1.0" encoding="utf-8" standalone="no"?>
<!DOCTYPE svg PUBLIC "-//W3C//DTD SVG 1.1//EN"
  "http://www.w3.org/Graphics/SVG/1.1/DTD/svg11.dtd">
<svg xmlns:xlink="http://www.w3.org/1999/xlink" width="212.91904pt" height="227.497673pt" viewBox="0 0 212.91904 227.497673" xmlns="http://www.w3.org/2000/svg" version="1.1">
 <metadata>
  <rdf:RDF xmlns:dc="http://purl.org/dc/elements/1.1/" xmlns:cc="http://creativecommons.org/ns#" xmlns:rdf="http://www.w3.org/1999/02/22-rdf-syntax-ns#">
   <cc:Work>
    <dc:type rdf:resource="http://purl.org/dc/dcmitype/StillImage"/>
    <dc:date>2025-09-10T13:55:47.861858</dc:date>
    <dc:format>image/svg+xml</dc:format>
    <dc:creator>
     <cc:Agent>
      <dc:title>Matplotlib v3.10.1, https://matplotlib.org/</dc:title>
     </cc:Agent>
    </dc:creator>
   </cc:Work>
  </rdf:RDF>
 </metadata>
 <defs>
  <style type="text/css">*{stroke-linejoin: round; stroke-linecap: butt}</style>
 </defs>
 <g id="figure_1">
  <g id="patch_1">
   <path d="M 0 227.497673 
L 212.91904 227.497673 
L 212.91904 0 
L 0 0 
z
" style="fill: #ffffff"/>
  </g>
  <g id="axes_1">
   <g id="patch_2">
    <path d="M 31.841875 110.571797 
L 107.604223 110.571797 
L 107.604223 43.313386 
L 31.841875 43.313386 
z
" style="fill: #ffffff"/>
   </g>
   <g id="patch_3">
    <path d="M 35.285618 110.571797 
L 49.785589 110.571797 
L 49.785589 62.408406 
L 35.285618 62.408406 
z
" clip-path="url(#p30ec4f3e5e)" style="fill: #80adc3"/>
   </g>
   <g id="patch_4">
    <path d="M 53.410582 110.571797 
L 67.910553 110.571797 
L 67.910553 69.250087 
L 53.410582 69.250087 
z
" clip-path="url(#p30ec4f3e5e)" style="fill: #80adc3"/>
   </g>
   <g id="patch_5">
    <path d="M 71.535545 110.571797 
L 86.035516 110.571797 
L 86.035516 50.574556 
L 71.535545 50.574556 
z
" clip-path="url(#p30ec4f3e5e)" style="fill: #80adc3"/>
   </g>
   <g id="patch_6">
    <path d="M 89.660509 110.571797 
L 104.16048 110.571797 
L 104.16048 73.080583 
L 89.660509 73.080583 
z
" clip-path="url(#p30ec4f3e5e)" style="fill: #80adc3"/>
   </g>
   <g id="matplotlib.axis_1">
    <g id="xtick_1">
     <g id="line2d_1"/>
    </g>
    <g id="xtick_2">
     <g id="line2d_2"/>
    </g>
    <g id="xtick_3">
     <g id="line2d_3"/>
    </g>
    <g id="xtick_4">
     <g id="line2d_4"/>
    </g>
   </g>
   <g id="matplotlib.axis_2">
    <g id="ytick_1">
     <g id="line2d_5"/>
     <g id="text_1">
      <!-- 0 -->
      <g transform="translate(26.024375 112.851328) scale(0.06 -0.06)">
       <defs>
        <path id="DejaVuSans-30" d="M 2034 4250 
Q 1547 4250 1301 3770 
Q 1056 3291 1056 2328 
Q 1056 1369 1301 889 
Q 1547 409 2034 409 
Q 2525 409 2770 889 
Q 3016 1369 3016 2328 
Q 3016 3291 2770 3770 
Q 2525 4250 2034 4250 
z
M 2034 4750 
Q 2819 4750 3233 4129 
Q 3647 3509 3647 2328 
Q 3647 1150 3233 529 
Q 2819 -91 2034 -91 
Q 1250 -91 836 529 
Q 422 1150 422 2328 
Q 422 3509 836 4129 
Q 1250 4750 2034 4750 
z
" transform="scale(0.015625)"/>
       </defs>
       <use xlink:href="#DejaVuSans-30"/>
      </g>
     </g>
    </g>
    <g id="ytick_2">
     <g id="line2d_6"/>
     <g id="text_2">
      <!-- 20 -->
      <g transform="translate(22.206875 95.998881) scale(0.06 -0.06)">
       <defs>
        <path id="DejaVuSans-32" d="M 1228 531 
L 3431 531 
L 3431 0 
L 469 0 
L 469 531 
Q 828 903 1448 1529 
Q 2069 2156 2228 2338 
Q 2531 2678 2651 2914 
Q 2772 3150 2772 3378 
Q 2772 3750 2511 3984 
Q 2250 4219 1831 4219 
Q 1534 4219 1204 4116 
Q 875 4013 500 3803 
L 500 4441 
Q 881 4594 1212 4672 
Q 1544 4750 1819 4750 
Q 2544 4750 2975 4387 
Q 3406 4025 3406 3419 
Q 3406 3131 3298 2873 
Q 3191 2616 2906 2266 
Q 2828 2175 2409 1742 
Q 1991 1309 1228 531 
z
" transform="scale(0.015625)"/>
       </defs>
       <use xlink:href="#DejaVuSans-32"/>
       <use xlink:href="#DejaVuSans-30" transform="translate(63.623047 0)"/>
      </g>
     </g>
    </g>
    <g id="ytick_3">
     <g id="line2d_7"/>
     <g id="text_3">
      <!-- 40 -->
      <g transform="translate(22.206875 79.146435) scale(0.06 -0.06)">
       <defs>
        <path id="DejaVuSans-34" d="M 2419 4116 
L 825 1625 
L 2419 1625 
L 2419 4116 
z
M 2253 4666 
L 3047 4666 
L 3047 1625 
L 3713 1625 
L 3713 1100 
L 3047 1100 
L 3047 0 
L 2419 0 
L 2419 1100 
L 313 1100 
L 313 1709 
L 2253 4666 
z
" transform="scale(0.015625)"/>
       </defs>
       <use xlink:href="#DejaVuSans-34"/>
       <use xlink:href="#DejaVuSans-30" transform="translate(63.623047 0)"/>
      </g>
     </g>
    </g>
    <g id="ytick_4">
     <g id="line2d_8"/>
     <g id="text_4">
      <!-- 60 -->
      <g transform="translate(22.206875 62.293988) scale(0.06 -0.06)">
       <defs>
        <path id="DejaVuSans-36" d="M 2113 2584 
Q 1688 2584 1439 2293 
Q 1191 2003 1191 1497 
Q 1191 994 1439 701 
Q 1688 409 2113 409 
Q 2538 409 2786 701 
Q 3034 994 3034 1497 
Q 3034 2003 2786 2293 
Q 2538 2584 2113 2584 
z
M 3366 4563 
L 3366 3988 
Q 3128 4100 2886 4159 
Q 2644 4219 2406 4219 
Q 1781 4219 1451 3797 
Q 1122 3375 1075 2522 
Q 1259 2794 1537 2939 
Q 1816 3084 2150 3084 
Q 2853 3084 3261 2657 
Q 3669 2231 3669 1497 
Q 3669 778 3244 343 
Q 2819 -91 2113 -91 
Q 1303 -91 875 529 
Q 447 1150 447 2328 
Q 447 3434 972 4092 
Q 1497 4750 2381 4750 
Q 2619 4750 2861 4703 
Q 3103 4656 3366 4563 
z
" transform="scale(0.015625)"/>
       </defs>
       <use xlink:href="#DejaVuSans-36"/>
       <use xlink:href="#DejaVuSans-30" transform="translate(63.623047 0)"/>
      </g>
     </g>
    </g>
    <g id="text_5">
     <!-- percent -->
     <g transform="translate(18.959063 88.431654) rotate(-90) scale(0.06 -0.06)">
      <defs>
       <path id="DejaVuSans-70" d="M 1159 525 
L 1159 -1331 
L 581 -1331 
L 581 3500 
L 1159 3500 
L 1159 2969 
Q 1341 3281 1617 3432 
Q 1894 3584 2278 3584 
Q 2916 3584 3314 3078 
Q 3713 2572 3713 1747 
Q 3713 922 3314 415 
Q 2916 -91 2278 -91 
Q 1894 -91 1617 61 
Q 1341 213 1159 525 
z
M 3116 1747 
Q 3116 2381 2855 2742 
Q 2594 3103 2138 3103 
Q 1681 3103 1420 2742 
Q 1159 2381 1159 1747 
Q 1159 1113 1420 752 
Q 1681 391 2138 391 
Q 2594 391 2855 752 
Q 3116 1113 3116 1747 
z
" transform="scale(0.015625)"/>
       <path id="DejaVuSans-65" d="M 3597 1894 
L 3597 1613 
L 953 1613 
Q 991 1019 1311 708 
Q 1631 397 2203 397 
Q 2534 397 2845 478 
Q 3156 559 3463 722 
L 3463 178 
Q 3153 47 2828 -22 
Q 2503 -91 2169 -91 
Q 1331 -91 842 396 
Q 353 884 353 1716 
Q 353 2575 817 3079 
Q 1281 3584 2069 3584 
Q 2775 3584 3186 3129 
Q 3597 2675 3597 1894 
z
M 3022 2063 
Q 3016 2534 2758 2815 
Q 2500 3097 2075 3097 
Q 1594 3097 1305 2825 
Q 1016 2553 972 2059 
L 3022 2063 
z
" transform="scale(0.015625)"/>
       <path id="DejaVuSans-72" d="M 2631 2963 
Q 2534 3019 2420 3045 
Q 2306 3072 2169 3072 
Q 1681 3072 1420 2755 
Q 1159 2438 1159 1844 
L 1159 0 
L 581 0 
L 581 3500 
L 1159 3500 
L 1159 2956 
Q 1341 3275 1631 3429 
Q 1922 3584 2338 3584 
Q 2397 3584 2469 3576 
Q 2541 3569 2628 3553 
L 2631 2963 
z
" transform="scale(0.015625)"/>
       <path id="DejaVuSans-63" d="M 3122 3366 
L 3122 2828 
Q 2878 2963 2633 3030 
Q 2388 3097 2138 3097 
Q 1578 3097 1268 2742 
Q 959 2388 959 1747 
Q 959 1106 1268 751 
Q 1578 397 2138 397 
Q 2388 397 2633 464 
Q 2878 531 3122 666 
L 3122 134 
Q 2881 22 2623 -34 
Q 2366 -91 2075 -91 
Q 1284 -91 818 406 
Q 353 903 353 1747 
Q 353 2603 823 3093 
Q 1294 3584 2113 3584 
Q 2378 3584 2631 3529 
Q 2884 3475 3122 3366 
z
" transform="scale(0.015625)"/>
       <path id="DejaVuSans-6e" d="M 3513 2113 
L 3513 0 
L 2938 0 
L 2938 2094 
Q 2938 2591 2744 2837 
Q 2550 3084 2163 3084 
Q 1697 3084 1428 2787 
Q 1159 2491 1159 1978 
L 1159 0 
L 581 0 
L 581 3500 
L 1159 3500 
L 1159 2956 
Q 1366 3272 1645 3428 
Q 1925 3584 2291 3584 
Q 2894 3584 3203 3211 
Q 3513 2838 3513 2113 
z
" transform="scale(0.015625)"/>
       <path id="DejaVuSans-74" d="M 1172 4494 
L 1172 3500 
L 2356 3500 
L 2356 3053 
L 1172 3053 
L 1172 1153 
Q 1172 725 1289 603 
Q 1406 481 1766 481 
L 2356 481 
L 2356 0 
L 1766 0 
Q 1100 0 847 248 
Q 594 497 594 1153 
L 594 3053 
L 172 3053 
L 172 3500 
L 594 3500 
L 594 4494 
L 1172 4494 
z
" transform="scale(0.015625)"/>
      </defs>
      <use xlink:href="#DejaVuSans-70"/>
      <use xlink:href="#DejaVuSans-65" transform="translate(63.476562 0)"/>
      <use xlink:href="#DejaVuSans-72" transform="translate(125 0)"/>
      <use xlink:href="#DejaVuSans-63" transform="translate(163.863281 0)"/>
      <use xlink:href="#DejaVuSans-65" transform="translate(218.84375 0)"/>
      <use xlink:href="#DejaVuSans-6e" transform="translate(280.367188 0)"/>
      <use xlink:href="#DejaVuSans-74" transform="translate(343.746094 0)"/>
     </g>
    </g>
   </g>
   <g id="line2d_9">
    <path d="M 42.535604 64.918869 
L 42.535604 60.678232 
" clip-path="url(#p30ec4f3e5e)" style="fill: none; stroke: #424242; stroke-width: 0.75"/>
   </g>
   <g id="line2d_10">
    <path d="M 60.660567 72.288569 
L 60.660567 66.577525 
" clip-path="url(#p30ec4f3e5e)" style="fill: none; stroke: #424242; stroke-width: 0.75"/>
   </g>
   <g id="line2d_11">
    <path d="M 78.785531 54.464875 
L 78.785531 46.516167 
" clip-path="url(#p30ec4f3e5e)" style="fill: none; stroke: #424242; stroke-width: 0.75"/>
   </g>
   <g id="line2d_12">
    <path d="M 96.910494 74.74111 
L 96.910494 70.100098 
" clip-path="url(#p30ec4f3e5e)" style="fill: none; stroke: #424242; stroke-width: 0.75"/>
   </g>
   <g id="patch_7">
    <path d="M 31.841875 110.571797 
L 31.841875 43.313386 
" style="fill: none; stroke: #000000; stroke-width: 0.5; stroke-linejoin: miter; stroke-linecap: square"/>
   </g>
   <g id="patch_8">
    <path d="M 31.841875 110.571797 
L 107.604223 110.571797 
" style="fill: none; stroke: #000000; stroke-width: 0.5; stroke-linejoin: miter; stroke-linecap: square"/>
   </g>
   <g id="PathCollection_1">
    <defs>
     <path id="maaf811f974" d="M -2.5 2.5 
L 2.5 2.5 
L 2.5 -2.5 
L -2.5 -2.5 
z
" style="stroke: #000000; stroke-opacity: 0.8; stroke-width: 0.5"/>
    </defs>
    <g clip-path="url(#p30ec4f3e5e)">
     <use xlink:href="#maaf811f974" x="41.918561" y="60.678232" style="fill: #d3d3d3; fill-opacity: 0.8; stroke: #000000; stroke-opacity: 0.8; stroke-width: 0.5"/>
    </g>
   </g>
   <g id="PathCollection_2">
    <g clip-path="url(#p30ec4f3e5e)">
     <use xlink:href="#maaf811f974" x="61.409087" y="66.577525" style="fill: #d3d3d3; fill-opacity: 0.8; stroke: #000000; stroke-opacity: 0.8; stroke-width: 0.5"/>
    </g>
   </g>
   <g id="PathCollection_3">
    <g clip-path="url(#p30ec4f3e5e)">
     <use xlink:href="#maaf811f974" x="78.08856" y="46.516167" style="fill: #d3d3d3; fill-opacity: 0.8; stroke: #000000; stroke-opacity: 0.8; stroke-width: 0.5"/>
    </g>
   </g>
   <g id="PathCollection_4">
    <g clip-path="url(#p30ec4f3e5e)">
     <use xlink:href="#maaf811f974" x="95.905562" y="70.100098" style="fill: #d3d3d3; fill-opacity: 0.8; stroke: #000000; stroke-opacity: 0.8; stroke-width: 0.5"/>
    </g>
   </g>
   <g id="PathCollection_5">
    <defs>
     <path id="m736278d588" d="M 0 2.5 
C 0.663008 2.5 1.29895 2.236584 1.767767 1.767767 
C 2.236584 1.29895 2.5 0.663008 2.5 0 
C 2.5 -0.663008 2.236584 -1.29895 1.767767 -1.767767 
C 1.29895 -2.236584 0.663008 -2.5 0 -2.5 
C -0.663008 -2.5 -1.29895 -2.236584 -1.767767 -1.767767 
C -2.236584 -1.29895 -2.5 -0.663008 -2.5 0 
C -2.5 0.663008 -2.236584 1.29895 -1.767767 1.767767 
C -1.29895 2.236584 -0.663008 2.5 0 2.5 
z
" style="stroke: #000000; stroke-opacity: 0.8; stroke-width: 0.5"/>
    </defs>
    <g clip-path="url(#p30ec4f3e5e)">
     <use xlink:href="#m736278d588" x="42.736945" y="61.628116" style="fill: #d3d3d3; fill-opacity: 0.8; stroke: #000000; stroke-opacity: 0.8; stroke-width: 0.5"/>
    </g>
   </g>
   <g id="PathCollection_6">
    <g clip-path="url(#p30ec4f3e5e)">
     <use xlink:href="#m736278d588" x="60.051455" y="72.288569" style="fill: #d3d3d3; fill-opacity: 0.8; stroke: #000000; stroke-opacity: 0.8; stroke-width: 0.5"/>
    </g>
   </g>
   <g id="PathCollection_7">
    <g clip-path="url(#p30ec4f3e5e)">
     <use xlink:href="#m736278d588" x="79.617631" y="50.742627" style="fill: #d3d3d3; fill-opacity: 0.8; stroke: #000000; stroke-opacity: 0.8; stroke-width: 0.5"/>
    </g>
   </g>
   <g id="PathCollection_8">
    <g clip-path="url(#p30ec4f3e5e)">
     <use xlink:href="#m736278d588" x="96.77372" y="74.400543" style="fill: #d3d3d3; fill-opacity: 0.8; stroke: #000000; stroke-opacity: 0.8; stroke-width: 0.5"/>
    </g>
   </g>
   <g id="PathCollection_9">
    <defs>
     <path id="m65ffc30ce6" d="M 0 -2.5 
L -2.5 2.5 
L 2.5 2.5 
z
" style="stroke: #000000; stroke-opacity: 0.8; stroke-width: 0.5"/>
    </defs>
    <g clip-path="url(#p30ec4f3e5e)">
     <use xlink:href="#m65ffc30ce6" x="44.562325" y="64.918869" style="fill: #d3d3d3; fill-opacity: 0.8; stroke: #000000; stroke-opacity: 0.8; stroke-width: 0.5"/>
    </g>
   </g>
   <g id="PathCollection_10">
    <g clip-path="url(#p30ec4f3e5e)">
     <use xlink:href="#m65ffc30ce6" x="60.807452" y="68.884166" style="fill: #d3d3d3; fill-opacity: 0.8; stroke: #000000; stroke-opacity: 0.8; stroke-width: 0.5"/>
    </g>
   </g>
   <g id="PathCollection_11">
    <g clip-path="url(#p30ec4f3e5e)">
     <use xlink:href="#m65ffc30ce6" x="79.13411" y="54.464875" style="fill: #d3d3d3; fill-opacity: 0.8; stroke: #000000; stroke-opacity: 0.8; stroke-width: 0.5"/>
    </g>
   </g>
   <g id="PathCollection_12">
    <g clip-path="url(#p30ec4f3e5e)">
     <use xlink:href="#m65ffc30ce6" x="98.29206" y="74.74111" style="fill: #d3d3d3; fill-opacity: 0.8; stroke: #000000; stroke-opacity: 0.8; stroke-width: 0.5"/>
    </g>
   </g>
   <g id="text_6">
    <!-- * -->
    <g transform="translate(59.160567 42.065573) scale(0.06 -0.06)">
     <defs>
      <path id="DejaVuSans-2a" d="M 3009 3897 
L 1888 3291 
L 3009 2681 
L 2828 2375 
L 1778 3009 
L 1778 1831 
L 1422 1831 
L 1422 3009 
L 372 2375 
L 191 2681 
L 1313 3291 
L 191 3897 
L 372 4206 
L 1422 3572 
L 1422 4750 
L 1778 4750 
L 1778 3572 
L 2828 4206 
L 3009 3897 
z
" transform="scale(0.015625)"/>
     </defs>
     <use xlink:href="#DejaVuSans-2a"/>
    </g>
   </g>
   <g id="text_7">
    <!-- * -->
    <g transform="translate(77.285531 42.065573) scale(0.06 -0.06)">
     <use xlink:href="#DejaVuSans-2a"/>
    </g>
   </g>
   <g id="text_8">
    <!-- ** -->
    <g transform="translate(93.910494 42.065573) scale(0.06 -0.06)">
     <use xlink:href="#DejaVuSans-2a"/>
     <use xlink:href="#DejaVuSans-2a" transform="translate(50 0)"/>
    </g>
   </g>
   <g id="text_9">
    <!-- G1 -->
    <g transform="translate(31.841875 36.950465) scale(0.06 -0.06)">
     <defs>
      <path id="DejaVuSans-47" d="M 3809 666 
L 3809 1919 
L 2778 1919 
L 2778 2438 
L 4434 2438 
L 4434 434 
Q 4069 175 3628 42 
Q 3188 -91 2688 -91 
Q 1594 -91 976 548 
Q 359 1188 359 2328 
Q 359 3472 976 4111 
Q 1594 4750 2688 4750 
Q 3144 4750 3555 4637 
Q 3966 4525 4313 4306 
L 4313 3634 
Q 3963 3931 3569 4081 
Q 3175 4231 2741 4231 
Q 1884 4231 1454 3753 
Q 1025 3275 1025 2328 
Q 1025 1384 1454 906 
Q 1884 428 2741 428 
Q 3075 428 3337 486 
Q 3600 544 3809 666 
z
" transform="scale(0.015625)"/>
      <path id="DejaVuSans-31" d="M 794 531 
L 1825 531 
L 1825 4091 
L 703 3866 
L 703 4441 
L 1819 4666 
L 2450 4666 
L 2450 531 
L 3481 531 
L 3481 0 
L 794 0 
L 794 531 
z
" transform="scale(0.015625)"/>
     </defs>
     <use xlink:href="#DejaVuSans-47"/>
     <use xlink:href="#DejaVuSans-31" transform="translate(77.490234 0)"/>
    </g>
   </g>
  </g>
  <g id="axes_2">
   <g id="patch_9">
    <path d="M 122.756692 110.571797 
L 198.51904 110.571797 
L 198.51904 43.313386 
L 122.756692 43.313386 
z
" style="fill: #ffffff"/>
   </g>
   <g id="patch_10">
    <path d="M 126.200436 110.571797 
L 140.700406 110.571797 
L 140.700406 54.6119 
L 126.200436 54.6119 
z
" clip-path="url(#pe882242cb6)" style="fill: #caba75"/>
   </g>
   <g id="patch_11">
    <path d="M 144.325399 110.571797 
L 158.82537 110.571797 
L 158.82537 84.924977 
L 144.325399 84.924977 
z
" clip-path="url(#pe882242cb6)" style="fill: #caba75"/>
   </g>
   <g id="patch_12">
    <path d="M 162.450363 110.571797 
L 176.950334 110.571797 
L 176.950334 73.80973 
L 162.450363 73.80973 
z
" clip-path="url(#pe882242cb6)" style="fill: #caba75"/>
   </g>
   <g id="patch_13">
    <path d="M 180.575326 110.571797 
L 195.075297 110.571797 
L 195.075297 103.647425 
L 180.575326 103.647425 
z
" clip-path="url(#pe882242cb6)" style="fill: #caba75"/>
   </g>
   <g id="matplotlib.axis_3">
    <g id="xtick_5">
     <g id="line2d_13"/>
    </g>
    <g id="xtick_6">
     <g id="line2d_14"/>
    </g>
    <g id="xtick_7">
     <g id="line2d_15"/>
    </g>
    <g id="xtick_8">
     <g id="line2d_16"/>
    </g>
   </g>
   <g id="matplotlib.axis_4">
    <g id="ytick_5">
     <g id="line2d_17"/>
     <g id="text_10">
      <!-- 0 -->
      <g transform="translate(116.939192 112.851328) scale(0.06 -0.06)">
       <use xlink:href="#DejaVuSans-30"/>
      </g>
     </g>
    </g>
    <g id="ytick_6">
     <g id="line2d_18"/>
     <g id="text_11">
      <!-- 5 -->
      <g transform="translate(116.939192 99.154846) scale(0.06 -0.06)">
       <defs>
        <path id="DejaVuSans-35" d="M 691 4666 
L 3169 4666 
L 3169 4134 
L 1269 4134 
L 1269 2991 
Q 1406 3038 1543 3061 
Q 1681 3084 1819 3084 
Q 2600 3084 3056 2656 
Q 3513 2228 3513 1497 
Q 3513 744 3044 326 
Q 2575 -91 1722 -91 
Q 1428 -91 1123 -41 
Q 819 9 494 109 
L 494 744 
Q 775 591 1075 516 
Q 1375 441 1709 441 
Q 2250 441 2565 725 
Q 2881 1009 2881 1497 
Q 2881 1984 2565 2268 
Q 2250 2553 1709 2553 
Q 1456 2553 1204 2497 
Q 953 2441 691 2322 
L 691 4666 
z
" transform="scale(0.015625)"/>
       </defs>
       <use xlink:href="#DejaVuSans-35"/>
      </g>
     </g>
    </g>
    <g id="ytick_7">
     <g id="line2d_19"/>
     <g id="text_12">
      <!-- 10 -->
      <g transform="translate(113.121692 85.458364) scale(0.06 -0.06)">
       <use xlink:href="#DejaVuSans-31"/>
       <use xlink:href="#DejaVuSans-30" transform="translate(63.623047 0)"/>
      </g>
     </g>
    </g>
    <g id="ytick_8">
     <g id="line2d_20"/>
     <g id="text_13">
      <!-- 15 -->
      <g transform="translate(113.121692 71.761882) scale(0.06 -0.06)">
       <use xlink:href="#DejaVuSans-31"/>
       <use xlink:href="#DejaVuSans-35" transform="translate(63.623047 0)"/>
      </g>
     </g>
    </g>
    <g id="ytick_9">
     <g id="line2d_21"/>
     <g id="text_14">
      <!-- 20 -->
      <g transform="translate(113.121692 58.0654) scale(0.06 -0.06)">
       <use xlink:href="#DejaVuSans-32"/>
       <use xlink:href="#DejaVuSans-30" transform="translate(63.623047 0)"/>
      </g>
     </g>
    </g>
   </g>
   <g id="line2d_22">
    <path d="M 133.450421 61.927968 
L 133.450421 46.516167 
" clip-path="url(#pe882242cb6)" style="fill: none; stroke: #424242; stroke-width: 0.75"/>
   </g>
   <g id="line2d_23">
    <path d="M 151.575385 88.398907 
L 151.575385 80.363194 
" clip-path="url(#pe882242cb6)" style="fill: none; stroke: #424242; stroke-width: 0.75"/>
   </g>
   <g id="line2d_24">
    <path d="M 169.700348 81.717076 
L 169.700348 66.462018 
" clip-path="url(#pe882242cb6)" style="fill: none; stroke: #424242; stroke-width: 0.75"/>
   </g>
   <g id="line2d_25">
    <path d="M 187.825312 106.751475 
L 187.825312 100.565234 
" clip-path="url(#pe882242cb6)" style="fill: none; stroke: #424242; stroke-width: 0.75"/>
   </g>
   <g id="patch_14">
    <path d="M 122.756692 110.571797 
L 122.756692 43.313386 
" style="fill: none; stroke: #000000; stroke-width: 0.5; stroke-linejoin: miter; stroke-linecap: square"/>
   </g>
   <g id="patch_15">
    <path d="M 122.756692 110.571797 
L 198.51904 110.571797 
" style="fill: none; stroke: #000000; stroke-width: 0.5; stroke-linejoin: miter; stroke-linecap: square"/>
   </g>
   <g id="PathCollection_13">
    <g clip-path="url(#pe882242cb6)">
     <use xlink:href="#maaf811f974" x="135.863215" y="61.927968" style="fill: #d3d3d3; fill-opacity: 0.8; stroke: #000000; stroke-opacity: 0.8; stroke-width: 0.5"/>
    </g>
   </g>
   <g id="PathCollection_14">
    <g clip-path="url(#pe882242cb6)">
     <use xlink:href="#maaf811f974" x="150.454488" y="80.363194" style="fill: #d3d3d3; fill-opacity: 0.8; stroke: #000000; stroke-opacity: 0.8; stroke-width: 0.5"/>
    </g>
   </g>
   <g id="PathCollection_15">
    <g clip-path="url(#pe882242cb6)">
     <use xlink:href="#maaf811f974" x="170.141737" y="81.717076" style="fill: #d3d3d3; fill-opacity: 0.8; stroke: #000000; stroke-opacity: 0.8; stroke-width: 0.5"/>
    </g>
   </g>
   <g id="PathCollection_16">
    <g clip-path="url(#pe882242cb6)">
     <use xlink:href="#maaf811f974" x="187.549634" y="106.751475" style="fill: #d3d3d3; fill-opacity: 0.8; stroke: #000000; stroke-opacity: 0.8; stroke-width: 0.5"/>
    </g>
   </g>
   <g id="PathCollection_17">
    <g clip-path="url(#pe882242cb6)">
     <use xlink:href="#m736278d588" x="133.065282" y="55.391565" style="fill: #d3d3d3; fill-opacity: 0.8; stroke: #000000; stroke-opacity: 0.8; stroke-width: 0.5"/>
    </g>
   </g>
   <g id="PathCollection_18">
    <g clip-path="url(#pe882242cb6)">
     <use xlink:href="#m736278d588" x="152.495856" y="86.012831" style="fill: #d3d3d3; fill-opacity: 0.8; stroke: #000000; stroke-opacity: 0.8; stroke-width: 0.5"/>
    </g>
   </g>
   <g id="PathCollection_19">
    <g clip-path="url(#pe882242cb6)">
     <use xlink:href="#m736278d588" x="169.101047" y="73.250096" style="fill: #d3d3d3; fill-opacity: 0.8; stroke: #000000; stroke-opacity: 0.8; stroke-width: 0.5"/>
    </g>
   </g>
   <g id="PathCollection_20">
    <g clip-path="url(#pe882242cb6)">
     <use xlink:href="#m736278d588" x="187.363791" y="103.625564" style="fill: #d3d3d3; fill-opacity: 0.8; stroke: #000000; stroke-opacity: 0.8; stroke-width: 0.5"/>
    </g>
   </g>
   <g id="PathCollection_21">
    <g clip-path="url(#pe882242cb6)">
     <use xlink:href="#m65ffc30ce6" x="134.047401" y="46.516167" style="fill: #d3d3d3; fill-opacity: 0.8; stroke: #000000; stroke-opacity: 0.8; stroke-width: 0.5"/>
    </g>
   </g>
   <g id="PathCollection_22">
    <g clip-path="url(#pe882242cb6)">
     <use xlink:href="#m65ffc30ce6" x="151.839844" y="88.398907" style="fill: #d3d3d3; fill-opacity: 0.8; stroke: #000000; stroke-opacity: 0.8; stroke-width: 0.5"/>
    </g>
   </g>
   <g id="PathCollection_23">
    <g clip-path="url(#pe882242cb6)">
     <use xlink:href="#m65ffc30ce6" x="169.97878" y="66.462018" style="fill: #d3d3d3; fill-opacity: 0.8; stroke: #000000; stroke-opacity: 0.8; stroke-width: 0.5"/>
    </g>
   </g>
   <g id="PathCollection_24">
    <g clip-path="url(#pe882242cb6)">
     <use xlink:href="#m65ffc30ce6" x="188.478327" y="100.565234" style="fill: #d3d3d3; fill-opacity: 0.8; stroke: #000000; stroke-opacity: 0.8; stroke-width: 0.5"/>
    </g>
   </g>
   <g id="text_15">
    <!-- ** -->
    <g transform="translate(148.575385 42.065573) scale(0.06 -0.06)">
     <use xlink:href="#DejaVuSans-2a"/>
     <use xlink:href="#DejaVuSans-2a" transform="translate(50 0)"/>
    </g>
   </g>
   <g id="text_16">
    <!-- * -->
    <g transform="translate(168.200348 42.065573) scale(0.06 -0.06)">
     <use xlink:href="#DejaVuSans-2a"/>
    </g>
   </g>
   <g id="text_17">
    <!-- *** -->
    <g transform="translate(183.325312 42.065573) scale(0.06 -0.06)">
     <use xlink:href="#DejaVuSans-2a"/>
     <use xlink:href="#DejaVuSans-2a" transform="translate(50 0)"/>
     <use xlink:href="#DejaVuSans-2a" transform="translate(100 0)"/>
    </g>
   </g>
   <g id="text_18">
    <!-- S -->
    <g transform="translate(122.756692 36.950465) scale(0.06 -0.06)">
     <defs>
      <path id="DejaVuSans-53" d="M 3425 4513 
L 3425 3897 
Q 3066 4069 2747 4153 
Q 2428 4238 2131 4238 
Q 1616 4238 1336 4038 
Q 1056 3838 1056 3469 
Q 1056 3159 1242 3001 
Q 1428 2844 1947 2747 
L 2328 2669 
Q 3034 2534 3370 2195 
Q 3706 1856 3706 1288 
Q 3706 609 3251 259 
Q 2797 -91 1919 -91 
Q 1588 -91 1214 -16 
Q 841 59 441 206 
L 441 856 
Q 825 641 1194 531 
Q 1563 422 1919 422 
Q 2459 422 2753 634 
Q 3047 847 3047 1241 
Q 3047 1584 2836 1778 
Q 2625 1972 2144 2069 
L 1759 2144 
Q 1053 2284 737 2584 
Q 422 2884 422 3419 
Q 422 4038 858 4394 
Q 1294 4750 2059 4750 
Q 2388 4750 2728 4690 
Q 3069 4631 3425 4513 
z
" transform="scale(0.015625)"/>
     </defs>
     <use xlink:href="#DejaVuSans-53"/>
    </g>
   </g>
  </g>
  <g id="axes_3">
   <g id="patch_16">
    <path d="M 31.841875 191.28189 
L 107.604223 191.28189 
L 107.604223 124.023479 
L 31.841875 124.023479 
z
" style="fill: #ffffff"/>
   </g>
   <g id="patch_17">
    <path d="M 35.285618 191.28189 
L 49.785589 191.28189 
L 49.785589 156.953921 
L 35.285618 156.953921 
z
" clip-path="url(#p24f8a13c7b)" style="fill: #5a6e8c"/>
   </g>
   <g id="patch_18">
    <path d="M 53.410582 191.28189 
L 67.910553 191.28189 
L 67.910553 147.255723 
L 53.410582 147.255723 
z
" clip-path="url(#p24f8a13c7b)" style="fill: #5a6e8c"/>
   </g>
   <g id="patch_19">
    <path d="M 71.535545 191.28189 
L 86.035516 191.28189 
L 86.035516 167.80477 
L 71.535545 167.80477 
z
" clip-path="url(#p24f8a13c7b)" style="fill: #5a6e8c"/>
   </g>
   <g id="patch_20">
    <path d="M 89.660509 191.28189 
L 104.16048 191.28189 
L 104.16048 131.355085 
L 89.660509 131.355085 
z
" clip-path="url(#p24f8a13c7b)" style="fill: #5a6e8c"/>
   </g>
   <g id="matplotlib.axis_5">
    <g id="xtick_9">
     <g id="line2d_26"/>
     <g id="text_19">
      <!-- control -->
      <g transform="translate(26.949202 211.209698) rotate(-45) scale(0.06 -0.06)">
       <defs>
        <path id="DejaVuSans-6f" d="M 1959 3097 
Q 1497 3097 1228 2736 
Q 959 2375 959 1747 
Q 959 1119 1226 758 
Q 1494 397 1959 397 
Q 2419 397 2687 759 
Q 2956 1122 2956 1747 
Q 2956 2369 2687 2733 
Q 2419 3097 1959 3097 
z
M 1959 3584 
Q 2709 3584 3137 3096 
Q 3566 2609 3566 1747 
Q 3566 888 3137 398 
Q 2709 -91 1959 -91 
Q 1206 -91 779 398 
Q 353 888 353 1747 
Q 353 2609 779 3096 
Q 1206 3584 1959 3584 
z
" transform="scale(0.015625)"/>
        <path id="DejaVuSans-6c" d="M 603 4863 
L 1178 4863 
L 1178 0 
L 603 0 
L 603 4863 
z
" transform="scale(0.015625)"/>
       </defs>
       <use xlink:href="#DejaVuSans-63"/>
       <use xlink:href="#DejaVuSans-6f" transform="translate(54.980469 0)"/>
       <use xlink:href="#DejaVuSans-6e" transform="translate(116.162109 0)"/>
       <use xlink:href="#DejaVuSans-74" transform="translate(179.541016 0)"/>
       <use xlink:href="#DejaVuSans-72" transform="translate(218.75 0)"/>
       <use xlink:href="#DejaVuSans-6f" transform="translate(257.613281 0)"/>
       <use xlink:href="#DejaVuSans-6c" transform="translate(318.794922 0)"/>
      </g>
     </g>
    </g>
    <g id="xtick_10">
     <g id="line2d_27"/>
     <g id="text_20">
      <!-- cond01 -->
      <g transform="translate(44.068527 212.215337) rotate(-45) scale(0.06 -0.06)">
       <defs>
        <path id="DejaVuSans-64" d="M 2906 2969 
L 2906 4863 
L 3481 4863 
L 3481 0 
L 2906 0 
L 2906 525 
Q 2725 213 2448 61 
Q 2172 -91 1784 -91 
Q 1150 -91 751 415 
Q 353 922 353 1747 
Q 353 2572 751 3078 
Q 1150 3584 1784 3584 
Q 2172 3584 2448 3432 
Q 2725 3281 2906 2969 
z
M 947 1747 
Q 947 1113 1208 752 
Q 1469 391 1925 391 
Q 2381 391 2643 752 
Q 2906 1113 2906 1747 
Q 2906 2381 2643 2742 
Q 2381 3103 1925 3103 
Q 1469 3103 1208 2742 
Q 947 2381 947 1747 
z
" transform="scale(0.015625)"/>
       </defs>
       <use xlink:href="#DejaVuSans-63"/>
       <use xlink:href="#DejaVuSans-6f" transform="translate(54.980469 0)"/>
       <use xlink:href="#DejaVuSans-6e" transform="translate(116.162109 0)"/>
       <use xlink:href="#DejaVuSans-64" transform="translate(179.541016 0)"/>
       <use xlink:href="#DejaVuSans-30" transform="translate(243.017578 0)"/>
       <use xlink:href="#DejaVuSans-31" transform="translate(306.640625 0)"/>
      </g>
     </g>
    </g>
    <g id="xtick_11">
     <g id="line2d_28"/>
     <g id="text_21">
      <!-- cond02 -->
      <g transform="translate(62.193491 212.215337) rotate(-45) scale(0.06 -0.06)">
       <use xlink:href="#DejaVuSans-63"/>
       <use xlink:href="#DejaVuSans-6f" transform="translate(54.980469 0)"/>
       <use xlink:href="#DejaVuSans-6e" transform="translate(116.162109 0)"/>
       <use xlink:href="#DejaVuSans-64" transform="translate(179.541016 0)"/>
       <use xlink:href="#DejaVuSans-30" transform="translate(243.017578 0)"/>
       <use xlink:href="#DejaVuSans-32" transform="translate(306.640625 0)"/>
      </g>
     </g>
    </g>
    <g id="xtick_12">
     <g id="line2d_29"/>
     <g id="text_22">
      <!-- cond03 -->
      <g transform="translate(80.318455 212.215337) rotate(-45) scale(0.06 -0.06)">
       <defs>
        <path id="DejaVuSans-33" d="M 2597 2516 
Q 3050 2419 3304 2112 
Q 3559 1806 3559 1356 
Q 3559 666 3084 287 
Q 2609 -91 1734 -91 
Q 1441 -91 1130 -33 
Q 819 25 488 141 
L 488 750 
Q 750 597 1062 519 
Q 1375 441 1716 441 
Q 2309 441 2620 675 
Q 2931 909 2931 1356 
Q 2931 1769 2642 2001 
Q 2353 2234 1838 2234 
L 1294 2234 
L 1294 2753 
L 1863 2753 
Q 2328 2753 2575 2939 
Q 2822 3125 2822 3475 
Q 2822 3834 2567 4026 
Q 2313 4219 1838 4219 
Q 1578 4219 1281 4162 
Q 984 4106 628 3988 
L 628 4550 
Q 988 4650 1302 4700 
Q 1616 4750 1894 4750 
Q 2613 4750 3031 4423 
Q 3450 4097 3450 3541 
Q 3450 3153 3228 2886 
Q 3006 2619 2597 2516 
z
" transform="scale(0.015625)"/>
       </defs>
       <use xlink:href="#DejaVuSans-63"/>
       <use xlink:href="#DejaVuSans-6f" transform="translate(54.980469 0)"/>
       <use xlink:href="#DejaVuSans-6e" transform="translate(116.162109 0)"/>
       <use xlink:href="#DejaVuSans-64" transform="translate(179.541016 0)"/>
       <use xlink:href="#DejaVuSans-30" transform="translate(243.017578 0)"/>
       <use xlink:href="#DejaVuSans-33" transform="translate(306.640625 0)"/>
      </g>
     </g>
    </g>
   </g>
   <g id="matplotlib.axis_6">
    <g id="ytick_10">
     <g id="line2d_30"/>
     <g id="text_23">
      <!-- 0 -->
      <g transform="translate(26.024375 193.561421) scale(0.06 -0.06)">
       <use xlink:href="#DejaVuSans-30"/>
      </g>
     </g>
    </g>
    <g id="ytick_11">
     <g id="line2d_31"/>
     <g id="text_24">
      <!-- 10 -->
      <g transform="translate(22.206875 174.839815) scale(0.06 -0.06)">
       <use xlink:href="#DejaVuSans-31"/>
       <use xlink:href="#DejaVuSans-30" transform="translate(63.623047 0)"/>
      </g>
     </g>
    </g>
    <g id="ytick_12">
     <g id="line2d_32"/>
     <g id="text_25">
      <!-- 20 -->
      <g transform="translate(22.206875 156.11821) scale(0.06 -0.06)">
       <use xlink:href="#DejaVuSans-32"/>
       <use xlink:href="#DejaVuSans-30" transform="translate(63.623047 0)"/>
      </g>
     </g>
    </g>
    <g id="ytick_13">
     <g id="line2d_33"/>
     <g id="text_26">
      <!-- 30 -->
      <g transform="translate(22.206875 137.396604) scale(0.06 -0.06)">
       <use xlink:href="#DejaVuSans-33"/>
       <use xlink:href="#DejaVuSans-30" transform="translate(63.623047 0)"/>
      </g>
     </g>
    </g>
    <g id="text_27">
     <!-- percent -->
     <g transform="translate(18.959063 169.141747) rotate(-90) scale(0.06 -0.06)">
      <use xlink:href="#DejaVuSans-70"/>
      <use xlink:href="#DejaVuSans-65" transform="translate(63.476562 0)"/>
      <use xlink:href="#DejaVuSans-72" transform="translate(125 0)"/>
      <use xlink:href="#DejaVuSans-63" transform="translate(163.863281 0)"/>
      <use xlink:href="#DejaVuSans-65" transform="translate(218.84375 0)"/>
      <use xlink:href="#DejaVuSans-6e" transform="translate(280.367188 0)"/>
      <use xlink:href="#DejaVuSans-74" transform="translate(343.746094 0)"/>
     </g>
    </g>
   </g>
   <g id="line2d_34">
    <path d="M 42.535604 157.646996 
L 42.535604 155.72449 
" clip-path="url(#p24f8a13c7b)" style="fill: none; stroke: #424242; stroke-width: 0.75"/>
   </g>
   <g id="line2d_35">
    <path d="M 60.660567 151.052523 
L 60.660567 143.946561 
" clip-path="url(#p24f8a13c7b)" style="fill: none; stroke: #424242; stroke-width: 0.75"/>
   </g>
   <g id="line2d_36">
    <path d="M 78.785531 170.449374 
L 78.785531 165.738378 
" clip-path="url(#p24f8a13c7b)" style="fill: none; stroke: #424242; stroke-width: 0.75"/>
   </g>
   <g id="line2d_37">
    <path d="M 96.910494 137.532075 
L 96.910494 127.22626 
" clip-path="url(#p24f8a13c7b)" style="fill: none; stroke: #424242; stroke-width: 0.75"/>
   </g>
   <g id="patch_21">
    <path d="M 31.841875 191.28189 
L 31.841875 124.023479 
" style="fill: none; stroke: #000000; stroke-width: 0.5; stroke-linejoin: miter; stroke-linecap: square"/>
   </g>
   <g id="patch_22">
    <path d="M 31.841875 191.28189 
L 107.604223 191.28189 
" style="fill: none; stroke: #000000; stroke-width: 0.5; stroke-linejoin: miter; stroke-linecap: square"/>
   </g>
   <g id="PathCollection_25">
    <g clip-path="url(#p24f8a13c7b)">
     <use xlink:href="#maaf811f974" x="43.848821" y="155.72449" style="fill: #d3d3d3; fill-opacity: 0.8; stroke: #000000; stroke-opacity: 0.8; stroke-width: 0.5"/>
    </g>
   </g>
   <g id="PathCollection_26">
    <g clip-path="url(#p24f8a13c7b)">
     <use xlink:href="#maaf811f974" x="58.536661" y="146.768085" style="fill: #d3d3d3; fill-opacity: 0.8; stroke: #000000; stroke-opacity: 0.8; stroke-width: 0.5"/>
    </g>
   </g>
   <g id="PathCollection_27">
    <g clip-path="url(#p24f8a13c7b)">
     <use xlink:href="#maaf811f974" x="79.729519" y="170.449374" style="fill: #d3d3d3; fill-opacity: 0.8; stroke: #000000; stroke-opacity: 0.8; stroke-width: 0.5"/>
    </g>
   </g>
   <g id="PathCollection_28">
    <g clip-path="url(#p24f8a13c7b)">
     <use xlink:href="#maaf811f974" x="96.861231" y="129.306919" style="fill: #d3d3d3; fill-opacity: 0.8; stroke: #000000; stroke-opacity: 0.8; stroke-width: 0.5"/>
    </g>
   </g>
   <g id="PathCollection_29">
    <g clip-path="url(#p24f8a13c7b)">
     <use xlink:href="#m736278d588" x="42.185904" y="157.646996" style="fill: #d3d3d3; fill-opacity: 0.8; stroke: #000000; stroke-opacity: 0.8; stroke-width: 0.5"/>
    </g>
   </g>
   <g id="PathCollection_30">
    <g clip-path="url(#p24f8a13c7b)">
     <use xlink:href="#m736278d588" x="60.063932" y="143.946561" style="fill: #d3d3d3; fill-opacity: 0.8; stroke: #000000; stroke-opacity: 0.8; stroke-width: 0.5"/>
    </g>
   </g>
   <g id="PathCollection_31">
    <g clip-path="url(#p24f8a13c7b)">
     <use xlink:href="#m736278d588" x="77.142488" y="167.226556" style="fill: #d3d3d3; fill-opacity: 0.8; stroke: #000000; stroke-opacity: 0.8; stroke-width: 0.5"/>
    </g>
   </g>
   <g id="PathCollection_32">
    <g clip-path="url(#p24f8a13c7b)">
     <use xlink:href="#m736278d588" x="96.619158" y="127.22626" style="fill: #d3d3d3; fill-opacity: 0.8; stroke: #000000; stroke-opacity: 0.8; stroke-width: 0.5"/>
    </g>
   </g>
   <g id="PathCollection_33">
    <g clip-path="url(#p24f8a13c7b)">
     <use xlink:href="#m65ffc30ce6" x="42.417488" y="157.490277" style="fill: #d3d3d3; fill-opacity: 0.8; stroke: #000000; stroke-opacity: 0.8; stroke-width: 0.5"/>
    </g>
   </g>
   <g id="PathCollection_34">
    <g clip-path="url(#p24f8a13c7b)">
     <use xlink:href="#m65ffc30ce6" x="61.196423" y="151.052523" style="fill: #d3d3d3; fill-opacity: 0.8; stroke: #000000; stroke-opacity: 0.8; stroke-width: 0.5"/>
    </g>
   </g>
   <g id="PathCollection_35">
    <g clip-path="url(#p24f8a13c7b)">
     <use xlink:href="#m65ffc30ce6" x="79.619341" y="165.738378" style="fill: #d3d3d3; fill-opacity: 0.8; stroke: #000000; stroke-opacity: 0.8; stroke-width: 0.5"/>
    </g>
   </g>
   <g id="PathCollection_36">
    <g clip-path="url(#p24f8a13c7b)">
     <use xlink:href="#m65ffc30ce6" x="97.367738" y="137.532075" style="fill: #d3d3d3; fill-opacity: 0.8; stroke: #000000; stroke-opacity: 0.8; stroke-width: 0.5"/>
    </g>
   </g>
   <g id="text_28">
    <!-- * -->
    <g transform="translate(59.160567 122.775666) scale(0.06 -0.06)">
     <use xlink:href="#DejaVuSans-2a"/>
    </g>
   </g>
   <g id="text_29">
    <!-- ** -->
    <g transform="translate(75.785531 122.775666) scale(0.06 -0.06)">
     <use xlink:href="#DejaVuSans-2a"/>
     <use xlink:href="#DejaVuSans-2a" transform="translate(50 0)"/>
    </g>
   </g>
   <g id="text_30">
    <!-- ** -->
    <g transform="translate(93.910494 122.775666) scale(0.06 -0.06)">
     <use xlink:href="#DejaVuSans-2a"/>
     <use xlink:href="#DejaVuSans-2a" transform="translate(50 0)"/>
    </g>
   </g>
   <g id="text_31">
    <!-- G2/M -->
    <g transform="translate(31.841875 117.660558) scale(0.06 -0.06)">
     <defs>
      <path id="DejaVuSans-2f" d="M 1625 4666 
L 2156 4666 
L 531 -594 
L 0 -594 
L 1625 4666 
z
" transform="scale(0.015625)"/>
      <path id="DejaVuSans-4d" d="M 628 4666 
L 1569 4666 
L 2759 1491 
L 3956 4666 
L 4897 4666 
L 4897 0 
L 4281 0 
L 4281 4097 
L 3078 897 
L 2444 897 
L 1241 4097 
L 1241 0 
L 628 0 
L 628 4666 
z
" transform="scale(0.015625)"/>
     </defs>
     <use xlink:href="#DejaVuSans-47"/>
     <use xlink:href="#DejaVuSans-32" transform="translate(77.490234 0)"/>
     <use xlink:href="#DejaVuSans-2f" transform="translate(141.113281 0)"/>
     <use xlink:href="#DejaVuSans-4d" transform="translate(174.804688 0)"/>
    </g>
   </g>
  </g>
  <g id="axes_4">
   <g id="patch_23">
    <path d="M 122.756692 191.28189 
L 198.51904 191.28189 
L 198.51904 124.023479 
L 122.756692 124.023479 
z
" style="fill: #ffffff"/>
   </g>
   <g id="patch_24">
    <path d="M 126.200436 191.28189 
L 140.700406 191.28189 
L 140.700406 182.741397 
L 126.200436 182.741397 
z
" clip-path="url(#p1a95f74f2a)" style="fill: #5a6e8c"/>
   </g>
   <g id="patch_25">
    <path d="M 144.325399 191.28189 
L 158.82537 191.28189 
L 158.82537 148.623835 
L 144.325399 148.623835 
z
" clip-path="url(#p1a95f74f2a)" style="fill: #5a6e8c"/>
   </g>
   <g id="patch_26">
    <path d="M 162.450363 191.28189 
L 176.950334 191.28189 
L 176.950334 184.31257 
L 162.450363 184.31257 
z
" clip-path="url(#p1a95f74f2a)" style="fill: #5a6e8c"/>
   </g>
   <g id="patch_27">
    <path d="M 180.575326 191.28189 
L 195.075297 191.28189 
L 195.075297 137.700099 
L 180.575326 137.700099 
z
" clip-path="url(#p1a95f74f2a)" style="fill: #5a6e8c"/>
   </g>
   <g id="matplotlib.axis_7">
    <g id="xtick_13">
     <g id="line2d_38"/>
     <g id="text_32">
      <!-- control -->
      <g transform="translate(117.86402 211.209698) rotate(-45) scale(0.06 -0.06)">
       <use xlink:href="#DejaVuSans-63"/>
       <use xlink:href="#DejaVuSans-6f" transform="translate(54.980469 0)"/>
       <use xlink:href="#DejaVuSans-6e" transform="translate(116.162109 0)"/>
       <use xlink:href="#DejaVuSans-74" transform="translate(179.541016 0)"/>
       <use xlink:href="#DejaVuSans-72" transform="translate(218.75 0)"/>
       <use xlink:href="#DejaVuSans-6f" transform="translate(257.613281 0)"/>
       <use xlink:href="#DejaVuSans-6c" transform="translate(318.794922 0)"/>
      </g>
     </g>
    </g>
    <g id="xtick_14">
     <g id="line2d_39"/>
     <g id="text_33">
      <!-- cond01 -->
      <g transform="translate(134.983345 212.215337) rotate(-45) scale(0.06 -0.06)">
       <use xlink:href="#DejaVuSans-63"/>
       <use xlink:href="#DejaVuSans-6f" transform="translate(54.980469 0)"/>
       <use xlink:href="#DejaVuSans-6e" transform="translate(116.162109 0)"/>
       <use xlink:href="#DejaVuSans-64" transform="translate(179.541016 0)"/>
       <use xlink:href="#DejaVuSans-30" transform="translate(243.017578 0)"/>
       <use xlink:href="#DejaVuSans-31" transform="translate(306.640625 0)"/>
      </g>
     </g>
    </g>
    <g id="xtick_15">
     <g id="line2d_40"/>
     <g id="text_34">
      <!-- cond02 -->
      <g transform="translate(153.108309 212.215337) rotate(-45) scale(0.06 -0.06)">
       <use xlink:href="#DejaVuSans-63"/>
       <use xlink:href="#DejaVuSans-6f" transform="translate(54.980469 0)"/>
       <use xlink:href="#DejaVuSans-6e" transform="translate(116.162109 0)"/>
       <use xlink:href="#DejaVuSans-64" transform="translate(179.541016 0)"/>
       <use xlink:href="#DejaVuSans-30" transform="translate(243.017578 0)"/>
       <use xlink:href="#DejaVuSans-32" transform="translate(306.640625 0)"/>
      </g>
     </g>
    </g>
    <g id="xtick_16">
     <g id="line2d_41"/>
     <g id="text_35">
      <!-- cond03 -->
      <g transform="translate(171.233272 212.215337) rotate(-45) scale(0.06 -0.06)">
       <use xlink:href="#DejaVuSans-63"/>
       <use xlink:href="#DejaVuSans-6f" transform="translate(54.980469 0)"/>
       <use xlink:href="#DejaVuSans-6e" transform="translate(116.162109 0)"/>
       <use xlink:href="#DejaVuSans-64" transform="translate(179.541016 0)"/>
       <use xlink:href="#DejaVuSans-30" transform="translate(243.017578 0)"/>
       <use xlink:href="#DejaVuSans-33" transform="translate(306.640625 0)"/>
      </g>
     </g>
    </g>
   </g>
   <g id="matplotlib.axis_8">
    <g id="ytick_14">
     <g id="line2d_42"/>
     <g id="text_36">
      <!-- 0 -->
      <g transform="translate(116.939192 193.561421) scale(0.06 -0.06)">
       <use xlink:href="#DejaVuSans-30"/>
      </g>
     </g>
    </g>
    <g id="ytick_15">
     <g id="line2d_43"/>
     <g id="text_37">
      <!-- 10 -->
      <g transform="translate(113.121692 167.217416) scale(0.06 -0.06)">
       <use xlink:href="#DejaVuSans-31"/>
       <use xlink:href="#DejaVuSans-30" transform="translate(63.623047 0)"/>
      </g>
     </g>
    </g>
    <g id="ytick_16">
     <g id="line2d_44"/>
     <g id="text_38">
      <!-- 20 -->
      <g transform="translate(113.121692 140.87341) scale(0.06 -0.06)">
       <use xlink:href="#DejaVuSans-32"/>
       <use xlink:href="#DejaVuSans-30" transform="translate(63.623047 0)"/>
      </g>
     </g>
    </g>
   </g>
   <g id="line2d_45">
    <path d="M 133.450421 184.67259 
L 133.450421 181.399315 
" clip-path="url(#p1a95f74f2a)" style="fill: none; stroke: #424242; stroke-width: 0.75"/>
   </g>
   <g id="line2d_46">
    <path d="M 151.575385 161.519558 
L 151.575385 141.462555 
" clip-path="url(#p1a95f74f2a)" style="fill: none; stroke: #424242; stroke-width: 0.75"/>
   </g>
   <g id="line2d_47">
    <path d="M 169.700348 185.817556 
L 169.700348 182.101874 
" clip-path="url(#p1a95f74f2a)" style="fill: none; stroke: #424242; stroke-width: 0.75"/>
   </g>
   <g id="line2d_48">
    <path d="M 187.825312 147.032036 
L 187.825312 127.22626 
" clip-path="url(#p1a95f74f2a)" style="fill: none; stroke: #424242; stroke-width: 0.75"/>
   </g>
   <g id="patch_28">
    <path d="M 122.756692 191.28189 
L 122.756692 124.023479 
" style="fill: none; stroke: #000000; stroke-width: 0.5; stroke-linejoin: miter; stroke-linecap: square"/>
   </g>
   <g id="patch_29">
    <path d="M 122.756692 191.28189 
L 198.51904 191.28189 
" style="fill: none; stroke: #000000; stroke-width: 0.5; stroke-linejoin: miter; stroke-linecap: square"/>
   </g>
   <g id="PathCollection_37">
    <g clip-path="url(#p1a95f74f2a)">
     <use xlink:href="#maaf811f974" x="133.043383" y="182.152286" style="fill: #d3d3d3; fill-opacity: 0.8; stroke: #000000; stroke-opacity: 0.8; stroke-width: 0.5"/>
    </g>
   </g>
   <g id="PathCollection_38">
    <g clip-path="url(#p1a95f74f2a)">
     <use xlink:href="#maaf811f974" x="151.551536" y="161.519558" style="fill: #d3d3d3; fill-opacity: 0.8; stroke: #000000; stroke-opacity: 0.8; stroke-width: 0.5"/>
    </g>
   </g>
   <g id="PathCollection_39">
    <g clip-path="url(#p1a95f74f2a)">
     <use xlink:href="#maaf811f974" x="169.336794" y="185.817556" style="fill: #d3d3d3; fill-opacity: 0.8; stroke: #000000; stroke-opacity: 0.8; stroke-width: 0.5"/>
    </g>
   </g>
   <g id="PathCollection_40">
    <g clip-path="url(#p1a95f74f2a)">
     <use xlink:href="#maaf811f974" x="187.295545" y="147.032036" style="fill: #d3d3d3; fill-opacity: 0.8; stroke: #000000; stroke-opacity: 0.8; stroke-width: 0.5"/>
    </g>
   </g>
   <g id="PathCollection_41">
    <g clip-path="url(#p1a95f74f2a)">
     <use xlink:href="#m736278d588" x="131.831561" y="184.67259" style="fill: #d3d3d3; fill-opacity: 0.8; stroke: #000000; stroke-opacity: 0.8; stroke-width: 0.5"/>
    </g>
   </g>
   <g id="PathCollection_42">
    <g clip-path="url(#p1a95f74f2a)">
     <use xlink:href="#m736278d588" x="150.064839" y="142.889393" style="fill: #d3d3d3; fill-opacity: 0.8; stroke: #000000; stroke-opacity: 0.8; stroke-width: 0.5"/>
    </g>
   </g>
   <g id="PathCollection_43">
    <g clip-path="url(#p1a95f74f2a)">
     <use xlink:href="#m736278d588" x="170.419152" y="185.01828" style="fill: #d3d3d3; fill-opacity: 0.8; stroke: #000000; stroke-opacity: 0.8; stroke-width: 0.5"/>
    </g>
   </g>
   <g id="PathCollection_44">
    <g clip-path="url(#p1a95f74f2a)">
     <use xlink:href="#m736278d588" x="187.233523" y="138.842002" style="fill: #d3d3d3; fill-opacity: 0.8; stroke: #000000; stroke-opacity: 0.8; stroke-width: 0.5"/>
    </g>
   </g>
   <g id="PathCollection_45">
    <g clip-path="url(#p1a95f74f2a)">
     <use xlink:href="#m65ffc30ce6" x="135.981907" y="181.399315" style="fill: #d3d3d3; fill-opacity: 0.8; stroke: #000000; stroke-opacity: 0.8; stroke-width: 0.5"/>
    </g>
   </g>
   <g id="PathCollection_46">
    <g clip-path="url(#p1a95f74f2a)">
     <use xlink:href="#m65ffc30ce6" x="151.838433" y="141.462555" style="fill: #d3d3d3; fill-opacity: 0.8; stroke: #000000; stroke-opacity: 0.8; stroke-width: 0.5"/>
    </g>
   </g>
   <g id="PathCollection_47">
    <g clip-path="url(#p1a95f74f2a)">
     <use xlink:href="#m65ffc30ce6" x="170.686109" y="182.101874" style="fill: #d3d3d3; fill-opacity: 0.8; stroke: #000000; stroke-opacity: 0.8; stroke-width: 0.5"/>
    </g>
   </g>
   <g id="PathCollection_48">
    <g clip-path="url(#p1a95f74f2a)">
     <use xlink:href="#m65ffc30ce6" x="188.268132" y="127.22626" style="fill: #d3d3d3; fill-opacity: 0.8; stroke: #000000; stroke-opacity: 0.8; stroke-width: 0.5"/>
    </g>
   </g>
   <g id="text_39">
    <!-- ** -->
    <g transform="translate(148.575385 122.775666) scale(0.06 -0.06)">
     <use xlink:href="#DejaVuSans-2a"/>
     <use xlink:href="#DejaVuSans-2a" transform="translate(50 0)"/>
    </g>
   </g>
   <g id="text_40">
    <!-- ns -->
    <g transform="translate(166.236286 122.775666) scale(0.06 -0.06)">
     <defs>
      <path id="DejaVuSans-73" d="M 2834 3397 
L 2834 2853 
Q 2591 2978 2328 3040 
Q 2066 3103 1784 3103 
Q 1356 3103 1142 2972 
Q 928 2841 928 2578 
Q 928 2378 1081 2264 
Q 1234 2150 1697 2047 
L 1894 2003 
Q 2506 1872 2764 1633 
Q 3022 1394 3022 966 
Q 3022 478 2636 193 
Q 2250 -91 1575 -91 
Q 1294 -91 989 -36 
Q 684 19 347 128 
L 347 722 
Q 666 556 975 473 
Q 1284 391 1588 391 
Q 1994 391 2212 530 
Q 2431 669 2431 922 
Q 2431 1156 2273 1281 
Q 2116 1406 1581 1522 
L 1381 1569 
Q 847 1681 609 1914 
Q 372 2147 372 2553 
Q 372 3047 722 3315 
Q 1072 3584 1716 3584 
Q 2034 3584 2315 3537 
Q 2597 3491 2834 3397 
z
" transform="scale(0.015625)"/>
     </defs>
     <use xlink:href="#DejaVuSans-6e"/>
     <use xlink:href="#DejaVuSans-73" transform="translate(63.378906 0)"/>
    </g>
   </g>
   <g id="text_41">
    <!-- ** -->
    <g transform="translate(184.825312 122.775666) scale(0.06 -0.06)">
     <use xlink:href="#DejaVuSans-2a"/>
     <use xlink:href="#DejaVuSans-2a" transform="translate(50 0)"/>
    </g>
   </g>
   <g id="text_42">
    <!-- Polyploid -->
    <g transform="translate(122.756692 117.660558) scale(0.06 -0.06)">
     <defs>
      <path id="DejaVuSans-50" d="M 1259 4147 
L 1259 2394 
L 2053 2394 
Q 2494 2394 2734 2622 
Q 2975 2850 2975 3272 
Q 2975 3691 2734 3919 
Q 2494 4147 2053 4147 
L 1259 4147 
z
M 628 4666 
L 2053 4666 
Q 2838 4666 3239 4311 
Q 3641 3956 3641 3272 
Q 3641 2581 3239 2228 
Q 2838 1875 2053 1875 
L 1259 1875 
L 1259 0 
L 628 0 
L 628 4666 
z
" transform="scale(0.015625)"/>
      <path id="DejaVuSans-79" d="M 2059 -325 
Q 1816 -950 1584 -1140 
Q 1353 -1331 966 -1331 
L 506 -1331 
L 506 -850 
L 844 -850 
Q 1081 -850 1212 -737 
Q 1344 -625 1503 -206 
L 1606 56 
L 191 3500 
L 800 3500 
L 1894 763 
L 2988 3500 
L 3597 3500 
L 2059 -325 
z
" transform="scale(0.015625)"/>
      <path id="DejaVuSans-69" d="M 603 3500 
L 1178 3500 
L 1178 0 
L 603 0 
L 603 3500 
z
M 603 4863 
L 1178 4863 
L 1178 4134 
L 603 4134 
L 603 4863 
z
" transform="scale(0.015625)"/>
     </defs>
     <use xlink:href="#DejaVuSans-50"/>
     <use xlink:href="#DejaVuSans-6f" transform="translate(56.677734 0)"/>
     <use xlink:href="#DejaVuSans-6c" transform="translate(117.859375 0)"/>
     <use xlink:href="#DejaVuSans-79" transform="translate(145.642578 0)"/>
     <use xlink:href="#DejaVuSans-70" transform="translate(204.822266 0)"/>
     <use xlink:href="#DejaVuSans-6c" transform="translate(268.298828 0)"/>
     <use xlink:href="#DejaVuSans-6f" transform="translate(296.082031 0)"/>
     <use xlink:href="#DejaVuSans-69" transform="translate(357.263672 0)"/>
     <use xlink:href="#DejaVuSans-64" transform="translate(385.046875 0)"/>
    </g>
   </g>
  </g>
  <g id="text_43">
   <!-- cellcycle plot no SubG1 -->
   <g transform="translate(30.141088 19.718906) scale(0.07 -0.07)">
    <defs>
     <path id="DejaVuSans-Bold-63" d="M 3366 3391 
L 3366 2478 
Q 3138 2634 2908 2709 
Q 2678 2784 2431 2784 
Q 1963 2784 1702 2511 
Q 1441 2238 1441 1747 
Q 1441 1256 1702 982 
Q 1963 709 2431 709 
Q 2694 709 2930 787 
Q 3166 866 3366 1019 
L 3366 103 
Q 3103 6 2833 -42 
Q 2563 -91 2291 -91 
Q 1344 -91 809 395 
Q 275 881 275 1747 
Q 275 2613 809 3098 
Q 1344 3584 2291 3584 
Q 2566 3584 2833 3536 
Q 3100 3488 3366 3391 
z
" transform="scale(0.015625)"/>
     <path id="DejaVuSans-Bold-65" d="M 4031 1759 
L 4031 1441 
L 1416 1441 
Q 1456 1047 1700 850 
Q 1944 653 2381 653 
Q 2734 653 3104 758 
Q 3475 863 3866 1075 
L 3866 213 
Q 3469 63 3072 -14 
Q 2675 -91 2278 -91 
Q 1328 -91 801 392 
Q 275 875 275 1747 
Q 275 2603 792 3093 
Q 1309 3584 2216 3584 
Q 3041 3584 3536 3087 
Q 4031 2591 4031 1759 
z
M 2881 2131 
Q 2881 2450 2695 2645 
Q 2509 2841 2209 2841 
Q 1884 2841 1681 2658 
Q 1478 2475 1428 2131 
L 2881 2131 
z
" transform="scale(0.015625)"/>
     <path id="DejaVuSans-Bold-6c" d="M 538 4863 
L 1656 4863 
L 1656 0 
L 538 0 
L 538 4863 
z
" transform="scale(0.015625)"/>
     <path id="DejaVuSans-Bold-79" d="M 78 3500 
L 1197 3500 
L 2138 1125 
L 2938 3500 
L 4056 3500 
L 2584 -331 
Q 2363 -916 2067 -1148 
Q 1772 -1381 1288 -1381 
L 641 -1381 
L 641 -647 
L 991 -647 
Q 1275 -647 1404 -556 
Q 1534 -466 1606 -231 
L 1638 -134 
L 78 3500 
z
" transform="scale(0.015625)"/>
     <path id="DejaVuSans-Bold-20" transform="scale(0.015625)"/>
     <path id="DejaVuSans-Bold-70" d="M 1656 506 
L 1656 -1331 
L 538 -1331 
L 538 3500 
L 1656 3500 
L 1656 2988 
Q 1888 3294 2169 3439 
Q 2450 3584 2816 3584 
Q 3463 3584 3878 3070 
Q 4294 2556 4294 1747 
Q 4294 938 3878 423 
Q 3463 -91 2816 -91 
Q 2450 -91 2169 54 
Q 1888 200 1656 506 
z
M 2400 2772 
Q 2041 2772 1848 2508 
Q 1656 2244 1656 1747 
Q 1656 1250 1848 986 
Q 2041 722 2400 722 
Q 2759 722 2948 984 
Q 3138 1247 3138 1747 
Q 3138 2247 2948 2509 
Q 2759 2772 2400 2772 
z
" transform="scale(0.015625)"/>
     <path id="DejaVuSans-Bold-6f" d="M 2203 2784 
Q 1831 2784 1636 2517 
Q 1441 2250 1441 1747 
Q 1441 1244 1636 976 
Q 1831 709 2203 709 
Q 2569 709 2762 976 
Q 2956 1244 2956 1747 
Q 2956 2250 2762 2517 
Q 2569 2784 2203 2784 
z
M 2203 3584 
Q 3106 3584 3614 3096 
Q 4122 2609 4122 1747 
Q 4122 884 3614 396 
Q 3106 -91 2203 -91 
Q 1297 -91 786 396 
Q 275 884 275 1747 
Q 275 2609 786 3096 
Q 1297 3584 2203 3584 
z
" transform="scale(0.015625)"/>
     <path id="DejaVuSans-Bold-74" d="M 1759 4494 
L 1759 3500 
L 2913 3500 
L 2913 2700 
L 1759 2700 
L 1759 1216 
Q 1759 972 1856 886 
Q 1953 800 2241 800 
L 2816 800 
L 2816 0 
L 1856 0 
Q 1194 0 917 276 
Q 641 553 641 1216 
L 641 2700 
L 84 2700 
L 84 3500 
L 641 3500 
L 641 4494 
L 1759 4494 
z
" transform="scale(0.015625)"/>
     <path id="DejaVuSans-Bold-6e" d="M 4056 2131 
L 4056 0 
L 2931 0 
L 2931 347 
L 2931 1631 
Q 2931 2084 2911 2256 
Q 2891 2428 2841 2509 
Q 2775 2619 2662 2680 
Q 2550 2741 2406 2741 
Q 2056 2741 1856 2470 
Q 1656 2200 1656 1722 
L 1656 0 
L 538 0 
L 538 3500 
L 1656 3500 
L 1656 2988 
Q 1909 3294 2193 3439 
Q 2478 3584 2822 3584 
Q 3428 3584 3742 3212 
Q 4056 2841 4056 2131 
z
" transform="scale(0.015625)"/>
     <path id="DejaVuSans-Bold-53" d="M 3834 4519 
L 3834 3531 
Q 3450 3703 3084 3790 
Q 2719 3878 2394 3878 
Q 1963 3878 1756 3759 
Q 1550 3641 1550 3391 
Q 1550 3203 1689 3098 
Q 1828 2994 2194 2919 
L 2706 2816 
Q 3484 2659 3812 2340 
Q 4141 2022 4141 1434 
Q 4141 663 3683 286 
Q 3225 -91 2284 -91 
Q 1841 -91 1394 -6 
Q 947 78 500 244 
L 500 1259 
Q 947 1022 1364 901 
Q 1781 781 2169 781 
Q 2563 781 2772 912 
Q 2981 1044 2981 1288 
Q 2981 1506 2839 1625 
Q 2697 1744 2272 1838 
L 1806 1941 
Q 1106 2091 782 2419 
Q 459 2747 459 3303 
Q 459 4000 909 4375 
Q 1359 4750 2203 4750 
Q 2588 4750 2994 4692 
Q 3400 4634 3834 4519 
z
" transform="scale(0.015625)"/>
     <path id="DejaVuSans-Bold-75" d="M 500 1363 
L 500 3500 
L 1625 3500 
L 1625 3150 
Q 1625 2866 1622 2436 
Q 1619 2006 1619 1863 
Q 1619 1441 1641 1255 
Q 1663 1069 1716 984 
Q 1784 875 1895 815 
Q 2006 756 2150 756 
Q 2500 756 2700 1025 
Q 2900 1294 2900 1772 
L 2900 3500 
L 4019 3500 
L 4019 0 
L 2900 0 
L 2900 506 
Q 2647 200 2364 54 
Q 2081 -91 1741 -91 
Q 1134 -91 817 281 
Q 500 653 500 1363 
z
" transform="scale(0.015625)"/>
     <path id="DejaVuSans-Bold-62" d="M 2400 722 
Q 2759 722 2948 984 
Q 3138 1247 3138 1747 
Q 3138 2247 2948 2509 
Q 2759 2772 2400 2772 
Q 2041 2772 1848 2508 
Q 1656 2244 1656 1747 
Q 1656 1250 1848 986 
Q 2041 722 2400 722 
z
M 1656 2988 
Q 1888 3294 2169 3439 
Q 2450 3584 2816 3584 
Q 3463 3584 3878 3070 
Q 4294 2556 4294 1747 
Q 4294 938 3878 423 
Q 3463 -91 2816 -91 
Q 2450 -91 2169 54 
Q 1888 200 1656 506 
L 1656 0 
L 538 0 
L 538 4863 
L 1656 4863 
L 1656 2988 
z
" transform="scale(0.015625)"/>
     <path id="DejaVuSans-Bold-47" d="M 4781 347 
Q 4331 128 3847 18 
Q 3363 -91 2847 -91 
Q 1681 -91 1000 561 
Q 319 1213 319 2328 
Q 319 3456 1012 4103 
Q 1706 4750 2913 4750 
Q 3378 4750 3804 4662 
Q 4231 4575 4609 4403 
L 4609 3438 
Q 4219 3659 3833 3768 
Q 3447 3878 3059 3878 
Q 2341 3878 1952 3476 
Q 1563 3075 1563 2328 
Q 1563 1588 1938 1184 
Q 2313 781 3003 781 
Q 3191 781 3352 804 
Q 3513 828 3641 878 
L 3641 1784 
L 2906 1784 
L 2906 2591 
L 4781 2591 
L 4781 347 
z
" transform="scale(0.015625)"/>
     <path id="DejaVuSans-Bold-31" d="M 750 831 
L 1813 831 
L 1813 3847 
L 722 3622 
L 722 4441 
L 1806 4666 
L 2950 4666 
L 2950 831 
L 4013 831 
L 4013 0 
L 750 0 
L 750 831 
z
" transform="scale(0.015625)"/>
    </defs>
    <use xlink:href="#DejaVuSans-Bold-63"/>
    <use xlink:href="#DejaVuSans-Bold-65" transform="translate(59.277344 0)"/>
    <use xlink:href="#DejaVuSans-Bold-6c" transform="translate(127.099609 0)"/>
    <use xlink:href="#DejaVuSans-Bold-6c" transform="translate(161.376953 0)"/>
    <use xlink:href="#DejaVuSans-Bold-63" transform="translate(195.654297 0)"/>
    <use xlink:href="#DejaVuSans-Bold-79" transform="translate(254.931641 0)"/>
    <use xlink:href="#DejaVuSans-Bold-63" transform="translate(320.117188 0)"/>
    <use xlink:href="#DejaVuSans-Bold-6c" transform="translate(379.394531 0)"/>
    <use xlink:href="#DejaVuSans-Bold-65" transform="translate(413.671875 0)"/>
    <use xlink:href="#DejaVuSans-Bold-20" transform="translate(481.494141 0)"/>
    <use xlink:href="#DejaVuSans-Bold-70" transform="translate(516.308594 0)"/>
    <use xlink:href="#DejaVuSans-Bold-6c" transform="translate(587.890625 0)"/>
    <use xlink:href="#DejaVuSans-Bold-6f" transform="translate(622.167969 0)"/>
    <use xlink:href="#DejaVuSans-Bold-74" transform="translate(690.869141 0)"/>
    <use xlink:href="#DejaVuSans-Bold-20" transform="translate(738.671875 0)"/>
    <use xlink:href="#DejaVuSans-Bold-6e" transform="translate(773.486328 0)"/>
    <use xlink:href="#DejaVuSans-Bold-6f" transform="translate(844.677734 0)"/>
    <use xlink:href="#DejaVuSans-Bold-20" transform="translate(913.378906 0)"/>
    <use xlink:href="#DejaVuSans-Bold-53" transform="translate(948.193359 0)"/>
    <use xlink:href="#DejaVuSans-Bold-75" transform="translate(1020.214844 0)"/>
    <use xlink:href="#DejaVuSans-Bold-62" transform="translate(1091.40625 0)"/>
    <use xlink:href="#DejaVuSans-Bold-47" transform="translate(1162.988281 0)"/>
    <use xlink:href="#DejaVuSans-Bold-31" transform="translate(1245.068359 0)"/>
   </g>
  </g>
 </g>
 <defs>
  <clipPath id="p30ec4f3e5e">
   <rect x="31.841875" y="43.313386" width="75.762348" height="67.258411"/>
  </clipPath>
  <clipPath id="pe882242cb6">
   <rect x="122.756692" y="43.313386" width="75.762348" height="67.258411"/>
  </clipPath>
  <clipPath id="p24f8a13c7b">
   <rect x="31.841875" y="124.023479" width="75.762348" height="67.258411"/>
  </clipPath>
  <clipPath id="p1a95f74f2a">
   <rect x="122.756692" y="124.023479" width="75.762348" height="67.258411"/>
  </clipPath>
 </defs>
</svg>
