<?xml version="1.0" encoding="utf-8" standalone="no"?>
<!DOCTYPE svg PUBLIC "-//W3C//DTD SVG 1.1//EN"
  "http://www.w3.org/Graphics/SVG/1.1/DTD/svg11.dtd">
<svg xmlns:xlink="http://www.w3.org/1999/xlink" width="238.710775pt" height="195.861878pt" viewBox="0 0 238.710775 195.861878" xmlns="http://www.w3.org/2000/svg" version="1.1">
 <metadata>
  <rdf:RDF xmlns:dc="http://purl.org/dc/elements/1.1/" xmlns:cc="http://creativecommons.org/ns#" xmlns:rdf="http://www.w3.org/1999/02/22-rdf-syntax-ns#">
   <cc:Work>
    <dc:type rdf:resource="http://purl.org/dc/dcmitype/StillImage"/>
    <dc:date>2025-09-10T12:15:58.645721</dc:date>
    <dc:format>image/svg+xml</dc:format>
    <dc:creator>
     <cc:Agent>
      <dc:title>Matplotlib v3.10.1, https://matplotlib.org/</dc:title>
     </cc:Agent>
    </dc:creator>
   </cc:Work>
  </rdf:RDF>
 </metadata>
 <defs>
  <style type="text/css">*{stroke-linejoin: round; stroke-linecap: butt}</style>
 </defs>
 <g id="figure_1">
  <g id="patch_1">
   <path d="M 0 195.861878
L 238.710775 195.861878
L 238.710775 0
L 0 0
z
" style="fill: #ffffff"/>
  </g>
  <g id="axes_1">
   <g id="patch_2">
    <path d="M 40.658125 161.664
L 179.426125 161.664
L 179.426125 38.472
L 40.658125 38.472
z
" style="fill: #ffffff"/>
   </g>
   <g id="FillBetweenPolyCollection_1">
    <path d="M 58.112914 145.131634
L 57.569079 145.131634
L 46.965761 139.752
L 52.698052 134.372367
L 56.080554 128.992733
L 57.199503 123.6131
L 57.385348 118.233467
L 57.462876 112.853833
L 57.518977 107.4742
L 57.576151 102.094567
L 57.633351 96.714933
L 57.684004 91.3353
L 57.724156 85.955667
L 57.760041 80.576033
L 57.786562 75.1964
L 57.804009 69.816766
L 57.814725 64.437133
L 57.821603 59.0575
L 57.829216 53.677866
L 57.832483 48.298233
L 57.836622 42.9186
L 57.836781 37.538966
L 57.838186 32.159333
L 57.839734 26.779699
L 57.839762 21.400066
L 57.840516 16.020433
L 57.840269 10.640799
L 57.840448 5.261166
L 57.840712 -0.118467
L 57.840791 -5.498101
L 57.840681 -10.877734
L 57.840967 -16.257368
L 57.840767 -21.637001
L 57.840966 -27.016634
L 57.840868 -32.396268
L 57.840996 -37.775901
L 57.840996 -43.155534
L 57.840996 -48.535168
L 57.840996 -53.914801
L 57.840973 -59.294434
L 57.840996 -64.674068
L 57.840996 -70.053701
L 57.840996 -75.433335
L 57.840878 -80.812968
L 57.840996 -86.192601
L 57.840872 -91.572235
L 57.840961 -96.951868
L 57.840996 -102.331501
L 57.840996 -107.711135
L 57.840996 -113.090768
L 57.840996 -118.470402
L 57.840996 -123.850035
L 57.840993 -129.229668
L 57.840992 -134.609302
L 57.840996 -139.988935
L 57.840996 -145.368568
L 57.840996 -150.748202
L 57.840996 -156.127835
L 57.840996 -161.507469
L 57.840996 -166.887102
L 57.840996 -172.266735
L 57.840996 -177.646369
L 57.840996 -183.026002
L 57.840996 -188.405635
L 57.840996 -193.785269
L 57.840996 -199.164902
L 57.840996 -204.544535
L 57.840996 -209.924169
L 57.840996 -215.303802
L 57.840996 -220.683436
L 57.840996 -226.063069
L 57.840996 -231.442702
L 57.840996 -236.822336
L 57.840996 -242.201969
L 57.840996 -247.581602
L 57.840996 -252.961236
L 57.840996 -258.340869
L 57.840996 -263.720503
L 57.840996 -269.100136
L 57.840996 -274.479769
L 57.840996 -279.859403
L 57.840996 -285.239036
L 57.840996 -290.618669
L 57.840996 -295.998303
L 57.840996 -301.377936
L 57.840996 -306.75757
L 57.840996 -312.137203
L 57.840996 -317.516836
L 57.840996 -322.89647
L 57.840996 -328.276103
L 57.840996 -333.655736
L 57.840996 -339.03537
L 57.840996 -344.415003
L 57.840996 -349.794636
L 57.840996 -355.17427
L 57.840996 -360.553903
L 57.840996 -365.933537
L 57.840996 -371.31317
L 57.840996 -376.692803
L 57.840996 -382.072437
L 57.840854 -387.45207
L 57.841138 -387.45207
L 57.841138 -387.45207
L 57.840996 -382.072437
L 57.840996 -376.692803
L 57.840996 -371.31317
L 57.840996 -365.933537
L 57.840996 -360.553903
L 57.840996 -355.17427
L 57.840996 -349.794636
L 57.840996 -344.415003
L 57.840996 -339.03537
L 57.840996 -333.655736
L 57.840996 -328.276103
L 57.840996 -322.89647
L 57.840996 -317.516836
L 57.840996 -312.137203
L 57.840996 -306.75757
L 57.840996 -301.377936
L 57.840996 -295.998303
L 57.840996 -290.618669
L 57.840996 -285.239036
L 57.840996 -279.859403
L 57.840996 -274.479769
L 57.840996 -269.100136
L 57.840996 -263.720503
L 57.840996 -258.340869
L 57.840996 -252.961236
L 57.840996 -247.581602
L 57.840996 -242.201969
L 57.840996 -236.822336
L 57.840996 -231.442702
L 57.840996 -226.063069
L 57.840996 -220.683436
L 57.840996 -215.303802
L 57.840996 -209.924169
L 57.840996 -204.544535
L 57.840996 -199.164902
L 57.840996 -193.785269
L 57.840996 -188.405635
L 57.840996 -183.026002
L 57.840996 -177.646369
L 57.840996 -172.266735
L 57.840996 -166.887102
L 57.840996 -161.507469
L 57.840996 -156.127835
L 57.840996 -150.748202
L 57.840996 -145.368568
L 57.840996 -139.988935
L 57.841001 -134.609302
L 57.841 -129.229668
L 57.840996 -123.850035
L 57.840996 -118.470402
L 57.840996 -113.090768
L 57.840996 -107.711135
L 57.840996 -102.331501
L 57.841032 -96.951868
L 57.841121 -91.572235
L 57.840996 -86.192601
L 57.841115 -80.812968
L 57.840996 -75.433335
L 57.840996 -70.053701
L 57.840997 -64.674068
L 57.84102 -59.294434
L 57.840996 -53.914801
L 57.840996 -48.535168
L 57.840996 -43.155534
L 57.840996 -37.775901
L 57.841125 -32.396268
L 57.841027 -27.016634
L 57.841226 -21.637001
L 57.841026 -16.257368
L 57.841312 -10.877734
L 57.841202 -5.498101
L 57.841281 -0.118467
L 57.841545 5.261166
L 57.841724 10.640799
L 57.841477 16.020433
L 57.842231 21.400066
L 57.842258 26.779699
L 57.843807 32.159333
L 57.845211 37.538966
L 57.845371 42.9186
L 57.84951 48.298233
L 57.852777 53.677866
L 57.86039 59.0575
L 57.867268 64.437133
L 57.877984 69.816766
L 57.895431 75.1964
L 57.921952 80.576033
L 57.957837 85.955667
L 57.997988 91.3353
L 58.048642 96.714933
L 58.105842 102.094567
L 58.163016 107.4742
L 58.219117 112.853833
L 58.296645 118.233467
L 58.48249 123.6131
L 59.601439 128.992733
L 62.983941 134.372367
L 68.716232 139.752
L 58.112914 145.131634
z
" clip-path="url(#p11ae052c88)" style="fill: #4a4a4a; fill-opacity: 0.75; stroke: #000000; stroke-opacity: 0.75; stroke-width: 0.5"/>
   </g>
   <g id="FillBetweenPolyCollection_2">
    <path d="M 89.439827 144.26929
L 87.143482 144.26929
L 80.869588 139.541081
L 77.41642 134.812873
L 79.958881 130.084664
L 82.584725 125.356456
L 84.549226 120.628247
L 85.676379 115.900039
L 86.279184 111.17183
L 86.629201 106.443622
L 86.937524 101.715413
L 87.204048 96.987205
L 87.403175 92.258996
L 87.562986 87.530787
L 87.681211 82.802579
L 87.813864 78.07437
L 87.938494 73.346162
L 87.999625 68.617953
L 88.055887 63.889745
L 88.081523 59.161536
L 88.117076 54.433328
L 88.166787 49.705119
L 88.194921 44.976911
L 88.204152 40.248702
L 88.221564 35.520494
L 88.232177 30.792285
L 88.24906 26.064077
L 88.26099 21.335868
L 88.265158 16.60766
L 88.263878 11.879451
L 88.265387 7.151243
L 88.269441 2.423034
L 88.2756 -2.305174
L 88.279022 -7.033383
L 88.278629 -11.761591
L 88.282691 -16.4898
L 88.289023 -21.218008
L 88.283858 -25.946217
L 88.284666 -30.674425
L 88.289274 -35.402634
L 88.289711 -40.130842
L 88.288458 -44.859051
L 88.288034 -49.587259
L 88.289646 -54.315468
L 88.290751 -59.043676
L 88.289648 -63.771885
L 88.290838 -68.500093
L 88.290252 -73.228302
L 88.288897 -77.95651
L 88.291352 -82.684719
L 88.29149 -87.412927
L 88.289333 -92.141136
L 88.289743 -96.869344
L 88.291525 -101.597553
L 88.290146 -106.325761
L 88.288055 -111.05397
L 88.29084 -115.782178
L 88.291642 -120.510387
L 88.291655 -125.238595
L 88.291655 -129.966804
L 88.291655 -134.695012
L 88.291655 -139.423221
L 88.291655 -144.151429
L 88.291655 -148.879638
L 88.291644 -153.607846
L 88.291102 -158.336055
L 88.289869 -163.064263
L 88.291033 -167.792472
L 88.291589 -172.520681
L 88.290686 -177.248889
L 88.290083 -181.977098
L 88.291262 -186.705306
L 88.291649 -191.433515
L 88.291655 -196.161723
L 88.291655 -200.889932
L 88.291655 -205.61814
L 88.291655 -210.346349
L 88.291655 -215.074557
L 88.291655 -219.802766
L 88.291655 -224.530974
L 88.291655 -229.259183
L 88.291655 -233.987391
L 88.291655 -238.7156
L 88.291655 -243.443808
L 88.291655 -248.172017
L 88.291655 -252.900225
L 88.291655 -257.628434
L 88.291655 -262.356642
L 88.291655 -267.084851
L 88.291655 -271.813059
L 88.291655 -276.541268
L 88.291655 -281.269476
L 88.291655 -285.997685
L 88.291655 -290.725893
L 88.291655 -295.454102
L 88.291655 -300.18231
L 88.291655 -304.910519
L 88.291655 -309.638727
L 88.291653 -314.366936
L 88.291443 -319.095144
L 88.290578 -323.823353
L 88.292731 -323.823353
L 88.292731 -323.823353
L 88.291867 -319.095144
L 88.291656 -314.366936
L 88.291655 -309.638727
L 88.291655 -304.910519
L 88.291655 -300.18231
L 88.291655 -295.454102
L 88.291655 -290.725893
L 88.291655 -285.997685
L 88.291655 -281.269476
L 88.291655 -276.541268
L 88.291655 -271.813059
L 88.291655 -267.084851
L 88.291655 -262.356642
L 88.291655 -257.628434
L 88.291655 -252.900225
L 88.291655 -248.172017
L 88.291655 -243.443808
L 88.291655 -238.7156
L 88.291655 -233.987391
L 88.291655 -229.259183
L 88.291655 -224.530974
L 88.291655 -219.802766
L 88.291655 -215.074557
L 88.291655 -210.346349
L 88.291655 -205.61814
L 88.291655 -200.889932
L 88.291655 -196.161723
L 88.29166 -191.433515
L 88.292048 -186.705306
L 88.293226 -181.977098
L 88.292623 -177.248889
L 88.291721 -172.520681
L 88.292277 -167.792472
L 88.29344 -163.064263
L 88.292208 -158.336055
L 88.291665 -153.607846
L 88.291655 -148.879638
L 88.291655 -144.151429
L 88.291655 -139.423221
L 88.291655 -134.695012
L 88.291655 -129.966804
L 88.291655 -125.238595
L 88.291667 -120.510387
L 88.29247 -115.782178
L 88.295254 -111.05397
L 88.293164 -106.325761
L 88.291784 -101.597553
L 88.293567 -96.869344
L 88.293977 -92.141136
L 88.291819 -87.412927
L 88.291957 -82.684719
L 88.294412 -77.95651
L 88.293057 -73.228302
L 88.292472 -68.500093
L 88.293662 -63.771885
L 88.292558 -59.043676
L 88.293664 -54.315468
L 88.295275 -49.587259
L 88.294852 -44.859051
L 88.293598 -40.130842
L 88.294036 -35.402634
L 88.298644 -30.674425
L 88.299452 -25.946217
L 88.294286 -21.218008
L 88.300619 -16.4898
L 88.30468 -11.761591
L 88.304288 -7.033383
L 88.30771 -2.305174
L 88.313869 2.423034
L 88.317922 7.151243
L 88.319431 11.879451
L 88.318151 16.60766
L 88.322319 21.335868
L 88.33425 26.064077
L 88.351132 30.792285
L 88.361746 35.520494
L 88.379157 40.248702
L 88.388388 44.976911
L 88.416523 49.705119
L 88.466234 54.433328
L 88.501787 59.161536
L 88.527422 63.889745
L 88.583685 68.617953
L 88.644815 73.346162
L 88.769446 78.07437
L 88.902099 82.802579
L 89.020323 87.530787
L 89.180134 92.258996
L 89.379262 96.987205
L 89.645785 101.715413
L 89.954108 106.443622
L 90.304126 111.17183
L 90.90693 115.900039
L 92.034084 120.628247
L 93.998585 125.356456
L 96.624429 130.084664
L 99.16689 134.812873
L 95.713721 139.541081
L 89.439827 144.26929
z
" clip-path="url(#p11ae052c88)" style="fill: #4a4a4a; fill-opacity: 0.75; stroke: #000000; stroke-opacity: 0.75; stroke-width: 0.5"/>
   </g>
   <g id="FillBetweenPolyCollection_3">
    <path d="M 132.173478 145.40791
L 131.411712 145.40791
L 128.422572 142.956087
L 122.739773 140.504265
L 120.91736 138.052442
L 123.368464 135.600619
L 125.978208 133.148796
L 127.733284 130.696974
L 128.945772 128.245151
L 129.771365 125.793328
L 130.258258 123.341505
L 130.573248 120.889683
L 130.751593 118.43786
L 130.844241 115.986037
L 130.944098 113.534214
L 131.0129 111.082392
L 131.065764 108.630569
L 131.11376 106.178746
L 131.179653 103.726923
L 131.236525 101.275101
L 131.280625 98.823278
L 131.328192 96.371455
L 131.390149 93.919632
L 131.449527 91.46781
L 131.490787 89.015987
L 131.512485 86.564164
L 131.544728 84.112342
L 131.587886 81.660519
L 131.620594 79.208696
L 131.646063 76.756873
L 131.674977 74.305051
L 131.693149 71.853228
L 131.704752 69.401405
L 131.71608 66.949582
L 131.730173 64.49776
L 131.738847 62.045937
L 131.746319 59.594114
L 131.754446 57.142291
L 131.760587 54.690469
L 131.767953 52.238646
L 131.770161 49.786823
L 131.770735 47.335
L 131.773726 44.883178
L 131.777947 42.431355
L 131.781557 39.979532
L 131.783973 37.527709
L 131.786478 35.075887
L 131.786486 32.624064
L 131.786629 30.172241
L 131.787117 27.720418
L 131.788039 25.268596
L 131.789837 22.816773
L 131.789994 20.36495
L 131.790845 17.913127
L 131.791072 15.461305
L 131.789752 13.009482
L 131.790772 10.557659
L 131.792075 8.105836
L 131.79195 5.654014
L 131.792047 3.202191
L 131.791347 0.750368
L 131.791183 -1.701455
L 131.791879 -4.153277
L 131.792186 -6.6051
L 131.792521 -9.056923
L 131.79233 -11.508746
L 131.792329 -13.960568
L 131.792328 -16.412391
L 131.791734 -18.864214
L 131.792076 -21.316037
L 131.792532 -23.767859
L 131.792404 -26.219682
L 131.792266 -28.671505
L 131.792384 -31.123327
L 131.792258 -33.57515
L 131.792546 -36.026973
L 131.792557 -38.478796
L 131.792278 -40.930618
L 131.792396 -43.382441
L 131.792586 -45.834264
L 131.792595 -48.286087
L 131.792595 -50.737909
L 131.792595 -53.189732
L 131.792595 -55.641555
L 131.792595 -58.093378
L 131.792595 -60.5452
L 131.792595 -62.997023
L 131.792595 -65.448846
L 131.792595 -67.900669
L 131.792595 -70.352491
L 131.792595 -72.804314
L 131.792595 -75.256137
L 131.792595 -77.70796
L 131.792595 -80.159782
L 131.792595 -82.611605
L 131.792595 -85.063428
L 131.792595 -87.515251
L 131.792595 -89.967073
L 131.792593 -92.418896
L 131.792496 -94.870719
L 131.792233 -97.322542
L 131.792958 -97.322542
L 131.792958 -97.322542
L 131.792694 -94.870719
L 131.792597 -92.418896
L 131.792595 -89.967073
L 131.792595 -87.515251
L 131.792595 -85.063428
L 131.792595 -82.611605
L 131.792595 -80.159782
L 131.792595 -77.70796
L 131.792595 -75.256137
L 131.792595 -72.804314
L 131.792595 -70.352491
L 131.792595 -67.900669
L 131.792595 -65.448846
L 131.792595 -62.997023
L 131.792595 -60.5452
L 131.792595 -58.093378
L 131.792595 -55.641555
L 131.792595 -53.189732
L 131.792595 -50.737909
L 131.792595 -48.286087
L 131.792605 -45.834264
L 131.792794 -43.382441
L 131.792912 -40.930618
L 131.792633 -38.478796
L 131.792645 -36.026973
L 131.792932 -33.57515
L 131.792806 -31.123327
L 131.792925 -28.671505
L 131.792787 -26.219682
L 131.792658 -23.767859
L 131.793114 -21.316037
L 131.793456 -18.864214
L 131.792862 -16.412391
L 131.792862 -13.960568
L 131.792861 -11.508746
L 131.792669 -9.056923
L 131.793005 -6.6051
L 131.793311 -4.153277
L 131.794007 -1.701455
L 131.793843 0.750368
L 131.793144 3.202191
L 131.79324 5.654014
L 131.793116 8.105836
L 131.794419 10.557659
L 131.795438 13.009482
L 131.794118 15.461305
L 131.794346 17.913127
L 131.795196 20.36495
L 131.795353 22.816773
L 131.797152 25.268596
L 131.798074 27.720418
L 131.798561 30.172241
L 131.798704 32.624064
L 131.798713 35.075887
L 131.801217 37.527709
L 131.803633 39.979532
L 131.807243 42.431355
L 131.811464 44.883178
L 131.814455 47.335
L 131.815029 49.786823
L 131.817237 52.238646
L 131.824603 54.690469
L 131.830744 57.142291
L 131.838871 59.594114
L 131.846343 62.045937
L 131.855017 64.49776
L 131.86911 66.949582
L 131.880438 69.401405
L 131.892041 71.853228
L 131.910214 74.305051
L 131.939127 76.756873
L 131.964596 79.208696
L 131.997304 81.660519
L 132.040462 84.112342
L 132.072706 86.564164
L 132.094404 89.015987
L 132.135663 91.46781
L 132.195041 93.919632
L 132.256999 96.371455
L 132.304566 98.823278
L 132.348666 101.275101
L 132.405537 103.726923
L 132.47143 106.178746
L 132.519427 108.630569
L 132.572291 111.082392
L 132.641093 113.534214
L 132.74095 115.986037
L 132.833598 118.43786
L 133.011942 120.889683
L 133.326933 123.341505
L 133.813826 125.793328
L 134.639418 128.245151
L 135.851906 130.696974
L 137.606982 133.148796
L 140.216726 135.600619
L 142.66783 138.052442
L 140.845418 140.504265
L 135.162618 142.956087
L 132.173478 145.40791
z
" clip-path="url(#p11ae052c88)" style="fill: #4a4a4a; fill-opacity: 0.75; stroke: #000000; stroke-opacity: 0.75; stroke-width: 0.5"/>
   </g>
   <g id="FillBetweenPolyCollection_4">
    <path d="M 164.027638 145.094676
L 160.458869 145.094676
L 156.605408 141.663965
L 152.627988 138.233255
L 151.368018 134.802544
L 151.809049 131.371834
L 152.621545 127.941123
L 153.531161 124.510413
L 154.378644 121.079702
L 155.156219 117.648992
L 155.783405 114.218281
L 156.317669 110.787571
L 156.892809 107.35686
L 157.418219 103.926149
L 157.83766 100.495439
L 158.228048 97.064728
L 158.704271 93.634018
L 159.241722 90.203307
L 159.791215 86.772597
L 160.209687 83.341886
L 160.571374 79.911176
L 160.907077 76.480465
L 161.16236 73.049755
L 161.337631 69.619044
L 161.52452 66.188333
L 161.725904 62.757623
L 161.867941 59.326912
L 161.939677 55.896202
L 161.991178 52.465491
L 162.057002 49.034781
L 162.109456 45.60407
L 162.143691 42.17336
L 162.162769 38.742649
L 162.174159 35.311939
L 162.1727 31.881228
L 162.174045 28.450517
L 162.189264 25.019807
L 162.195597 21.589096
L 162.201919 18.158386
L 162.2121 14.727675
L 162.223681 11.296965
L 162.22974 7.866254
L 162.232513 4.435544
L 162.233067 1.004833
L 162.227521 -2.425877
L 162.22508 -5.856588
L 162.232481 -9.287299
L 162.234514 -12.718009
L 162.234661 -16.14872
L 162.238041 -19.57943
L 162.24177 -23.010141
L 162.243102 -26.440851
L 162.243247 -29.871562
L 162.243181 -33.302272
L 162.242357 -36.732983
L 162.239641 -40.163693
L 162.237418 -43.594404
L 162.238259 -47.025115
L 162.241253 -50.455825
L 162.242973 -53.886536
L 162.243241 -57.317246
L 162.243253 -60.747957
L 162.243254 -64.178667
L 162.243254 -67.609378
L 162.243254 -71.040088
L 162.243254 -74.470799
L 162.243253 -77.901509
L 162.24325 -81.33222
L 162.243129 -84.762931
L 162.242037 -88.193641
L 162.239566 -91.624352
L 162.238748 -95.055062
L 162.238008 -98.485773
L 162.237172 -101.916483
L 162.238981 -105.347194
L 162.241967 -108.777904
L 162.243124 -112.208615
L 162.24325 -115.639325
L 162.243253 -119.070036
L 162.243254 -122.500747
L 162.243254 -125.931457
L 162.243254 -129.362168
L 162.243254 -132.792878
L 162.243254 -136.223589
L 162.243254 -139.654299
L 162.243254 -143.08501
L 162.243254 -146.51572
L 162.243254 -149.946431
L 162.243254 -153.377141
L 162.243254 -156.807852
L 162.243254 -160.238563
L 162.243254 -163.669273
L 162.243254 -167.099984
L 162.243254 -170.530694
L 162.243254 -173.961405
L 162.243254 -177.392115
L 162.243253 -180.822826
L 162.243236 -184.253536
L 162.242905 -187.684247
L 162.241131 -191.114957
L 162.239378 -194.545668
L 162.247129 -194.545668
L 162.247129 -194.545668
L 162.245376 -191.114957
L 162.243602 -187.684247
L 162.243271 -184.253536
L 162.243254 -180.822826
L 162.243254 -177.392115
L 162.243254 -173.961405
L 162.243254 -170.530694
L 162.243254 -167.099984
L 162.243254 -163.669273
L 162.243254 -160.238563
L 162.243254 -156.807852
L 162.243254 -153.377141
L 162.243254 -149.946431
L 162.243254 -146.51572
L 162.243254 -143.08501
L 162.243254 -139.654299
L 162.243254 -136.223589
L 162.243254 -132.792878
L 162.243254 -129.362168
L 162.243254 -125.931457
L 162.243254 -122.500747
L 162.243254 -119.070036
L 162.243258 -115.639325
L 162.243383 -112.208615
L 162.24454 -108.777904
L 162.247526 -105.347194
L 162.249335 -101.916483
L 162.248499 -98.485773
L 162.247759 -95.055062
L 162.246941 -91.624352
L 162.24447 -88.193641
L 162.243378 -84.762931
L 162.243257 -81.33222
L 162.243254 -77.901509
L 162.243254 -74.470799
L 162.243254 -71.040088
L 162.243254 -67.609378
L 162.243254 -64.178667
L 162.243254 -60.747957
L 162.243266 -57.317246
L 162.243534 -53.886536
L 162.245254 -50.455825
L 162.248248 -47.025115
L 162.249089 -43.594404
L 162.246866 -40.163693
L 162.24415 -36.732983
L 162.243326 -33.302272
L 162.24326 -29.871562
L 162.243405 -26.440851
L 162.244737 -23.010141
L 162.248466 -19.57943
L 162.251846 -16.14872
L 162.251993 -12.718009
L 162.254026 -9.287299
L 162.261427 -5.856588
L 162.258986 -2.425877
L 162.25344 1.004833
L 162.253994 4.435544
L 162.256767 7.866254
L 162.262826 11.296965
L 162.274407 14.727675
L 162.284588 18.158386
L 162.29091 21.589096
L 162.297243 25.019807
L 162.312462 28.450517
L 162.313807 31.881228
L 162.312348 35.311939
L 162.323739 38.742649
L 162.342816 42.17336
L 162.377051 45.60407
L 162.429505 49.034781
L 162.495329 52.465491
L 162.54683 55.896202
L 162.618566 59.326912
L 162.760603 62.757623
L 162.961987 66.188333
L 163.148876 69.619044
L 163.324147 73.049755
L 163.57943 76.480465
L 163.915133 79.911176
L 164.27682 83.341886
L 164.695292 86.772597
L 165.244786 90.203307
L 165.782236 93.634018
L 166.258459 97.064728
L 166.648847 100.495439
L 167.068288 103.926149
L 167.593698 107.35686
L 168.168838 110.787571
L 168.703102 114.218281
L 169.330288 117.648992
L 170.107863 121.079702
L 170.955347 124.510413
L 171.864962 127.941123
L 172.677459 131.371834
L 173.118489 134.802544
L 171.858519 138.233255
L 167.881099 141.663965
L 164.027638 145.094676
z
" clip-path="url(#p11ae052c88)" style="fill: #4a4a4a; fill-opacity: 0.75; stroke: #000000; stroke-opacity: 0.75; stroke-width: 0.5"/>
   </g>
   <g id="matplotlib.axis_1">
    <g id="xtick_1">
     <g id="line2d_1"/>
     <g id="text_1">
      <!-- control -->
      <g transform="translate(44.264546 179.434028) rotate(-45) scale(0.06 -0.06)">
       <defs>
        <path id="ArialMT-63" d="M 2588 1216
L 3141 1144
Q 3050 572 2676 248
Q 2303 -75 1759 -75
Q 1078 -75 664 370
Q 250 816 250 1647
Q 250 2184 428 2587
Q 606 2991 970 3192
Q 1334 3394 1763 3394
Q 2303 3394 2647 3120
Q 2991 2847 3088 2344
L 2541 2259
Q 2463 2594 2264 2762
Q 2066 2931 1784 2931
Q 1359 2931 1093 2626
Q 828 2322 828 1663
Q 828 994 1084 691
Q 1341 388 1753 388
Q 2084 388 2306 591
Q 2528 794 2588 1216
z
" transform="scale(0.015625)"/>
        <path id="ArialMT-6f" d="M 213 1659
Q 213 2581 725 3025
Q 1153 3394 1769 3394
Q 2453 3394 2887 2945
Q 3322 2497 3322 1706
Q 3322 1066 3130 698
Q 2938 331 2570 128
Q 2203 -75 1769 -75
Q 1072 -75 642 372
Q 213 819 213 1659
z
M 791 1659
Q 791 1022 1069 705
Q 1347 388 1769 388
Q 2188 388 2466 706
Q 2744 1025 2744 1678
Q 2744 2294 2464 2611
Q 2184 2928 1769 2928
Q 1347 2928 1069 2612
Q 791 2297 791 1659
z
" transform="scale(0.015625)"/>
        <path id="ArialMT-6e" d="M 422 0
L 422 3319
L 928 3319
L 928 2847
Q 1294 3394 1984 3394
Q 2284 3394 2536 3286
Q 2788 3178 2913 3003
Q 3038 2828 3088 2588
Q 3119 2431 3119 2041
L 3119 0
L 2556 0
L 2556 2019
Q 2556 2363 2490 2533
Q 2425 2703 2258 2804
Q 2091 2906 1866 2906
Q 1506 2906 1245 2678
Q 984 2450 984 1813
L 984 0
L 422 0
z
" transform="scale(0.015625)"/>
        <path id="ArialMT-74" d="M 1650 503
L 1731 6
Q 1494 -44 1306 -44
Q 1000 -44 831 53
Q 663 150 594 308
Q 525 466 525 972
L 525 2881
L 113 2881
L 113 3319
L 525 3319
L 525 4141
L 1084 4478
L 1084 3319
L 1650 3319
L 1650 2881
L 1084 2881
L 1084 941
Q 1084 700 1114 631
Q 1144 563 1211 522
Q 1278 481 1403 481
Q 1497 481 1650 503
z
" transform="scale(0.015625)"/>
        <path id="ArialMT-72" d="M 416 0
L 416 3319
L 922 3319
L 922 2816
Q 1116 3169 1280 3281
Q 1444 3394 1641 3394
Q 1925 3394 2219 3213
L 2025 2691
Q 1819 2813 1613 2813
Q 1428 2813 1281 2702
Q 1134 2591 1072 2394
Q 978 2094 978 1738
L 978 0
L 416 0
z
" transform="scale(0.015625)"/>
        <path id="ArialMT-6c" d="M 409 0
L 409 4581
L 972 4581
L 972 0
L 409 0
z
" transform="scale(0.015625)"/>
       </defs>
       <use xlink:href="#ArialMT-63"/>
       <use xlink:href="#ArialMT-6f" transform="translate(50 0)"/>
       <use xlink:href="#ArialMT-6e" transform="translate(105.615234 0)"/>
       <use xlink:href="#ArialMT-74" transform="translate(161.230469 0)"/>
       <use xlink:href="#ArialMT-72" transform="translate(189.013672 0)"/>
       <use xlink:href="#ArialMT-6f" transform="translate(222.314453 0)"/>
       <use xlink:href="#ArialMT-6c" transform="translate(277.929688 0)"/>
      </g>
     </g>
    </g>
    <g id="xtick_2">
     <g id="line2d_2"/>
     <g id="text_2">
      <!-- cond01 -->
      <g transform="translate(73.53058 180.618653) rotate(-45) scale(0.06 -0.06)">
       <defs>
        <path id="ArialMT-64" d="M 2575 0
L 2575 419
Q 2259 -75 1647 -75
Q 1250 -75 917 144
Q 584 363 401 755
Q 219 1147 219 1656
Q 219 2153 384 2558
Q 550 2963 881 3178
Q 1213 3394 1622 3394
Q 1922 3394 2156 3267
Q 2391 3141 2538 2938
L 2538 4581
L 3097 4581
L 3097 0
L 2575 0
z
M 797 1656
Q 797 1019 1065 703
Q 1334 388 1700 388
Q 2069 388 2326 689
Q 2584 991 2584 1609
Q 2584 2291 2321 2609
Q 2059 2928 1675 2928
Q 1300 2928 1048 2622
Q 797 2316 797 1656
z
" transform="scale(0.015625)"/>
        <path id="ArialMT-30" d="M 266 2259
Q 266 3072 433 3567
Q 600 4063 929 4331
Q 1259 4600 1759 4600
Q 2128 4600 2406 4451
Q 2684 4303 2865 4023
Q 3047 3744 3150 3342
Q 3253 2941 3253 2259
Q 3253 1453 3087 958
Q 2922 463 2592 192
Q 2263 -78 1759 -78
Q 1097 -78 719 397
Q 266 969 266 2259
z
M 844 2259
Q 844 1131 1108 757
Q 1372 384 1759 384
Q 2147 384 2411 759
Q 2675 1134 2675 2259
Q 2675 3391 2411 3762
Q 2147 4134 1753 4134
Q 1366 4134 1134 3806
Q 844 3388 844 2259
z
" transform="scale(0.015625)"/>
        <path id="ArialMT-31" d="M 2384 0
L 1822 0
L 1822 3584
Q 1619 3391 1289 3197
Q 959 3003 697 2906
L 697 3450
Q 1169 3672 1522 3987
Q 1875 4303 2022 4600
L 2384 4600
L 2384 0
z
" transform="scale(0.015625)"/>
       </defs>
       <use xlink:href="#ArialMT-63"/>
       <use xlink:href="#ArialMT-6f" transform="translate(50 0)"/>
       <use xlink:href="#ArialMT-6e" transform="translate(105.615234 0)"/>
       <use xlink:href="#ArialMT-64" transform="translate(161.230469 0)"/>
       <use xlink:href="#ArialMT-30" transform="translate(216.845703 0)"/>
       <use xlink:href="#ArialMT-31" transform="translate(272.460938 0)"/>
      </g>
     </g>
    </g>
    <g id="xtick_3">
     <g id="line2d_3"/>
     <g id="text_3">
      <!-- cond02 -->
      <g transform="translate(117.03152 180.618653) rotate(-45) scale(0.06 -0.06)">
       <defs>
        <path id="ArialMT-32" d="M 3222 541
L 3222 0
L 194 0
Q 188 203 259 391
Q 375 700 629 1000
Q 884 1300 1366 1694
Q 2113 2306 2375 2664
Q 2638 3022 2638 3341
Q 2638 3675 2398 3904
Q 2159 4134 1775 4134
Q 1369 4134 1125 3890
Q 881 3647 878 3216
L 300 3275
Q 359 3922 746 4261
Q 1134 4600 1788 4600
Q 2447 4600 2831 4234
Q 3216 3869 3216 3328
Q 3216 3053 3103 2787
Q 2991 2522 2730 2228
Q 2469 1934 1863 1422
Q 1356 997 1212 845
Q 1069 694 975 541
L 3222 541
z
" transform="scale(0.015625)"/>
       </defs>
       <use xlink:href="#ArialMT-63"/>
       <use xlink:href="#ArialMT-6f" transform="translate(50 0)"/>
       <use xlink:href="#ArialMT-6e" transform="translate(105.615234 0)"/>
       <use xlink:href="#ArialMT-64" transform="translate(161.230469 0)"/>
       <use xlink:href="#ArialMT-30" transform="translate(216.845703 0)"/>
       <use xlink:href="#ArialMT-32" transform="translate(272.460938 0)"/>
      </g>
     </g>
    </g>
    <g id="xtick_4">
     <g id="line2d_4"/>
     <g id="text_4">
      <!-- cond03 -->
      <g transform="translate(147.482178 180.618653) rotate(-45) scale(0.06 -0.06)">
       <defs>
        <path id="ArialMT-33" d="M 269 1209
L 831 1284
Q 928 806 1161 595
Q 1394 384 1728 384
Q 2125 384 2398 659
Q 2672 934 2672 1341
Q 2672 1728 2419 1979
Q 2166 2231 1775 2231
Q 1616 2231 1378 2169
L 1441 2663
Q 1497 2656 1531 2656
Q 1891 2656 2178 2843
Q 2466 3031 2466 3422
Q 2466 3731 2256 3934
Q 2047 4138 1716 4138
Q 1388 4138 1169 3931
Q 950 3725 888 3313
L 325 3413
Q 428 3978 793 4289
Q 1159 4600 1703 4600
Q 2078 4600 2393 4439
Q 2709 4278 2876 4000
Q 3044 3722 3044 3409
Q 3044 3113 2884 2869
Q 2725 2625 2413 2481
Q 2819 2388 3044 2092
Q 3269 1797 3269 1353
Q 3269 753 2831 336
Q 2394 -81 1725 -81
Q 1122 -81 723 278
Q 325 638 269 1209
z
" transform="scale(0.015625)"/>
       </defs>
       <use xlink:href="#ArialMT-63"/>
       <use xlink:href="#ArialMT-6f" transform="translate(50 0)"/>
       <use xlink:href="#ArialMT-6e" transform="translate(105.615234 0)"/>
       <use xlink:href="#ArialMT-64" transform="translate(161.230469 0)"/>
       <use xlink:href="#ArialMT-30" transform="translate(216.845703 0)"/>
       <use xlink:href="#ArialMT-33" transform="translate(272.460938 0)"/>
      </g>
     </g>
    </g>
   </g>
   <g id="matplotlib.axis_2">
    <g id="ytick_1">
     <g id="line2d_5"/>
     <g id="text_5">
      <!-- 2000 -->
      <g transform="translate(25.311875 163.811344) scale(0.06 -0.06)">
       <use xlink:href="#ArialMT-32"/>
       <use xlink:href="#ArialMT-30" transform="translate(55.615234 0)"/>
       <use xlink:href="#ArialMT-30" transform="translate(111.230469 0)"/>
       <use xlink:href="#ArialMT-30" transform="translate(166.845703 0)"/>
      </g>
     </g>
    </g>
    <g id="ytick_2">
     <g id="line2d_6"/>
     <g id="text_6">
      <!-- 4000 -->
      <g transform="translate(25.311875 139.172944) scale(0.06 -0.06)">
       <defs>
        <path id="ArialMT-34" d="M 2069 0
L 2069 1097
L 81 1097
L 81 1613
L 2172 4581
L 2631 4581
L 2631 1613
L 3250 1613
L 3250 1097
L 2631 1097
L 2631 0
L 2069 0
z
M 2069 1613
L 2069 3678
L 634 1613
L 2069 1613
z
" transform="scale(0.015625)"/>
       </defs>
       <use xlink:href="#ArialMT-34"/>
       <use xlink:href="#ArialMT-30" transform="translate(55.615234 0)"/>
       <use xlink:href="#ArialMT-30" transform="translate(111.230469 0)"/>
       <use xlink:href="#ArialMT-30" transform="translate(166.845703 0)"/>
      </g>
     </g>
    </g>
    <g id="ytick_3">
     <g id="line2d_7"/>
     <g id="text_7">
      <!-- 6000 -->
      <g transform="translate(25.311875 114.534544) scale(0.06 -0.06)">
       <defs>
        <path id="ArialMT-36" d="M 3184 3459
L 2625 3416
Q 2550 3747 2413 3897
Q 2184 4138 1850 4138
Q 1581 4138 1378 3988
Q 1113 3794 959 3422
Q 806 3050 800 2363
Q 1003 2672 1297 2822
Q 1591 2972 1913 2972
Q 2475 2972 2870 2558
Q 3266 2144 3266 1488
Q 3266 1056 3080 686
Q 2894 316 2569 119
Q 2244 -78 1831 -78
Q 1128 -78 684 439
Q 241 956 241 2144
Q 241 3472 731 4075
Q 1159 4600 1884 4600
Q 2425 4600 2770 4297
Q 3116 3994 3184 3459
z
M 888 1484
Q 888 1194 1011 928
Q 1134 663 1356 523
Q 1578 384 1822 384
Q 2178 384 2434 671
Q 2691 959 2691 1453
Q 2691 1928 2437 2201
Q 2184 2475 1800 2475
Q 1419 2475 1153 2201
Q 888 1928 888 1484
z
" transform="scale(0.015625)"/>
       </defs>
       <use xlink:href="#ArialMT-36"/>
       <use xlink:href="#ArialMT-30" transform="translate(55.615234 0)"/>
       <use xlink:href="#ArialMT-30" transform="translate(111.230469 0)"/>
       <use xlink:href="#ArialMT-30" transform="translate(166.845703 0)"/>
      </g>
     </g>
    </g>
    <g id="ytick_4">
     <g id="line2d_8"/>
     <g id="text_8">
      <!-- 8000 -->
      <g transform="translate(25.311875 89.896144) scale(0.06 -0.06)">
       <defs>
        <path id="ArialMT-38" d="M 1131 2484
Q 781 2613 612 2850
Q 444 3088 444 3419
Q 444 3919 803 4259
Q 1163 4600 1759 4600
Q 2359 4600 2725 4251
Q 3091 3903 3091 3403
Q 3091 3084 2923 2848
Q 2756 2613 2416 2484
Q 2838 2347 3058 2040
Q 3278 1734 3278 1309
Q 3278 722 2862 322
Q 2447 -78 1769 -78
Q 1091 -78 675 323
Q 259 725 259 1325
Q 259 1772 486 2073
Q 713 2375 1131 2484
z
M 1019 3438
Q 1019 3113 1228 2906
Q 1438 2700 1772 2700
Q 2097 2700 2305 2904
Q 2513 3109 2513 3406
Q 2513 3716 2298 3927
Q 2084 4138 1766 4138
Q 1444 4138 1231 3931
Q 1019 3725 1019 3438
z
M 838 1322
Q 838 1081 952 856
Q 1066 631 1291 507
Q 1516 384 1775 384
Q 2178 384 2440 643
Q 2703 903 2703 1303
Q 2703 1709 2433 1975
Q 2163 2241 1756 2241
Q 1359 2241 1098 1978
Q 838 1716 838 1322
z
" transform="scale(0.015625)"/>
       </defs>
       <use xlink:href="#ArialMT-38"/>
       <use xlink:href="#ArialMT-30" transform="translate(55.615234 0)"/>
       <use xlink:href="#ArialMT-30" transform="translate(111.230469 0)"/>
       <use xlink:href="#ArialMT-30" transform="translate(166.845703 0)"/>
      </g>
     </g>
    </g>
    <g id="ytick_5">
     <g id="line2d_9"/>
     <g id="text_9">
      <!-- 10000 -->
      <g transform="translate(21.975313 65.257744) scale(0.06 -0.06)">
       <use xlink:href="#ArialMT-31"/>
       <use xlink:href="#ArialMT-30" transform="translate(55.615234 0)"/>
       <use xlink:href="#ArialMT-30" transform="translate(111.230469 0)"/>
       <use xlink:href="#ArialMT-30" transform="translate(166.845703 0)"/>
       <use xlink:href="#ArialMT-30" transform="translate(222.460938 0)"/>
      </g>
     </g>
    </g>
    <g id="ytick_6">
     <g id="line2d_10"/>
     <g id="text_10">
      <!-- 12000 -->
      <g transform="translate(21.975313 40.619344) scale(0.06 -0.06)">
       <use xlink:href="#ArialMT-31"/>
       <use xlink:href="#ArialMT-32" transform="translate(55.615234 0)"/>
       <use xlink:href="#ArialMT-30" transform="translate(111.230469 0)"/>
       <use xlink:href="#ArialMT-30" transform="translate(166.845703 0)"/>
       <use xlink:href="#ArialMT-30" transform="translate(222.460938 0)"/>
      </g>
     </g>
    </g>
    <g id="text_11">
     <!-- Intensity Mean P21 Nucleus -->
     <g transform="translate(18.7125 137.419406) rotate(-90) scale(0.06 -0.06)">
      <defs>
       <path id="ArialMT-49" d="M 597 0
L 597 4581
L 1203 4581
L 1203 0
L 597 0
z
" transform="scale(0.015625)"/>
       <path id="ArialMT-65" d="M 2694 1069
L 3275 997
Q 3138 488 2766 206
Q 2394 -75 1816 -75
Q 1088 -75 661 373
Q 234 822 234 1631
Q 234 2469 665 2931
Q 1097 3394 1784 3394
Q 2450 3394 2872 2941
Q 3294 2488 3294 1666
Q 3294 1616 3291 1516
L 816 1516
Q 847 969 1125 678
Q 1403 388 1819 388
Q 2128 388 2347 550
Q 2566 713 2694 1069
z
M 847 1978
L 2700 1978
Q 2663 2397 2488 2606
Q 2219 2931 1791 2931
Q 1403 2931 1139 2672
Q 875 2413 847 1978
z
" transform="scale(0.015625)"/>
       <path id="ArialMT-73" d="M 197 991
L 753 1078
Q 800 744 1014 566
Q 1228 388 1613 388
Q 2000 388 2187 545
Q 2375 703 2375 916
Q 2375 1106 2209 1216
Q 2094 1291 1634 1406
Q 1016 1563 777 1677
Q 538 1791 414 1992
Q 291 2194 291 2438
Q 291 2659 392 2848
Q 494 3038 669 3163
Q 800 3259 1026 3326
Q 1253 3394 1513 3394
Q 1903 3394 2198 3281
Q 2494 3169 2634 2976
Q 2775 2784 2828 2463
L 2278 2388
Q 2241 2644 2061 2787
Q 1881 2931 1553 2931
Q 1166 2931 1000 2803
Q 834 2675 834 2503
Q 834 2394 903 2306
Q 972 2216 1119 2156
Q 1203 2125 1616 2013
Q 2213 1853 2448 1751
Q 2684 1650 2818 1456
Q 2953 1263 2953 975
Q 2953 694 2789 445
Q 2625 197 2315 61
Q 2006 -75 1616 -75
Q 969 -75 630 194
Q 291 463 197 991
z
" transform="scale(0.015625)"/>
       <path id="ArialMT-69" d="M 425 3934
L 425 4581
L 988 4581
L 988 3934
L 425 3934
z
M 425 0
L 425 3319
L 988 3319
L 988 0
L 425 0
z
" transform="scale(0.015625)"/>
       <path id="ArialMT-79" d="M 397 -1278
L 334 -750
Q 519 -800 656 -800
Q 844 -800 956 -737
Q 1069 -675 1141 -563
Q 1194 -478 1313 -144
Q 1328 -97 1363 -6
L 103 3319
L 709 3319
L 1400 1397
Q 1534 1031 1641 628
Q 1738 1016 1872 1384
L 2581 3319
L 3144 3319
L 1881 -56
Q 1678 -603 1566 -809
Q 1416 -1088 1222 -1217
Q 1028 -1347 759 -1347
Q 597 -1347 397 -1278
z
" transform="scale(0.015625)"/>
       <path id="ArialMT-20" transform="scale(0.015625)"/>
       <path id="ArialMT-4d" d="M 475 0
L 475 4581
L 1388 4581
L 2472 1338
Q 2622 884 2691 659
Q 2769 909 2934 1394
L 4031 4581
L 4847 4581
L 4847 0
L 4263 0
L 4263 3834
L 2931 0
L 2384 0
L 1059 3900
L 1059 0
L 475 0
z
" transform="scale(0.015625)"/>
       <path id="ArialMT-61" d="M 2588 409
Q 2275 144 1986 34
Q 1697 -75 1366 -75
Q 819 -75 525 192
Q 231 459 231 875
Q 231 1119 342 1320
Q 453 1522 633 1644
Q 813 1766 1038 1828
Q 1203 1872 1538 1913
Q 2219 1994 2541 2106
Q 2544 2222 2544 2253
Q 2544 2597 2384 2738
Q 2169 2928 1744 2928
Q 1347 2928 1158 2789
Q 969 2650 878 2297
L 328 2372
Q 403 2725 575 2942
Q 747 3159 1072 3276
Q 1397 3394 1825 3394
Q 2250 3394 2515 3294
Q 2781 3194 2906 3042
Q 3031 2891 3081 2659
Q 3109 2516 3109 2141
L 3109 1391
Q 3109 606 3145 398
Q 3181 191 3288 0
L 2700 0
Q 2613 175 2588 409
z
M 2541 1666
Q 2234 1541 1622 1453
Q 1275 1403 1131 1340
Q 988 1278 909 1158
Q 831 1038 831 891
Q 831 666 1001 516
Q 1172 366 1500 366
Q 1825 366 2078 508
Q 2331 650 2450 897
Q 2541 1088 2541 1459
L 2541 1666
z
" transform="scale(0.015625)"/>
       <path id="ArialMT-50" d="M 494 0
L 494 4581
L 2222 4581
Q 2678 4581 2919 4538
Q 3256 4481 3484 4323
Q 3713 4166 3852 3881
Q 3991 3597 3991 3256
Q 3991 2672 3619 2267
Q 3247 1863 2275 1863
L 1100 1863
L 1100 0
L 494 0
z
M 1100 2403
L 2284 2403
Q 2872 2403 3119 2622
Q 3366 2841 3366 3238
Q 3366 3525 3220 3729
Q 3075 3934 2838 4000
Q 2684 4041 2272 4041
L 1100 4041
L 1100 2403
z
" transform="scale(0.015625)"/>
       <path id="ArialMT-4e" d="M 488 0
L 488 4581
L 1109 4581
L 3516 984
L 3516 4581
L 4097 4581
L 4097 0
L 3475 0
L 1069 3600
L 1069 0
L 488 0
z
" transform="scale(0.015625)"/>
       <path id="ArialMT-75" d="M 2597 0
L 2597 488
Q 2209 -75 1544 -75
Q 1250 -75 995 37
Q 741 150 617 320
Q 494 491 444 738
Q 409 903 409 1263
L 409 3319
L 972 3319
L 972 1478
Q 972 1038 1006 884
Q 1059 663 1231 536
Q 1403 409 1656 409
Q 1909 409 2131 539
Q 2353 669 2445 892
Q 2538 1116 2538 1541
L 2538 3319
L 3100 3319
L 3100 0
L 2597 0
z
" transform="scale(0.015625)"/>
      </defs>
      <use xlink:href="#ArialMT-49"/>
      <use xlink:href="#ArialMT-6e" transform="translate(27.783203 0)"/>
      <use xlink:href="#ArialMT-74" transform="translate(83.398438 0)"/>
      <use xlink:href="#ArialMT-65" transform="translate(111.181641 0)"/>
      <use xlink:href="#ArialMT-6e" transform="translate(166.796875 0)"/>
      <use xlink:href="#ArialMT-73" transform="translate(222.412109 0)"/>
      <use xlink:href="#ArialMT-69" transform="translate(272.412109 0)"/>
      <use xlink:href="#ArialMT-74" transform="translate(294.628906 0)"/>
      <use xlink:href="#ArialMT-79" transform="translate(322.412109 0)"/>
      <use xlink:href="#ArialMT-20" transform="translate(372.412109 0)"/>
      <use xlink:href="#ArialMT-4d" transform="translate(400.195312 0)"/>
      <use xlink:href="#ArialMT-65" transform="translate(483.496094 0)"/>
      <use xlink:href="#ArialMT-61" transform="translate(539.111328 0)"/>
      <use xlink:href="#ArialMT-6e" transform="translate(594.726562 0)"/>
      <use xlink:href="#ArialMT-20" transform="translate(650.341797 0)"/>
      <use xlink:href="#ArialMT-50" transform="translate(678.125 0)"/>
      <use xlink:href="#ArialMT-32" transform="translate(744.824219 0)"/>
      <use xlink:href="#ArialMT-31" transform="translate(800.439453 0)"/>
      <use xlink:href="#ArialMT-20" transform="translate(856.054688 0)"/>
      <use xlink:href="#ArialMT-4e" transform="translate(883.837891 0)"/>
      <use xlink:href="#ArialMT-75" transform="translate(956.054688 0)"/>
      <use xlink:href="#ArialMT-63" transform="translate(1011.669922 0)"/>
      <use xlink:href="#ArialMT-6c" transform="translate(1061.669922 0)"/>
      <use xlink:href="#ArialMT-65" transform="translate(1083.886719 0)"/>
      <use xlink:href="#ArialMT-75" transform="translate(1139.501953 0)"/>
      <use xlink:href="#ArialMT-73" transform="translate(1195.117188 0)"/>
     </g>
    </g>
   </g>
   <g id="LineCollection_1">
    <path clip-path="url(#p11ae052c88)" style="fill: none; stroke: #000000; stroke-width: 0.5"/>
   </g>
   <g id="LineCollection_2">
    <path d="M 52.403379 145.131634
L 63.278614 145.131634
" clip-path="url(#p11ae052c88)" style="fill: none; stroke: #000000; stroke-width: 0.5"/>
   </g>
   <g id="LineCollection_3">
    <path d="M 57.840996 145.131634
L 57.840996 -1
" clip-path="url(#p11ae052c88)" style="fill: none; stroke: #000000; stroke-width: 0.5"/>
   </g>
   <g id="LineCollection_4">
    <path d="M 52.403379 137.33358
L 63.278614 137.33358
" clip-path="url(#p11ae052c88)" style="fill: none; stroke: #000000; stroke-width: 1.5"/>
   </g>
   <g id="LineCollection_5">
    <path clip-path="url(#p11ae052c88)" style="fill: none; stroke: #000000; stroke-width: 0.5"/>
   </g>
   <g id="LineCollection_6">
    <path d="M 82.854037 144.26929
L 93.729272 144.26929
" clip-path="url(#p11ae052c88)" style="fill: none; stroke: #000000; stroke-width: 0.5"/>
   </g>
   <g id="LineCollection_7">
    <path d="M 88.291655 144.26929
L 88.291655 -1
" clip-path="url(#p11ae052c88)" style="fill: none; stroke: #000000; stroke-width: 0.5"/>
   </g>
   <g id="LineCollection_8">
    <path d="M 82.854037 129.498569
L 93.729272 129.498569
" clip-path="url(#p11ae052c88)" style="fill: none; stroke: #000000; stroke-width: 1.5"/>
   </g>
   <g id="LineCollection_9">
    <path clip-path="url(#p11ae052c88)" style="fill: none; stroke: #000000; stroke-width: 0.5"/>
   </g>
   <g id="LineCollection_10">
    <path d="M 126.354978 145.40791
L 137.230213 145.40791
" clip-path="url(#p11ae052c88)" style="fill: none; stroke: #000000; stroke-width: 0.5"/>
   </g>
   <g id="LineCollection_11">
    <path d="M 131.792595 145.40791
L 131.792595 -1
" clip-path="url(#p11ae052c88)" style="fill: none; stroke: #000000; stroke-width: 0.5"/>
   </g>
   <g id="LineCollection_12">
    <path d="M 126.354978 135.276274
L 137.230213 135.276274
" clip-path="url(#p11ae052c88)" style="fill: none; stroke: #000000; stroke-width: 1.5"/>
   </g>
   <g id="LineCollection_13">
    <path clip-path="url(#p11ae052c88)" style="fill: none; stroke: #000000; stroke-width: 0.5"/>
   </g>
   <g id="LineCollection_14">
    <path d="M 156.805636 145.094676
L 167.680871 145.094676
" clip-path="url(#p11ae052c88)" style="fill: none; stroke: #000000; stroke-width: 0.5"/>
   </g>
   <g id="LineCollection_15">
    <path d="M 162.243254 145.094676
L 162.243254 -1
" clip-path="url(#p11ae052c88)" style="fill: none; stroke: #000000; stroke-width: 0.5"/>
   </g>
   <g id="LineCollection_16">
    <path d="M 156.805636 121.096696
L 167.680871 121.096696
" clip-path="url(#p11ae052c88)" style="fill: none; stroke: #000000; stroke-width: 1.5"/>
   </g>
   <g id="patch_3">
    <path d="M 40.658125 161.664
L 40.658125 38.472
" style="fill: none; stroke: #000000; stroke-width: 0.5; stroke-linejoin: miter; stroke-linecap: square"/>
   </g>
   <g id="patch_4">
    <path d="M 40.658125 161.664
L 179.426125 161.664
" style="fill: none; stroke: #000000; stroke-width: 0.5; stroke-linejoin: miter; stroke-linecap: square"/>
   </g>
   <g id="PathCollection_1">
    <defs>
     <path id="m9b1c669f55" d="M -2.5 2.5
L 2.5 2.5
L 2.5 -2.5
L -2.5 -2.5
z
" style="stroke: #000000; stroke-opacity: 0.8; stroke-width: 0.5"/>
    </defs>
    <g clip-path="url(#p11ae052c88)">
     <use xlink:href="#m9b1c669f55" x="54.122059" y="136.582109" style="fill: #d3d3d3; fill-opacity: 0.8; stroke: #000000; stroke-opacity: 0.8; stroke-width: 0.5"/>
    </g>
   </g>
   <g id="PathCollection_2">
    <g clip-path="url(#p11ae052c88)">
     <use xlink:href="#m9b1c669f55" x="88.268155" y="129.720314" style="fill: #d3d3d3; fill-opacity: 0.8; stroke: #000000; stroke-opacity: 0.8; stroke-width: 0.5"/>
    </g>
   </g>
   <g id="PathCollection_3">
    <g clip-path="url(#p11ae052c88)">
     <use xlink:href="#m9b1c669f55" x="132.405934" y="134.832782" style="fill: #d3d3d3; fill-opacity: 0.8; stroke: #000000; stroke-opacity: 0.8; stroke-width: 0.5"/>
    </g>
   </g>
   <g id="PathCollection_4">
    <g clip-path="url(#p11ae052c88)">
     <use xlink:href="#m9b1c669f55" x="163.604331" y="123.954929" style="fill: #d3d3d3; fill-opacity: 0.8; stroke: #000000; stroke-opacity: 0.8; stroke-width: 0.5"/>
    </g>
   </g>
   <g id="PathCollection_5">
    <defs>
     <path id="m8bf47b8ed5" d="M 0 2.5
C 0.663008 2.5 1.29895 2.236584 1.767767 1.767767
C 2.236584 1.29895 2.5 0.663008 2.5 0
C 2.5 -0.663008 2.236584 -1.29895 1.767767 -1.767767
C 1.29895 -2.236584 0.663008 -2.5 0 -2.5
C -0.663008 -2.5 -1.29895 -2.236584 -1.767767 -1.767767
C -2.236584 -1.29895 -2.5 -0.663008 -2.5 0
C -2.5 0.663008 -2.236584 1.29895 -1.767767 1.767767
C -1.29895 2.236584 -0.663008 2.5 0 2.5
z
" style="stroke: #000000; stroke-opacity: 0.8; stroke-width: 0.5"/>
    </defs>
    <g clip-path="url(#p11ae052c88)">
     <use xlink:href="#m8bf47b8ed5" x="54.7648" y="138.393031" style="fill: #d3d3d3; fill-opacity: 0.8; stroke: #000000; stroke-opacity: 0.8; stroke-width: 0.5"/>
    </g>
   </g>
   <g id="PathCollection_6">
    <g clip-path="url(#p11ae052c88)">
     <use xlink:href="#m8bf47b8ed5" x="90.974529" y="129.295302" style="fill: #d3d3d3; fill-opacity: 0.8; stroke: #000000; stroke-opacity: 0.8; stroke-width: 0.5"/>
    </g>
   </g>
   <g id="PathCollection_7">
    <g clip-path="url(#p11ae052c88)">
     <use xlink:href="#m8bf47b8ed5" x="131.225788" y="136.003106" style="fill: #d3d3d3; fill-opacity: 0.8; stroke: #000000; stroke-opacity: 0.8; stroke-width: 0.5"/>
    </g>
   </g>
   <g id="PathCollection_8">
    <g clip-path="url(#p11ae052c88)">
     <use xlink:href="#m8bf47b8ed5" x="166.586822" y="116.23079" style="fill: #d3d3d3; fill-opacity: 0.8; stroke: #000000; stroke-opacity: 0.8; stroke-width: 0.5"/>
    </g>
   </g>
   <g id="PathCollection_9">
    <defs>
     <path id="md6ed81f709" d="M 0 -2.5
L -2.5 2.5
L 2.5 2.5
z
" style="stroke: #000000; stroke-opacity: 0.8; stroke-width: 0.5"/>
    </defs>
    <g clip-path="url(#p11ae052c88)">
     <use xlink:href="#md6ed81f709" x="61.094034" y="136.976505" style="fill: #d3d3d3; fill-opacity: 0.8; stroke: #000000; stroke-opacity: 0.8; stroke-width: 0.5"/>
    </g>
   </g>
   <g id="PathCollection_10">
    <g clip-path="url(#p11ae052c88)">
     <use xlink:href="#md6ed81f709" x="89.886158" y="127.618265" style="fill: #d3d3d3; fill-opacity: 0.8; stroke: #000000; stroke-opacity: 0.8; stroke-width: 0.5"/>
    </g>
   </g>
   <g id="PathCollection_11">
    <g clip-path="url(#p11ae052c88)">
     <use xlink:href="#md6ed81f709" x="131.561356" y="133.814477" style="fill: #d3d3d3; fill-opacity: 0.8; stroke: #000000; stroke-opacity: 0.8; stroke-width: 0.5"/>
    </g>
   </g>
   <g id="PathCollection_12">
    <g clip-path="url(#p11ae052c88)">
     <use xlink:href="#md6ed81f709" x="160.847308" y="123.541924" style="fill: #d3d3d3; fill-opacity: 0.8; stroke: #000000; stroke-opacity: 0.8; stroke-width: 0.5"/>
    </g>
   </g>
   <g id="text_12">
    <!-- *** -->
    <g transform="translate(84.788686 37.2795) scale(0.06 -0.06)">
     <defs>
      <path id="ArialMT-2a" d="M 200 3741
L 344 4184
Q 841 4009 1066 3881
Q 1006 4447 1003 4659
L 1456 4659
Q 1447 4350 1384 3884
Q 1706 4047 2122 4184
L 2266 3741
Q 1869 3609 1488 3566
Q 1678 3400 2025 2975
L 1650 2709
Q 1469 2956 1222 3381
Q 991 2941 816 2709
L 447 2975
Q 809 3422 966 3566
Q 563 3644 200 3741
z
" transform="scale(0.015625)"/>
     </defs>
     <use xlink:href="#ArialMT-2a"/>
     <use xlink:href="#ArialMT-2a" transform="translate(38.916016 0)"/>
     <use xlink:href="#ArialMT-2a" transform="translate(77.832031 0)"/>
    </g>
   </g>
   <g id="text_13">
    <!-- ** -->
    <g transform="translate(159.907941 37.2795) scale(0.06 -0.06)">
     <use xlink:href="#ArialMT-2a"/>
     <use xlink:href="#ArialMT-2a" transform="translate(38.916016 0)"/>
    </g>
   </g>
   <g id="legend_1">
    <g id="patch_5">
     <path d="M 190.564525 72.72075
L 223.110775 72.72075
Q 224.310775 72.72075 224.310775 71.52075
L 224.310775 42.672
Q 224.310775 41.472 223.110775 41.472
L 190.564525 41.472
Q 189.364525 41.472 189.364525 42.672
L 189.364525 71.52075
Q 189.364525 72.72075 190.564525 72.72075
z
" style="fill: #ffffff; stroke: #cccccc; stroke-linejoin: miter"/>
    </g>
    <g id="text_14">
     <!-- Plate ID -->
     <g transform="translate(196.166556 48.166687) scale(0.06 -0.06)">
      <defs>
       <path id="ArialMT-44" d="M 494 0
L 494 4581
L 2072 4581
Q 2606 4581 2888 4516
Q 3281 4425 3559 4188
Q 3922 3881 4101 3404
Q 4281 2928 4281 2316
Q 4281 1794 4159 1391
Q 4038 988 3847 723
Q 3656 459 3429 307
Q 3203 156 2883 78
Q 2563 0 2147 0
L 494 0
z
M 1100 541
L 2078 541
Q 2531 541 2789 625
Q 3047 709 3200 863
Q 3416 1078 3536 1442
Q 3656 1806 3656 2325
Q 3656 3044 3420 3430
Q 3184 3816 2847 3947
Q 2603 4041 2063 4041
L 1100 4041
L 1100 541
z
" transform="scale(0.015625)"/>
      </defs>
      <use xlink:href="#ArialMT-50"/>
      <use xlink:href="#ArialMT-6c" transform="translate(66.699219 0)"/>
      <use xlink:href="#ArialMT-61" transform="translate(88.916016 0)"/>
      <use xlink:href="#ArialMT-74" transform="translate(144.53125 0)"/>
      <use xlink:href="#ArialMT-65" transform="translate(172.314453 0)"/>
      <use xlink:href="#ArialMT-20" transform="translate(227.929688 0)"/>
      <use xlink:href="#ArialMT-49" transform="translate(255.712891 0)"/>
      <use xlink:href="#ArialMT-44" transform="translate(283.496094 0)"/>
     </g>
    </g>
    <g id="line2d_11">
     <defs>
      <path id="mbe12134fb4" d="M -3 3
L 3 3
L 3 -3
L -3 -3
z
" style="stroke: #000000; stroke-width: 0.5; stroke-linejoin: miter"/>
     </defs>
     <g>
      <use xlink:href="#mbe12134fb4" x="197.764525" y="53.053875" style="fill: #d3d3d3; stroke: #000000; stroke-width: 0.5; stroke-linejoin: miter"/>
     </g>
    </g>
    <g id="text_15">
     <!-- 2301 -->
     <g transform="translate(208.564525 55.153875) scale(0.06 -0.06)">
      <use xlink:href="#ArialMT-32"/>
      <use xlink:href="#ArialMT-33" transform="translate(55.615234 0)"/>
      <use xlink:href="#ArialMT-30" transform="translate(111.230469 0)"/>
      <use xlink:href="#ArialMT-31" transform="translate(166.845703 0)"/>
     </g>
    </g>
    <g id="line2d_12">
     <defs>
      <path id="mabc256e924" d="M 0 3
C 0.795609 3 1.55874 2.683901 2.12132 2.12132
C 2.683901 1.55874 3 0.795609 3 0
C 3 -0.795609 2.683901 -1.55874 2.12132 -2.12132
C 1.55874 -2.683901 0.795609 -3 0 -3
C -0.795609 -3 -1.55874 -2.683901 -2.12132 -2.12132
C -2.683901 -1.55874 -3 -0.795609 -3 0
C -3 0.795609 -2.683901 1.55874 -2.12132 2.12132
C -1.55874 2.683901 -0.795609 3 0 3
z
" style="stroke: #000000; stroke-width: 0.5"/>
     </defs>
     <g>
      <use xlink:href="#mabc256e924" x="197.764525" y="60.041063" style="fill: #d3d3d3; stroke: #000000; stroke-width: 0.5"/>
     </g>
    </g>
    <g id="text_16">
     <!-- 2361 -->
     <g transform="translate(208.564525 62.141063) scale(0.06 -0.06)">
      <use xlink:href="#ArialMT-32"/>
      <use xlink:href="#ArialMT-33" transform="translate(55.615234 0)"/>
      <use xlink:href="#ArialMT-36" transform="translate(111.230469 0)"/>
      <use xlink:href="#ArialMT-31" transform="translate(166.845703 0)"/>
     </g>
    </g>
    <g id="line2d_13">
     <defs>
      <path id="m9efe13a39f" d="M 0 -3
L -3 3
L 3 3
z
" style="stroke: #000000; stroke-width: 0.5; stroke-linejoin: miter"/>
     </defs>
     <g>
      <use xlink:href="#m9efe13a39f" x="197.764525" y="67.02825" style="fill: #d3d3d3; stroke: #000000; stroke-width: 0.5; stroke-linejoin: miter"/>
     </g>
    </g>
    <g id="text_17">
     <!-- 2362 -->
     <g transform="translate(208.564525 69.12825) scale(0.06 -0.06)">
      <use xlink:href="#ArialMT-32"/>
      <use xlink:href="#ArialMT-33" transform="translate(55.615234 0)"/>
      <use xlink:href="#ArialMT-36" transform="translate(111.230469 0)"/>
      <use xlink:href="#ArialMT-32" transform="translate(166.845703 0)"/>
     </g>
    </g>
   </g>
  </g>
  <g id="text_18">
   <!-- feature plot no scatter -->
   <g transform="translate(39.242125 19.495781) scale(0.07 -0.07)">
    <defs>
     <path id="Arial-BoldMT-66" d="M 75 3319
L 563 3319
L 563 3569
Q 563 3988 652 4194
Q 741 4400 980 4529
Q 1219 4659 1584 4659
Q 1959 4659 2319 4547
L 2200 3934
Q 1991 3984 1797 3984
Q 1606 3984 1523 3895
Q 1441 3806 1441 3553
L 1441 3319
L 2097 3319
L 2097 2628
L 1441 2628
L 1441 0
L 563 0
L 563 2628
L 75 2628
L 75 3319
z
" transform="scale(0.015625)"/>
     <path id="Arial-BoldMT-65" d="M 2381 1056
L 3256 909
Q 3088 428 2723 176
Q 2359 -75 1813 -75
Q 947 -75 531 491
Q 203 944 203 1634
Q 203 2459 634 2926
Q 1066 3394 1725 3394
Q 2466 3394 2894 2905
Q 3322 2416 3303 1406
L 1103 1406
Q 1113 1016 1316 798
Q 1519 581 1822 581
Q 2028 581 2168 693
Q 2309 806 2381 1056
z
M 2431 1944
Q 2422 2325 2234 2523
Q 2047 2722 1778 2722
Q 1491 2722 1303 2513
Q 1116 2303 1119 1944
L 2431 1944
z
" transform="scale(0.015625)"/>
     <path id="Arial-BoldMT-61" d="M 1116 2306
L 319 2450
Q 453 2931 781 3162
Q 1109 3394 1756 3394
Q 2344 3394 2631 3255
Q 2919 3116 3036 2902
Q 3153 2688 3153 2116
L 3144 1091
Q 3144 653 3186 445
Q 3228 238 3344 0
L 2475 0
Q 2441 88 2391 259
Q 2369 338 2359 363
Q 2134 144 1878 34
Q 1622 -75 1331 -75
Q 819 -75 523 203
Q 228 481 228 906
Q 228 1188 362 1408
Q 497 1628 739 1745
Q 981 1863 1438 1950
Q 2053 2066 2291 2166
L 2291 2253
Q 2291 2506 2166 2614
Q 2041 2722 1694 2722
Q 1459 2722 1328 2630
Q 1197 2538 1116 2306
z
M 2291 1594
Q 2122 1538 1756 1459
Q 1391 1381 1278 1306
Q 1106 1184 1106 997
Q 1106 813 1243 678
Q 1381 544 1594 544
Q 1831 544 2047 700
Q 2206 819 2256 991
Q 2291 1103 2291 1419
L 2291 1594
z
" transform="scale(0.015625)"/>
     <path id="Arial-BoldMT-74" d="M 1981 3319
L 1981 2619
L 1381 2619
L 1381 1281
Q 1381 875 1398 808
Q 1416 741 1477 697
Q 1538 653 1625 653
Q 1747 653 1978 738
L 2053 56
Q 1747 -75 1359 -75
Q 1122 -75 931 4
Q 741 84 652 211
Q 563 338 528 553
Q 500 706 500 1172
L 500 2619
L 97 2619
L 97 3319
L 500 3319
L 500 3978
L 1381 4491
L 1381 3319
L 1981 3319
z
" transform="scale(0.015625)"/>
     <path id="Arial-BoldMT-75" d="M 2644 0
L 2644 497
Q 2463 231 2167 78
Q 1872 -75 1544 -75
Q 1209 -75 943 72
Q 678 219 559 484
Q 441 750 441 1219
L 441 3319
L 1319 3319
L 1319 1794
Q 1319 1094 1367 936
Q 1416 778 1544 686
Q 1672 594 1869 594
Q 2094 594 2272 717
Q 2450 841 2515 1023
Q 2581 1206 2581 1919
L 2581 3319
L 3459 3319
L 3459 0
L 2644 0
z
" transform="scale(0.015625)"/>
     <path id="Arial-BoldMT-72" d="M 1300 0
L 422 0
L 422 3319
L 1238 3319
L 1238 2847
Q 1447 3181 1614 3287
Q 1781 3394 1994 3394
Q 2294 3394 2572 3228
L 2300 2463
Q 2078 2606 1888 2606
Q 1703 2606 1575 2504
Q 1447 2403 1373 2137
Q 1300 1872 1300 1025
L 1300 0
z
" transform="scale(0.015625)"/>
     <path id="Arial-BoldMT-20" transform="scale(0.015625)"/>
     <path id="Arial-BoldMT-70" d="M 434 3319
L 1253 3319
L 1253 2831
Q 1413 3081 1684 3237
Q 1956 3394 2288 3394
Q 2866 3394 3269 2941
Q 3672 2488 3672 1678
Q 3672 847 3265 386
Q 2859 -75 2281 -75
Q 2006 -75 1782 34
Q 1559 144 1313 409
L 1313 -1263
L 434 -1263
L 434 3319
z
M 1303 1716
Q 1303 1156 1525 889
Q 1747 622 2066 622
Q 2372 622 2575 867
Q 2778 1113 2778 1672
Q 2778 2194 2568 2447
Q 2359 2700 2050 2700
Q 1728 2700 1515 2451
Q 1303 2203 1303 1716
z
" transform="scale(0.015625)"/>
     <path id="Arial-BoldMT-6c" d="M 459 0
L 459 4581
L 1338 4581
L 1338 0
L 459 0
z
" transform="scale(0.015625)"/>
     <path id="Arial-BoldMT-6f" d="M 256 1706
Q 256 2144 472 2553
Q 688 2963 1083 3178
Q 1478 3394 1966 3394
Q 2719 3394 3200 2905
Q 3681 2416 3681 1669
Q 3681 916 3195 420
Q 2709 -75 1972 -75
Q 1516 -75 1102 131
Q 688 338 472 736
Q 256 1134 256 1706
z
M 1156 1659
Q 1156 1166 1390 903
Q 1625 641 1969 641
Q 2313 641 2545 903
Q 2778 1166 2778 1666
Q 2778 2153 2545 2415
Q 2313 2678 1969 2678
Q 1625 2678 1390 2415
Q 1156 2153 1156 1659
z
" transform="scale(0.015625)"/>
     <path id="Arial-BoldMT-6e" d="M 3478 0
L 2600 0
L 2600 1694
Q 2600 2231 2544 2389
Q 2488 2547 2361 2634
Q 2234 2722 2056 2722
Q 1828 2722 1647 2597
Q 1466 2472 1398 2265
Q 1331 2059 1331 1503
L 1331 0
L 453 0
L 453 3319
L 1269 3319
L 1269 2831
Q 1703 3394 2363 3394
Q 2653 3394 2893 3289
Q 3134 3184 3257 3021
Q 3381 2859 3429 2653
Q 3478 2447 3478 2063
L 3478 0
z
" transform="scale(0.015625)"/>
     <path id="Arial-BoldMT-73" d="M 150 947
L 1031 1081
Q 1088 825 1259 692
Q 1431 559 1741 559
Q 2081 559 2253 684
Q 2369 772 2369 919
Q 2369 1019 2306 1084
Q 2241 1147 2013 1200
Q 950 1434 666 1628
Q 272 1897 272 2375
Q 272 2806 612 3100
Q 953 3394 1669 3394
Q 2350 3394 2681 3172
Q 3013 2950 3138 2516
L 2309 2363
Q 2256 2556 2107 2659
Q 1959 2763 1684 2763
Q 1338 2763 1188 2666
Q 1088 2597 1088 2488
Q 1088 2394 1175 2328
Q 1294 2241 1995 2081
Q 2697 1922 2975 1691
Q 3250 1456 3250 1038
Q 3250 581 2869 253
Q 2488 -75 1741 -75
Q 1063 -75 667 200
Q 272 475 150 947
z
" transform="scale(0.015625)"/>
     <path id="Arial-BoldMT-63" d="M 3353 2338
L 2488 2181
Q 2444 2441 2289 2572
Q 2134 2703 1888 2703
Q 1559 2703 1364 2476
Q 1169 2250 1169 1719
Q 1169 1128 1367 884
Q 1566 641 1900 641
Q 2150 641 2309 783
Q 2469 925 2534 1272
L 3397 1125
Q 3263 531 2881 228
Q 2500 -75 1859 -75
Q 1131 -75 698 384
Q 266 844 266 1656
Q 266 2478 700 2936
Q 1134 3394 1875 3394
Q 2481 3394 2839 3133
Q 3197 2872 3353 2338
z
" transform="scale(0.015625)"/>
    </defs>
    <use xlink:href="#Arial-BoldMT-66"/>
    <use xlink:href="#Arial-BoldMT-65" transform="translate(33.300781 0)"/>
    <use xlink:href="#Arial-BoldMT-61" transform="translate(88.916016 0)"/>
    <use xlink:href="#Arial-BoldMT-74" transform="translate(144.53125 0)"/>
    <use xlink:href="#Arial-BoldMT-75" transform="translate(177.832031 0)"/>
    <use xlink:href="#Arial-BoldMT-72" transform="translate(238.916016 0)"/>
    <use xlink:href="#Arial-BoldMT-65" transform="translate(277.832031 0)"/>
    <use xlink:href="#Arial-BoldMT-20" transform="translate(333.447266 0)"/>
    <use xlink:href="#Arial-BoldMT-70" transform="translate(361.230469 0)"/>
    <use xlink:href="#Arial-BoldMT-6c" transform="translate(422.314453 0)"/>
    <use xlink:href="#Arial-BoldMT-6f" transform="translate(450.097656 0)"/>
    <use xlink:href="#Arial-BoldMT-74" transform="translate(511.181641 0)"/>
    <use xlink:href="#Arial-BoldMT-20" transform="translate(544.482422 0)"/>
    <use xlink:href="#Arial-BoldMT-6e" transform="translate(572.265625 0)"/>
    <use xlink:href="#Arial-BoldMT-6f" transform="translate(633.349609 0)"/>
    <use xlink:href="#Arial-BoldMT-20" transform="translate(694.433594 0)"/>
    <use xlink:href="#Arial-BoldMT-73" transform="translate(722.216797 0)"/>
    <use xlink:href="#Arial-BoldMT-63" transform="translate(777.832031 0)"/>
    <use xlink:href="#Arial-BoldMT-61" transform="translate(833.447266 0)"/>
    <use xlink:href="#Arial-BoldMT-74" transform="translate(889.0625 0)"/>
    <use xlink:href="#Arial-BoldMT-74" transform="translate(922.363281 0)"/>
    <use xlink:href="#Arial-BoldMT-65" transform="translate(955.664062 0)"/>
    <use xlink:href="#Arial-BoldMT-72" transform="translate(1011.279297 0)"/>
   </g>
  </g>
 </g>
 <defs>
  <clipPath id="p11ae052c88">
   <rect x="40.658125" y="38.472" width="138.768" height="123.192"/>
  </clipPath>
 </defs>
</svg>
