<?xml version="1.0" encoding="utf-8" standalone="no"?>
<!DOCTYPE svg PUBLIC "-//W3C//DTD SVG 1.1//EN"
  "http://www.w3.org/Graphics/SVG/1.1/DTD/svg11.dtd">
<svg xmlns:xlink="http://www.w3.org/1999/xlink" width="243.406895pt" height="198.017358pt" viewBox="0 0 243.406895 198.017358" xmlns="http://www.w3.org/2000/svg" version="1.1">
 <metadata>
  <rdf:RDF xmlns:dc="http://purl.org/dc/elements/1.1/" xmlns:cc="http://creativecommons.org/ns#" xmlns:rdf="http://www.w3.org/1999/02/22-rdf-syntax-ns#">
   <cc:Work>
    <dc:type rdf:resource="http://purl.org/dc/dcmitype/StillImage"/>
    <dc:date>2025-09-10T13:55:35.410317</dc:date>
    <dc:format>image/svg+xml</dc:format>
    <dc:creator>
     <cc:Agent>
      <dc:title>Matplotlib v3.10.1, https://matplotlib.org/</dc:title>
     </cc:Agent>
    </dc:creator>
   </cc:Work>
  </rdf:RDF>
 </metadata>
 <defs>
  <style type="text/css">*{stroke-linejoin: round; stroke-linecap: butt}</style>
 </defs>
 <g id="figure_1">
  <g id="patch_1">
   <path d="M 0 198.017358 
L 243.406895 198.017358 
L 243.406895 0 
L 0 0 
z
" style="fill: #ffffff"/>
  </g>
  <g id="axes_1">
   <g id="patch_2">
    <path d="M 43.294375 161.801575 
L 182.192013 161.801575 
L 182.192013 38.494488 
L 43.294375 38.494488 
z
" style="fill: #ffffff"/>
   </g>
   <g id="FillBetweenPolyCollection_1">
    <path d="M 60.76547 145.253764 
L 60.221128 145.253764 
L 49.607904 139.869105 
L 55.34555 134.484446 
L 58.731212 129.099787 
L 59.851206 123.715128 
L 60.037225 118.330469 
L 60.114825 112.945809 
L 60.170978 107.56115 
L 60.228205 102.176491 
L 60.285459 96.791832 
L 60.33616 91.407173 
L 60.376349 86.022514 
L 60.412267 80.637855 
L 60.438813 75.253196 
L 60.456277 69.868537 
L 60.467003 64.483878 
L 60.473887 59.099219 
L 60.481508 53.71456 
L 60.484777 48.329901 
L 60.48892 42.945242 
L 60.48908 37.560583 
L 60.490486 32.175924 
L 60.492036 26.791265 
L 60.492063 21.406606 
L 60.492818 16.021947 
L 60.492571 10.637287 
L 60.492749 5.252628 
L 60.493014 -0.132031 
L 60.493093 -5.51669 
L 60.492983 -10.901349 
L 60.49327 -16.286008 
L 60.493069 -21.670667 
L 60.493268 -27.055326 
L 60.49317 -32.439985 
L 60.493299 -37.824644 
L 60.493299 -43.209303 
L 60.493299 -48.593962 
L 60.493299 -53.978621 
L 60.493276 -59.36328 
L 60.493298 -64.747939 
L 60.493299 -70.132598 
L 60.493299 -75.517257 
L 60.49318 -80.901916 
L 60.493299 -86.286575 
L 60.493174 -91.671235 
L 60.493264 -97.055894 
L 60.493299 -102.440553 
L 60.493299 -107.825212 
L 60.493299 -113.209871 
L 60.493299 -118.59453 
L 60.493299 -123.979189 
L 60.493295 -129.363848 
L 60.493295 -134.748507 
L 60.493299 -140.133166 
L 60.493299 -145.517825 
L 60.493299 -150.902484 
L 60.493299 -156.287143 
L 60.493299 -161.671802 
L 60.493299 -167.056461 
L 60.493299 -172.44112 
L 60.493299 -177.825779 
L 60.493299 -183.210438 
L 60.493299 -188.595097 
L 60.493299 -193.979757 
L 60.493299 -199.364416 
L 60.493299 -204.749075 
L 60.493299 -210.133734 
L 60.493299 -215.518393 
L 60.493299 -220.903052 
L 60.493299 -226.287711 
L 60.493299 -231.67237 
L 60.493299 -237.057029 
L 60.493299 -242.441688 
L 60.493299 -247.826347 
L 60.493299 -253.211006 
L 60.493299 -258.595665 
L 60.493299 -263.980324 
L 60.493299 -269.364983 
L 60.493299 -274.749642 
L 60.493299 -280.134301 
L 60.493299 -285.51896 
L 60.493299 -290.903619 
L 60.493299 -296.288279 
L 60.493299 -301.672938 
L 60.493299 -307.057597 
L 60.493299 -312.442256 
L 60.493299 -317.826915 
L 60.493299 -323.211574 
L 60.493299 -328.596233 
L 60.493299 -333.980892 
L 60.493299 -339.365551 
L 60.493299 -344.75021 
L 60.493299 -350.134869 
L 60.493299 -355.519528 
L 60.493299 -360.904187 
L 60.493299 -366.288846 
L 60.493299 -371.673505 
L 60.493299 -377.058164 
L 60.493299 -382.442823 
L 60.493157 -387.827482 
L 60.493441 -387.827482 
L 60.493441 -387.827482 
L 60.493299 -382.442823 
L 60.493299 -377.058164 
L 60.493299 -371.673505 
L 60.493299 -366.288846 
L 60.493299 -360.904187 
L 60.493299 -355.519528 
L 60.493299 -350.134869 
L 60.493299 -344.75021 
L 60.493299 -339.365551 
L 60.493299 -333.980892 
L 60.493299 -328.596233 
L 60.493299 -323.211574 
L 60.493299 -317.826915 
L 60.493299 -312.442256 
L 60.493299 -307.057597 
L 60.493299 -301.672938 
L 60.493299 -296.288279 
L 60.493299 -290.903619 
L 60.493299 -285.51896 
L 60.493299 -280.134301 
L 60.493299 -274.749642 
L 60.493299 -269.364983 
L 60.493299 -263.980324 
L 60.493299 -258.595665 
L 60.493299 -253.211006 
L 60.493299 -247.826347 
L 60.493299 -242.441688 
L 60.493299 -237.057029 
L 60.493299 -231.67237 
L 60.493299 -226.287711 
L 60.493299 -220.903052 
L 60.493299 -215.518393 
L 60.493299 -210.133734 
L 60.493299 -204.749075 
L 60.493299 -199.364416 
L 60.493299 -193.979757 
L 60.493299 -188.595097 
L 60.493299 -183.210438 
L 60.493299 -177.825779 
L 60.493299 -172.44112 
L 60.493299 -167.056461 
L 60.493299 -161.671802 
L 60.493299 -156.287143 
L 60.493299 -150.902484 
L 60.493299 -145.517825 
L 60.493299 -140.133166 
L 60.493303 -134.748507 
L 60.493302 -129.363848 
L 60.493299 -123.979189 
L 60.493299 -118.59453 
L 60.493299 -113.209871 
L 60.493299 -107.825212 
L 60.493299 -102.440553 
L 60.493334 -97.055894 
L 60.493424 -91.671235 
L 60.493299 -86.286575 
L 60.493417 -80.901916 
L 60.493299 -75.517257 
L 60.493299 -70.132598 
L 60.493299 -64.747939 
L 60.493322 -59.36328 
L 60.493299 -53.978621 
L 60.493299 -48.593962 
L 60.493299 -43.209303 
L 60.493299 -37.824644 
L 60.493427 -32.439985 
L 60.49333 -27.055326 
L 60.493529 -21.670667 
L 60.493328 -16.286008 
L 60.493614 -10.901349 
L 60.493505 -5.51669 
L 60.493584 -0.132031 
L 60.493848 5.252628 
L 60.494027 10.637287 
L 60.493779 16.021947 
L 60.494535 21.406606 
L 60.494562 26.791265 
L 60.496112 32.175924 
L 60.497518 37.560583 
L 60.497678 42.945242 
L 60.501821 48.329901 
L 60.50509 53.71456 
L 60.51271 59.099219 
L 60.519595 64.483878 
L 60.530321 69.868537 
L 60.547784 75.253196 
L 60.57433 80.637855 
L 60.610248 86.022514 
L 60.650437 91.407173 
L 60.701139 96.791832 
L 60.758392 102.176491 
L 60.815619 107.56115 
L 60.871773 112.945809 
L 60.949373 118.330469 
L 61.135392 123.715128 
L 62.255386 129.099787 
L 65.641048 134.484446 
L 71.378694 139.869105 
L 60.76547 145.253764 
z
" clip-path="url(#pd8dce844a0)" style="fill: #4a4a4a; fill-opacity: 0.75; stroke: #000000; stroke-opacity: 0.75; stroke-width: 0.5"/>
   </g>
   <g id="FillBetweenPolyCollection_2">
    <path d="M 92.12165 144.390614 
L 89.823159 144.390614 
L 83.543404 139.657989 
L 80.087009 134.925363 
L 82.631846 130.192737 
L 85.260143 125.460112 
L 87.226479 120.727486 
L 88.354686 115.99486 
L 88.958053 111.262235 
L 89.308398 106.529609 
L 89.617009 101.796984 
L 89.883781 97.064358 
L 90.083095 92.331732 
L 90.243055 87.599107 
L 90.36139 82.866481 
L 90.494167 78.133855 
L 90.618914 73.40123 
L 90.680102 68.668604 
L 90.736417 63.935979 
L 90.762076 59.203353 
L 90.797662 54.470727 
L 90.847419 49.738102 
L 90.87558 45.005476 
L 90.88482 40.27285 
L 90.902248 35.540225 
L 90.912871 30.807599 
L 90.92977 26.074974 
L 90.941711 21.342348 
L 90.945883 16.609722 
L 90.944602 11.877097 
L 90.946112 7.144471 
L 90.950169 2.411845 
L 90.956334 -2.32078 
L 90.95976 -7.053406 
L 90.959367 -11.786031 
L 90.963432 -16.518657 
L 90.96977 -21.251283 
L 90.9646 -25.983908 
L 90.965408 -30.716534 
L 90.970021 -35.44916 
L 90.970459 -40.181785 
L 90.969204 -44.914411 
L 90.96878 -49.647037 
L 90.970393 -54.379662 
L 90.9715 -59.112288 
L 90.970395 -63.844913 
L 90.971586 -68.577539 
L 90.971001 -73.310165 
L 90.969644 -78.04279 
L 90.972102 -82.775416 
L 90.97224 -87.508042 
L 90.97008 -92.240667 
L 90.97049 -96.973293 
L 90.972275 -101.705918 
L 90.970894 -106.438544 
L 90.968801 -111.17117 
L 90.971589 -115.903795 
L 90.972392 -120.636421 
L 90.972404 -125.369047 
L 90.972404 -130.101672 
L 90.972404 -134.834298 
L 90.972404 -139.566923 
L 90.972404 -144.299549 
L 90.972404 -149.032175 
L 90.972394 -153.7648 
L 90.97185 -158.497426 
L 90.970617 -163.230052 
L 90.971782 -167.962677 
L 90.972338 -172.695303 
L 90.971435 -177.427928 
L 90.970831 -182.160554 
L 90.972011 -186.89318 
L 90.972399 -191.625805 
L 90.972404 -196.358431 
L 90.972404 -201.091057 
L 90.972404 -205.823682 
L 90.972404 -210.556308 
L 90.972404 -215.288933 
L 90.972404 -220.021559 
L 90.972404 -224.754185 
L 90.972404 -229.48681 
L 90.972404 -234.219436 
L 90.972404 -238.952062 
L 90.972404 -243.684687 
L 90.972404 -248.417313 
L 90.972404 -253.149938 
L 90.972404 -257.882564 
L 90.972404 -262.61519 
L 90.972404 -267.347815 
L 90.972404 -272.080441 
L 90.972404 -276.813067 
L 90.972404 -281.545692 
L 90.972404 -286.278318 
L 90.972404 -291.010943 
L 90.972404 -295.743569 
L 90.972404 -300.476195 
L 90.972404 -305.20882 
L 90.972404 -309.941446 
L 90.972403 -314.674072 
L 90.972192 -319.406697 
L 90.971327 -324.139323 
L 90.973482 -324.139323 
L 90.973482 -324.139323 
L 90.972616 -319.406697 
L 90.972406 -314.674072 
L 90.972404 -309.941446 
L 90.972404 -305.20882 
L 90.972404 -300.476195 
L 90.972404 -295.743569 
L 90.972404 -291.010943 
L 90.972404 -286.278318 
L 90.972404 -281.545692 
L 90.972404 -276.813067 
L 90.972404 -272.080441 
L 90.972404 -267.347815 
L 90.972404 -262.61519 
L 90.972404 -257.882564 
L 90.972404 -253.149938 
L 90.972404 -248.417313 
L 90.972404 -243.684687 
L 90.972404 -238.952062 
L 90.972404 -234.219436 
L 90.972404 -229.48681 
L 90.972404 -224.754185 
L 90.972404 -220.021559 
L 90.972404 -215.288933 
L 90.972404 -210.556308 
L 90.972404 -205.823682 
L 90.972404 -201.091057 
L 90.972404 -196.358431 
L 90.97241 -191.625805 
L 90.972798 -186.89318 
L 90.973977 -182.160554 
L 90.973374 -177.427928 
L 90.97247 -172.695303 
L 90.973027 -167.962677 
L 90.974191 -163.230052 
L 90.972958 -158.497426 
L 90.972415 -153.7648 
L 90.972404 -149.032175 
L 90.972404 -144.299549 
L 90.972404 -139.566923 
L 90.972404 -134.834298 
L 90.972404 -130.101672 
L 90.972404 -125.369047 
L 90.972417 -120.636421 
L 90.97322 -115.903795 
L 90.976007 -111.17117 
L 90.973915 -106.438544 
L 90.972534 -101.705918 
L 90.974318 -96.973293 
L 90.974728 -92.240667 
L 90.972569 -87.508042 
L 90.972707 -82.775416 
L 90.975164 -78.04279 
L 90.973808 -73.310165 
L 90.973222 -68.577539 
L 90.974413 -63.844913 
L 90.973309 -59.112288 
L 90.974415 -54.379662 
L 90.976028 -49.647037 
L 90.975604 -44.914411 
L 90.974349 -40.181785 
L 90.974788 -35.44916 
L 90.9794 -30.716534 
L 90.980208 -25.983908 
L 90.975038 -21.251283 
L 90.981376 -16.518657 
L 90.985442 -11.786031 
L 90.985049 -7.053406 
L 90.988474 -2.32078 
L 90.994639 2.411845 
L 90.998696 7.144471 
L 91.000207 11.877097 
L 90.998925 16.609722 
L 91.003097 21.342348 
L 91.015039 26.074974 
L 91.031937 30.807599 
L 91.042561 35.540225 
L 91.059989 40.27285 
L 91.069228 45.005476 
L 91.097389 49.738102 
L 91.147146 54.470727 
L 91.182733 59.203353 
L 91.208392 63.935979 
L 91.264707 68.668604 
L 91.325895 73.40123 
L 91.450642 78.133855 
L 91.583418 82.866481 
L 91.701753 87.599107 
L 91.861714 92.331732 
L 92.061028 97.064358 
L 92.3278 101.796984 
L 92.636411 106.529609 
L 92.986755 111.262235 
L 93.590123 115.99486 
L 94.718329 120.727486 
L 96.684665 125.460112 
L 99.312963 130.192737 
L 101.857799 134.925363 
L 98.401404 139.657989 
L 92.12165 144.390614 
z
" clip-path="url(#pd8dce844a0)" style="fill: #4a4a4a; fill-opacity: 0.75; stroke: #000000; stroke-opacity: 0.75; stroke-width: 0.5"/>
   </g>
   <g id="FillBetweenPolyCollection_3">
    <path d="M 134.895223 145.530298 
L 134.132744 145.530298 
L 131.140812 143.076185 
L 125.452704 140.622072 
L 123.628589 138.167959 
L 126.081983 135.713845 
L 128.694165 133.259732 
L 130.450881 130.805619 
L 131.664501 128.351506 
L 132.490865 125.897392 
L 132.978213 123.443279 
L 133.293497 120.989166 
L 133.472009 118.535053 
L 133.564743 116.080939 
L 133.664693 113.626826 
L 133.73356 111.172713 
L 133.786473 108.7186 
L 133.834514 106.264486 
L 133.900469 103.810373 
L 133.957394 101.35626 
L 134.001535 98.902147 
L 134.049146 96.448033 
L 134.111162 93.99392 
L 134.170595 91.539807 
L 134.211893 89.085694 
L 134.233611 86.63158 
L 134.265885 84.177467 
L 134.309083 81.723354 
L 134.341822 79.269241 
L 134.367314 76.815127 
L 134.396255 74.361014 
L 134.414444 71.906901 
L 134.426058 69.452788 
L 134.437397 66.998674 
L 134.451503 64.544561 
L 134.460185 62.090448 
L 134.467664 59.636335 
L 134.475799 57.182221 
L 134.481945 54.728108 
L 134.489318 52.273995 
L 134.491529 49.819882 
L 134.492103 47.365768 
L 134.495097 44.911655 
L 134.499322 42.457542 
L 134.502935 40.003429 
L 134.505354 37.549315 
L 134.50786 35.095202 
L 134.507869 32.641089 
L 134.508012 30.186976 
L 134.5085 27.732862 
L 134.509423 25.278749 
L 134.511223 22.824636 
L 134.51138 20.370523 
L 134.512231 17.916409 
L 134.512459 15.462296 
L 134.511138 13.008183 
L 134.512158 10.55407 
L 134.513463 8.099956 
L 134.513338 5.645843 
L 134.513435 3.19173 
L 134.512734 0.737617 
L 134.51257 -1.716497 
L 134.513267 -4.17061 
L 134.513574 -6.624723 
L 134.51391 -9.078836 
L 134.513718 -11.53295 
L 134.513717 -13.987063 
L 134.513716 -16.441176 
L 134.513122 -18.895289 
L 134.513464 -21.349403 
L 134.51392 -23.803516 
L 134.513792 -26.257629 
L 134.513654 -28.711742 
L 134.513772 -31.165856 
L 134.513646 -33.619969 
L 134.513934 -36.074082 
L 134.513945 -38.528195 
L 134.513666 -40.982309 
L 134.513784 -43.436422 
L 134.513974 -45.890535 
L 134.513983 -48.344648 
L 134.513984 -50.798762 
L 134.513984 -53.252875 
L 134.513984 -55.706988 
L 134.513984 -58.161101 
L 134.513984 -60.615215 
L 134.513984 -63.069328 
L 134.513984 -65.523441 
L 134.513984 -67.977554 
L 134.513984 -70.431668 
L 134.513984 -72.885781 
L 134.513984 -75.339894 
L 134.513984 -77.794007 
L 134.513984 -80.248121 
L 134.513984 -82.702234 
L 134.513984 -85.156347 
L 134.513984 -87.61046 
L 134.513984 -90.064574 
L 134.513982 -92.518687 
L 134.513885 -94.9728 
L 134.513621 -97.426913 
L 134.514346 -97.426913 
L 134.514346 -97.426913 
L 134.514082 -94.9728 
L 134.513986 -92.518687 
L 134.513984 -90.064574 
L 134.513984 -87.61046 
L 134.513984 -85.156347 
L 134.513984 -82.702234 
L 134.513984 -80.248121 
L 134.513984 -77.794007 
L 134.513984 -75.339894 
L 134.513984 -72.885781 
L 134.513984 -70.431668 
L 134.513984 -67.977554 
L 134.513984 -65.523441 
L 134.513984 -63.069328 
L 134.513984 -60.615215 
L 134.513984 -58.161101 
L 134.513984 -55.706988 
L 134.513984 -53.252875 
L 134.513984 -50.798762 
L 134.513984 -48.344648 
L 134.513993 -45.890535 
L 134.514183 -43.436422 
L 134.514301 -40.982309 
L 134.514022 -38.528195 
L 134.514033 -36.074082 
L 134.514321 -33.619969 
L 134.514195 -31.165856 
L 134.514313 -28.711742 
L 134.514175 -26.257629 
L 134.514047 -23.803516 
L 134.514503 -21.349403 
L 134.514845 -18.895289 
L 134.514251 -16.441176 
L 134.51425 -13.987063 
L 134.514249 -11.53295 
L 134.514058 -9.078836 
L 134.514393 -6.624723 
L 134.5147 -4.17061 
L 134.515397 -1.716497 
L 134.515233 0.737617 
L 134.514532 3.19173 
L 134.514629 5.645843 
L 134.514504 8.099956 
L 134.515809 10.55407 
L 134.516829 13.008183 
L 134.515508 15.462296 
L 134.515736 17.916409 
L 134.516587 20.370523 
L 134.516744 22.824636 
L 134.518544 25.278749 
L 134.519467 27.732862 
L 134.519955 30.186976 
L 134.520098 32.641089 
L 134.520107 35.095202 
L 134.522614 37.549315 
L 134.525032 40.003429 
L 134.528645 42.457542 
L 134.53287 44.911655 
L 134.535864 47.365768 
L 134.536438 49.819882 
L 134.538649 52.273995 
L 134.546022 54.728108 
L 134.552168 57.182221 
L 134.560303 59.636335 
L 134.567782 62.090448 
L 134.576464 64.544561 
L 134.59057 66.998674 
L 134.601909 69.452788 
L 134.613523 71.906901 
L 134.631712 74.361014 
L 134.660653 76.815127 
L 134.686145 79.269241 
L 134.718884 81.723354 
L 134.762082 84.177467 
L 134.794356 86.63158 
L 134.816074 89.085694 
L 134.857372 91.539807 
L 134.916805 93.99392 
L 134.978821 96.448033 
L 135.026432 98.902147 
L 135.070573 101.35626 
L 135.127498 103.810373 
L 135.193453 106.264486 
L 135.241494 108.7186 
L 135.294407 111.172713 
L 135.363274 113.626826 
L 135.463224 116.080939 
L 135.555959 118.535053 
L 135.73447 120.989166 
L 136.049754 123.443279 
L 136.537102 125.897392 
L 137.363466 128.351506 
L 138.577087 130.805619 
L 140.333802 133.259732 
L 142.945984 135.713845 
L 145.399378 138.167959 
L 143.575263 140.622072 
L 137.887155 143.076185 
L 134.895223 145.530298 
z
" clip-path="url(#pd8dce844a0)" style="fill: #4a4a4a; fill-opacity: 0.75; stroke: #000000; stroke-opacity: 0.75; stroke-width: 0.5"/>
   </g>
   <g id="FillBetweenPolyCollection_4">
    <path d="M 166.77914 145.216772 
L 163.207038 145.216772 
L 159.349976 141.782856 
L 155.368841 138.348941 
L 154.107694 134.915025 
L 154.549136 131.48111 
L 155.362392 128.047194 
L 156.272857 124.613278 
L 157.121132 121.179363 
L 157.899434 117.745447 
L 158.527206 114.311532 
L 159.061969 110.877616 
L 159.637646 107.443701 
L 160.163547 104.009785 
L 160.58338 100.57587 
L 160.974132 97.141954 
L 161.450801 93.708039 
L 161.988753 90.274123 
L 162.53876 86.840208 
L 162.957622 83.406292 
L 163.319647 79.972377 
L 163.655664 76.538461 
L 163.911186 73.104545 
L 164.08662 69.67063 
L 164.273684 66.236714 
L 164.475256 62.802799 
L 164.617426 59.368883 
L 164.689229 55.934968 
L 164.740778 52.501052 
L 164.806664 49.067137 
L 164.859167 45.633221 
L 164.893433 42.199306 
L 164.912529 38.76539 
L 164.92393 35.331475 
L 164.92247 31.897559 
L 164.923815 28.463644 
L 164.93905 25.029728 
L 164.945388 21.595812 
L 164.951716 18.161897 
L 164.961907 14.727981 
L 164.973498 11.294066 
L 164.979563 7.86015 
L 164.982338 4.426235 
L 164.982893 0.992319 
L 164.977342 -2.441596 
L 164.974898 -5.875512 
L 164.982306 -9.309427 
L 164.984341 -12.743343 
L 164.984488 -16.177258 
L 164.987872 -19.611174 
L 164.991604 -23.045089 
L 164.992937 -26.479005 
L 164.993082 -29.912921 
L 164.993017 -33.346836 
L 164.992192 -36.780752 
L 164.989473 -40.214667 
L 164.987248 -43.648583 
L 164.98809 -47.082498 
L 164.991087 -50.516414 
L 164.992808 -53.950329 
L 164.993077 -57.384245 
L 164.993089 -60.81816 
L 164.993089 -64.252076 
L 164.993089 -67.685991 
L 164.993089 -71.119907 
L 164.993089 -74.553822 
L 164.993089 -77.987738 
L 164.993085 -81.421654 
L 164.992964 -84.855569 
L 164.991871 -88.289485 
L 164.989398 -91.7234 
L 164.98858 -95.157316 
L 164.987838 -98.591231 
L 164.987002 -102.025147 
L 164.988812 -105.459062 
L 164.991801 -108.892978 
L 164.992959 -112.326893 
L 164.993085 -115.760809 
L 164.993089 -119.194724 
L 164.993089 -122.62864 
L 164.993089 -126.062555 
L 164.993089 -129.496471 
L 164.993089 -132.930387 
L 164.993089 -136.364302 
L 164.993089 -139.798218 
L 164.993089 -143.232133 
L 164.993089 -146.666049 
L 164.993089 -150.099964 
L 164.993089 -153.53388 
L 164.993089 -156.967795 
L 164.993089 -160.401711 
L 164.993089 -163.835626 
L 164.993089 -167.269542 
L 164.993089 -170.703457 
L 164.993089 -174.137373 
L 164.993089 -177.571288 
L 164.993089 -181.005204 
L 164.993072 -184.43912 
L 164.99274 -187.873035 
L 164.990965 -191.306951 
L 164.98921 -194.740866 
L 164.996968 -194.740866 
L 164.996968 -194.740866 
L 164.995213 -191.306951 
L 164.993438 -187.873035 
L 164.993106 -184.43912 
L 164.993089 -181.005204 
L 164.993089 -177.571288 
L 164.993089 -174.137373 
L 164.993089 -170.703457 
L 164.993089 -167.269542 
L 164.993089 -163.835626 
L 164.993089 -160.401711 
L 164.993089 -156.967795 
L 164.993089 -153.53388 
L 164.993089 -150.099964 
L 164.993089 -146.666049 
L 164.993089 -143.232133 
L 164.993089 -139.798218 
L 164.993089 -136.364302 
L 164.993089 -132.930387 
L 164.993089 -129.496471 
L 164.993089 -126.062555 
L 164.993089 -122.62864 
L 164.993089 -119.194724 
L 164.993093 -115.760809 
L 164.993219 -112.326893 
L 164.994377 -108.892978 
L 164.997366 -105.459062 
L 164.999176 -102.025147 
L 164.99834 -98.591231 
L 164.997598 -95.157316 
L 164.99678 -91.7234 
L 164.994307 -88.289485 
L 164.993214 -84.855569 
L 164.993093 -81.421654 
L 164.993089 -77.987738 
L 164.993089 -74.553822 
L 164.993089 -71.119907 
L 164.993089 -67.685991 
L 164.993089 -64.252076 
L 164.993089 -60.81816 
L 164.993101 -57.384245 
L 164.99337 -53.950329 
L 164.995091 -50.516414 
L 164.998088 -47.082498 
L 164.99893 -43.648583 
L 164.996705 -40.214667 
L 164.993986 -36.780752 
L 164.993161 -33.346836 
L 164.993096 -29.912921 
L 164.993241 -26.479005 
L 164.994574 -23.045089 
L 164.998306 -19.611174 
L 165.001689 -16.177258 
L 165.001837 -12.743343 
L 165.003872 -9.309427 
L 165.01128 -5.875512 
L 165.008836 -2.441596 
L 165.003285 0.992319 
L 165.00384 4.426235 
L 165.006615 7.86015 
L 165.01268 11.294066 
L 165.024271 14.727981 
L 165.034462 18.161897 
L 165.04079 21.595812 
L 165.047128 25.029728 
L 165.062363 28.463644 
L 165.063708 31.897559 
L 165.062248 35.331475 
L 165.073649 38.76539 
L 165.092745 42.199306 
L 165.127011 45.633221 
L 165.179514 49.067137 
L 165.2454 52.501052 
L 165.296949 55.934968 
L 165.368752 59.368883 
L 165.510922 62.802799 
L 165.712494 66.236714 
L 165.899558 69.67063 
L 166.074992 73.104545 
L 166.330514 76.538461 
L 166.666531 79.972377 
L 167.028556 83.406292 
L 167.447418 86.840208 
L 167.997425 90.274123 
L 168.535377 93.708039 
L 169.012046 97.141954 
L 169.402798 100.57587 
L 169.822631 104.009785 
L 170.348532 107.443701 
L 170.924209 110.877616 
L 171.458972 114.311532 
L 172.086744 117.745447 
L 172.865046 121.179363 
L 173.713321 124.613278 
L 174.623786 128.047194 
L 175.437042 131.48111 
L 175.878484 134.915025 
L 174.617337 138.348941 
L 170.636202 141.782856 
L 166.77914 145.216772 
z
" clip-path="url(#pd8dce844a0)" style="fill: #4a4a4a; fill-opacity: 0.75; stroke: #000000; stroke-opacity: 0.75; stroke-width: 0.5"/>
   </g>
   <g id="matplotlib.axis_1">
    <g id="xtick_1">
     <g id="line2d_1"/>
     <g id="text_1">
      <!-- control -->
      <g transform="translate(44.906898 181.729383) rotate(-45) scale(0.06 -0.06)">
       <defs>
        <path id="DejaVuSans-63" d="M 3122 3366 
L 3122 2828 
Q 2878 2963 2633 3030 
Q 2388 3097 2138 3097 
Q 1578 3097 1268 2742 
Q 959 2388 959 1747 
Q 959 1106 1268 751 
Q 1578 397 2138 397 
Q 2388 397 2633 464 
Q 2878 531 3122 666 
L 3122 134 
Q 2881 22 2623 -34 
Q 2366 -91 2075 -91 
Q 1284 -91 818 406 
Q 353 903 353 1747 
Q 353 2603 823 3093 
Q 1294 3584 2113 3584 
Q 2378 3584 2631 3529 
Q 2884 3475 3122 3366 
z
" transform="scale(0.015625)"/>
        <path id="DejaVuSans-6f" d="M 1959 3097 
Q 1497 3097 1228 2736 
Q 959 2375 959 1747 
Q 959 1119 1226 758 
Q 1494 397 1959 397 
Q 2419 397 2687 759 
Q 2956 1122 2956 1747 
Q 2956 2369 2687 2733 
Q 2419 3097 1959 3097 
z
M 1959 3584 
Q 2709 3584 3137 3096 
Q 3566 2609 3566 1747 
Q 3566 888 3137 398 
Q 2709 -91 1959 -91 
Q 1206 -91 779 398 
Q 353 888 353 1747 
Q 353 2609 779 3096 
Q 1206 3584 1959 3584 
z
" transform="scale(0.015625)"/>
        <path id="DejaVuSans-6e" d="M 3513 2113 
L 3513 0 
L 2938 0 
L 2938 2094 
Q 2938 2591 2744 2837 
Q 2550 3084 2163 3084 
Q 1697 3084 1428 2787 
Q 1159 2491 1159 1978 
L 1159 0 
L 581 0 
L 581 3500 
L 1159 3500 
L 1159 2956 
Q 1366 3272 1645 3428 
Q 1925 3584 2291 3584 
Q 2894 3584 3203 3211 
Q 3513 2838 3513 2113 
z
" transform="scale(0.015625)"/>
        <path id="DejaVuSans-74" d="M 1172 4494 
L 1172 3500 
L 2356 3500 
L 2356 3053 
L 1172 3053 
L 1172 1153 
Q 1172 725 1289 603 
Q 1406 481 1766 481 
L 2356 481 
L 2356 0 
L 1766 0 
Q 1100 0 847 248 
Q 594 497 594 1153 
L 594 3053 
L 172 3053 
L 172 3500 
L 594 3500 
L 594 4494 
L 1172 4494 
z
" transform="scale(0.015625)"/>
        <path id="DejaVuSans-72" d="M 2631 2963 
Q 2534 3019 2420 3045 
Q 2306 3072 2169 3072 
Q 1681 3072 1420 2755 
Q 1159 2438 1159 1844 
L 1159 0 
L 581 0 
L 581 3500 
L 1159 3500 
L 1159 2956 
Q 1341 3275 1631 3429 
Q 1922 3584 2338 3584 
Q 2397 3584 2469 3576 
Q 2541 3569 2628 3553 
L 2631 2963 
z
" transform="scale(0.015625)"/>
        <path id="DejaVuSans-6c" d="M 603 4863 
L 1178 4863 
L 1178 0 
L 603 0 
L 603 4863 
z
" transform="scale(0.015625)"/>
       </defs>
       <use xlink:href="#DejaVuSans-63"/>
       <use xlink:href="#DejaVuSans-6f" transform="translate(54.980469 0)"/>
       <use xlink:href="#DejaVuSans-6e" transform="translate(116.162109 0)"/>
       <use xlink:href="#DejaVuSans-74" transform="translate(179.541016 0)"/>
       <use xlink:href="#DejaVuSans-72" transform="translate(218.75 0)"/>
       <use xlink:href="#DejaVuSans-6f" transform="translate(257.613281 0)"/>
       <use xlink:href="#DejaVuSans-6c" transform="translate(318.794922 0)"/>
      </g>
     </g>
    </g>
    <g id="xtick_2">
     <g id="line2d_2"/>
     <g id="text_2">
      <!-- cond01 -->
      <g transform="translate(74.380365 182.735022) rotate(-45) scale(0.06 -0.06)">
       <defs>
        <path id="DejaVuSans-64" d="M 2906 2969 
L 2906 4863 
L 3481 4863 
L 3481 0 
L 2906 0 
L 2906 525 
Q 2725 213 2448 61 
Q 2172 -91 1784 -91 
Q 1150 -91 751 415 
Q 353 922 353 1747 
Q 353 2572 751 3078 
Q 1150 3584 1784 3584 
Q 2172 3584 2448 3432 
Q 2725 3281 2906 2969 
z
M 947 1747 
Q 947 1113 1208 752 
Q 1469 391 1925 391 
Q 2381 391 2643 752 
Q 2906 1113 2906 1747 
Q 2906 2381 2643 2742 
Q 2381 3103 1925 3103 
Q 1469 3103 1208 2742 
Q 947 2381 947 1747 
z
" transform="scale(0.015625)"/>
        <path id="DejaVuSans-30" d="M 2034 4250 
Q 1547 4250 1301 3770 
Q 1056 3291 1056 2328 
Q 1056 1369 1301 889 
Q 1547 409 2034 409 
Q 2525 409 2770 889 
Q 3016 1369 3016 2328 
Q 3016 3291 2770 3770 
Q 2525 4250 2034 4250 
z
M 2034 4750 
Q 2819 4750 3233 4129 
Q 3647 3509 3647 2328 
Q 3647 1150 3233 529 
Q 2819 -91 2034 -91 
Q 1250 -91 836 529 
Q 422 1150 422 2328 
Q 422 3509 836 4129 
Q 1250 4750 2034 4750 
z
" transform="scale(0.015625)"/>
        <path id="DejaVuSans-31" d="M 794 531 
L 1825 531 
L 1825 4091 
L 703 3866 
L 703 4441 
L 1819 4666 
L 2450 4666 
L 2450 531 
L 3481 531 
L 3481 0 
L 794 0 
L 794 531 
z
" transform="scale(0.015625)"/>
       </defs>
       <use xlink:href="#DejaVuSans-63"/>
       <use xlink:href="#DejaVuSans-6f" transform="translate(54.980469 0)"/>
       <use xlink:href="#DejaVuSans-6e" transform="translate(116.162109 0)"/>
       <use xlink:href="#DejaVuSans-64" transform="translate(179.541016 0)"/>
       <use xlink:href="#DejaVuSans-30" transform="translate(243.017578 0)"/>
       <use xlink:href="#DejaVuSans-31" transform="translate(306.640625 0)"/>
      </g>
     </g>
    </g>
    <g id="xtick_3">
     <g id="line2d_3"/>
     <g id="text_3">
      <!-- cond02 -->
      <g transform="translate(117.921944 182.735022) rotate(-45) scale(0.06 -0.06)">
       <defs>
        <path id="DejaVuSans-32" d="M 1228 531 
L 3431 531 
L 3431 0 
L 469 0 
L 469 531 
Q 828 903 1448 1529 
Q 2069 2156 2228 2338 
Q 2531 2678 2651 2914 
Q 2772 3150 2772 3378 
Q 2772 3750 2511 3984 
Q 2250 4219 1831 4219 
Q 1534 4219 1204 4116 
Q 875 4013 500 3803 
L 500 4441 
Q 881 4594 1212 4672 
Q 1544 4750 1819 4750 
Q 2544 4750 2975 4387 
Q 3406 4025 3406 3419 
Q 3406 3131 3298 2873 
Q 3191 2616 2906 2266 
Q 2828 2175 2409 1742 
Q 1991 1309 1228 531 
z
" transform="scale(0.015625)"/>
       </defs>
       <use xlink:href="#DejaVuSans-63"/>
       <use xlink:href="#DejaVuSans-6f" transform="translate(54.980469 0)"/>
       <use xlink:href="#DejaVuSans-6e" transform="translate(116.162109 0)"/>
       <use xlink:href="#DejaVuSans-64" transform="translate(179.541016 0)"/>
       <use xlink:href="#DejaVuSans-30" transform="translate(243.017578 0)"/>
       <use xlink:href="#DejaVuSans-32" transform="translate(306.640625 0)"/>
      </g>
     </g>
    </g>
    <g id="xtick_4">
     <g id="line2d_4"/>
     <g id="text_4">
      <!-- cond03 -->
      <g transform="translate(148.401049 182.735022) rotate(-45) scale(0.06 -0.06)">
       <defs>
        <path id="DejaVuSans-33" d="M 2597 2516 
Q 3050 2419 3304 2112 
Q 3559 1806 3559 1356 
Q 3559 666 3084 287 
Q 2609 -91 1734 -91 
Q 1441 -91 1130 -33 
Q 819 25 488 141 
L 488 750 
Q 750 597 1062 519 
Q 1375 441 1716 441 
Q 2309 441 2620 675 
Q 2931 909 2931 1356 
Q 2931 1769 2642 2001 
Q 2353 2234 1838 2234 
L 1294 2234 
L 1294 2753 
L 1863 2753 
Q 2328 2753 2575 2939 
Q 2822 3125 2822 3475 
Q 2822 3834 2567 4026 
Q 2313 4219 1838 4219 
Q 1578 4219 1281 4162 
Q 984 4106 628 3988 
L 628 4550 
Q 988 4650 1302 4700 
Q 1616 4750 1894 4750 
Q 2613 4750 3031 4423 
Q 3450 4097 3450 3541 
Q 3450 3153 3228 2886 
Q 3006 2619 2597 2516 
z
" transform="scale(0.015625)"/>
       </defs>
       <use xlink:href="#DejaVuSans-63"/>
       <use xlink:href="#DejaVuSans-6f" transform="translate(54.980469 0)"/>
       <use xlink:href="#DejaVuSans-6e" transform="translate(116.162109 0)"/>
       <use xlink:href="#DejaVuSans-64" transform="translate(179.541016 0)"/>
       <use xlink:href="#DejaVuSans-30" transform="translate(243.017578 0)"/>
       <use xlink:href="#DejaVuSans-33" transform="translate(306.640625 0)"/>
      </g>
     </g>
    </g>
   </g>
   <g id="matplotlib.axis_2">
    <g id="ytick_1">
     <g id="line2d_5"/>
     <g id="text_5">
      <!-- 2000 -->
      <g transform="translate(26.024375 164.081106) scale(0.06 -0.06)">
       <use xlink:href="#DejaVuSans-32"/>
       <use xlink:href="#DejaVuSans-30" transform="translate(63.623047 0)"/>
       <use xlink:href="#DejaVuSans-30" transform="translate(127.246094 0)"/>
       <use xlink:href="#DejaVuSans-30" transform="translate(190.869141 0)"/>
      </g>
     </g>
    </g>
    <g id="ytick_2">
     <g id="line2d_6"/>
     <g id="text_6">
      <!-- 4000 -->
      <g transform="translate(26.024375 139.419689) scale(0.06 -0.06)">
       <defs>
        <path id="DejaVuSans-34" d="M 2419 4116 
L 825 1625 
L 2419 1625 
L 2419 4116 
z
M 2253 4666 
L 3047 4666 
L 3047 1625 
L 3713 1625 
L 3713 1100 
L 3047 1100 
L 3047 0 
L 2419 0 
L 2419 1100 
L 313 1100 
L 313 1709 
L 2253 4666 
z
" transform="scale(0.015625)"/>
       </defs>
       <use xlink:href="#DejaVuSans-34"/>
       <use xlink:href="#DejaVuSans-30" transform="translate(63.623047 0)"/>
       <use xlink:href="#DejaVuSans-30" transform="translate(127.246094 0)"/>
       <use xlink:href="#DejaVuSans-30" transform="translate(190.869141 0)"/>
      </g>
     </g>
    </g>
    <g id="ytick_3">
     <g id="line2d_7"/>
     <g id="text_7">
      <!-- 6000 -->
      <g transform="translate(26.024375 114.758271) scale(0.06 -0.06)">
       <defs>
        <path id="DejaVuSans-36" d="M 2113 2584 
Q 1688 2584 1439 2293 
Q 1191 2003 1191 1497 
Q 1191 994 1439 701 
Q 1688 409 2113 409 
Q 2538 409 2786 701 
Q 3034 994 3034 1497 
Q 3034 2003 2786 2293 
Q 2538 2584 2113 2584 
z
M 3366 4563 
L 3366 3988 
Q 3128 4100 2886 4159 
Q 2644 4219 2406 4219 
Q 1781 4219 1451 3797 
Q 1122 3375 1075 2522 
Q 1259 2794 1537 2939 
Q 1816 3084 2150 3084 
Q 2853 3084 3261 2657 
Q 3669 2231 3669 1497 
Q 3669 778 3244 343 
Q 2819 -91 2113 -91 
Q 1303 -91 875 529 
Q 447 1150 447 2328 
Q 447 3434 972 4092 
Q 1497 4750 2381 4750 
Q 2619 4750 2861 4703 
Q 3103 4656 3366 4563 
z
" transform="scale(0.015625)"/>
       </defs>
       <use xlink:href="#DejaVuSans-36"/>
       <use xlink:href="#DejaVuSans-30" transform="translate(63.623047 0)"/>
       <use xlink:href="#DejaVuSans-30" transform="translate(127.246094 0)"/>
       <use xlink:href="#DejaVuSans-30" transform="translate(190.869141 0)"/>
      </g>
     </g>
    </g>
    <g id="ytick_4">
     <g id="line2d_8"/>
     <g id="text_8">
      <!-- 8000 -->
      <g transform="translate(26.024375 90.096854) scale(0.06 -0.06)">
       <defs>
        <path id="DejaVuSans-38" d="M 2034 2216 
Q 1584 2216 1326 1975 
Q 1069 1734 1069 1313 
Q 1069 891 1326 650 
Q 1584 409 2034 409 
Q 2484 409 2743 651 
Q 3003 894 3003 1313 
Q 3003 1734 2745 1975 
Q 2488 2216 2034 2216 
z
M 1403 2484 
Q 997 2584 770 2862 
Q 544 3141 544 3541 
Q 544 4100 942 4425 
Q 1341 4750 2034 4750 
Q 2731 4750 3128 4425 
Q 3525 4100 3525 3541 
Q 3525 3141 3298 2862 
Q 3072 2584 2669 2484 
Q 3125 2378 3379 2068 
Q 3634 1759 3634 1313 
Q 3634 634 3220 271 
Q 2806 -91 2034 -91 
Q 1263 -91 848 271 
Q 434 634 434 1313 
Q 434 1759 690 2068 
Q 947 2378 1403 2484 
z
M 1172 3481 
Q 1172 3119 1398 2916 
Q 1625 2713 2034 2713 
Q 2441 2713 2670 2916 
Q 2900 3119 2900 3481 
Q 2900 3844 2670 4047 
Q 2441 4250 2034 4250 
Q 1625 4250 1398 4047 
Q 1172 3844 1172 3481 
z
" transform="scale(0.015625)"/>
       </defs>
       <use xlink:href="#DejaVuSans-38"/>
       <use xlink:href="#DejaVuSans-30" transform="translate(63.623047 0)"/>
       <use xlink:href="#DejaVuSans-30" transform="translate(127.246094 0)"/>
       <use xlink:href="#DejaVuSans-30" transform="translate(190.869141 0)"/>
      </g>
     </g>
    </g>
    <g id="ytick_5">
     <g id="line2d_9"/>
     <g id="text_9">
      <!-- 10000 -->
      <g transform="translate(22.206875 65.435437) scale(0.06 -0.06)">
       <use xlink:href="#DejaVuSans-31"/>
       <use xlink:href="#DejaVuSans-30" transform="translate(63.623047 0)"/>
       <use xlink:href="#DejaVuSans-30" transform="translate(127.246094 0)"/>
       <use xlink:href="#DejaVuSans-30" transform="translate(190.869141 0)"/>
       <use xlink:href="#DejaVuSans-30" transform="translate(254.492188 0)"/>
      </g>
     </g>
    </g>
    <g id="ytick_6">
     <g id="line2d_10"/>
     <g id="text_10">
      <!-- 12000 -->
      <g transform="translate(22.206875 40.774019) scale(0.06 -0.06)">
       <use xlink:href="#DejaVuSans-31"/>
       <use xlink:href="#DejaVuSans-32" transform="translate(63.623047 0)"/>
       <use xlink:href="#DejaVuSans-30" transform="translate(127.246094 0)"/>
       <use xlink:href="#DejaVuSans-30" transform="translate(190.869141 0)"/>
       <use xlink:href="#DejaVuSans-30" transform="translate(254.492188 0)"/>
      </g>
     </g>
    </g>
    <g id="text_11">
     <!-- Intensity Mean P21 Nucleus -->
     <g transform="translate(18.959062 141.804906) rotate(-90) scale(0.06 -0.06)">
      <defs>
       <path id="DejaVuSans-49" d="M 628 4666 
L 1259 4666 
L 1259 0 
L 628 0 
L 628 4666 
z
" transform="scale(0.015625)"/>
       <path id="DejaVuSans-65" d="M 3597 1894 
L 3597 1613 
L 953 1613 
Q 991 1019 1311 708 
Q 1631 397 2203 397 
Q 2534 397 2845 478 
Q 3156 559 3463 722 
L 3463 178 
Q 3153 47 2828 -22 
Q 2503 -91 2169 -91 
Q 1331 -91 842 396 
Q 353 884 353 1716 
Q 353 2575 817 3079 
Q 1281 3584 2069 3584 
Q 2775 3584 3186 3129 
Q 3597 2675 3597 1894 
z
M 3022 2063 
Q 3016 2534 2758 2815 
Q 2500 3097 2075 3097 
Q 1594 3097 1305 2825 
Q 1016 2553 972 2059 
L 3022 2063 
z
" transform="scale(0.015625)"/>
       <path id="DejaVuSans-73" d="M 2834 3397 
L 2834 2853 
Q 2591 2978 2328 3040 
Q 2066 3103 1784 3103 
Q 1356 3103 1142 2972 
Q 928 2841 928 2578 
Q 928 2378 1081 2264 
Q 1234 2150 1697 2047 
L 1894 2003 
Q 2506 1872 2764 1633 
Q 3022 1394 3022 966 
Q 3022 478 2636 193 
Q 2250 -91 1575 -91 
Q 1294 -91 989 -36 
Q 684 19 347 128 
L 347 722 
Q 666 556 975 473 
Q 1284 391 1588 391 
Q 1994 391 2212 530 
Q 2431 669 2431 922 
Q 2431 1156 2273 1281 
Q 2116 1406 1581 1522 
L 1381 1569 
Q 847 1681 609 1914 
Q 372 2147 372 2553 
Q 372 3047 722 3315 
Q 1072 3584 1716 3584 
Q 2034 3584 2315 3537 
Q 2597 3491 2834 3397 
z
" transform="scale(0.015625)"/>
       <path id="DejaVuSans-69" d="M 603 3500 
L 1178 3500 
L 1178 0 
L 603 0 
L 603 3500 
z
M 603 4863 
L 1178 4863 
L 1178 4134 
L 603 4134 
L 603 4863 
z
" transform="scale(0.015625)"/>
       <path id="DejaVuSans-79" d="M 2059 -325 
Q 1816 -950 1584 -1140 
Q 1353 -1331 966 -1331 
L 506 -1331 
L 506 -850 
L 844 -850 
Q 1081 -850 1212 -737 
Q 1344 -625 1503 -206 
L 1606 56 
L 191 3500 
L 800 3500 
L 1894 763 
L 2988 3500 
L 3597 3500 
L 2059 -325 
z
" transform="scale(0.015625)"/>
       <path id="DejaVuSans-20" transform="scale(0.015625)"/>
       <path id="DejaVuSans-4d" d="M 628 4666 
L 1569 4666 
L 2759 1491 
L 3956 4666 
L 4897 4666 
L 4897 0 
L 4281 0 
L 4281 4097 
L 3078 897 
L 2444 897 
L 1241 4097 
L 1241 0 
L 628 0 
L 628 4666 
z
" transform="scale(0.015625)"/>
       <path id="DejaVuSans-61" d="M 2194 1759 
Q 1497 1759 1228 1600 
Q 959 1441 959 1056 
Q 959 750 1161 570 
Q 1363 391 1709 391 
Q 2188 391 2477 730 
Q 2766 1069 2766 1631 
L 2766 1759 
L 2194 1759 
z
M 3341 1997 
L 3341 0 
L 2766 0 
L 2766 531 
Q 2569 213 2275 61 
Q 1981 -91 1556 -91 
Q 1019 -91 701 211 
Q 384 513 384 1019 
Q 384 1609 779 1909 
Q 1175 2209 1959 2209 
L 2766 2209 
L 2766 2266 
Q 2766 2663 2505 2880 
Q 2244 3097 1772 3097 
Q 1472 3097 1187 3025 
Q 903 2953 641 2809 
L 641 3341 
Q 956 3463 1253 3523 
Q 1550 3584 1831 3584 
Q 2591 3584 2966 3190 
Q 3341 2797 3341 1997 
z
" transform="scale(0.015625)"/>
       <path id="DejaVuSans-50" d="M 1259 4147 
L 1259 2394 
L 2053 2394 
Q 2494 2394 2734 2622 
Q 2975 2850 2975 3272 
Q 2975 3691 2734 3919 
Q 2494 4147 2053 4147 
L 1259 4147 
z
M 628 4666 
L 2053 4666 
Q 2838 4666 3239 4311 
Q 3641 3956 3641 3272 
Q 3641 2581 3239 2228 
Q 2838 1875 2053 1875 
L 1259 1875 
L 1259 0 
L 628 0 
L 628 4666 
z
" transform="scale(0.015625)"/>
       <path id="DejaVuSans-4e" d="M 628 4666 
L 1478 4666 
L 3547 763 
L 3547 4666 
L 4159 4666 
L 4159 0 
L 3309 0 
L 1241 3903 
L 1241 0 
L 628 0 
L 628 4666 
z
" transform="scale(0.015625)"/>
       <path id="DejaVuSans-75" d="M 544 1381 
L 544 3500 
L 1119 3500 
L 1119 1403 
Q 1119 906 1312 657 
Q 1506 409 1894 409 
Q 2359 409 2629 706 
Q 2900 1003 2900 1516 
L 2900 3500 
L 3475 3500 
L 3475 0 
L 2900 0 
L 2900 538 
Q 2691 219 2414 64 
Q 2138 -91 1772 -91 
Q 1169 -91 856 284 
Q 544 659 544 1381 
z
M 1991 3584 
L 1991 3584 
z
" transform="scale(0.015625)"/>
      </defs>
      <use xlink:href="#DejaVuSans-49"/>
      <use xlink:href="#DejaVuSans-6e" transform="translate(29.492188 0)"/>
      <use xlink:href="#DejaVuSans-74" transform="translate(92.871094 0)"/>
      <use xlink:href="#DejaVuSans-65" transform="translate(132.080078 0)"/>
      <use xlink:href="#DejaVuSans-6e" transform="translate(193.603516 0)"/>
      <use xlink:href="#DejaVuSans-73" transform="translate(256.982422 0)"/>
      <use xlink:href="#DejaVuSans-69" transform="translate(309.082031 0)"/>
      <use xlink:href="#DejaVuSans-74" transform="translate(336.865234 0)"/>
      <use xlink:href="#DejaVuSans-79" transform="translate(376.074219 0)"/>
      <use xlink:href="#DejaVuSans-20" transform="translate(435.253906 0)"/>
      <use xlink:href="#DejaVuSans-4d" transform="translate(467.041016 0)"/>
      <use xlink:href="#DejaVuSans-65" transform="translate(553.320312 0)"/>
      <use xlink:href="#DejaVuSans-61" transform="translate(614.84375 0)"/>
      <use xlink:href="#DejaVuSans-6e" transform="translate(676.123047 0)"/>
      <use xlink:href="#DejaVuSans-20" transform="translate(739.501953 0)"/>
      <use xlink:href="#DejaVuSans-50" transform="translate(771.289062 0)"/>
      <use xlink:href="#DejaVuSans-32" transform="translate(831.591797 0)"/>
      <use xlink:href="#DejaVuSans-31" transform="translate(895.214844 0)"/>
      <use xlink:href="#DejaVuSans-20" transform="translate(958.837891 0)"/>
      <use xlink:href="#DejaVuSans-4e" transform="translate(990.625 0)"/>
      <use xlink:href="#DejaVuSans-75" transform="translate(1065.429688 0)"/>
      <use xlink:href="#DejaVuSans-63" transform="translate(1128.808594 0)"/>
      <use xlink:href="#DejaVuSans-6c" transform="translate(1183.789062 0)"/>
      <use xlink:href="#DejaVuSans-65" transform="translate(1211.572266 0)"/>
      <use xlink:href="#DejaVuSans-75" transform="translate(1273.095703 0)"/>
      <use xlink:href="#DejaVuSans-73" transform="translate(1336.474609 0)"/>
     </g>
    </g>
   </g>
   <g id="LineCollection_1">
    <path clip-path="url(#pd8dce844a0)" style="fill: none; stroke: #000000; stroke-width: 0.5"/>
   </g>
   <g id="LineCollection_2">
    <path d="M 55.050601 145.253764 
L 65.935996 145.253764 
" clip-path="url(#pd8dce844a0)" style="fill: none; stroke: #000000; stroke-width: 0.5"/>
   </g>
   <g id="LineCollection_3">
    <path d="M 60.493299 145.253764 
L 60.493299 -1 
" clip-path="url(#pd8dce844a0)" style="fill: none; stroke: #000000; stroke-width: 0.5"/>
   </g>
   <g id="LineCollection_4">
    <path d="M 55.050601 137.448425 
L 65.935996 137.448425 
" clip-path="url(#pd8dce844a0)" style="fill: none; stroke: #000000; stroke-width: 1.5"/>
   </g>
   <g id="LineCollection_5">
    <path clip-path="url(#pd8dce844a0)" style="fill: none; stroke: #000000; stroke-width: 0.5"/>
   </g>
   <g id="LineCollection_6">
    <path d="M 85.529707 144.390614 
L 96.415102 144.390614 
" clip-path="url(#pd8dce844a0)" style="fill: none; stroke: #000000; stroke-width: 0.5"/>
   </g>
   <g id="LineCollection_7">
    <path d="M 90.972404 144.390614 
L 90.972404 -1 
" clip-path="url(#pd8dce844a0)" style="fill: none; stroke: #000000; stroke-width: 0.5"/>
   </g>
   <g id="LineCollection_8">
    <path d="M 85.529707 129.606094 
L 96.415102 129.606094 
" clip-path="url(#pd8dce844a0)" style="fill: none; stroke: #000000; stroke-width: 1.5"/>
   </g>
   <g id="LineCollection_9">
    <path clip-path="url(#pd8dce844a0)" style="fill: none; stroke: #000000; stroke-width: 0.5"/>
   </g>
   <g id="LineCollection_10">
    <path d="M 129.071286 145.530298 
L 139.956681 145.530298 
" clip-path="url(#pd8dce844a0)" style="fill: none; stroke: #000000; stroke-width: 0.5"/>
   </g>
   <g id="LineCollection_11">
    <path d="M 134.513984 145.530298 
L 134.513984 -1 
" clip-path="url(#pd8dce844a0)" style="fill: none; stroke: #000000; stroke-width: 0.5"/>
   </g>
   <g id="LineCollection_12">
    <path d="M 129.071286 135.389197 
L 139.956681 135.389197 
" clip-path="url(#pd8dce844a0)" style="fill: none; stroke: #000000; stroke-width: 1.5"/>
   </g>
   <g id="LineCollection_13">
    <path clip-path="url(#pd8dce844a0)" style="fill: none; stroke: #000000; stroke-width: 0.5"/>
   </g>
   <g id="LineCollection_14">
    <path d="M 159.550392 145.216772 
L 170.435786 145.216772 
" clip-path="url(#pd8dce844a0)" style="fill: none; stroke: #000000; stroke-width: 0.5"/>
   </g>
   <g id="LineCollection_15">
    <path d="M 164.993089 145.216772 
L 164.993089 -1 
" clip-path="url(#pd8dce844a0)" style="fill: none; stroke: #000000; stroke-width: 0.5"/>
   </g>
   <g id="LineCollection_16">
    <path d="M 159.550392 121.196372 
L 170.435786 121.196372 
" clip-path="url(#pd8dce844a0)" style="fill: none; stroke: #000000; stroke-width: 1.5"/>
   </g>
   <g id="patch_3">
    <path d="M 43.294375 161.801575 
L 43.294375 38.494488 
" style="fill: none; stroke: #000000; stroke-width: 0.5; stroke-linejoin: miter; stroke-linecap: square"/>
   </g>
   <g id="patch_4">
    <path d="M 43.294375 161.801575 
L 182.192013 161.801575 
" style="fill: none; stroke: #000000; stroke-width: 0.5; stroke-linejoin: miter; stroke-linecap: square"/>
   </g>
   <g id="PathCollection_1">
    <defs>
     <path id="mc6a6a09f1e" d="M -2.5 2.5 
L 2.5 2.5 
L 2.5 -2.5 
L -2.5 -2.5 
z
" style="stroke: #000000; stroke-opacity: 0.8; stroke-width: 0.5"/>
    </defs>
    <g clip-path="url(#pd8dce844a0)">
     <use xlink:href="#mc6a6a09f1e" x="59.524003" y="136.696252" style="fill: #d3d3d3; fill-opacity: 0.8; stroke: #000000; stroke-opacity: 0.8; stroke-width: 0.5"/>
    </g>
   </g>
   <g id="PathCollection_2">
    <g clip-path="url(#pd8dce844a0)">
     <use xlink:href="#mc6a6a09f1e" x="90.631314" y="129.828047" style="fill: #d3d3d3; fill-opacity: 0.8; stroke: #000000; stroke-opacity: 0.8; stroke-width: 0.5"/>
    </g>
   </g>
   <g id="PathCollection_3">
    <g clip-path="url(#pd8dce844a0)">
     <use xlink:href="#mc6a6a09f1e" x="132.128465" y="134.945291" style="fill: #d3d3d3; fill-opacity: 0.8; stroke: #000000; stroke-opacity: 0.8; stroke-width: 0.5"/>
    </g>
   </g>
   <g id="PathCollection_4">
    <g clip-path="url(#pd8dce844a0)">
     <use xlink:href="#mc6a6a09f1e" x="162.39255" y="124.057276" style="fill: #d3d3d3; fill-opacity: 0.8; stroke: #000000; stroke-opacity: 0.8; stroke-width: 0.5"/>
    </g>
   </g>
   <g id="PathCollection_5">
    <defs>
     <path id="m01fed3ae05" d="M 0 2.5 
C 0.663008 2.5 1.29895 2.236584 1.767767 1.767767 
C 2.236584 1.29895 2.5 0.663008 2.5 0 
C 2.5 -0.663008 2.236584 -1.29895 1.767767 -1.767767 
C 1.29895 -2.236584 0.663008 -2.5 0 -2.5 
C -0.663008 -2.5 -1.29895 -2.236584 -1.767767 -1.767767 
C -2.236584 -1.29895 -2.5 -0.663008 -2.5 0 
C -2.5 0.663008 -2.236584 1.29895 -1.767767 1.767767 
C -1.29895 2.236584 -0.663008 2.5 0 2.5 
z
" style="stroke: #000000; stroke-opacity: 0.8; stroke-width: 0.5"/>
    </defs>
    <g clip-path="url(#pd8dce844a0)">
     <use xlink:href="#m01fed3ae05" x="58.180928" y="138.508866" style="fill: #d3d3d3; fill-opacity: 0.8; stroke: #000000; stroke-opacity: 0.8; stroke-width: 0.5"/>
    </g>
   </g>
   <g id="PathCollection_6">
    <g clip-path="url(#pd8dce844a0)">
     <use xlink:href="#m01fed3ae05" x="88.733907" y="129.402638" style="fill: #d3d3d3; fill-opacity: 0.8; stroke: #000000; stroke-opacity: 0.8; stroke-width: 0.5"/>
    </g>
   </g>
   <g id="PathCollection_7">
    <g clip-path="url(#pd8dce844a0)">
     <use xlink:href="#m01fed3ae05" x="133.890298" y="136.116709" style="fill: #d3d3d3; fill-opacity: 0.8; stroke: #000000; stroke-opacity: 0.8; stroke-width: 0.5"/>
    </g>
   </g>
   <g id="PathCollection_8">
    <g clip-path="url(#pd8dce844a0)">
     <use xlink:href="#m01fed3ae05" x="159.293291" y="116.325921" style="fill: #d3d3d3; fill-opacity: 0.8; stroke: #000000; stroke-opacity: 0.8; stroke-width: 0.5"/>
    </g>
   </g>
   <g id="PathCollection_9">
    <defs>
     <path id="m58b1afb2b3" d="M 0 -2.5 
L -2.5 2.5 
L 2.5 2.5 
z
" style="stroke: #000000; stroke-opacity: 0.8; stroke-width: 0.5"/>
    </defs>
    <g clip-path="url(#pd8dce844a0)">
     <use xlink:href="#m58b1afb2b3" x="58.716674" y="137.091017" style="fill: #d3d3d3; fill-opacity: 0.8; stroke: #000000; stroke-opacity: 0.8; stroke-width: 0.5"/>
    </g>
   </g>
   <g id="PathCollection_10">
    <g clip-path="url(#pd8dce844a0)">
     <use xlink:href="#m58b1afb2b3" x="90.284032" y="127.724034" style="fill: #d3d3d3; fill-opacity: 0.8; stroke: #000000; stroke-opacity: 0.8; stroke-width: 0.5"/>
    </g>
   </g>
   <g id="PathCollection_11">
    <g clip-path="url(#pd8dce844a0)">
     <use xlink:href="#m58b1afb2b3" x="134.896342" y="133.926035" style="fill: #d3d3d3; fill-opacity: 0.8; stroke: #000000; stroke-opacity: 0.8; stroke-width: 0.5"/>
    </g>
   </g>
   <g id="PathCollection_12">
    <g clip-path="url(#pd8dce844a0)">
     <use xlink:href="#m58b1afb2b3" x="160.182388" y="123.643885" style="fill: #d3d3d3; fill-opacity: 0.8; stroke: #000000; stroke-opacity: 0.8; stroke-width: 0.5"/>
    </g>
   </g>
   <g id="text_12">
    <!-- *** -->
    <g transform="translate(86.472404 37.246676) scale(0.06 -0.06)">
     <defs>
      <path id="DejaVuSans-2a" d="M 3009 3897 
L 1888 3291 
L 3009 2681 
L 2828 2375 
L 1778 3009 
L 1778 1831 
L 1422 1831 
L 1422 3009 
L 372 2375 
L 191 2681 
L 1313 3291 
L 191 3897 
L 372 4206 
L 1422 3572 
L 1422 4750 
L 1778 4750 
L 1778 3572 
L 2828 4206 
L 3009 3897 
z
" transform="scale(0.015625)"/>
     </defs>
     <use xlink:href="#DejaVuSans-2a"/>
     <use xlink:href="#DejaVuSans-2a" transform="translate(50 0)"/>
     <use xlink:href="#DejaVuSans-2a" transform="translate(100 0)"/>
    </g>
   </g>
   <g id="text_13">
    <!-- ** -->
    <g transform="translate(161.993089 37.246676) scale(0.06 -0.06)">
     <use xlink:href="#DejaVuSans-2a"/>
     <use xlink:href="#DejaVuSans-2a" transform="translate(50 0)"/>
    </g>
   </g>
   <g id="legend_1">
    <g id="patch_5">
     <path d="M 193.336895 74.021988 
L 227.806895 74.021988 
Q 229.006895 74.021988 229.006895 72.821988 
L 229.006895 42.694488 
Q 229.006895 41.494488 227.806895 41.494488 
L 193.336895 41.494488 
Q 192.136895 41.494488 192.136895 42.694488 
L 192.136895 72.821988 
Q 192.136895 74.021988 193.336895 74.021988 
z
" style="fill: #ffffff; stroke: #cccccc; stroke-linejoin: miter"/>
    </g>
    <g id="text_14">
     <!-- Plate ID -->
     <g transform="translate(198.920645 48.453551) scale(0.06 -0.06)">
      <defs>
       <path id="DejaVuSans-44" d="M 1259 4147 
L 1259 519 
L 2022 519 
Q 2988 519 3436 956 
Q 3884 1394 3884 2338 
Q 3884 3275 3436 3711 
Q 2988 4147 2022 4147 
L 1259 4147 
z
M 628 4666 
L 1925 4666 
Q 3281 4666 3915 4102 
Q 4550 3538 4550 2338 
Q 4550 1131 3912 565 
Q 3275 0 1925 0 
L 628 0 
L 628 4666 
z
" transform="scale(0.015625)"/>
      </defs>
      <use xlink:href="#DejaVuSans-50"/>
      <use xlink:href="#DejaVuSans-6c" transform="translate(60.302734 0)"/>
      <use xlink:href="#DejaVuSans-61" transform="translate(88.085938 0)"/>
      <use xlink:href="#DejaVuSans-74" transform="translate(149.365234 0)"/>
      <use xlink:href="#DejaVuSans-65" transform="translate(188.574219 0)"/>
      <use xlink:href="#DejaVuSans-20" transform="translate(250.097656 0)"/>
      <use xlink:href="#DejaVuSans-49" transform="translate(281.884766 0)"/>
      <use xlink:href="#DejaVuSans-44" transform="translate(311.376953 0)"/>
     </g>
    </g>
    <g id="line2d_11">
     <defs>
      <path id="m0bf6de4939" d="M -3 3 
L 3 3 
L 3 -3 
L -3 -3 
z
" style="stroke: #000000; stroke-width: 0.5; stroke-linejoin: miter"/>
     </defs>
     <g>
      <use xlink:href="#m0bf6de4939" x="200.536895" y="53.660426" style="fill: #d3d3d3; stroke: #000000; stroke-width: 0.5; stroke-linejoin: miter"/>
     </g>
    </g>
    <g id="text_15">
     <!-- 2301 -->
     <g transform="translate(211.336895 55.760426) scale(0.06 -0.06)">
      <use xlink:href="#DejaVuSans-32"/>
      <use xlink:href="#DejaVuSans-33" transform="translate(63.623047 0)"/>
      <use xlink:href="#DejaVuSans-30" transform="translate(127.246094 0)"/>
      <use xlink:href="#DejaVuSans-31" transform="translate(190.869141 0)"/>
     </g>
    </g>
    <g id="line2d_12">
     <defs>
      <path id="me505a16003" d="M 0 3 
C 0.795609 3 1.55874 2.683901 2.12132 2.12132 
C 2.683901 1.55874 3 0.795609 3 0 
C 3 -0.795609 2.683901 -1.55874 2.12132 -2.12132 
C 1.55874 -2.683901 0.795609 -3 0 -3 
C -0.795609 -3 -1.55874 -2.683901 -2.12132 -2.12132 
C -2.683901 -1.55874 -3 -0.795609 -3 0 
C -3 0.795609 -2.683901 1.55874 -2.12132 2.12132 
C -1.55874 2.683901 -0.795609 3 0 3 
z
" style="stroke: #000000; stroke-width: 0.5"/>
     </defs>
     <g>
      <use xlink:href="#me505a16003" x="200.536895" y="60.967301" style="fill: #d3d3d3; stroke: #000000; stroke-width: 0.5"/>
     </g>
    </g>
    <g id="text_16">
     <!-- 2361 -->
     <g transform="translate(211.336895 63.067301) scale(0.06 -0.06)">
      <use xlink:href="#DejaVuSans-32"/>
      <use xlink:href="#DejaVuSans-33" transform="translate(63.623047 0)"/>
      <use xlink:href="#DejaVuSans-36" transform="translate(127.246094 0)"/>
      <use xlink:href="#DejaVuSans-31" transform="translate(190.869141 0)"/>
     </g>
    </g>
    <g id="line2d_13">
     <defs>
      <path id="ma45bc8b94f" d="M 0 -3 
L -3 3 
L 3 3 
z
" style="stroke: #000000; stroke-width: 0.5; stroke-linejoin: miter"/>
     </defs>
     <g>
      <use xlink:href="#ma45bc8b94f" x="200.536895" y="68.274176" style="fill: #d3d3d3; stroke: #000000; stroke-width: 0.5; stroke-linejoin: miter"/>
     </g>
    </g>
    <g id="text_17">
     <!-- 2362 -->
     <g transform="translate(211.336895 70.374176) scale(0.06 -0.06)">
      <use xlink:href="#DejaVuSans-32"/>
      <use xlink:href="#DejaVuSans-33" transform="translate(63.623047 0)"/>
      <use xlink:href="#DejaVuSans-36" transform="translate(127.246094 0)"/>
      <use xlink:href="#DejaVuSans-32" transform="translate(190.869141 0)"/>
     </g>
    </g>
   </g>
  </g>
  <g id="text_18">
   <!-- feature plot no scatter -->
   <g transform="translate(41.877052 19.718906) scale(0.07 -0.07)">
    <defs>
     <path id="DejaVuSans-Bold-66" d="M 2841 4863 
L 2841 4128 
L 2222 4128 
Q 1984 4128 1890 4042 
Q 1797 3956 1797 3744 
L 1797 3500 
L 2753 3500 
L 2753 2700 
L 1797 2700 
L 1797 0 
L 678 0 
L 678 2700 
L 122 2700 
L 122 3500 
L 678 3500 
L 678 3744 
Q 678 4316 997 4589 
Q 1316 4863 1984 4863 
L 2841 4863 
z
" transform="scale(0.015625)"/>
     <path id="DejaVuSans-Bold-65" d="M 4031 1759 
L 4031 1441 
L 1416 1441 
Q 1456 1047 1700 850 
Q 1944 653 2381 653 
Q 2734 653 3104 758 
Q 3475 863 3866 1075 
L 3866 213 
Q 3469 63 3072 -14 
Q 2675 -91 2278 -91 
Q 1328 -91 801 392 
Q 275 875 275 1747 
Q 275 2603 792 3093 
Q 1309 3584 2216 3584 
Q 3041 3584 3536 3087 
Q 4031 2591 4031 1759 
z
M 2881 2131 
Q 2881 2450 2695 2645 
Q 2509 2841 2209 2841 
Q 1884 2841 1681 2658 
Q 1478 2475 1428 2131 
L 2881 2131 
z
" transform="scale(0.015625)"/>
     <path id="DejaVuSans-Bold-61" d="M 2106 1575 
Q 1756 1575 1579 1456 
Q 1403 1338 1403 1106 
Q 1403 894 1545 773 
Q 1688 653 1941 653 
Q 2256 653 2472 879 
Q 2688 1106 2688 1447 
L 2688 1575 
L 2106 1575 
z
M 3816 1997 
L 3816 0 
L 2688 0 
L 2688 519 
Q 2463 200 2181 54 
Q 1900 -91 1497 -91 
Q 953 -91 614 226 
Q 275 544 275 1050 
Q 275 1666 698 1953 
Q 1122 2241 2028 2241 
L 2688 2241 
L 2688 2328 
Q 2688 2594 2478 2717 
Q 2269 2841 1825 2841 
Q 1466 2841 1156 2769 
Q 847 2697 581 2553 
L 581 3406 
Q 941 3494 1303 3539 
Q 1666 3584 2028 3584 
Q 2975 3584 3395 3211 
Q 3816 2838 3816 1997 
z
" transform="scale(0.015625)"/>
     <path id="DejaVuSans-Bold-74" d="M 1759 4494 
L 1759 3500 
L 2913 3500 
L 2913 2700 
L 1759 2700 
L 1759 1216 
Q 1759 972 1856 886 
Q 1953 800 2241 800 
L 2816 800 
L 2816 0 
L 1856 0 
Q 1194 0 917 276 
Q 641 553 641 1216 
L 641 2700 
L 84 2700 
L 84 3500 
L 641 3500 
L 641 4494 
L 1759 4494 
z
" transform="scale(0.015625)"/>
     <path id="DejaVuSans-Bold-75" d="M 500 1363 
L 500 3500 
L 1625 3500 
L 1625 3150 
Q 1625 2866 1622 2436 
Q 1619 2006 1619 1863 
Q 1619 1441 1641 1255 
Q 1663 1069 1716 984 
Q 1784 875 1895 815 
Q 2006 756 2150 756 
Q 2500 756 2700 1025 
Q 2900 1294 2900 1772 
L 2900 3500 
L 4019 3500 
L 4019 0 
L 2900 0 
L 2900 506 
Q 2647 200 2364 54 
Q 2081 -91 1741 -91 
Q 1134 -91 817 281 
Q 500 653 500 1363 
z
" transform="scale(0.015625)"/>
     <path id="DejaVuSans-Bold-72" d="M 3138 2547 
Q 2991 2616 2845 2648 
Q 2700 2681 2553 2681 
Q 2122 2681 1889 2404 
Q 1656 2128 1656 1613 
L 1656 0 
L 538 0 
L 538 3500 
L 1656 3500 
L 1656 2925 
Q 1872 3269 2151 3426 
Q 2431 3584 2822 3584 
Q 2878 3584 2943 3579 
Q 3009 3575 3134 3559 
L 3138 2547 
z
" transform="scale(0.015625)"/>
     <path id="DejaVuSans-Bold-20" transform="scale(0.015625)"/>
     <path id="DejaVuSans-Bold-70" d="M 1656 506 
L 1656 -1331 
L 538 -1331 
L 538 3500 
L 1656 3500 
L 1656 2988 
Q 1888 3294 2169 3439 
Q 2450 3584 2816 3584 
Q 3463 3584 3878 3070 
Q 4294 2556 4294 1747 
Q 4294 938 3878 423 
Q 3463 -91 2816 -91 
Q 2450 -91 2169 54 
Q 1888 200 1656 506 
z
M 2400 2772 
Q 2041 2772 1848 2508 
Q 1656 2244 1656 1747 
Q 1656 1250 1848 986 
Q 2041 722 2400 722 
Q 2759 722 2948 984 
Q 3138 1247 3138 1747 
Q 3138 2247 2948 2509 
Q 2759 2772 2400 2772 
z
" transform="scale(0.015625)"/>
     <path id="DejaVuSans-Bold-6c" d="M 538 4863 
L 1656 4863 
L 1656 0 
L 538 0 
L 538 4863 
z
" transform="scale(0.015625)"/>
     <path id="DejaVuSans-Bold-6f" d="M 2203 2784 
Q 1831 2784 1636 2517 
Q 1441 2250 1441 1747 
Q 1441 1244 1636 976 
Q 1831 709 2203 709 
Q 2569 709 2762 976 
Q 2956 1244 2956 1747 
Q 2956 2250 2762 2517 
Q 2569 2784 2203 2784 
z
M 2203 3584 
Q 3106 3584 3614 3096 
Q 4122 2609 4122 1747 
Q 4122 884 3614 396 
Q 3106 -91 2203 -91 
Q 1297 -91 786 396 
Q 275 884 275 1747 
Q 275 2609 786 3096 
Q 1297 3584 2203 3584 
z
" transform="scale(0.015625)"/>
     <path id="DejaVuSans-Bold-6e" d="M 4056 2131 
L 4056 0 
L 2931 0 
L 2931 347 
L 2931 1631 
Q 2931 2084 2911 2256 
Q 2891 2428 2841 2509 
Q 2775 2619 2662 2680 
Q 2550 2741 2406 2741 
Q 2056 2741 1856 2470 
Q 1656 2200 1656 1722 
L 1656 0 
L 538 0 
L 538 3500 
L 1656 3500 
L 1656 2988 
Q 1909 3294 2193 3439 
Q 2478 3584 2822 3584 
Q 3428 3584 3742 3212 
Q 4056 2841 4056 2131 
z
" transform="scale(0.015625)"/>
     <path id="DejaVuSans-Bold-73" d="M 3272 3391 
L 3272 2541 
Q 2913 2691 2578 2766 
Q 2244 2841 1947 2841 
Q 1628 2841 1473 2761 
Q 1319 2681 1319 2516 
Q 1319 2381 1436 2309 
Q 1553 2238 1856 2203 
L 2053 2175 
Q 2913 2066 3209 1816 
Q 3506 1566 3506 1031 
Q 3506 472 3093 190 
Q 2681 -91 1863 -91 
Q 1516 -91 1145 -36 
Q 775 19 384 128 
L 384 978 
Q 719 816 1070 734 
Q 1422 653 1784 653 
Q 2113 653 2278 743 
Q 2444 834 2444 1013 
Q 2444 1163 2330 1236 
Q 2216 1309 1875 1350 
L 1678 1375 
Q 931 1469 631 1722 
Q 331 1975 331 2491 
Q 331 3047 712 3315 
Q 1094 3584 1881 3584 
Q 2191 3584 2531 3537 
Q 2872 3491 3272 3391 
z
" transform="scale(0.015625)"/>
     <path id="DejaVuSans-Bold-63" d="M 3366 3391 
L 3366 2478 
Q 3138 2634 2908 2709 
Q 2678 2784 2431 2784 
Q 1963 2784 1702 2511 
Q 1441 2238 1441 1747 
Q 1441 1256 1702 982 
Q 1963 709 2431 709 
Q 2694 709 2930 787 
Q 3166 866 3366 1019 
L 3366 103 
Q 3103 6 2833 -42 
Q 2563 -91 2291 -91 
Q 1344 -91 809 395 
Q 275 881 275 1747 
Q 275 2613 809 3098 
Q 1344 3584 2291 3584 
Q 2566 3584 2833 3536 
Q 3100 3488 3366 3391 
z
" transform="scale(0.015625)"/>
    </defs>
    <use xlink:href="#DejaVuSans-Bold-66"/>
    <use xlink:href="#DejaVuSans-Bold-65" transform="translate(43.505859 0)"/>
    <use xlink:href="#DejaVuSans-Bold-61" transform="translate(111.328125 0)"/>
    <use xlink:href="#DejaVuSans-Bold-74" transform="translate(178.808594 0)"/>
    <use xlink:href="#DejaVuSans-Bold-75" transform="translate(226.611328 0)"/>
    <use xlink:href="#DejaVuSans-Bold-72" transform="translate(297.802734 0)"/>
    <use xlink:href="#DejaVuSans-Bold-65" transform="translate(347.119141 0)"/>
    <use xlink:href="#DejaVuSans-Bold-20" transform="translate(414.941406 0)"/>
    <use xlink:href="#DejaVuSans-Bold-70" transform="translate(449.755859 0)"/>
    <use xlink:href="#DejaVuSans-Bold-6c" transform="translate(521.337891 0)"/>
    <use xlink:href="#DejaVuSans-Bold-6f" transform="translate(555.615234 0)"/>
    <use xlink:href="#DejaVuSans-Bold-74" transform="translate(624.316406 0)"/>
    <use xlink:href="#DejaVuSans-Bold-20" transform="translate(672.119141 0)"/>
    <use xlink:href="#DejaVuSans-Bold-6e" transform="translate(706.933594 0)"/>
    <use xlink:href="#DejaVuSans-Bold-6f" transform="translate(778.125 0)"/>
    <use xlink:href="#DejaVuSans-Bold-20" transform="translate(846.826172 0)"/>
    <use xlink:href="#DejaVuSans-Bold-73" transform="translate(881.640625 0)"/>
    <use xlink:href="#DejaVuSans-Bold-63" transform="translate(941.162109 0)"/>
    <use xlink:href="#DejaVuSans-Bold-61" transform="translate(1000.439453 0)"/>
    <use xlink:href="#DejaVuSans-Bold-74" transform="translate(1067.919922 0)"/>
    <use xlink:href="#DejaVuSans-Bold-74" transform="translate(1115.722656 0)"/>
    <use xlink:href="#DejaVuSans-Bold-65" transform="translate(1163.525391 0)"/>
    <use xlink:href="#DejaVuSans-Bold-72" transform="translate(1231.347656 0)"/>
   </g>
  </g>
 </g>
 <defs>
  <clipPath id="pd8dce844a0">
   <rect x="43.294375" y="38.494488" width="138.897638" height="123.307087"/>
  </clipPath>
 </defs>
</svg>
