<?xml version="1.0" encoding="utf-8" standalone="no"?>
<!DOCTYPE svg PUBLIC "-//W3C//DTD SVG 1.1//EN"
  "http://www.w3.org/Graphics/SVG/1.1/DTD/svg11.dtd">
<svg xmlns:xlink="http://www.w3.org/1999/xlink" width="224.828163pt" height="161.6737pt" viewBox="0 0 224.828163 161.6737" xmlns="http://www.w3.org/2000/svg" version="1.1">
 <metadata>
  <rdf:RDF xmlns:dc="http://purl.org/dc/elements/1.1/" xmlns:cc="http://creativecommons.org/ns#" xmlns:rdf="http://www.w3.org/1999/02/22-rdf-syntax-ns#">
   <cc:Work>
    <dc:type rdf:resource="http://purl.org/dc/dcmitype/StillImage"/>
    <dc:date>2025-09-15T11:28:35.225900</dc:date>
    <dc:format>image/svg+xml</dc:format>
    <dc:creator>
     <cc:Agent>
      <dc:title>Matplotlib v3.10.1, https://matplotlib.org/</dc:title>
     </cc:Agent>
    </dc:creator>
   </cc:Work>
  </rdf:RDF>
 </metadata>
 <defs>
  <style type="text/css">*{stroke-linejoin: round; stroke-linecap: butt}</style>
 </defs>
 <g id="figure_1">
  <g id="patch_1">
   <path d="M -0 161.6737
L 224.828163 161.6737
L 224.828163 0
L -0 0
z
" style="fill: #ffffff"/>
  </g>
  <g id="axes_1">
   <g id="patch_2">
    <path d="M 43.906562 132.2112
L 210.428163 132.2112
L 210.428163 33.6576
L 43.906562 33.6576
z
" style="fill: #ffffff"/>
   </g>
   <g id="patch_3">
    <path d="M 51.475726 132.2112
L 52.989559 132.2112
L 52.989559 71.565476
L 51.475726 71.565476
z
" clip-path="url(#p2333bbd085)" style="fill: #526c94; fill-opacity: 0.7; stroke: #ffffff; stroke-width: 0.5; stroke-linejoin: miter"/>
   </g>
   <g id="patch_4">
    <path d="M 52.989559 132.2112
L 54.503392 132.2112
L 54.503392 38.350629
L 52.989559 38.350629
z
" clip-path="url(#p2333bbd085)" style="fill: #526c94; fill-opacity: 0.7; stroke: #ffffff; stroke-width: 0.5; stroke-linejoin: miter"/>
   </g>
   <g id="patch_5">
    <path d="M 54.503392 132.2112
L 56.017224 132.2112
L 56.017224 96.649838
L 54.503392 96.649838
z
" clip-path="url(#p2333bbd085)" style="fill: #526c94; fill-opacity: 0.7; stroke: #ffffff; stroke-width: 0.5; stroke-linejoin: miter"/>
   </g>
   <g id="patch_6">
    <path d="M 56.017224 132.2112
L 57.531057 132.2112
L 57.531057 120.48375
L 56.017224 120.48375
z
" clip-path="url(#p2333bbd085)" style="fill: #526c94; fill-opacity: 0.7; stroke: #ffffff; stroke-width: 0.5; stroke-linejoin: miter"/>
   </g>
   <g id="patch_7">
    <path d="M 57.531057 132.2112
L 59.04489 132.2112
L 59.04489 126.4843
L 57.531057 126.4843
z
" clip-path="url(#p2333bbd085)" style="fill: #526c94; fill-opacity: 0.7; stroke: #ffffff; stroke-width: 0.5; stroke-linejoin: miter"/>
   </g>
   <g id="patch_8">
    <path d="M 59.04489 132.2112
L 60.558723 132.2112
L 60.558723 127.651338
L 59.04489 127.651338
z
" clip-path="url(#p2333bbd085)" style="fill: #526c94; fill-opacity: 0.7; stroke: #ffffff; stroke-width: 0.5; stroke-linejoin: miter"/>
   </g>
   <g id="patch_9">
    <path d="M 60.558723 132.2112
L 62.072555 132.2112
L 62.072555 128.389608
L 60.558723 128.389608
z
" clip-path="url(#p2333bbd085)" style="fill: #526c94; fill-opacity: 0.7; stroke: #ffffff; stroke-width: 0.5; stroke-linejoin: miter"/>
   </g>
   <g id="patch_10">
    <path d="M 62.072555 132.2112
L 63.586388 132.2112
L 63.586388 128.944957
L 62.072555 128.944957
z
" clip-path="url(#p2333bbd085)" style="fill: #526c94; fill-opacity: 0.7; stroke: #ffffff; stroke-width: 0.5; stroke-linejoin: miter"/>
   </g>
   <g id="patch_11">
    <path d="M 63.586388 132.2112
L 65.100221 132.2112
L 65.100221 129.521525
L 63.586388 129.521525
z
" clip-path="url(#p2333bbd085)" style="fill: #526c94; fill-opacity: 0.7; stroke: #ffffff; stroke-width: 0.5; stroke-linejoin: miter"/>
   </g>
   <g id="patch_12">
    <path d="M 65.100221 132.2112
L 66.614053 132.2112
L 66.614053 130.236382
L 65.100221 130.236382
z
" clip-path="url(#p2333bbd085)" style="fill: #526c94; fill-opacity: 0.7; stroke: #ffffff; stroke-width: 0.5; stroke-linejoin: miter"/>
   </g>
   <g id="patch_13">
    <path d="M 66.614053 132.2112
L 68.127886 132.2112
L 68.127886 130.673929
L 66.614053 130.673929
z
" clip-path="url(#p2333bbd085)" style="fill: #526c94; fill-opacity: 0.7; stroke: #ffffff; stroke-width: 0.5; stroke-linejoin: miter"/>
   </g>
   <g id="patch_14">
    <path d="M 68.127886 132.2112
L 69.641719 132.2112
L 69.641719 131.106355
L 68.127886 131.106355
z
" clip-path="url(#p2333bbd085)" style="fill: #526c94; fill-opacity: 0.7; stroke: #ffffff; stroke-width: 0.5; stroke-linejoin: miter"/>
   </g>
   <g id="patch_15">
    <path d="M 69.641719 132.2112
L 71.155552 132.2112
L 71.155552 131.42537
L 69.641719 131.42537
z
" clip-path="url(#p2333bbd085)" style="fill: #526c94; fill-opacity: 0.7; stroke: #ffffff; stroke-width: 0.5; stroke-linejoin: miter"/>
   </g>
   <g id="patch_16">
    <path d="M 71.155552 132.2112
L 72.669384 132.2112
L 72.669384 131.688777
L 71.155552 131.688777
z
" clip-path="url(#p2333bbd085)" style="fill: #526c94; fill-opacity: 0.7; stroke: #ffffff; stroke-width: 0.5; stroke-linejoin: miter"/>
   </g>
   <g id="patch_17">
    <path d="M 72.669384 132.2112
L 74.183217 132.2112
L 74.183217 131.857796
L 72.669384 131.857796
z
" clip-path="url(#p2333bbd085)" style="fill: #526c94; fill-opacity: 0.7; stroke: #ffffff; stroke-width: 0.5; stroke-linejoin: miter"/>
   </g>
   <g id="patch_18">
    <path d="M 74.183217 132.2112
L 75.69705 132.2112
L 75.69705 131.951452
L 74.183217 131.951452
z
" clip-path="url(#p2333bbd085)" style="fill: #526c94; fill-opacity: 0.7; stroke: #ffffff; stroke-width: 0.5; stroke-linejoin: miter"/>
   </g>
   <g id="patch_19">
    <path d="M 75.69705 132.2112
L 77.210882 132.2112
L 77.210882 132.040717
L 75.69705 132.040717
z
" clip-path="url(#p2333bbd085)" style="fill: #526c94; fill-opacity: 0.7; stroke: #ffffff; stroke-width: 0.5; stroke-linejoin: miter"/>
   </g>
   <g id="patch_20">
    <path d="M 77.210882 132.2112
L 78.724715 132.2112
L 78.724715 132.092667
L 77.210882 132.092667
z
" clip-path="url(#p2333bbd085)" style="fill: #526c94; fill-opacity: 0.7; stroke: #ffffff; stroke-width: 0.5; stroke-linejoin: miter"/>
   </g>
   <g id="patch_21">
    <path d="M 78.724715 132.2112
L 80.238548 132.2112
L 80.238548 132.136568
L 78.724715 132.136568
z
" clip-path="url(#p2333bbd085)" style="fill: #526c94; fill-opacity: 0.7; stroke: #ffffff; stroke-width: 0.5; stroke-linejoin: miter"/>
   </g>
   <g id="patch_22">
    <path d="M 80.238548 132.2112
L 81.752381 132.2112
L 81.752381 132.171689
L 80.238548 132.171689
z
" clip-path="url(#p2333bbd085)" style="fill: #526c94; fill-opacity: 0.7; stroke: #ffffff; stroke-width: 0.5; stroke-linejoin: miter"/>
   </g>
   <g id="patch_23">
    <path d="M 81.752381 132.2112
L 83.266213 132.2112
L 83.266213 132.173884
L 81.752381 132.173884
z
" clip-path="url(#p2333bbd085)" style="fill: #526c94; fill-opacity: 0.7; stroke: #ffffff; stroke-width: 0.5; stroke-linejoin: miter"/>
   </g>
   <g id="patch_24">
    <path d="M 83.266213 132.2112
L 84.780046 132.2112
L 84.780046 132.191445
L 83.266213 132.191445
z
" clip-path="url(#p2333bbd085)" style="fill: #526c94; fill-opacity: 0.7; stroke: #ffffff; stroke-width: 0.5; stroke-linejoin: miter"/>
   </g>
   <g id="patch_25">
    <path d="M 84.780046 132.2112
L 86.293879 132.2112
L 86.293879 132.196566
L 84.780046 132.196566
z
" clip-path="url(#p2333bbd085)" style="fill: #526c94; fill-opacity: 0.7; stroke: #ffffff; stroke-width: 0.5; stroke-linejoin: miter"/>
   </g>
   <g id="patch_26">
    <path d="M 86.293879 132.2112
L 87.807712 132.2112
L 87.807712 132.198761
L 86.293879 132.198761
z
" clip-path="url(#p2333bbd085)" style="fill: #526c94; fill-opacity: 0.7; stroke: #ffffff; stroke-width: 0.5; stroke-linejoin: miter"/>
   </g>
   <g id="patch_27">
    <path d="M 87.807712 132.2112
L 89.321544 132.2112
L 89.321544 132.206078
L 87.807712 132.206078
z
" clip-path="url(#p2333bbd085)" style="fill: #526c94; fill-opacity: 0.7; stroke: #ffffff; stroke-width: 0.5; stroke-linejoin: miter"/>
   </g>
   <g id="patch_28">
    <path d="M 89.321544 132.2112
L 90.835377 132.2112
L 90.835377 132.20681
L 89.321544 132.20681
z
" clip-path="url(#p2333bbd085)" style="fill: #526c94; fill-opacity: 0.7; stroke: #ffffff; stroke-width: 0.5; stroke-linejoin: miter"/>
   </g>
   <g id="patch_29">
    <path d="M 90.835377 132.2112
L 92.34921 132.2112
L 92.34921 132.207542
L 90.835377 132.207542
z
" clip-path="url(#p2333bbd085)" style="fill: #526c94; fill-opacity: 0.7; stroke: #ffffff; stroke-width: 0.5; stroke-linejoin: miter"/>
   </g>
   <g id="patch_30">
    <path d="M 92.34921 132.2112
L 93.863043 132.2112
L 93.863043 132.208273
L 92.34921 132.208273
z
" clip-path="url(#p2333bbd085)" style="fill: #526c94; fill-opacity: 0.7; stroke: #ffffff; stroke-width: 0.5; stroke-linejoin: miter"/>
   </g>
   <g id="patch_31">
    <path d="M 93.863043 132.2112
L 95.376875 132.2112
L 95.376875 132.209737
L 93.863043 132.209737
z
" clip-path="url(#p2333bbd085)" style="fill: #526c94; fill-opacity: 0.7; stroke: #ffffff; stroke-width: 0.5; stroke-linejoin: miter"/>
   </g>
   <g id="patch_32">
    <path d="M 95.376875 132.2112
L 96.890708 132.2112
L 96.890708 132.208273
L 95.376875 132.208273
z
" clip-path="url(#p2333bbd085)" style="fill: #526c94; fill-opacity: 0.7; stroke: #ffffff; stroke-width: 0.5; stroke-linejoin: miter"/>
   </g>
   <g id="patch_33">
    <path d="M 96.890708 132.2112
L 98.404541 132.2112
L 98.404541 132.2112
L 96.890708 132.2112
z
" clip-path="url(#p2333bbd085)" style="fill: #526c94; fill-opacity: 0.7; stroke: #ffffff; stroke-width: 0.5; stroke-linejoin: miter"/>
   </g>
   <g id="patch_34">
    <path d="M 98.404541 132.2112
L 99.918373 132.2112
L 99.918373 132.209737
L 98.404541 132.209737
z
" clip-path="url(#p2333bbd085)" style="fill: #526c94; fill-opacity: 0.7; stroke: #ffffff; stroke-width: 0.5; stroke-linejoin: miter"/>
   </g>
   <g id="patch_35">
    <path d="M 99.918373 132.2112
L 101.432206 132.2112
L 101.432206 132.210468
L 99.918373 132.210468
z
" clip-path="url(#p2333bbd085)" style="fill: #526c94; fill-opacity: 0.7; stroke: #ffffff; stroke-width: 0.5; stroke-linejoin: miter"/>
   </g>
   <g id="patch_36">
    <path d="M 101.432206 132.2112
L 102.946039 132.2112
L 102.946039 132.210468
L 101.432206 132.210468
z
" clip-path="url(#p2333bbd085)" style="fill: #526c94; fill-opacity: 0.7; stroke: #ffffff; stroke-width: 0.5; stroke-linejoin: miter"/>
   </g>
   <g id="patch_37">
    <path d="M 102.946039 132.2112
L 104.459872 132.2112
L 104.459872 132.2112
L 102.946039 132.2112
z
" clip-path="url(#p2333bbd085)" style="fill: #526c94; fill-opacity: 0.7; stroke: #ffffff; stroke-width: 0.5; stroke-linejoin: miter"/>
   </g>
   <g id="patch_38">
    <path d="M 104.459872 132.2112
L 105.973704 132.2112
L 105.973704 132.2112
L 104.459872 132.2112
z
" clip-path="url(#p2333bbd085)" style="fill: #526c94; fill-opacity: 0.7; stroke: #ffffff; stroke-width: 0.5; stroke-linejoin: miter"/>
   </g>
   <g id="patch_39">
    <path d="M 105.973704 132.2112
L 107.487537 132.2112
L 107.487537 132.2112
L 105.973704 132.2112
z
" clip-path="url(#p2333bbd085)" style="fill: #526c94; fill-opacity: 0.7; stroke: #ffffff; stroke-width: 0.5; stroke-linejoin: miter"/>
   </g>
   <g id="patch_40">
    <path d="M 107.487537 132.2112
L 109.00137 132.2112
L 109.00137 132.2112
L 107.487537 132.2112
z
" clip-path="url(#p2333bbd085)" style="fill: #526c94; fill-opacity: 0.7; stroke: #ffffff; stroke-width: 0.5; stroke-linejoin: miter"/>
   </g>
   <g id="patch_41">
    <path d="M 109.00137 132.2112
L 110.515203 132.2112
L 110.515203 132.210468
L 109.00137 132.210468
z
" clip-path="url(#p2333bbd085)" style="fill: #526c94; fill-opacity: 0.7; stroke: #ffffff; stroke-width: 0.5; stroke-linejoin: miter"/>
   </g>
   <g id="patch_42">
    <path d="M 110.515203 132.2112
L 112.029035 132.2112
L 112.029035 132.2112
L 110.515203 132.2112
z
" clip-path="url(#p2333bbd085)" style="fill: #526c94; fill-opacity: 0.7; stroke: #ffffff; stroke-width: 0.5; stroke-linejoin: miter"/>
   </g>
   <g id="patch_43">
    <path d="M 112.029035 132.2112
L 113.542868 132.2112
L 113.542868 132.2112
L 112.029035 132.2112
z
" clip-path="url(#p2333bbd085)" style="fill: #526c94; fill-opacity: 0.7; stroke: #ffffff; stroke-width: 0.5; stroke-linejoin: miter"/>
   </g>
   <g id="patch_44">
    <path d="M 113.542868 132.2112
L 115.056701 132.2112
L 115.056701 132.2112
L 113.542868 132.2112
z
" clip-path="url(#p2333bbd085)" style="fill: #526c94; fill-opacity: 0.7; stroke: #ffffff; stroke-width: 0.5; stroke-linejoin: miter"/>
   </g>
   <g id="patch_45">
    <path d="M 115.056701 132.2112
L 116.570533 132.2112
L 116.570533 132.210468
L 115.056701 132.210468
z
" clip-path="url(#p2333bbd085)" style="fill: #526c94; fill-opacity: 0.7; stroke: #ffffff; stroke-width: 0.5; stroke-linejoin: miter"/>
   </g>
   <g id="patch_46">
    <path d="M 116.570533 132.2112
L 118.084366 132.2112
L 118.084366 132.2112
L 116.570533 132.2112
z
" clip-path="url(#p2333bbd085)" style="fill: #526c94; fill-opacity: 0.7; stroke: #ffffff; stroke-width: 0.5; stroke-linejoin: miter"/>
   </g>
   <g id="patch_47">
    <path d="M 118.084366 132.2112
L 119.598199 132.2112
L 119.598199 132.210468
L 118.084366 132.210468
z
" clip-path="url(#p2333bbd085)" style="fill: #526c94; fill-opacity: 0.7; stroke: #ffffff; stroke-width: 0.5; stroke-linejoin: miter"/>
   </g>
   <g id="patch_48">
    <path d="M 119.598199 132.2112
L 121.112032 132.2112
L 121.112032 132.210468
L 119.598199 132.210468
z
" clip-path="url(#p2333bbd085)" style="fill: #526c94; fill-opacity: 0.7; stroke: #ffffff; stroke-width: 0.5; stroke-linejoin: miter"/>
   </g>
   <g id="patch_49">
    <path d="M 121.112032 132.2112
L 122.625864 132.2112
L 122.625864 132.2112
L 121.112032 132.2112
z
" clip-path="url(#p2333bbd085)" style="fill: #526c94; fill-opacity: 0.7; stroke: #ffffff; stroke-width: 0.5; stroke-linejoin: miter"/>
   </g>
   <g id="patch_50">
    <path d="M 122.625864 132.2112
L 124.139697 132.2112
L 124.139697 132.2112
L 122.625864 132.2112
z
" clip-path="url(#p2333bbd085)" style="fill: #526c94; fill-opacity: 0.7; stroke: #ffffff; stroke-width: 0.5; stroke-linejoin: miter"/>
   </g>
   <g id="patch_51">
    <path d="M 124.139697 132.2112
L 125.65353 132.2112
L 125.65353 132.2112
L 124.139697 132.2112
z
" clip-path="url(#p2333bbd085)" style="fill: #526c94; fill-opacity: 0.7; stroke: #ffffff; stroke-width: 0.5; stroke-linejoin: miter"/>
   </g>
   <g id="patch_52">
    <path d="M 125.65353 132.2112
L 127.167363 132.2112
L 127.167363 132.2112
L 125.65353 132.2112
z
" clip-path="url(#p2333bbd085)" style="fill: #526c94; fill-opacity: 0.7; stroke: #ffffff; stroke-width: 0.5; stroke-linejoin: miter"/>
   </g>
   <g id="patch_53">
    <path d="M 127.167363 132.2112
L 128.681195 132.2112
L 128.681195 132.2112
L 127.167363 132.2112
z
" clip-path="url(#p2333bbd085)" style="fill: #526c94; fill-opacity: 0.7; stroke: #ffffff; stroke-width: 0.5; stroke-linejoin: miter"/>
   </g>
   <g id="patch_54">
    <path d="M 128.681195 132.2112
L 130.195028 132.2112
L 130.195028 132.2112
L 128.681195 132.2112
z
" clip-path="url(#p2333bbd085)" style="fill: #526c94; fill-opacity: 0.7; stroke: #ffffff; stroke-width: 0.5; stroke-linejoin: miter"/>
   </g>
   <g id="patch_55">
    <path d="M 130.195028 132.2112
L 131.708861 132.2112
L 131.708861 132.210468
L 130.195028 132.210468
z
" clip-path="url(#p2333bbd085)" style="fill: #526c94; fill-opacity: 0.7; stroke: #ffffff; stroke-width: 0.5; stroke-linejoin: miter"/>
   </g>
   <g id="patch_56">
    <path d="M 131.708861 132.2112
L 133.222693 132.2112
L 133.222693 132.2112
L 131.708861 132.2112
z
" clip-path="url(#p2333bbd085)" style="fill: #526c94; fill-opacity: 0.7; stroke: #ffffff; stroke-width: 0.5; stroke-linejoin: miter"/>
   </g>
   <g id="patch_57">
    <path d="M 133.222693 132.2112
L 134.736526 132.2112
L 134.736526 132.2112
L 133.222693 132.2112
z
" clip-path="url(#p2333bbd085)" style="fill: #526c94; fill-opacity: 0.7; stroke: #ffffff; stroke-width: 0.5; stroke-linejoin: miter"/>
   </g>
   <g id="patch_58">
    <path d="M 134.736526 132.2112
L 136.250359 132.2112
L 136.250359 132.2112
L 134.736526 132.2112
z
" clip-path="url(#p2333bbd085)" style="fill: #526c94; fill-opacity: 0.7; stroke: #ffffff; stroke-width: 0.5; stroke-linejoin: miter"/>
   </g>
   <g id="patch_59">
    <path d="M 136.250359 132.2112
L 137.764192 132.2112
L 137.764192 132.2112
L 136.250359 132.2112
z
" clip-path="url(#p2333bbd085)" style="fill: #526c94; fill-opacity: 0.7; stroke: #ffffff; stroke-width: 0.5; stroke-linejoin: miter"/>
   </g>
   <g id="patch_60">
    <path d="M 137.764192 132.2112
L 139.278024 132.2112
L 139.278024 132.2112
L 137.764192 132.2112
z
" clip-path="url(#p2333bbd085)" style="fill: #526c94; fill-opacity: 0.7; stroke: #ffffff; stroke-width: 0.5; stroke-linejoin: miter"/>
   </g>
   <g id="patch_61">
    <path d="M 139.278024 132.2112
L 140.791857 132.2112
L 140.791857 132.2112
L 139.278024 132.2112
z
" clip-path="url(#p2333bbd085)" style="fill: #526c94; fill-opacity: 0.7; stroke: #ffffff; stroke-width: 0.5; stroke-linejoin: miter"/>
   </g>
   <g id="patch_62">
    <path d="M 140.791857 132.2112
L 142.30569 132.2112
L 142.30569 132.2112
L 140.791857 132.2112
z
" clip-path="url(#p2333bbd085)" style="fill: #526c94; fill-opacity: 0.7; stroke: #ffffff; stroke-width: 0.5; stroke-linejoin: miter"/>
   </g>
   <g id="patch_63">
    <path d="M 142.30569 132.2112
L 143.819523 132.2112
L 143.819523 132.2112
L 142.30569 132.2112
z
" clip-path="url(#p2333bbd085)" style="fill: #526c94; fill-opacity: 0.7; stroke: #ffffff; stroke-width: 0.5; stroke-linejoin: miter"/>
   </g>
   <g id="patch_64">
    <path d="M 143.819523 132.2112
L 145.333355 132.2112
L 145.333355 132.2112
L 143.819523 132.2112
z
" clip-path="url(#p2333bbd085)" style="fill: #526c94; fill-opacity: 0.7; stroke: #ffffff; stroke-width: 0.5; stroke-linejoin: miter"/>
   </g>
   <g id="patch_65">
    <path d="M 145.333355 132.2112
L 146.847188 132.2112
L 146.847188 132.2112
L 145.333355 132.2112
z
" clip-path="url(#p2333bbd085)" style="fill: #526c94; fill-opacity: 0.7; stroke: #ffffff; stroke-width: 0.5; stroke-linejoin: miter"/>
   </g>
   <g id="patch_66">
    <path d="M 146.847188 132.2112
L 148.361021 132.2112
L 148.361021 132.2112
L 146.847188 132.2112
z
" clip-path="url(#p2333bbd085)" style="fill: #526c94; fill-opacity: 0.7; stroke: #ffffff; stroke-width: 0.5; stroke-linejoin: miter"/>
   </g>
   <g id="patch_67">
    <path d="M 148.361021 132.2112
L 149.874853 132.2112
L 149.874853 132.2112
L 148.361021 132.2112
z
" clip-path="url(#p2333bbd085)" style="fill: #526c94; fill-opacity: 0.7; stroke: #ffffff; stroke-width: 0.5; stroke-linejoin: miter"/>
   </g>
   <g id="patch_68">
    <path d="M 149.874853 132.2112
L 151.388686 132.2112
L 151.388686 132.2112
L 149.874853 132.2112
z
" clip-path="url(#p2333bbd085)" style="fill: #526c94; fill-opacity: 0.7; stroke: #ffffff; stroke-width: 0.5; stroke-linejoin: miter"/>
   </g>
   <g id="patch_69">
    <path d="M 151.388686 132.2112
L 152.902519 132.2112
L 152.902519 132.2112
L 151.388686 132.2112
z
" clip-path="url(#p2333bbd085)" style="fill: #526c94; fill-opacity: 0.7; stroke: #ffffff; stroke-width: 0.5; stroke-linejoin: miter"/>
   </g>
   <g id="patch_70">
    <path d="M 152.902519 132.2112
L 154.416352 132.2112
L 154.416352 132.2112
L 152.902519 132.2112
z
" clip-path="url(#p2333bbd085)" style="fill: #526c94; fill-opacity: 0.7; stroke: #ffffff; stroke-width: 0.5; stroke-linejoin: miter"/>
   </g>
   <g id="patch_71">
    <path d="M 154.416352 132.2112
L 155.930184 132.2112
L 155.930184 132.2112
L 154.416352 132.2112
z
" clip-path="url(#p2333bbd085)" style="fill: #526c94; fill-opacity: 0.7; stroke: #ffffff; stroke-width: 0.5; stroke-linejoin: miter"/>
   </g>
   <g id="patch_72">
    <path d="M 155.930184 132.2112
L 157.444017 132.2112
L 157.444017 132.2112
L 155.930184 132.2112
z
" clip-path="url(#p2333bbd085)" style="fill: #526c94; fill-opacity: 0.7; stroke: #ffffff; stroke-width: 0.5; stroke-linejoin: miter"/>
   </g>
   <g id="patch_73">
    <path d="M 157.444017 132.2112
L 158.95785 132.2112
L 158.95785 132.2112
L 157.444017 132.2112
z
" clip-path="url(#p2333bbd085)" style="fill: #526c94; fill-opacity: 0.7; stroke: #ffffff; stroke-width: 0.5; stroke-linejoin: miter"/>
   </g>
   <g id="patch_74">
    <path d="M 158.95785 132.2112
L 160.471683 132.2112
L 160.471683 132.2112
L 158.95785 132.2112
z
" clip-path="url(#p2333bbd085)" style="fill: #526c94; fill-opacity: 0.7; stroke: #ffffff; stroke-width: 0.5; stroke-linejoin: miter"/>
   </g>
   <g id="patch_75">
    <path d="M 160.471683 132.2112
L 161.985515 132.2112
L 161.985515 132.2112
L 160.471683 132.2112
z
" clip-path="url(#p2333bbd085)" style="fill: #526c94; fill-opacity: 0.7; stroke: #ffffff; stroke-width: 0.5; stroke-linejoin: miter"/>
   </g>
   <g id="patch_76">
    <path d="M 161.985515 132.2112
L 163.499348 132.2112
L 163.499348 132.2112
L 161.985515 132.2112
z
" clip-path="url(#p2333bbd085)" style="fill: #526c94; fill-opacity: 0.7; stroke: #ffffff; stroke-width: 0.5; stroke-linejoin: miter"/>
   </g>
   <g id="patch_77">
    <path d="M 163.499348 132.2112
L 165.013181 132.2112
L 165.013181 132.2112
L 163.499348 132.2112
z
" clip-path="url(#p2333bbd085)" style="fill: #526c94; fill-opacity: 0.7; stroke: #ffffff; stroke-width: 0.5; stroke-linejoin: miter"/>
   </g>
   <g id="patch_78">
    <path d="M 165.013181 132.2112
L 166.527013 132.2112
L 166.527013 132.2112
L 165.013181 132.2112
z
" clip-path="url(#p2333bbd085)" style="fill: #526c94; fill-opacity: 0.7; stroke: #ffffff; stroke-width: 0.5; stroke-linejoin: miter"/>
   </g>
   <g id="patch_79">
    <path d="M 166.527013 132.2112
L 168.040846 132.2112
L 168.040846 132.2112
L 166.527013 132.2112
z
" clip-path="url(#p2333bbd085)" style="fill: #526c94; fill-opacity: 0.7; stroke: #ffffff; stroke-width: 0.5; stroke-linejoin: miter"/>
   </g>
   <g id="patch_80">
    <path d="M 168.040846 132.2112
L 169.554679 132.2112
L 169.554679 132.2112
L 168.040846 132.2112
z
" clip-path="url(#p2333bbd085)" style="fill: #526c94; fill-opacity: 0.7; stroke: #ffffff; stroke-width: 0.5; stroke-linejoin: miter"/>
   </g>
   <g id="patch_81">
    <path d="M 169.554679 132.2112
L 171.068512 132.2112
L 171.068512 132.2112
L 169.554679 132.2112
z
" clip-path="url(#p2333bbd085)" style="fill: #526c94; fill-opacity: 0.7; stroke: #ffffff; stroke-width: 0.5; stroke-linejoin: miter"/>
   </g>
   <g id="patch_82">
    <path d="M 171.068512 132.2112
L 172.582344 132.2112
L 172.582344 132.2112
L 171.068512 132.2112
z
" clip-path="url(#p2333bbd085)" style="fill: #526c94; fill-opacity: 0.7; stroke: #ffffff; stroke-width: 0.5; stroke-linejoin: miter"/>
   </g>
   <g id="patch_83">
    <path d="M 172.582344 132.2112
L 174.096177 132.2112
L 174.096177 132.2112
L 172.582344 132.2112
z
" clip-path="url(#p2333bbd085)" style="fill: #526c94; fill-opacity: 0.7; stroke: #ffffff; stroke-width: 0.5; stroke-linejoin: miter"/>
   </g>
   <g id="patch_84">
    <path d="M 174.096177 132.2112
L 175.61001 132.2112
L 175.61001 132.2112
L 174.096177 132.2112
z
" clip-path="url(#p2333bbd085)" style="fill: #526c94; fill-opacity: 0.7; stroke: #ffffff; stroke-width: 0.5; stroke-linejoin: miter"/>
   </g>
   <g id="patch_85">
    <path d="M 175.61001 132.2112
L 177.123843 132.2112
L 177.123843 132.2112
L 175.61001 132.2112
z
" clip-path="url(#p2333bbd085)" style="fill: #526c94; fill-opacity: 0.7; stroke: #ffffff; stroke-width: 0.5; stroke-linejoin: miter"/>
   </g>
   <g id="patch_86">
    <path d="M 177.123843 132.2112
L 178.637675 132.2112
L 178.637675 132.2112
L 177.123843 132.2112
z
" clip-path="url(#p2333bbd085)" style="fill: #526c94; fill-opacity: 0.7; stroke: #ffffff; stroke-width: 0.5; stroke-linejoin: miter"/>
   </g>
   <g id="patch_87">
    <path d="M 178.637675 132.2112
L 180.151508 132.2112
L 180.151508 132.2112
L 178.637675 132.2112
z
" clip-path="url(#p2333bbd085)" style="fill: #526c94; fill-opacity: 0.7; stroke: #ffffff; stroke-width: 0.5; stroke-linejoin: miter"/>
   </g>
   <g id="patch_88">
    <path d="M 180.151508 132.2112
L 181.665341 132.2112
L 181.665341 132.2112
L 180.151508 132.2112
z
" clip-path="url(#p2333bbd085)" style="fill: #526c94; fill-opacity: 0.7; stroke: #ffffff; stroke-width: 0.5; stroke-linejoin: miter"/>
   </g>
   <g id="patch_89">
    <path d="M 181.665341 132.2112
L 183.179173 132.2112
L 183.179173 132.2112
L 181.665341 132.2112
z
" clip-path="url(#p2333bbd085)" style="fill: #526c94; fill-opacity: 0.7; stroke: #ffffff; stroke-width: 0.5; stroke-linejoin: miter"/>
   </g>
   <g id="patch_90">
    <path d="M 183.179173 132.2112
L 184.693006 132.2112
L 184.693006 132.2112
L 183.179173 132.2112
z
" clip-path="url(#p2333bbd085)" style="fill: #526c94; fill-opacity: 0.7; stroke: #ffffff; stroke-width: 0.5; stroke-linejoin: miter"/>
   </g>
   <g id="patch_91">
    <path d="M 184.693006 132.2112
L 186.206839 132.2112
L 186.206839 132.2112
L 184.693006 132.2112
z
" clip-path="url(#p2333bbd085)" style="fill: #526c94; fill-opacity: 0.7; stroke: #ffffff; stroke-width: 0.5; stroke-linejoin: miter"/>
   </g>
   <g id="patch_92">
    <path d="M 186.206839 132.2112
L 187.720672 132.2112
L 187.720672 132.2112
L 186.206839 132.2112
z
" clip-path="url(#p2333bbd085)" style="fill: #526c94; fill-opacity: 0.7; stroke: #ffffff; stroke-width: 0.5; stroke-linejoin: miter"/>
   </g>
   <g id="patch_93">
    <path d="M 187.720672 132.2112
L 189.234504 132.2112
L 189.234504 132.2112
L 187.720672 132.2112
z
" clip-path="url(#p2333bbd085)" style="fill: #526c94; fill-opacity: 0.7; stroke: #ffffff; stroke-width: 0.5; stroke-linejoin: miter"/>
   </g>
   <g id="patch_94">
    <path d="M 189.234504 132.2112
L 190.748337 132.2112
L 190.748337 132.2112
L 189.234504 132.2112
z
" clip-path="url(#p2333bbd085)" style="fill: #526c94; fill-opacity: 0.7; stroke: #ffffff; stroke-width: 0.5; stroke-linejoin: miter"/>
   </g>
   <g id="patch_95">
    <path d="M 190.748337 132.2112
L 192.26217 132.2112
L 192.26217 132.2112
L 190.748337 132.2112
z
" clip-path="url(#p2333bbd085)" style="fill: #526c94; fill-opacity: 0.7; stroke: #ffffff; stroke-width: 0.5; stroke-linejoin: miter"/>
   </g>
   <g id="patch_96">
    <path d="M 192.26217 132.2112
L 193.776003 132.2112
L 193.776003 132.2112
L 192.26217 132.2112
z
" clip-path="url(#p2333bbd085)" style="fill: #526c94; fill-opacity: 0.7; stroke: #ffffff; stroke-width: 0.5; stroke-linejoin: miter"/>
   </g>
   <g id="patch_97">
    <path d="M 193.776003 132.2112
L 195.289835 132.2112
L 195.289835 132.2112
L 193.776003 132.2112
z
" clip-path="url(#p2333bbd085)" style="fill: #526c94; fill-opacity: 0.7; stroke: #ffffff; stroke-width: 0.5; stroke-linejoin: miter"/>
   </g>
   <g id="patch_98">
    <path d="M 195.289835 132.2112
L 196.803668 132.2112
L 196.803668 132.2112
L 195.289835 132.2112
z
" clip-path="url(#p2333bbd085)" style="fill: #526c94; fill-opacity: 0.7; stroke: #ffffff; stroke-width: 0.5; stroke-linejoin: miter"/>
   </g>
   <g id="patch_99">
    <path d="M 196.803668 132.2112
L 198.317501 132.2112
L 198.317501 132.2112
L 196.803668 132.2112
z
" clip-path="url(#p2333bbd085)" style="fill: #526c94; fill-opacity: 0.7; stroke: #ffffff; stroke-width: 0.5; stroke-linejoin: miter"/>
   </g>
   <g id="patch_100">
    <path d="M 198.317501 132.2112
L 199.831333 132.2112
L 199.831333 132.2112
L 198.317501 132.2112
z
" clip-path="url(#p2333bbd085)" style="fill: #526c94; fill-opacity: 0.7; stroke: #ffffff; stroke-width: 0.5; stroke-linejoin: miter"/>
   </g>
   <g id="patch_101">
    <path d="M 199.831333 132.2112
L 201.345166 132.2112
L 201.345166 132.2112
L 199.831333 132.2112
z
" clip-path="url(#p2333bbd085)" style="fill: #526c94; fill-opacity: 0.7; stroke: #ffffff; stroke-width: 0.5; stroke-linejoin: miter"/>
   </g>
   <g id="patch_102">
    <path d="M 201.345166 132.2112
L 202.858999 132.2112
L 202.858999 132.210468
L 201.345166 132.210468
z
" clip-path="url(#p2333bbd085)" style="fill: #526c94; fill-opacity: 0.7; stroke: #ffffff; stroke-width: 0.5; stroke-linejoin: miter"/>
   </g>
   <g id="matplotlib.axis_1">
    <g id="xtick_1">
     <g id="line2d_1"/>
     <g id="text_1">
      <!-- 10000 -->
      <g transform="translate(66.448294 138.505888) scale(0.06 -0.06)">
       <defs>
        <path id="ArialMT-31" d="M 2384 0
L 1822 0
L 1822 3584
Q 1619 3391 1289 3197
Q 959 3003 697 2906
L 697 3450
Q 1169 3672 1522 3987
Q 1875 4303 2022 4600
L 2384 4600
L 2384 0
z
" transform="scale(0.015625)"/>
        <path id="ArialMT-30" d="M 266 2259
Q 266 3072 433 3567
Q 600 4063 929 4331
Q 1259 4600 1759 4600
Q 2128 4600 2406 4451
Q 2684 4303 2865 4023
Q 3047 3744 3150 3342
Q 3253 2941 3253 2259
Q 3253 1453 3087 958
Q 2922 463 2592 192
Q 2263 -78 1759 -78
Q 1097 -78 719 397
Q 266 969 266 2259
z
M 844 2259
Q 844 1131 1108 757
Q 1372 384 1759 384
Q 2147 384 2411 759
Q 2675 1134 2675 2259
Q 2675 3391 2411 3762
Q 2147 4134 1753 4134
Q 1366 4134 1134 3806
Q 844 3388 844 2259
z
" transform="scale(0.015625)"/>
       </defs>
       <use xlink:href="#ArialMT-31"/>
       <use xlink:href="#ArialMT-30" transform="translate(55.615234 0)"/>
       <use xlink:href="#ArialMT-30" transform="translate(111.230469 0)"/>
       <use xlink:href="#ArialMT-30" transform="translate(166.845703 0)"/>
       <use xlink:href="#ArialMT-30" transform="translate(222.460938 0)"/>
      </g>
     </g>
    </g>
    <g id="xtick_2">
     <g id="line2d_2"/>
     <g id="text_2">
      <!-- 20000 -->
      <g transform="translate(101.464777 138.505888) scale(0.06 -0.06)">
       <defs>
        <path id="ArialMT-32" d="M 3222 541
L 3222 0
L 194 0
Q 188 203 259 391
Q 375 700 629 1000
Q 884 1300 1366 1694
Q 2113 2306 2375 2664
Q 2638 3022 2638 3341
Q 2638 3675 2398 3904
Q 2159 4134 1775 4134
Q 1369 4134 1125 3890
Q 881 3647 878 3216
L 300 3275
Q 359 3922 746 4261
Q 1134 4600 1788 4600
Q 2447 4600 2831 4234
Q 3216 3869 3216 3328
Q 3216 3053 3103 2787
Q 2991 2522 2730 2228
Q 2469 1934 1863 1422
Q 1356 997 1212 845
Q 1069 694 975 541
L 3222 541
z
" transform="scale(0.015625)"/>
       </defs>
       <use xlink:href="#ArialMT-32"/>
       <use xlink:href="#ArialMT-30" transform="translate(55.615234 0)"/>
       <use xlink:href="#ArialMT-30" transform="translate(111.230469 0)"/>
       <use xlink:href="#ArialMT-30" transform="translate(166.845703 0)"/>
       <use xlink:href="#ArialMT-30" transform="translate(222.460938 0)"/>
      </g>
     </g>
    </g>
    <g id="xtick_3">
     <g id="line2d_3"/>
     <g id="text_3">
      <!-- 30000 -->
      <g transform="translate(136.48126 138.505888) scale(0.06 -0.06)">
       <defs>
        <path id="ArialMT-33" d="M 269 1209
L 831 1284
Q 928 806 1161 595
Q 1394 384 1728 384
Q 2125 384 2398 659
Q 2672 934 2672 1341
Q 2672 1728 2419 1979
Q 2166 2231 1775 2231
Q 1616 2231 1378 2169
L 1441 2663
Q 1497 2656 1531 2656
Q 1891 2656 2178 2843
Q 2466 3031 2466 3422
Q 2466 3731 2256 3934
Q 2047 4138 1716 4138
Q 1388 4138 1169 3931
Q 950 3725 888 3313
L 325 3413
Q 428 3978 793 4289
Q 1159 4600 1703 4600
Q 2078 4600 2393 4439
Q 2709 4278 2876 4000
Q 3044 3722 3044 3409
Q 3044 3113 2884 2869
Q 2725 2625 2413 2481
Q 2819 2388 3044 2092
Q 3269 1797 3269 1353
Q 3269 753 2831 336
Q 2394 -81 1725 -81
Q 1122 -81 723 278
Q 325 638 269 1209
z
" transform="scale(0.015625)"/>
       </defs>
       <use xlink:href="#ArialMT-33"/>
       <use xlink:href="#ArialMT-30" transform="translate(55.615234 0)"/>
       <use xlink:href="#ArialMT-30" transform="translate(111.230469 0)"/>
       <use xlink:href="#ArialMT-30" transform="translate(166.845703 0)"/>
       <use xlink:href="#ArialMT-30" transform="translate(222.460938 0)"/>
      </g>
     </g>
    </g>
    <g id="xtick_4">
     <g id="line2d_4"/>
     <g id="text_4">
      <!-- 40000 -->
      <g transform="translate(171.497743 138.505888) scale(0.06 -0.06)">
       <defs>
        <path id="ArialMT-34" d="M 2069 0
L 2069 1097
L 81 1097
L 81 1613
L 2172 4581
L 2631 4581
L 2631 1613
L 3250 1613
L 3250 1097
L 2631 1097
L 2631 0
L 2069 0
z
M 2069 1613
L 2069 3678
L 634 1613
L 2069 1613
z
" transform="scale(0.015625)"/>
       </defs>
       <use xlink:href="#ArialMT-34"/>
       <use xlink:href="#ArialMT-30" transform="translate(55.615234 0)"/>
       <use xlink:href="#ArialMT-30" transform="translate(111.230469 0)"/>
       <use xlink:href="#ArialMT-30" transform="translate(166.845703 0)"/>
       <use xlink:href="#ArialMT-30" transform="translate(222.460938 0)"/>
      </g>
     </g>
    </g>
    <g id="text_5">
     <!-- Intensity Mean P21 Nucleus -->
     <g transform="translate(89.815956 146.010887) scale(0.06 -0.06)">
      <defs>
       <path id="ArialMT-49" d="M 597 0
L 597 4581
L 1203 4581
L 1203 0
L 597 0
z
" transform="scale(0.015625)"/>
       <path id="ArialMT-6e" d="M 422 0
L 422 3319
L 928 3319
L 928 2847
Q 1294 3394 1984 3394
Q 2284 3394 2536 3286
Q 2788 3178 2913 3003
Q 3038 2828 3088 2588
Q 3119 2431 3119 2041
L 3119 0
L 2556 0
L 2556 2019
Q 2556 2363 2490 2533
Q 2425 2703 2258 2804
Q 2091 2906 1866 2906
Q 1506 2906 1245 2678
Q 984 2450 984 1813
L 984 0
L 422 0
z
" transform="scale(0.015625)"/>
       <path id="ArialMT-74" d="M 1650 503
L 1731 6
Q 1494 -44 1306 -44
Q 1000 -44 831 53
Q 663 150 594 308
Q 525 466 525 972
L 525 2881
L 113 2881
L 113 3319
L 525 3319
L 525 4141
L 1084 4478
L 1084 3319
L 1650 3319
L 1650 2881
L 1084 2881
L 1084 941
Q 1084 700 1114 631
Q 1144 563 1211 522
Q 1278 481 1403 481
Q 1497 481 1650 503
z
" transform="scale(0.015625)"/>
       <path id="ArialMT-65" d="M 2694 1069
L 3275 997
Q 3138 488 2766 206
Q 2394 -75 1816 -75
Q 1088 -75 661 373
Q 234 822 234 1631
Q 234 2469 665 2931
Q 1097 3394 1784 3394
Q 2450 3394 2872 2941
Q 3294 2488 3294 1666
Q 3294 1616 3291 1516
L 816 1516
Q 847 969 1125 678
Q 1403 388 1819 388
Q 2128 388 2347 550
Q 2566 713 2694 1069
z
M 847 1978
L 2700 1978
Q 2663 2397 2488 2606
Q 2219 2931 1791 2931
Q 1403 2931 1139 2672
Q 875 2413 847 1978
z
" transform="scale(0.015625)"/>
       <path id="ArialMT-73" d="M 197 991
L 753 1078
Q 800 744 1014 566
Q 1228 388 1613 388
Q 2000 388 2187 545
Q 2375 703 2375 916
Q 2375 1106 2209 1216
Q 2094 1291 1634 1406
Q 1016 1563 777 1677
Q 538 1791 414 1992
Q 291 2194 291 2438
Q 291 2659 392 2848
Q 494 3038 669 3163
Q 800 3259 1026 3326
Q 1253 3394 1513 3394
Q 1903 3394 2198 3281
Q 2494 3169 2634 2976
Q 2775 2784 2828 2463
L 2278 2388
Q 2241 2644 2061 2787
Q 1881 2931 1553 2931
Q 1166 2931 1000 2803
Q 834 2675 834 2503
Q 834 2394 903 2306
Q 972 2216 1119 2156
Q 1203 2125 1616 2013
Q 2213 1853 2448 1751
Q 2684 1650 2818 1456
Q 2953 1263 2953 975
Q 2953 694 2789 445
Q 2625 197 2315 61
Q 2006 -75 1616 -75
Q 969 -75 630 194
Q 291 463 197 991
z
" transform="scale(0.015625)"/>
       <path id="ArialMT-69" d="M 425 3934
L 425 4581
L 988 4581
L 988 3934
L 425 3934
z
M 425 0
L 425 3319
L 988 3319
L 988 0
L 425 0
z
" transform="scale(0.015625)"/>
       <path id="ArialMT-79" d="M 397 -1278
L 334 -750
Q 519 -800 656 -800
Q 844 -800 956 -737
Q 1069 -675 1141 -563
Q 1194 -478 1313 -144
Q 1328 -97 1363 -6
L 103 3319
L 709 3319
L 1400 1397
Q 1534 1031 1641 628
Q 1738 1016 1872 1384
L 2581 3319
L 3144 3319
L 1881 -56
Q 1678 -603 1566 -809
Q 1416 -1088 1222 -1217
Q 1028 -1347 759 -1347
Q 597 -1347 397 -1278
z
" transform="scale(0.015625)"/>
       <path id="ArialMT-20" transform="scale(0.015625)"/>
       <path id="ArialMT-4d" d="M 475 0
L 475 4581
L 1388 4581
L 2472 1338
Q 2622 884 2691 659
Q 2769 909 2934 1394
L 4031 4581
L 4847 4581
L 4847 0
L 4263 0
L 4263 3834
L 2931 0
L 2384 0
L 1059 3900
L 1059 0
L 475 0
z
" transform="scale(0.015625)"/>
       <path id="ArialMT-61" d="M 2588 409
Q 2275 144 1986 34
Q 1697 -75 1366 -75
Q 819 -75 525 192
Q 231 459 231 875
Q 231 1119 342 1320
Q 453 1522 633 1644
Q 813 1766 1038 1828
Q 1203 1872 1538 1913
Q 2219 1994 2541 2106
Q 2544 2222 2544 2253
Q 2544 2597 2384 2738
Q 2169 2928 1744 2928
Q 1347 2928 1158 2789
Q 969 2650 878 2297
L 328 2372
Q 403 2725 575 2942
Q 747 3159 1072 3276
Q 1397 3394 1825 3394
Q 2250 3394 2515 3294
Q 2781 3194 2906 3042
Q 3031 2891 3081 2659
Q 3109 2516 3109 2141
L 3109 1391
Q 3109 606 3145 398
Q 3181 191 3288 0
L 2700 0
Q 2613 175 2588 409
z
M 2541 1666
Q 2234 1541 1622 1453
Q 1275 1403 1131 1340
Q 988 1278 909 1158
Q 831 1038 831 891
Q 831 666 1001 516
Q 1172 366 1500 366
Q 1825 366 2078 508
Q 2331 650 2450 897
Q 2541 1088 2541 1459
L 2541 1666
z
" transform="scale(0.015625)"/>
       <path id="ArialMT-50" d="M 494 0
L 494 4581
L 2222 4581
Q 2678 4581 2919 4538
Q 3256 4481 3484 4323
Q 3713 4166 3852 3881
Q 3991 3597 3991 3256
Q 3991 2672 3619 2267
Q 3247 1863 2275 1863
L 1100 1863
L 1100 0
L 494 0
z
M 1100 2403
L 2284 2403
Q 2872 2403 3119 2622
Q 3366 2841 3366 3238
Q 3366 3525 3220 3729
Q 3075 3934 2838 4000
Q 2684 4041 2272 4041
L 1100 4041
L 1100 2403
z
" transform="scale(0.015625)"/>
       <path id="ArialMT-4e" d="M 488 0
L 488 4581
L 1109 4581
L 3516 984
L 3516 4581
L 4097 4581
L 4097 0
L 3475 0
L 1069 3600
L 1069 0
L 488 0
z
" transform="scale(0.015625)"/>
       <path id="ArialMT-75" d="M 2597 0
L 2597 488
Q 2209 -75 1544 -75
Q 1250 -75 995 37
Q 741 150 617 320
Q 494 491 444 738
Q 409 903 409 1263
L 409 3319
L 972 3319
L 972 1478
Q 972 1038 1006 884
Q 1059 663 1231 536
Q 1403 409 1656 409
Q 1909 409 2131 539
Q 2353 669 2445 892
Q 2538 1116 2538 1541
L 2538 3319
L 3100 3319
L 3100 0
L 2597 0
z
" transform="scale(0.015625)"/>
       <path id="ArialMT-63" d="M 2588 1216
L 3141 1144
Q 3050 572 2676 248
Q 2303 -75 1759 -75
Q 1078 -75 664 370
Q 250 816 250 1647
Q 250 2184 428 2587
Q 606 2991 970 3192
Q 1334 3394 1763 3394
Q 2303 3394 2647 3120
Q 2991 2847 3088 2344
L 2541 2259
Q 2463 2594 2264 2762
Q 2066 2931 1784 2931
Q 1359 2931 1093 2626
Q 828 2322 828 1663
Q 828 994 1084 691
Q 1341 388 1753 388
Q 2084 388 2306 591
Q 2528 794 2588 1216
z
" transform="scale(0.015625)"/>
       <path id="ArialMT-6c" d="M 409 0
L 409 4581
L 972 4581
L 972 0
L 409 0
z
" transform="scale(0.015625)"/>
      </defs>
      <use xlink:href="#ArialMT-49"/>
      <use xlink:href="#ArialMT-6e" transform="translate(27.783203 0)"/>
      <use xlink:href="#ArialMT-74" transform="translate(83.398438 0)"/>
      <use xlink:href="#ArialMT-65" transform="translate(111.181641 0)"/>
      <use xlink:href="#ArialMT-6e" transform="translate(166.796875 0)"/>
      <use xlink:href="#ArialMT-73" transform="translate(222.412109 0)"/>
      <use xlink:href="#ArialMT-69" transform="translate(272.412109 0)"/>
      <use xlink:href="#ArialMT-74" transform="translate(294.628906 0)"/>
      <use xlink:href="#ArialMT-79" transform="translate(322.412109 0)"/>
      <use xlink:href="#ArialMT-20" transform="translate(372.412109 0)"/>
      <use xlink:href="#ArialMT-4d" transform="translate(400.195312 0)"/>
      <use xlink:href="#ArialMT-65" transform="translate(483.496094 0)"/>
      <use xlink:href="#ArialMT-61" transform="translate(539.111328 0)"/>
      <use xlink:href="#ArialMT-6e" transform="translate(594.726562 0)"/>
      <use xlink:href="#ArialMT-20" transform="translate(650.341797 0)"/>
      <use xlink:href="#ArialMT-50" transform="translate(678.125 0)"/>
      <use xlink:href="#ArialMT-32" transform="translate(744.824219 0)"/>
      <use xlink:href="#ArialMT-31" transform="translate(800.439453 0)"/>
      <use xlink:href="#ArialMT-20" transform="translate(856.054688 0)"/>
      <use xlink:href="#ArialMT-4e" transform="translate(883.837891 0)"/>
      <use xlink:href="#ArialMT-75" transform="translate(956.054688 0)"/>
      <use xlink:href="#ArialMT-63" transform="translate(1011.669922 0)"/>
      <use xlink:href="#ArialMT-6c" transform="translate(1061.669922 0)"/>
      <use xlink:href="#ArialMT-65" transform="translate(1083.886719 0)"/>
      <use xlink:href="#ArialMT-75" transform="translate(1139.501953 0)"/>
      <use xlink:href="#ArialMT-73" transform="translate(1195.117188 0)"/>
     </g>
    </g>
   </g>
   <g id="matplotlib.axis_2">
    <g id="ytick_1">
     <g id="line2d_5"/>
     <g id="text_6">
      <!-- 0 -->
      <g transform="translate(38.57 134.358544) scale(0.06 -0.06)">
       <use xlink:href="#ArialMT-30"/>
      </g>
     </g>
    </g>
    <g id="ytick_2">
     <g id="line2d_6"/>
     <g id="text_7">
      <!-- 20000 -->
      <g transform="translate(25.22375 119.724841) scale(0.06 -0.06)">
       <use xlink:href="#ArialMT-32"/>
       <use xlink:href="#ArialMT-30" transform="translate(55.615234 0)"/>
       <use xlink:href="#ArialMT-30" transform="translate(111.230469 0)"/>
       <use xlink:href="#ArialMT-30" transform="translate(166.845703 0)"/>
       <use xlink:href="#ArialMT-30" transform="translate(222.460938 0)"/>
      </g>
     </g>
    </g>
    <g id="ytick_3">
     <g id="line2d_7"/>
     <g id="text_8">
      <!-- 40000 -->
      <g transform="translate(25.22375 105.091138) scale(0.06 -0.06)">
       <use xlink:href="#ArialMT-34"/>
       <use xlink:href="#ArialMT-30" transform="translate(55.615234 0)"/>
       <use xlink:href="#ArialMT-30" transform="translate(111.230469 0)"/>
       <use xlink:href="#ArialMT-30" transform="translate(166.845703 0)"/>
       <use xlink:href="#ArialMT-30" transform="translate(222.460938 0)"/>
      </g>
     </g>
    </g>
    <g id="ytick_4">
     <g id="line2d_8"/>
     <g id="text_9">
      <!-- 60000 -->
      <g transform="translate(25.22375 90.457435) scale(0.06 -0.06)">
       <defs>
        <path id="ArialMT-36" d="M 3184 3459
L 2625 3416
Q 2550 3747 2413 3897
Q 2184 4138 1850 4138
Q 1581 4138 1378 3988
Q 1113 3794 959 3422
Q 806 3050 800 2363
Q 1003 2672 1297 2822
Q 1591 2972 1913 2972
Q 2475 2972 2870 2558
Q 3266 2144 3266 1488
Q 3266 1056 3080 686
Q 2894 316 2569 119
Q 2244 -78 1831 -78
Q 1128 -78 684 439
Q 241 956 241 2144
Q 241 3472 731 4075
Q 1159 4600 1884 4600
Q 2425 4600 2770 4297
Q 3116 3994 3184 3459
z
M 888 1484
Q 888 1194 1011 928
Q 1134 663 1356 523
Q 1578 384 1822 384
Q 2178 384 2434 671
Q 2691 959 2691 1453
Q 2691 1928 2437 2201
Q 2184 2475 1800 2475
Q 1419 2475 1153 2201
Q 888 1928 888 1484
z
" transform="scale(0.015625)"/>
       </defs>
       <use xlink:href="#ArialMT-36"/>
       <use xlink:href="#ArialMT-30" transform="translate(55.615234 0)"/>
       <use xlink:href="#ArialMT-30" transform="translate(111.230469 0)"/>
       <use xlink:href="#ArialMT-30" transform="translate(166.845703 0)"/>
       <use xlink:href="#ArialMT-30" transform="translate(222.460938 0)"/>
      </g>
     </g>
    </g>
    <g id="ytick_5">
     <g id="line2d_9"/>
     <g id="text_10">
      <!-- 80000 -->
      <g transform="translate(25.22375 75.823732) scale(0.06 -0.06)">
       <defs>
        <path id="ArialMT-38" d="M 1131 2484
Q 781 2613 612 2850
Q 444 3088 444 3419
Q 444 3919 803 4259
Q 1163 4600 1759 4600
Q 2359 4600 2725 4251
Q 3091 3903 3091 3403
Q 3091 3084 2923 2848
Q 2756 2613 2416 2484
Q 2838 2347 3058 2040
Q 3278 1734 3278 1309
Q 3278 722 2862 322
Q 2447 -78 1769 -78
Q 1091 -78 675 323
Q 259 725 259 1325
Q 259 1772 486 2073
Q 713 2375 1131 2484
z
M 1019 3438
Q 1019 3113 1228 2906
Q 1438 2700 1772 2700
Q 2097 2700 2305 2904
Q 2513 3109 2513 3406
Q 2513 3716 2298 3927
Q 2084 4138 1766 4138
Q 1444 4138 1231 3931
Q 1019 3725 1019 3438
z
M 838 1322
Q 838 1081 952 856
Q 1066 631 1291 507
Q 1516 384 1775 384
Q 2178 384 2440 643
Q 2703 903 2703 1303
Q 2703 1709 2433 1975
Q 2163 2241 1756 2241
Q 1359 2241 1098 1978
Q 838 1716 838 1322
z
" transform="scale(0.015625)"/>
       </defs>
       <use xlink:href="#ArialMT-38"/>
       <use xlink:href="#ArialMT-30" transform="translate(55.615234 0)"/>
       <use xlink:href="#ArialMT-30" transform="translate(111.230469 0)"/>
       <use xlink:href="#ArialMT-30" transform="translate(166.845703 0)"/>
       <use xlink:href="#ArialMT-30" transform="translate(222.460938 0)"/>
      </g>
     </g>
    </g>
    <g id="ytick_6">
     <g id="line2d_10"/>
     <g id="text_11">
      <!-- 100000 -->
      <g transform="translate(21.887187 61.190028) scale(0.06 -0.06)">
       <use xlink:href="#ArialMT-31"/>
       <use xlink:href="#ArialMT-30" transform="translate(55.615234 0)"/>
       <use xlink:href="#ArialMT-30" transform="translate(111.230469 0)"/>
       <use xlink:href="#ArialMT-30" transform="translate(166.845703 0)"/>
       <use xlink:href="#ArialMT-30" transform="translate(222.460938 0)"/>
       <use xlink:href="#ArialMT-30" transform="translate(278.076172 0)"/>
      </g>
     </g>
    </g>
    <g id="ytick_7">
     <g id="line2d_11"/>
     <g id="text_12">
      <!-- 120000 -->
      <g transform="translate(21.887187 46.556325) scale(0.06 -0.06)">
       <use xlink:href="#ArialMT-31"/>
       <use xlink:href="#ArialMT-32" transform="translate(55.615234 0)"/>
       <use xlink:href="#ArialMT-30" transform="translate(111.230469 0)"/>
       <use xlink:href="#ArialMT-30" transform="translate(166.845703 0)"/>
       <use xlink:href="#ArialMT-30" transform="translate(222.460938 0)"/>
       <use xlink:href="#ArialMT-30" transform="translate(278.076172 0)"/>
      </g>
     </g>
    </g>
    <g id="text_13">
     <!-- Count -->
     <g transform="translate(18.694688 90.939244) rotate(-90) scale(0.06 -0.06)">
      <defs>
       <path id="ArialMT-43" d="M 3763 1606
L 4369 1453
Q 4178 706 3683 314
Q 3188 -78 2472 -78
Q 1731 -78 1267 223
Q 803 525 561 1097
Q 319 1669 319 2325
Q 319 3041 592 3573
Q 866 4106 1370 4382
Q 1875 4659 2481 4659
Q 3169 4659 3637 4309
Q 4106 3959 4291 3325
L 3694 3184
Q 3534 3684 3231 3912
Q 2928 4141 2469 4141
Q 1941 4141 1586 3887
Q 1231 3634 1087 3207
Q 944 2781 944 2328
Q 944 1744 1114 1308
Q 1284 872 1643 656
Q 2003 441 2422 441
Q 2931 441 3284 734
Q 3638 1028 3763 1606
z
" transform="scale(0.015625)"/>
       <path id="ArialMT-6f" d="M 213 1659
Q 213 2581 725 3025
Q 1153 3394 1769 3394
Q 2453 3394 2887 2945
Q 3322 2497 3322 1706
Q 3322 1066 3130 698
Q 2938 331 2570 128
Q 2203 -75 1769 -75
Q 1072 -75 642 372
Q 213 819 213 1659
z
M 791 1659
Q 791 1022 1069 705
Q 1347 388 1769 388
Q 2188 388 2466 706
Q 2744 1025 2744 1678
Q 2744 2294 2464 2611
Q 2184 2928 1769 2928
Q 1347 2928 1069 2612
Q 791 2297 791 1659
z
" transform="scale(0.015625)"/>
      </defs>
      <use xlink:href="#ArialMT-43"/>
      <use xlink:href="#ArialMT-6f" transform="translate(72.216797 0)"/>
      <use xlink:href="#ArialMT-75" transform="translate(127.832031 0)"/>
      <use xlink:href="#ArialMT-6e" transform="translate(183.447266 0)"/>
      <use xlink:href="#ArialMT-74" transform="translate(239.0625 0)"/>
     </g>
    </g>
   </g>
   <g id="patch_103">
    <path d="M 43.906562 132.2112
L 43.906562 33.6576
" style="fill: none; stroke: #000000; stroke-width: 0.5; stroke-linejoin: miter; stroke-linecap: square"/>
   </g>
   <g id="patch_104">
    <path d="M 43.906562 132.2112
L 210.428163 132.2112
" style="fill: none; stroke: #000000; stroke-width: 0.5; stroke-linejoin: miter; stroke-linecap: square"/>
   </g>
  </g>
  <g id="text_14">
   <!-- histogram plot basic -->
   <g transform="translate(42.207363 19.410469) scale(0.07 -0.07)">
    <defs>
     <path id="Arial-BoldMT-68" d="M 1334 4581
L 1334 2897
Q 1759 3394 2350 3394
Q 2653 3394 2897 3281
Q 3141 3169 3264 2994
Q 3388 2819 3433 2606
Q 3478 2394 3478 1947
L 3478 0
L 2600 0
L 2600 1753
Q 2600 2275 2550 2415
Q 2500 2556 2373 2639
Q 2247 2722 2056 2722
Q 1838 2722 1666 2615
Q 1494 2509 1414 2295
Q 1334 2081 1334 1663
L 1334 0
L 456 0
L 456 4581
L 1334 4581
z
" transform="scale(0.015625)"/>
     <path id="Arial-BoldMT-69" d="M 459 3769
L 459 4581
L 1338 4581
L 1338 3769
L 459 3769
z
M 459 0
L 459 3319
L 1338 3319
L 1338 0
L 459 0
z
" transform="scale(0.015625)"/>
     <path id="Arial-BoldMT-73" d="M 150 947
L 1031 1081
Q 1088 825 1259 692
Q 1431 559 1741 559
Q 2081 559 2253 684
Q 2369 772 2369 919
Q 2369 1019 2306 1084
Q 2241 1147 2013 1200
Q 950 1434 666 1628
Q 272 1897 272 2375
Q 272 2806 612 3100
Q 953 3394 1669 3394
Q 2350 3394 2681 3172
Q 3013 2950 3138 2516
L 2309 2363
Q 2256 2556 2107 2659
Q 1959 2763 1684 2763
Q 1338 2763 1188 2666
Q 1088 2597 1088 2488
Q 1088 2394 1175 2328
Q 1294 2241 1995 2081
Q 2697 1922 2975 1691
Q 3250 1456 3250 1038
Q 3250 581 2869 253
Q 2488 -75 1741 -75
Q 1063 -75 667 200
Q 272 475 150 947
z
" transform="scale(0.015625)"/>
     <path id="Arial-BoldMT-74" d="M 1981 3319
L 1981 2619
L 1381 2619
L 1381 1281
Q 1381 875 1398 808
Q 1416 741 1477 697
Q 1538 653 1625 653
Q 1747 653 1978 738
L 2053 56
Q 1747 -75 1359 -75
Q 1122 -75 931 4
Q 741 84 652 211
Q 563 338 528 553
Q 500 706 500 1172
L 500 2619
L 97 2619
L 97 3319
L 500 3319
L 500 3978
L 1381 4491
L 1381 3319
L 1981 3319
z
" transform="scale(0.015625)"/>
     <path id="Arial-BoldMT-6f" d="M 256 1706
Q 256 2144 472 2553
Q 688 2963 1083 3178
Q 1478 3394 1966 3394
Q 2719 3394 3200 2905
Q 3681 2416 3681 1669
Q 3681 916 3195 420
Q 2709 -75 1972 -75
Q 1516 -75 1102 131
Q 688 338 472 736
Q 256 1134 256 1706
z
M 1156 1659
Q 1156 1166 1390 903
Q 1625 641 1969 641
Q 2313 641 2545 903
Q 2778 1166 2778 1666
Q 2778 2153 2545 2415
Q 2313 2678 1969 2678
Q 1625 2678 1390 2415
Q 1156 2153 1156 1659
z
" transform="scale(0.015625)"/>
     <path id="Arial-BoldMT-67" d="M 378 -219
L 1381 -341
Q 1406 -516 1497 -581
Q 1622 -675 1891 -675
Q 2234 -675 2406 -572
Q 2522 -503 2581 -350
Q 2622 -241 2622 53
L 2622 538
Q 2228 0 1628 0
Q 959 0 569 566
Q 263 1013 263 1678
Q 263 2513 664 2953
Q 1066 3394 1663 3394
Q 2278 3394 2678 2853
L 2678 3319
L 3500 3319
L 3500 341
Q 3500 -247 3403 -537
Q 3306 -828 3131 -993
Q 2956 -1159 2664 -1253
Q 2372 -1347 1925 -1347
Q 1081 -1347 728 -1058
Q 375 -769 375 -325
Q 375 -281 378 -219
z
M 1163 1728
Q 1163 1200 1367 954
Q 1572 709 1872 709
Q 2194 709 2416 961
Q 2638 1213 2638 1706
Q 2638 2222 2425 2472
Q 2213 2722 1888 2722
Q 1572 2722 1367 2476
Q 1163 2231 1163 1728
z
" transform="scale(0.015625)"/>
     <path id="Arial-BoldMT-72" d="M 1300 0
L 422 0
L 422 3319
L 1238 3319
L 1238 2847
Q 1447 3181 1614 3287
Q 1781 3394 1994 3394
Q 2294 3394 2572 3228
L 2300 2463
Q 2078 2606 1888 2606
Q 1703 2606 1575 2504
Q 1447 2403 1373 2137
Q 1300 1872 1300 1025
L 1300 0
z
" transform="scale(0.015625)"/>
     <path id="Arial-BoldMT-61" d="M 1116 2306
L 319 2450
Q 453 2931 781 3162
Q 1109 3394 1756 3394
Q 2344 3394 2631 3255
Q 2919 3116 3036 2902
Q 3153 2688 3153 2116
L 3144 1091
Q 3144 653 3186 445
Q 3228 238 3344 0
L 2475 0
Q 2441 88 2391 259
Q 2369 338 2359 363
Q 2134 144 1878 34
Q 1622 -75 1331 -75
Q 819 -75 523 203
Q 228 481 228 906
Q 228 1188 362 1408
Q 497 1628 739 1745
Q 981 1863 1438 1950
Q 2053 2066 2291 2166
L 2291 2253
Q 2291 2506 2166 2614
Q 2041 2722 1694 2722
Q 1459 2722 1328 2630
Q 1197 2538 1116 2306
z
M 2291 1594
Q 2122 1538 1756 1459
Q 1391 1381 1278 1306
Q 1106 1184 1106 997
Q 1106 813 1243 678
Q 1381 544 1594 544
Q 1831 544 2047 700
Q 2206 819 2256 991
Q 2291 1103 2291 1419
L 2291 1594
z
" transform="scale(0.015625)"/>
     <path id="Arial-BoldMT-6d" d="M 394 3319
L 1203 3319
L 1203 2866
Q 1638 3394 2238 3394
Q 2556 3394 2790 3262
Q 3025 3131 3175 2866
Q 3394 3131 3647 3262
Q 3900 3394 4188 3394
Q 4553 3394 4806 3245
Q 5059 3097 5184 2809
Q 5275 2597 5275 2122
L 5275 0
L 4397 0
L 4397 1897
Q 4397 2391 4306 2534
Q 4184 2722 3931 2722
Q 3747 2722 3584 2609
Q 3422 2497 3350 2280
Q 3278 2063 3278 1594
L 3278 0
L 2400 0
L 2400 1819
Q 2400 2303 2353 2443
Q 2306 2584 2207 2653
Q 2109 2722 1941 2722
Q 1738 2722 1575 2612
Q 1413 2503 1342 2297
Q 1272 2091 1272 1613
L 1272 0
L 394 0
L 394 3319
z
" transform="scale(0.015625)"/>
     <path id="Arial-BoldMT-20" transform="scale(0.015625)"/>
     <path id="Arial-BoldMT-70" d="M 434 3319
L 1253 3319
L 1253 2831
Q 1413 3081 1684 3237
Q 1956 3394 2288 3394
Q 2866 3394 3269 2941
Q 3672 2488 3672 1678
Q 3672 847 3265 386
Q 2859 -75 2281 -75
Q 2006 -75 1782 34
Q 1559 144 1313 409
L 1313 -1263
L 434 -1263
L 434 3319
z
M 1303 1716
Q 1303 1156 1525 889
Q 1747 622 2066 622
Q 2372 622 2575 867
Q 2778 1113 2778 1672
Q 2778 2194 2568 2447
Q 2359 2700 2050 2700
Q 1728 2700 1515 2451
Q 1303 2203 1303 1716
z
" transform="scale(0.015625)"/>
     <path id="Arial-BoldMT-6c" d="M 459 0
L 459 4581
L 1338 4581
L 1338 0
L 459 0
z
" transform="scale(0.015625)"/>
     <path id="Arial-BoldMT-62" d="M 422 0
L 422 4581
L 1300 4581
L 1300 2931
Q 1706 3394 2263 3394
Q 2869 3394 3266 2955
Q 3663 2516 3663 1694
Q 3663 844 3258 384
Q 2853 -75 2275 -75
Q 1991 -75 1714 67
Q 1438 209 1238 488
L 1238 0
L 422 0
z
M 1294 1731
Q 1294 1216 1456 969
Q 1684 619 2063 619
Q 2353 619 2558 867
Q 2763 1116 2763 1650
Q 2763 2219 2556 2470
Q 2350 2722 2028 2722
Q 1713 2722 1503 2476
Q 1294 2231 1294 1731
z
" transform="scale(0.015625)"/>
     <path id="Arial-BoldMT-63" d="M 3353 2338
L 2488 2181
Q 2444 2441 2289 2572
Q 2134 2703 1888 2703
Q 1559 2703 1364 2476
Q 1169 2250 1169 1719
Q 1169 1128 1367 884
Q 1566 641 1900 641
Q 2150 641 2309 783
Q 2469 925 2534 1272
L 3397 1125
Q 3263 531 2881 228
Q 2500 -75 1859 -75
Q 1131 -75 698 384
Q 266 844 266 1656
Q 266 2478 700 2936
Q 1134 3394 1875 3394
Q 2481 3394 2839 3133
Q 3197 2872 3353 2338
z
" transform="scale(0.015625)"/>
    </defs>
    <use xlink:href="#Arial-BoldMT-68"/>
    <use xlink:href="#Arial-BoldMT-69" transform="translate(61.083984 0)"/>
    <use xlink:href="#Arial-BoldMT-73" transform="translate(88.867188 0)"/>
    <use xlink:href="#Arial-BoldMT-74" transform="translate(144.482422 0)"/>
    <use xlink:href="#Arial-BoldMT-6f" transform="translate(177.783203 0)"/>
    <use xlink:href="#Arial-BoldMT-67" transform="translate(238.867188 0)"/>
    <use xlink:href="#Arial-BoldMT-72" transform="translate(299.951172 0)"/>
    <use xlink:href="#Arial-BoldMT-61" transform="translate(338.867188 0)"/>
    <use xlink:href="#Arial-BoldMT-6d" transform="translate(394.482422 0)"/>
    <use xlink:href="#Arial-BoldMT-20" transform="translate(483.398438 0)"/>
    <use xlink:href="#Arial-BoldMT-70" transform="translate(511.181641 0)"/>
    <use xlink:href="#Arial-BoldMT-6c" transform="translate(572.265625 0)"/>
    <use xlink:href="#Arial-BoldMT-6f" transform="translate(600.048828 0)"/>
    <use xlink:href="#Arial-BoldMT-74" transform="translate(661.132812 0)"/>
    <use xlink:href="#Arial-BoldMT-20" transform="translate(694.433594 0)"/>
    <use xlink:href="#Arial-BoldMT-62" transform="translate(722.216797 0)"/>
    <use xlink:href="#Arial-BoldMT-61" transform="translate(783.300781 0)"/>
    <use xlink:href="#Arial-BoldMT-73" transform="translate(838.916016 0)"/>
    <use xlink:href="#Arial-BoldMT-69" transform="translate(894.53125 0)"/>
    <use xlink:href="#Arial-BoldMT-63" transform="translate(922.314453 0)"/>
   </g>
  </g>
 </g>
 <defs>
  <clipPath id="p2333bbd085">
   <rect x="43.906562" y="33.6576" width="166.5216" height="98.5536"/>
  </clipPath>
 </defs>
</svg>
