<?xml version="1.0" encoding="utf-8" standalone="no"?>
<!DOCTYPE svg PUBLIC "-//W3C//DTD SVG 1.1//EN"
  "http://www.w3.org/Graphics/SVG/1.1/DTD/svg11.dtd">
<svg xmlns:xlink="http://www.w3.org/1999/xlink" width="311.381403pt" height="168.537044pt" viewBox="0 0 311.381403 168.537044" xmlns="http://www.w3.org/2000/svg" version="1.1">
 <metadata>
  <rdf:RDF xmlns:dc="http://purl.org/dc/elements/1.1/" xmlns:cc="http://creativecommons.org/ns#" xmlns:rdf="http://www.w3.org/1999/02/22-rdf-syntax-ns#">
   <cc:Work>
    <dc:type rdf:resource="http://purl.org/dc/dcmitype/StillImage"/>
    <dc:date>2025-09-10T13:55:27.797689</dc:date>
    <dc:format>image/svg+xml</dc:format>
    <dc:creator>
     <cc:Agent>
      <dc:title>Matplotlib v3.10.1, https://matplotlib.org/</dc:title>
     </cc:Agent>
    </dc:creator>
   </cc:Work>
  </rdf:RDF>
 </metadata>
 <defs>
  <style type="text/css">*{stroke-linejoin: round; stroke-linecap: butt}</style>
 </defs>
 <g id="figure_1">
  <g id="patch_1">
   <path d="M 0 168.537044 
L 311.381403 168.537044 
L 311.381403 0 
L 0 0 
z
" style="fill: #ffffff"/>
  </g>
  <g id="axes_1">
   <g id="patch_2">
    <path d="M 35.659375 132.32126 
L 230.116068 132.32126 
L 230.116068 33.675591 
L 35.659375 33.675591 
z
" style="fill: #ffffff"/>
   </g>
   <g id="patch_3">
    <path d="M 44.498316 132.32126 
L 72.120005 132.32126 
L 72.120005 129.413982 
L 44.498316 129.413982 
z
" clip-path="url(#p5dcb83623c)" style="fill: #526c94; opacity: 0.9; stroke: #ffffff; stroke-width: 0.2; stroke-linejoin: miter"/>
   </g>
   <g id="patch_4">
    <path d="M 94.217356 132.32126 
L 121.839046 132.32126 
L 121.839046 117.799991 
L 94.217356 117.799991 
z
" clip-path="url(#p5dcb83623c)" style="fill: #526c94; opacity: 0.9; stroke: #ffffff; stroke-width: 0.2; stroke-linejoin: miter"/>
   </g>
   <g id="patch_5">
    <path d="M 143.936397 132.32126 
L 171.558087 132.32126 
L 171.558087 129.948827 
L 143.936397 129.948827 
z
" clip-path="url(#p5dcb83623c)" style="fill: #526c94; opacity: 0.9; stroke: #ffffff; stroke-width: 0.2; stroke-linejoin: miter"/>
   </g>
   <g id="patch_6">
    <path d="M 193.655438 132.32126 
L 221.277127 132.32126 
L 221.277127 114.081431 
L 193.655438 114.081431 
z
" clip-path="url(#p5dcb83623c)" style="fill: #526c94; opacity: 0.9; stroke: #ffffff; stroke-width: 0.2; stroke-linejoin: miter"/>
   </g>
   <g id="patch_7">
    <path d="M 44.498316 129.413982 
L 72.120005 129.413982 
L 72.120005 112.97063 
L 44.498316 112.97063 
z
" clip-path="url(#p5dcb83623c)" style="fill: #d8c367; opacity: 0.9; stroke: #ffffff; stroke-width: 0.2; stroke-linejoin: miter"/>
   </g>
   <g id="patch_8">
    <path d="M 94.217356 117.799991 
L 121.839046 117.799991 
L 121.839046 96.71113 
L 94.217356 96.71113 
z
" clip-path="url(#p5dcb83623c)" style="fill: #d8c367; opacity: 0.9; stroke: #ffffff; stroke-width: 0.2; stroke-linejoin: miter"/>
   </g>
   <g id="patch_9">
    <path d="M 143.936397 129.948827 
L 171.558087 129.948827 
L 171.558087 118.703112 
L 143.936397 118.703112 
z
" clip-path="url(#p5dcb83623c)" style="fill: #d8c367; opacity: 0.9; stroke: #ffffff; stroke-width: 0.2; stroke-linejoin: miter"/>
   </g>
   <g id="patch_10">
    <path d="M 193.655438 114.081431 
L 221.277127 114.081431 
L 221.277127 85.376047 
L 193.655438 85.376047 
z
" clip-path="url(#p5dcb83623c)" style="fill: #d8c367; opacity: 0.9; stroke: #ffffff; stroke-width: 0.2; stroke-linejoin: miter"/>
   </g>
   <g id="patch_11">
    <path d="M 44.498316 112.97063 
L 72.120005 112.97063 
L 72.120005 94.650726 
L 44.498316 94.650726 
z
" clip-path="url(#p5dcb83623c)" style="fill: #75b1ce; opacity: 0.9; stroke: #ffffff; stroke-width: 0.2; stroke-linejoin: miter"/>
   </g>
   <g id="patch_12">
    <path d="M 94.217356 96.71113 
L 121.839046 96.71113 
L 121.839046 88.314987 
L 94.217356 88.314987 
z
" clip-path="url(#p5dcb83623c)" style="fill: #75b1ce; opacity: 0.9; stroke: #ffffff; stroke-width: 0.2; stroke-linejoin: miter"/>
   </g>
   <g id="patch_13">
    <path d="M 143.936397 118.703112 
L 171.558087 118.703112 
L 171.558087 106.668108 
L 143.936397 106.668108 
z
" clip-path="url(#p5dcb83623c)" style="fill: #75b1ce; opacity: 0.9; stroke: #ffffff; stroke-width: 0.2; stroke-linejoin: miter"/>
   </g>
   <g id="patch_14">
    <path d="M 193.655438 85.376047 
L 221.277127 85.376047 
L 221.277127 83.109176 
L 193.655438 83.109176 
z
" clip-path="url(#p5dcb83623c)" style="fill: #75b1ce; opacity: 0.9; stroke: #ffffff; stroke-width: 0.2; stroke-linejoin: miter"/>
   </g>
   <g id="patch_15">
    <path d="M 44.498316 94.650726 
L 72.120005 94.650726 
L 72.120005 43.391808 
L 44.498316 43.391808 
z
" clip-path="url(#p5dcb83623c)" style="fill: #dc6b83; opacity: 0.9; stroke: #ffffff; stroke-width: 0.2; stroke-linejoin: miter"/>
   </g>
   <g id="patch_16">
    <path d="M 94.217356 88.314987 
L 121.839046 88.314987 
L 121.839046 44.337474 
L 94.217356 44.337474 
z
" clip-path="url(#p5dcb83623c)" style="fill: #dc6b83; opacity: 0.9; stroke: #ffffff; stroke-width: 0.2; stroke-linejoin: miter"/>
   </g>
   <g id="patch_17">
    <path d="M 143.936397 106.668108 
L 171.558087 106.668108 
L 171.558087 42.814764 
L 143.936397 42.814764 
z
" clip-path="url(#p5dcb83623c)" style="fill: #dc6b83; opacity: 0.9; stroke: #ffffff; stroke-width: 0.2; stroke-linejoin: miter"/>
   </g>
   <g id="patch_18">
    <path d="M 193.655438 83.109176 
L 221.277127 83.109176 
L 221.277127 43.208352 
L 193.655438 43.208352 
z
" clip-path="url(#p5dcb83623c)" style="fill: #dc6b83; opacity: 0.9; stroke: #ffffff; stroke-width: 0.2; stroke-linejoin: miter"/>
   </g>
   <g id="patch_19">
    <path d="M 44.498316 43.391808 
L 72.120005 43.391808 
L 72.120005 42.643379 
L 44.498316 42.643379 
z
" clip-path="url(#p5dcb83623c)" style="fill: #d4d3cf; opacity: 0.9; stroke: #ffffff; stroke-width: 0.2; stroke-linejoin: miter"/>
   </g>
   <g id="patch_20">
    <path d="M 94.217356 44.337474 
L 121.839046 44.337474 
L 121.839046 42.643379 
L 94.217356 42.643379 
z
" clip-path="url(#p5dcb83623c)" style="fill: #d4d3cf; opacity: 0.9; stroke: #ffffff; stroke-width: 0.2; stroke-linejoin: miter"/>
   </g>
   <g id="patch_21">
    <path d="M 143.936397 42.814764 
L 171.558087 42.814764 
L 171.558087 42.643379 
L 143.936397 42.643379 
z
" clip-path="url(#p5dcb83623c)" style="fill: #d4d3cf; opacity: 0.9; stroke: #ffffff; stroke-width: 0.2; stroke-linejoin: miter"/>
   </g>
   <g id="patch_22">
    <path d="M 193.655438 43.208352 
L 221.277127 43.208352 
L 221.277127 42.643379 
L 193.655438 42.643379 
z
" clip-path="url(#p5dcb83623c)" style="fill: #d4d3cf; opacity: 0.9; stroke: #ffffff; stroke-width: 0.2; stroke-linejoin: miter"/>
   </g>
   <g id="matplotlib.axis_1">
    <g id="xtick_1">
     <g id="line2d_1"/>
     <g id="text_1">
      <!-- control -->
      <g transform="translate(42.722759 152.249068) rotate(-45) scale(0.06 -0.06)">
       <defs>
        <path id="DejaVuSans-63" d="M 3122 3366 
L 3122 2828 
Q 2878 2963 2633 3030 
Q 2388 3097 2138 3097 
Q 1578 3097 1268 2742 
Q 959 2388 959 1747 
Q 959 1106 1268 751 
Q 1578 397 2138 397 
Q 2388 397 2633 464 
Q 2878 531 3122 666 
L 3122 134 
Q 2881 22 2623 -34 
Q 2366 -91 2075 -91 
Q 1284 -91 818 406 
Q 353 903 353 1747 
Q 353 2603 823 3093 
Q 1294 3584 2113 3584 
Q 2378 3584 2631 3529 
Q 2884 3475 3122 3366 
z
" transform="scale(0.015625)"/>
        <path id="DejaVuSans-6f" d="M 1959 3097 
Q 1497 3097 1228 2736 
Q 959 2375 959 1747 
Q 959 1119 1226 758 
Q 1494 397 1959 397 
Q 2419 397 2687 759 
Q 2956 1122 2956 1747 
Q 2956 2369 2687 2733 
Q 2419 3097 1959 3097 
z
M 1959 3584 
Q 2709 3584 3137 3096 
Q 3566 2609 3566 1747 
Q 3566 888 3137 398 
Q 2709 -91 1959 -91 
Q 1206 -91 779 398 
Q 353 888 353 1747 
Q 353 2609 779 3096 
Q 1206 3584 1959 3584 
z
" transform="scale(0.015625)"/>
        <path id="DejaVuSans-6e" d="M 3513 2113 
L 3513 0 
L 2938 0 
L 2938 2094 
Q 2938 2591 2744 2837 
Q 2550 3084 2163 3084 
Q 1697 3084 1428 2787 
Q 1159 2491 1159 1978 
L 1159 0 
L 581 0 
L 581 3500 
L 1159 3500 
L 1159 2956 
Q 1366 3272 1645 3428 
Q 1925 3584 2291 3584 
Q 2894 3584 3203 3211 
Q 3513 2838 3513 2113 
z
" transform="scale(0.015625)"/>
        <path id="DejaVuSans-74" d="M 1172 4494 
L 1172 3500 
L 2356 3500 
L 2356 3053 
L 1172 3053 
L 1172 1153 
Q 1172 725 1289 603 
Q 1406 481 1766 481 
L 2356 481 
L 2356 0 
L 1766 0 
Q 1100 0 847 248 
Q 594 497 594 1153 
L 594 3053 
L 172 3053 
L 172 3500 
L 594 3500 
L 594 4494 
L 1172 4494 
z
" transform="scale(0.015625)"/>
        <path id="DejaVuSans-72" d="M 2631 2963 
Q 2534 3019 2420 3045 
Q 2306 3072 2169 3072 
Q 1681 3072 1420 2755 
Q 1159 2438 1159 1844 
L 1159 0 
L 581 0 
L 581 3500 
L 1159 3500 
L 1159 2956 
Q 1341 3275 1631 3429 
Q 1922 3584 2338 3584 
Q 2397 3584 2469 3576 
Q 2541 3569 2628 3553 
L 2631 2963 
z
" transform="scale(0.015625)"/>
        <path id="DejaVuSans-6c" d="M 603 4863 
L 1178 4863 
L 1178 0 
L 603 0 
L 603 4863 
z
" transform="scale(0.015625)"/>
       </defs>
       <use xlink:href="#DejaVuSans-63"/>
       <use xlink:href="#DejaVuSans-6f" transform="translate(54.980469 0)"/>
       <use xlink:href="#DejaVuSans-6e" transform="translate(116.162109 0)"/>
       <use xlink:href="#DejaVuSans-74" transform="translate(179.541016 0)"/>
       <use xlink:href="#DejaVuSans-72" transform="translate(218.75 0)"/>
       <use xlink:href="#DejaVuSans-6f" transform="translate(257.613281 0)"/>
       <use xlink:href="#DejaVuSans-6c" transform="translate(318.794922 0)"/>
      </g>
     </g>
    </g>
    <g id="xtick_2">
     <g id="line2d_2"/>
     <g id="text_2">
      <!-- cond01 -->
      <g transform="translate(91.436161 153.254707) rotate(-45) scale(0.06 -0.06)">
       <defs>
        <path id="DejaVuSans-64" d="M 2906 2969 
L 2906 4863 
L 3481 4863 
L 3481 0 
L 2906 0 
L 2906 525 
Q 2725 213 2448 61 
Q 2172 -91 1784 -91 
Q 1150 -91 751 415 
Q 353 922 353 1747 
Q 353 2572 751 3078 
Q 1150 3584 1784 3584 
Q 2172 3584 2448 3432 
Q 2725 3281 2906 2969 
z
M 947 1747 
Q 947 1113 1208 752 
Q 1469 391 1925 391 
Q 2381 391 2643 752 
Q 2906 1113 2906 1747 
Q 2906 2381 2643 2742 
Q 2381 3103 1925 3103 
Q 1469 3103 1208 2742 
Q 947 2381 947 1747 
z
" transform="scale(0.015625)"/>
        <path id="DejaVuSans-30" d="M 2034 4250 
Q 1547 4250 1301 3770 
Q 1056 3291 1056 2328 
Q 1056 1369 1301 889 
Q 1547 409 2034 409 
Q 2525 409 2770 889 
Q 3016 1369 3016 2328 
Q 3016 3291 2770 3770 
Q 2525 4250 2034 4250 
z
M 2034 4750 
Q 2819 4750 3233 4129 
Q 3647 3509 3647 2328 
Q 3647 1150 3233 529 
Q 2819 -91 2034 -91 
Q 1250 -91 836 529 
Q 422 1150 422 2328 
Q 422 3509 836 4129 
Q 1250 4750 2034 4750 
z
" transform="scale(0.015625)"/>
        <path id="DejaVuSans-31" d="M 794 531 
L 1825 531 
L 1825 4091 
L 703 3866 
L 703 4441 
L 1819 4666 
L 2450 4666 
L 2450 531 
L 3481 531 
L 3481 0 
L 794 0 
L 794 531 
z
" transform="scale(0.015625)"/>
       </defs>
       <use xlink:href="#DejaVuSans-63"/>
       <use xlink:href="#DejaVuSans-6f" transform="translate(54.980469 0)"/>
       <use xlink:href="#DejaVuSans-6e" transform="translate(116.162109 0)"/>
       <use xlink:href="#DejaVuSans-64" transform="translate(179.541016 0)"/>
       <use xlink:href="#DejaVuSans-30" transform="translate(243.017578 0)"/>
       <use xlink:href="#DejaVuSans-31" transform="translate(306.640625 0)"/>
      </g>
     </g>
    </g>
    <g id="xtick_3">
     <g id="line2d_3"/>
     <g id="text_3">
      <!-- cond02 -->
      <g transform="translate(141.155202 153.254707) rotate(-45) scale(0.06 -0.06)">
       <defs>
        <path id="DejaVuSans-32" d="M 1228 531 
L 3431 531 
L 3431 0 
L 469 0 
L 469 531 
Q 828 903 1448 1529 
Q 2069 2156 2228 2338 
Q 2531 2678 2651 2914 
Q 2772 3150 2772 3378 
Q 2772 3750 2511 3984 
Q 2250 4219 1831 4219 
Q 1534 4219 1204 4116 
Q 875 4013 500 3803 
L 500 4441 
Q 881 4594 1212 4672 
Q 1544 4750 1819 4750 
Q 2544 4750 2975 4387 
Q 3406 4025 3406 3419 
Q 3406 3131 3298 2873 
Q 3191 2616 2906 2266 
Q 2828 2175 2409 1742 
Q 1991 1309 1228 531 
z
" transform="scale(0.015625)"/>
       </defs>
       <use xlink:href="#DejaVuSans-63"/>
       <use xlink:href="#DejaVuSans-6f" transform="translate(54.980469 0)"/>
       <use xlink:href="#DejaVuSans-6e" transform="translate(116.162109 0)"/>
       <use xlink:href="#DejaVuSans-64" transform="translate(179.541016 0)"/>
       <use xlink:href="#DejaVuSans-30" transform="translate(243.017578 0)"/>
       <use xlink:href="#DejaVuSans-32" transform="translate(306.640625 0)"/>
      </g>
     </g>
    </g>
    <g id="xtick_4">
     <g id="line2d_4"/>
     <g id="text_4">
      <!-- cond03 -->
      <g transform="translate(190.874243 153.254707) rotate(-45) scale(0.06 -0.06)">
       <defs>
        <path id="DejaVuSans-33" d="M 2597 2516 
Q 3050 2419 3304 2112 
Q 3559 1806 3559 1356 
Q 3559 666 3084 287 
Q 2609 -91 1734 -91 
Q 1441 -91 1130 -33 
Q 819 25 488 141 
L 488 750 
Q 750 597 1062 519 
Q 1375 441 1716 441 
Q 2309 441 2620 675 
Q 2931 909 2931 1356 
Q 2931 1769 2642 2001 
Q 2353 2234 1838 2234 
L 1294 2234 
L 1294 2753 
L 1863 2753 
Q 2328 2753 2575 2939 
Q 2822 3125 2822 3475 
Q 2822 3834 2567 4026 
Q 2313 4219 1838 4219 
Q 1578 4219 1281 4162 
Q 984 4106 628 3988 
L 628 4550 
Q 988 4650 1302 4700 
Q 1616 4750 1894 4750 
Q 2613 4750 3031 4423 
Q 3450 4097 3450 3541 
Q 3450 3153 3228 2886 
Q 3006 2619 2597 2516 
z
" transform="scale(0.015625)"/>
       </defs>
       <use xlink:href="#DejaVuSans-63"/>
       <use xlink:href="#DejaVuSans-6f" transform="translate(54.980469 0)"/>
       <use xlink:href="#DejaVuSans-6e" transform="translate(116.162109 0)"/>
       <use xlink:href="#DejaVuSans-64" transform="translate(179.541016 0)"/>
       <use xlink:href="#DejaVuSans-30" transform="translate(243.017578 0)"/>
       <use xlink:href="#DejaVuSans-33" transform="translate(306.640625 0)"/>
      </g>
     </g>
    </g>
   </g>
   <g id="matplotlib.axis_2">
    <g id="ytick_1">
     <g id="line2d_5"/>
     <g id="text_5">
      <!-- 0 -->
      <g transform="translate(29.841875 134.600791) scale(0.06 -0.06)">
       <use xlink:href="#DejaVuSans-30"/>
      </g>
     </g>
    </g>
    <g id="ytick_2">
     <g id="line2d_6"/>
     <g id="text_6">
      <!-- 20 -->
      <g transform="translate(26.024375 116.665215) scale(0.06 -0.06)">
       <use xlink:href="#DejaVuSans-32"/>
       <use xlink:href="#DejaVuSans-30" transform="translate(63.623047 0)"/>
      </g>
     </g>
    </g>
    <g id="ytick_3">
     <g id="line2d_7"/>
     <g id="text_7">
      <!-- 40 -->
      <g transform="translate(26.024375 98.729639) scale(0.06 -0.06)">
       <defs>
        <path id="DejaVuSans-34" d="M 2419 4116 
L 825 1625 
L 2419 1625 
L 2419 4116 
z
M 2253 4666 
L 3047 4666 
L 3047 1625 
L 3713 1625 
L 3713 1100 
L 3047 1100 
L 3047 0 
L 2419 0 
L 2419 1100 
L 313 1100 
L 313 1709 
L 2253 4666 
z
" transform="scale(0.015625)"/>
       </defs>
       <use xlink:href="#DejaVuSans-34"/>
       <use xlink:href="#DejaVuSans-30" transform="translate(63.623047 0)"/>
      </g>
     </g>
    </g>
    <g id="ytick_4">
     <g id="line2d_8"/>
     <g id="text_8">
      <!-- 60 -->
      <g transform="translate(26.024375 80.794062) scale(0.06 -0.06)">
       <defs>
        <path id="DejaVuSans-36" d="M 2113 2584 
Q 1688 2584 1439 2293 
Q 1191 2003 1191 1497 
Q 1191 994 1439 701 
Q 1688 409 2113 409 
Q 2538 409 2786 701 
Q 3034 994 3034 1497 
Q 3034 2003 2786 2293 
Q 2538 2584 2113 2584 
z
M 3366 4563 
L 3366 3988 
Q 3128 4100 2886 4159 
Q 2644 4219 2406 4219 
Q 1781 4219 1451 3797 
Q 1122 3375 1075 2522 
Q 1259 2794 1537 2939 
Q 1816 3084 2150 3084 
Q 2853 3084 3261 2657 
Q 3669 2231 3669 1497 
Q 3669 778 3244 343 
Q 2819 -91 2113 -91 
Q 1303 -91 875 529 
Q 447 1150 447 2328 
Q 447 3434 972 4092 
Q 1497 4750 2381 4750 
Q 2619 4750 2861 4703 
Q 3103 4656 3366 4563 
z
" transform="scale(0.015625)"/>
       </defs>
       <use xlink:href="#DejaVuSans-36"/>
       <use xlink:href="#DejaVuSans-30" transform="translate(63.623047 0)"/>
      </g>
     </g>
    </g>
    <g id="ytick_5">
     <g id="line2d_9"/>
     <g id="text_9">
      <!-- 80 -->
      <g transform="translate(26.024375 62.858486) scale(0.06 -0.06)">
       <defs>
        <path id="DejaVuSans-38" d="M 2034 2216 
Q 1584 2216 1326 1975 
Q 1069 1734 1069 1313 
Q 1069 891 1326 650 
Q 1584 409 2034 409 
Q 2484 409 2743 651 
Q 3003 894 3003 1313 
Q 3003 1734 2745 1975 
Q 2488 2216 2034 2216 
z
M 1403 2484 
Q 997 2584 770 2862 
Q 544 3141 544 3541 
Q 544 4100 942 4425 
Q 1341 4750 2034 4750 
Q 2731 4750 3128 4425 
Q 3525 4100 3525 3541 
Q 3525 3141 3298 2862 
Q 3072 2584 2669 2484 
Q 3125 2378 3379 2068 
Q 3634 1759 3634 1313 
Q 3634 634 3220 271 
Q 2806 -91 2034 -91 
Q 1263 -91 848 271 
Q 434 634 434 1313 
Q 434 1759 690 2068 
Q 947 2378 1403 2484 
z
M 1172 3481 
Q 1172 3119 1398 2916 
Q 1625 2713 2034 2713 
Q 2441 2713 2670 2916 
Q 2900 3119 2900 3481 
Q 2900 3844 2670 4047 
Q 2441 4250 2034 4250 
Q 1625 4250 1398 4047 
Q 1172 3844 1172 3481 
z
" transform="scale(0.015625)"/>
       </defs>
       <use xlink:href="#DejaVuSans-38"/>
       <use xlink:href="#DejaVuSans-30" transform="translate(63.623047 0)"/>
      </g>
     </g>
    </g>
    <g id="ytick_6">
     <g id="line2d_10"/>
     <g id="text_10">
      <!-- 100 -->
      <g transform="translate(22.206875 44.92291) scale(0.06 -0.06)">
       <use xlink:href="#DejaVuSans-31"/>
       <use xlink:href="#DejaVuSans-30" transform="translate(63.623047 0)"/>
       <use xlink:href="#DejaVuSans-30" transform="translate(127.246094 0)"/>
      </g>
     </g>
    </g>
    <g id="text_11">
     <!-- % of population -->
     <g transform="translate(18.959062 106.611706) rotate(-90) scale(0.06 -0.06)">
      <defs>
       <path id="DejaVuSans-25" d="M 4653 2053 
Q 4381 2053 4226 1822 
Q 4072 1591 4072 1178 
Q 4072 772 4226 539 
Q 4381 306 4653 306 
Q 4919 306 5073 539 
Q 5228 772 5228 1178 
Q 5228 1588 5073 1820 
Q 4919 2053 4653 2053 
z
M 4653 2450 
Q 5147 2450 5437 2106 
Q 5728 1763 5728 1178 
Q 5728 594 5436 251 
Q 5144 -91 4653 -91 
Q 4153 -91 3862 251 
Q 3572 594 3572 1178 
Q 3572 1766 3864 2108 
Q 4156 2450 4653 2450 
z
M 1428 4353 
Q 1159 4353 1004 4120 
Q 850 3888 850 3481 
Q 850 3069 1003 2837 
Q 1156 2606 1428 2606 
Q 1700 2606 1854 2837 
Q 2009 3069 2009 3481 
Q 2009 3884 1853 4118 
Q 1697 4353 1428 4353 
z
M 4250 4750 
L 4750 4750 
L 1831 -91 
L 1331 -91 
L 4250 4750 
z
M 1428 4750 
Q 1922 4750 2215 4408 
Q 2509 4066 2509 3481 
Q 2509 2891 2217 2550 
Q 1925 2209 1428 2209 
Q 931 2209 642 2551 
Q 353 2894 353 3481 
Q 353 4063 643 4406 
Q 934 4750 1428 4750 
z
" transform="scale(0.015625)"/>
       <path id="DejaVuSans-20" transform="scale(0.015625)"/>
       <path id="DejaVuSans-66" d="M 2375 4863 
L 2375 4384 
L 1825 4384 
Q 1516 4384 1395 4259 
Q 1275 4134 1275 3809 
L 1275 3500 
L 2222 3500 
L 2222 3053 
L 1275 3053 
L 1275 0 
L 697 0 
L 697 3053 
L 147 3053 
L 147 3500 
L 697 3500 
L 697 3744 
Q 697 4328 969 4595 
Q 1241 4863 1831 4863 
L 2375 4863 
z
" transform="scale(0.015625)"/>
       <path id="DejaVuSans-70" d="M 1159 525 
L 1159 -1331 
L 581 -1331 
L 581 3500 
L 1159 3500 
L 1159 2969 
Q 1341 3281 1617 3432 
Q 1894 3584 2278 3584 
Q 2916 3584 3314 3078 
Q 3713 2572 3713 1747 
Q 3713 922 3314 415 
Q 2916 -91 2278 -91 
Q 1894 -91 1617 61 
Q 1341 213 1159 525 
z
M 3116 1747 
Q 3116 2381 2855 2742 
Q 2594 3103 2138 3103 
Q 1681 3103 1420 2742 
Q 1159 2381 1159 1747 
Q 1159 1113 1420 752 
Q 1681 391 2138 391 
Q 2594 391 2855 752 
Q 3116 1113 3116 1747 
z
" transform="scale(0.015625)"/>
       <path id="DejaVuSans-75" d="M 544 1381 
L 544 3500 
L 1119 3500 
L 1119 1403 
Q 1119 906 1312 657 
Q 1506 409 1894 409 
Q 2359 409 2629 706 
Q 2900 1003 2900 1516 
L 2900 3500 
L 3475 3500 
L 3475 0 
L 2900 0 
L 2900 538 
Q 2691 219 2414 64 
Q 2138 -91 1772 -91 
Q 1169 -91 856 284 
Q 544 659 544 1381 
z
M 1991 3584 
L 1991 3584 
z
" transform="scale(0.015625)"/>
       <path id="DejaVuSans-61" d="M 2194 1759 
Q 1497 1759 1228 1600 
Q 959 1441 959 1056 
Q 959 750 1161 570 
Q 1363 391 1709 391 
Q 2188 391 2477 730 
Q 2766 1069 2766 1631 
L 2766 1759 
L 2194 1759 
z
M 3341 1997 
L 3341 0 
L 2766 0 
L 2766 531 
Q 2569 213 2275 61 
Q 1981 -91 1556 -91 
Q 1019 -91 701 211 
Q 384 513 384 1019 
Q 384 1609 779 1909 
Q 1175 2209 1959 2209 
L 2766 2209 
L 2766 2266 
Q 2766 2663 2505 2880 
Q 2244 3097 1772 3097 
Q 1472 3097 1187 3025 
Q 903 2953 641 2809 
L 641 3341 
Q 956 3463 1253 3523 
Q 1550 3584 1831 3584 
Q 2591 3584 2966 3190 
Q 3341 2797 3341 1997 
z
" transform="scale(0.015625)"/>
       <path id="DejaVuSans-69" d="M 603 3500 
L 1178 3500 
L 1178 0 
L 603 0 
L 603 3500 
z
M 603 4863 
L 1178 4863 
L 1178 4134 
L 603 4134 
L 603 4863 
z
" transform="scale(0.015625)"/>
      </defs>
      <use xlink:href="#DejaVuSans-25"/>
      <use xlink:href="#DejaVuSans-20" transform="translate(95.019531 0)"/>
      <use xlink:href="#DejaVuSans-6f" transform="translate(126.806641 0)"/>
      <use xlink:href="#DejaVuSans-66" transform="translate(187.988281 0)"/>
      <use xlink:href="#DejaVuSans-20" transform="translate(223.193359 0)"/>
      <use xlink:href="#DejaVuSans-70" transform="translate(254.980469 0)"/>
      <use xlink:href="#DejaVuSans-6f" transform="translate(318.457031 0)"/>
      <use xlink:href="#DejaVuSans-70" transform="translate(379.638672 0)"/>
      <use xlink:href="#DejaVuSans-75" transform="translate(443.115234 0)"/>
      <use xlink:href="#DejaVuSans-6c" transform="translate(506.494141 0)"/>
      <use xlink:href="#DejaVuSans-61" transform="translate(534.277344 0)"/>
      <use xlink:href="#DejaVuSans-74" transform="translate(595.556641 0)"/>
      <use xlink:href="#DejaVuSans-69" transform="translate(634.765625 0)"/>
      <use xlink:href="#DejaVuSans-6f" transform="translate(662.548828 0)"/>
      <use xlink:href="#DejaVuSans-6e" transform="translate(723.730469 0)"/>
     </g>
    </g>
   </g>
   <g id="LineCollection_1">
    <path d="M 58.30916 129.997554 
L 58.30916 128.830411 
" clip-path="url(#p5dcb83623c)" style="fill: none; stroke: #000000; stroke-width: 0.5"/>
    <path d="M 108.028201 121.609457 
L 108.028201 113.990524 
" clip-path="url(#p5dcb83623c)" style="fill: none; stroke: #000000; stroke-width: 0.5"/>
    <path d="M 157.747242 130.614598 
L 157.747242 129.283056 
" clip-path="url(#p5dcb83623c)" style="fill: none; stroke: #000000; stroke-width: 0.5"/>
    <path d="M 207.466283 117.46925 
L 207.466283 110.693613 
" clip-path="url(#p5dcb83623c)" style="fill: none; stroke: #000000; stroke-width: 0.5"/>
   </g>
   <g id="line2d_11">
    <defs>
     <path id="m4be055a455" d="M 3 0 
L -3 -0 
" style="stroke: #000000"/>
    </defs>
    <g clip-path="url(#p5dcb83623c)">
     <use xlink:href="#m4be055a455" x="58.30916" y="129.997554" style="stroke: #000000"/>
     <use xlink:href="#m4be055a455" x="108.028201" y="121.609457" style="stroke: #000000"/>
     <use xlink:href="#m4be055a455" x="157.747242" y="130.614598" style="stroke: #000000"/>
     <use xlink:href="#m4be055a455" x="207.466283" y="117.46925" style="stroke: #000000"/>
    </g>
   </g>
   <g id="line2d_12">
    <g clip-path="url(#p5dcb83623c)">
     <use xlink:href="#m4be055a455" x="58.30916" y="128.830411" style="stroke: #000000"/>
     <use xlink:href="#m4be055a455" x="108.028201" y="113.990524" style="stroke: #000000"/>
     <use xlink:href="#m4be055a455" x="157.747242" y="129.283056" style="stroke: #000000"/>
     <use xlink:href="#m4be055a455" x="207.466283" y="110.693613" style="stroke: #000000"/>
    </g>
   </g>
   <g id="LineCollection_2">
    <path d="M 58.30916 113.482018 
L 58.30916 112.459243 
" clip-path="url(#p5dcb83623c)" style="fill: none; stroke: #000000; stroke-width: 0.5"/>
    <path d="M 108.028201 98.425014 
L 108.028201 94.997246 
" clip-path="url(#p5dcb83623c)" style="fill: none; stroke: #000000; stroke-width: 0.5"/>
    <path d="M 157.747242 119.856627 
L 157.747242 117.549597 
" clip-path="url(#p5dcb83623c)" style="fill: none; stroke: #000000; stroke-width: 0.5"/>
    <path d="M 207.466283 87.98647 
L 207.466283 82.765624 
" clip-path="url(#p5dcb83623c)" style="fill: none; stroke: #000000; stroke-width: 0.5"/>
   </g>
   <g id="line2d_13">
    <g clip-path="url(#p5dcb83623c)">
     <use xlink:href="#m4be055a455" x="58.30916" y="113.482018" style="stroke: #000000"/>
     <use xlink:href="#m4be055a455" x="108.028201" y="98.425014" style="stroke: #000000"/>
     <use xlink:href="#m4be055a455" x="157.747242" y="119.856627" style="stroke: #000000"/>
     <use xlink:href="#m4be055a455" x="207.466283" y="87.98647" style="stroke: #000000"/>
    </g>
   </g>
   <g id="line2d_14">
    <g clip-path="url(#p5dcb83623c)">
     <use xlink:href="#m4be055a455" x="58.30916" y="112.459243" style="stroke: #000000"/>
     <use xlink:href="#m4be055a455" x="108.028201" y="94.997246" style="stroke: #000000"/>
     <use xlink:href="#m4be055a455" x="157.747242" y="117.549597" style="stroke: #000000"/>
     <use xlink:href="#m4be055a455" x="207.466283" y="82.765624" style="stroke: #000000"/>
    </g>
   </g>
   <g id="LineCollection_3">
    <path d="M 58.30916 97.183115 
L 58.30916 92.118336 
" clip-path="url(#p5dcb83623c)" style="fill: none; stroke: #000000; stroke-width: 0.5"/>
    <path d="M 108.028201 89.666011 
L 108.028201 86.963963 
" clip-path="url(#p5dcb83623c)" style="fill: none; stroke: #000000; stroke-width: 0.5"/>
    <path d="M 157.747242 109.170211 
L 157.747242 104.166006 
" clip-path="url(#p5dcb83623c)" style="fill: none; stroke: #000000; stroke-width: 0.5"/>
    <path d="M 207.466283 84.121807 
L 207.466283 82.096545 
" clip-path="url(#p5dcb83623c)" style="fill: none; stroke: #000000; stroke-width: 0.5"/>
   </g>
   <g id="line2d_15">
    <g clip-path="url(#p5dcb83623c)">
     <use xlink:href="#m4be055a455" x="58.30916" y="97.183115" style="stroke: #000000"/>
     <use xlink:href="#m4be055a455" x="108.028201" y="89.666011" style="stroke: #000000"/>
     <use xlink:href="#m4be055a455" x="157.747242" y="109.170211" style="stroke: #000000"/>
     <use xlink:href="#m4be055a455" x="207.466283" y="84.121807" style="stroke: #000000"/>
    </g>
   </g>
   <g id="line2d_16">
    <g clip-path="url(#p5dcb83623c)">
     <use xlink:href="#m4be055a455" x="58.30916" y="92.118336" style="stroke: #000000"/>
     <use xlink:href="#m4be055a455" x="108.028201" y="86.963963" style="stroke: #000000"/>
     <use xlink:href="#m4be055a455" x="157.747242" y="104.166006" style="stroke: #000000"/>
     <use xlink:href="#m4be055a455" x="207.466283" y="82.096545" style="stroke: #000000"/>
    </g>
   </g>
   <g id="LineCollection_4">
    <path d="M 58.30916 45.760234 
L 58.30916 41.023382 
" clip-path="url(#p5dcb83623c)" style="fill: none; stroke: #000000; stroke-width: 0.5"/>
    <path d="M 108.028201 47.395181 
L 108.028201 41.279767 
" clip-path="url(#p5dcb83623c)" style="fill: none; stroke: #000000; stroke-width: 0.5"/>
    <path d="M 157.747242 47.04739 
L 157.747242 38.582137 
" clip-path="url(#p5dcb83623c)" style="fill: none; stroke: #000000; stroke-width: 0.5"/>
    <path d="M 207.466283 45.961395 
L 207.466283 40.455308 
" clip-path="url(#p5dcb83623c)" style="fill: none; stroke: #000000; stroke-width: 0.5"/>
   </g>
   <g id="line2d_17">
    <g clip-path="url(#p5dcb83623c)">
     <use xlink:href="#m4be055a455" x="58.30916" y="45.760234" style="stroke: #000000"/>
     <use xlink:href="#m4be055a455" x="108.028201" y="47.395181" style="stroke: #000000"/>
     <use xlink:href="#m4be055a455" x="157.747242" y="47.04739" style="stroke: #000000"/>
     <use xlink:href="#m4be055a455" x="207.466283" y="45.961395" style="stroke: #000000"/>
    </g>
   </g>
   <g id="line2d_18">
    <g clip-path="url(#p5dcb83623c)">
     <use xlink:href="#m4be055a455" x="58.30916" y="41.023382" style="stroke: #000000"/>
     <use xlink:href="#m4be055a455" x="108.028201" y="41.279767" style="stroke: #000000"/>
     <use xlink:href="#m4be055a455" x="157.747242" y="38.582137" style="stroke: #000000"/>
     <use xlink:href="#m4be055a455" x="207.466283" y="40.455308" style="stroke: #000000"/>
    </g>
   </g>
   <g id="LineCollection_5">
    <path d="M 58.30916 43.003218 
L 58.30916 42.283539 
" clip-path="url(#p5dcb83623c)" style="fill: none; stroke: #000000; stroke-width: 0.5"/>
    <path d="M 108.028201 42.805081 
L 108.028201 42.481676 
" clip-path="url(#p5dcb83623c)" style="fill: none; stroke: #000000; stroke-width: 0.5"/>
    <path d="M 157.747242 42.688652 
L 157.747242 42.598105 
" clip-path="url(#p5dcb83623c)" style="fill: none; stroke: #000000; stroke-width: 0.5"/>
    <path d="M 207.466283 42.818307 
L 207.466283 42.468451 
" clip-path="url(#p5dcb83623c)" style="fill: none; stroke: #000000; stroke-width: 0.5"/>
   </g>
   <g id="line2d_19">
    <g clip-path="url(#p5dcb83623c)">
     <use xlink:href="#m4be055a455" x="58.30916" y="43.003218" style="stroke: #000000"/>
     <use xlink:href="#m4be055a455" x="108.028201" y="42.805081" style="stroke: #000000"/>
     <use xlink:href="#m4be055a455" x="157.747242" y="42.688652" style="stroke: #000000"/>
     <use xlink:href="#m4be055a455" x="207.466283" y="42.818307" style="stroke: #000000"/>
    </g>
   </g>
   <g id="line2d_20">
    <g clip-path="url(#p5dcb83623c)">
     <use xlink:href="#m4be055a455" x="58.30916" y="42.283539" style="stroke: #000000"/>
     <use xlink:href="#m4be055a455" x="108.028201" y="42.481676" style="stroke: #000000"/>
     <use xlink:href="#m4be055a455" x="157.747242" y="42.598105" style="stroke: #000000"/>
     <use xlink:href="#m4be055a455" x="207.466283" y="42.468451" style="stroke: #000000"/>
    </g>
   </g>
   <g id="patch_23">
    <path d="M 35.659375 132.32126 
L 35.659375 33.675591 
" style="fill: none; stroke: #000000; stroke-width: 0.5; stroke-linejoin: miter; stroke-linecap: square"/>
   </g>
   <g id="patch_24">
    <path d="M 35.659375 132.32126 
L 230.116068 132.32126 
" style="fill: none; stroke: #000000; stroke-width: 0.5; stroke-linejoin: miter; stroke-linecap: square"/>
   </g>
   <g id="legend_1">
    <g id="patch_25">
     <path d="M 244.038903 83.816841 
L 295.781403 83.816841 
Q 296.981403 83.816841 296.981403 82.616841 
L 296.981403 37.875591 
Q 296.981403 36.675591 295.781403 36.675591 
L 244.038903 36.675591 
Q 242.838903 36.675591 242.838903 37.875591 
L 242.838903 82.616841 
Q 242.838903 83.816841 244.038903 83.816841 
z
" style="fill: #ffffff; stroke: #cccccc; stroke-linejoin: miter"/>
    </g>
    <g id="text_12">
     <!-- Cell Cycle Phase -->
     <g transform="translate(245.238903 43.634653) scale(0.06 -0.06)">
      <defs>
       <path id="DejaVuSans-43" d="M 4122 4306 
L 4122 3641 
Q 3803 3938 3442 4084 
Q 3081 4231 2675 4231 
Q 1875 4231 1450 3742 
Q 1025 3253 1025 2328 
Q 1025 1406 1450 917 
Q 1875 428 2675 428 
Q 3081 428 3442 575 
Q 3803 722 4122 1019 
L 4122 359 
Q 3791 134 3420 21 
Q 3050 -91 2638 -91 
Q 1578 -91 968 557 
Q 359 1206 359 2328 
Q 359 3453 968 4101 
Q 1578 4750 2638 4750 
Q 3056 4750 3426 4639 
Q 3797 4528 4122 4306 
z
" transform="scale(0.015625)"/>
       <path id="DejaVuSans-65" d="M 3597 1894 
L 3597 1613 
L 953 1613 
Q 991 1019 1311 708 
Q 1631 397 2203 397 
Q 2534 397 2845 478 
Q 3156 559 3463 722 
L 3463 178 
Q 3153 47 2828 -22 
Q 2503 -91 2169 -91 
Q 1331 -91 842 396 
Q 353 884 353 1716 
Q 353 2575 817 3079 
Q 1281 3584 2069 3584 
Q 2775 3584 3186 3129 
Q 3597 2675 3597 1894 
z
M 3022 2063 
Q 3016 2534 2758 2815 
Q 2500 3097 2075 3097 
Q 1594 3097 1305 2825 
Q 1016 2553 972 2059 
L 3022 2063 
z
" transform="scale(0.015625)"/>
       <path id="DejaVuSans-79" d="M 2059 -325 
Q 1816 -950 1584 -1140 
Q 1353 -1331 966 -1331 
L 506 -1331 
L 506 -850 
L 844 -850 
Q 1081 -850 1212 -737 
Q 1344 -625 1503 -206 
L 1606 56 
L 191 3500 
L 800 3500 
L 1894 763 
L 2988 3500 
L 3597 3500 
L 2059 -325 
z
" transform="scale(0.015625)"/>
       <path id="DejaVuSans-50" d="M 1259 4147 
L 1259 2394 
L 2053 2394 
Q 2494 2394 2734 2622 
Q 2975 2850 2975 3272 
Q 2975 3691 2734 3919 
Q 2494 4147 2053 4147 
L 1259 4147 
z
M 628 4666 
L 2053 4666 
Q 2838 4666 3239 4311 
Q 3641 3956 3641 3272 
Q 3641 2581 3239 2228 
Q 2838 1875 2053 1875 
L 1259 1875 
L 1259 0 
L 628 0 
L 628 4666 
z
" transform="scale(0.015625)"/>
       <path id="DejaVuSans-68" d="M 3513 2113 
L 3513 0 
L 2938 0 
L 2938 2094 
Q 2938 2591 2744 2837 
Q 2550 3084 2163 3084 
Q 1697 3084 1428 2787 
Q 1159 2491 1159 1978 
L 1159 0 
L 581 0 
L 581 4863 
L 1159 4863 
L 1159 2956 
Q 1366 3272 1645 3428 
Q 1925 3584 2291 3584 
Q 2894 3584 3203 3211 
Q 3513 2838 3513 2113 
z
" transform="scale(0.015625)"/>
       <path id="DejaVuSans-73" d="M 2834 3397 
L 2834 2853 
Q 2591 2978 2328 3040 
Q 2066 3103 1784 3103 
Q 1356 3103 1142 2972 
Q 928 2841 928 2578 
Q 928 2378 1081 2264 
Q 1234 2150 1697 2047 
L 1894 2003 
Q 2506 1872 2764 1633 
Q 3022 1394 3022 966 
Q 3022 478 2636 193 
Q 2250 -91 1575 -91 
Q 1294 -91 989 -36 
Q 684 19 347 128 
L 347 722 
Q 666 556 975 473 
Q 1284 391 1588 391 
Q 1994 391 2212 530 
Q 2431 669 2431 922 
Q 2431 1156 2273 1281 
Q 2116 1406 1581 1522 
L 1381 1569 
Q 847 1681 609 1914 
Q 372 2147 372 2553 
Q 372 3047 722 3315 
Q 1072 3584 1716 3584 
Q 2034 3584 2315 3537 
Q 2597 3491 2834 3397 
z
" transform="scale(0.015625)"/>
      </defs>
      <use xlink:href="#DejaVuSans-43"/>
      <use xlink:href="#DejaVuSans-65" transform="translate(69.824219 0)"/>
      <use xlink:href="#DejaVuSans-6c" transform="translate(131.347656 0)"/>
      <use xlink:href="#DejaVuSans-6c" transform="translate(159.130859 0)"/>
      <use xlink:href="#DejaVuSans-20" transform="translate(186.914062 0)"/>
      <use xlink:href="#DejaVuSans-43" transform="translate(218.701172 0)"/>
      <use xlink:href="#DejaVuSans-79" transform="translate(288.525391 0)"/>
      <use xlink:href="#DejaVuSans-63" transform="translate(347.705078 0)"/>
      <use xlink:href="#DejaVuSans-6c" transform="translate(402.685547 0)"/>
      <use xlink:href="#DejaVuSans-65" transform="translate(430.46875 0)"/>
      <use xlink:href="#DejaVuSans-20" transform="translate(491.992188 0)"/>
      <use xlink:href="#DejaVuSans-50" transform="translate(523.779297 0)"/>
      <use xlink:href="#DejaVuSans-68" transform="translate(584.082031 0)"/>
      <use xlink:href="#DejaVuSans-61" transform="translate(647.460938 0)"/>
      <use xlink:href="#DejaVuSans-73" transform="translate(708.740234 0)"/>
      <use xlink:href="#DejaVuSans-65" transform="translate(760.839844 0)"/>
     </g>
    </g>
    <g id="patch_26">
     <path d="M 248.053746 50.941528 
L 260.053746 50.941528 
L 260.053746 46.741528 
L 248.053746 46.741528 
z
" style="fill: #d4d3cf; opacity: 0.9; stroke: #ffffff; stroke-width: 0.2; stroke-linejoin: miter"/>
    </g>
    <g id="text_13">
     <!-- Sub-G1 -->
     <g transform="translate(264.853746 50.941528) scale(0.06 -0.06)">
      <defs>
       <path id="DejaVuSans-53" d="M 3425 4513 
L 3425 3897 
Q 3066 4069 2747 4153 
Q 2428 4238 2131 4238 
Q 1616 4238 1336 4038 
Q 1056 3838 1056 3469 
Q 1056 3159 1242 3001 
Q 1428 2844 1947 2747 
L 2328 2669 
Q 3034 2534 3370 2195 
Q 3706 1856 3706 1288 
Q 3706 609 3251 259 
Q 2797 -91 1919 -91 
Q 1588 -91 1214 -16 
Q 841 59 441 206 
L 441 856 
Q 825 641 1194 531 
Q 1563 422 1919 422 
Q 2459 422 2753 634 
Q 3047 847 3047 1241 
Q 3047 1584 2836 1778 
Q 2625 1972 2144 2069 
L 1759 2144 
Q 1053 2284 737 2584 
Q 422 2884 422 3419 
Q 422 4038 858 4394 
Q 1294 4750 2059 4750 
Q 2388 4750 2728 4690 
Q 3069 4631 3425 4513 
z
" transform="scale(0.015625)"/>
       <path id="DejaVuSans-62" d="M 3116 1747 
Q 3116 2381 2855 2742 
Q 2594 3103 2138 3103 
Q 1681 3103 1420 2742 
Q 1159 2381 1159 1747 
Q 1159 1113 1420 752 
Q 1681 391 2138 391 
Q 2594 391 2855 752 
Q 3116 1113 3116 1747 
z
M 1159 2969 
Q 1341 3281 1617 3432 
Q 1894 3584 2278 3584 
Q 2916 3584 3314 3078 
Q 3713 2572 3713 1747 
Q 3713 922 3314 415 
Q 2916 -91 2278 -91 
Q 1894 -91 1617 61 
Q 1341 213 1159 525 
L 1159 0 
L 581 0 
L 581 4863 
L 1159 4863 
L 1159 2969 
z
" transform="scale(0.015625)"/>
       <path id="DejaVuSans-2d" d="M 313 2009 
L 1997 2009 
L 1997 1497 
L 313 1497 
L 313 2009 
z
" transform="scale(0.015625)"/>
       <path id="DejaVuSans-47" d="M 3809 666 
L 3809 1919 
L 2778 1919 
L 2778 2438 
L 4434 2438 
L 4434 434 
Q 4069 175 3628 42 
Q 3188 -91 2688 -91 
Q 1594 -91 976 548 
Q 359 1188 359 2328 
Q 359 3472 976 4111 
Q 1594 4750 2688 4750 
Q 3144 4750 3555 4637 
Q 3966 4525 4313 4306 
L 4313 3634 
Q 3963 3931 3569 4081 
Q 3175 4231 2741 4231 
Q 1884 4231 1454 3753 
Q 1025 3275 1025 2328 
Q 1025 1384 1454 906 
Q 1884 428 2741 428 
Q 3075 428 3337 486 
Q 3600 544 3809 666 
z
" transform="scale(0.015625)"/>
      </defs>
      <use xlink:href="#DejaVuSans-53"/>
      <use xlink:href="#DejaVuSans-75" transform="translate(63.476562 0)"/>
      <use xlink:href="#DejaVuSans-62" transform="translate(126.855469 0)"/>
      <use xlink:href="#DejaVuSans-2d" transform="translate(190.332031 0)"/>
      <use xlink:href="#DejaVuSans-47" transform="translate(230.041016 0)"/>
      <use xlink:href="#DejaVuSans-31" transform="translate(307.53125 0)"/>
     </g>
    </g>
    <g id="patch_27">
     <path d="M 248.053746 58.248403 
L 260.053746 58.248403 
L 260.053746 54.048403 
L 248.053746 54.048403 
z
" style="fill: #dc6b83; opacity: 0.9; stroke: #ffffff; stroke-width: 0.2; stroke-linejoin: miter"/>
    </g>
    <g id="text_14">
     <!-- G1 -->
     <g transform="translate(264.853746 58.248403) scale(0.06 -0.06)">
      <use xlink:href="#DejaVuSans-47"/>
      <use xlink:href="#DejaVuSans-31" transform="translate(77.490234 0)"/>
     </g>
    </g>
    <g id="patch_28">
     <path d="M 248.053746 65.555278 
L 260.053746 65.555278 
L 260.053746 61.355278 
L 248.053746 61.355278 
z
" style="fill: #75b1ce; opacity: 0.9; stroke: #ffffff; stroke-width: 0.2; stroke-linejoin: miter"/>
    </g>
    <g id="text_15">
     <!-- S -->
     <g transform="translate(264.853746 65.555278) scale(0.06 -0.06)">
      <use xlink:href="#DejaVuSans-53"/>
     </g>
    </g>
    <g id="patch_29">
     <path d="M 248.053746 72.862153 
L 260.053746 72.862153 
L 260.053746 68.662153 
L 248.053746 68.662153 
z
" style="fill: #d8c367; opacity: 0.9; stroke: #ffffff; stroke-width: 0.2; stroke-linejoin: miter"/>
    </g>
    <g id="text_16">
     <!-- G2/M -->
     <g transform="translate(264.853746 72.862153) scale(0.06 -0.06)">
      <defs>
       <path id="DejaVuSans-2f" d="M 1625 4666 
L 2156 4666 
L 531 -594 
L 0 -594 
L 1625 4666 
z
" transform="scale(0.015625)"/>
       <path id="DejaVuSans-4d" d="M 628 4666 
L 1569 4666 
L 2759 1491 
L 3956 4666 
L 4897 4666 
L 4897 0 
L 4281 0 
L 4281 4097 
L 3078 897 
L 2444 897 
L 1241 4097 
L 1241 0 
L 628 0 
L 628 4666 
z
" transform="scale(0.015625)"/>
      </defs>
      <use xlink:href="#DejaVuSans-47"/>
      <use xlink:href="#DejaVuSans-32" transform="translate(77.490234 0)"/>
      <use xlink:href="#DejaVuSans-2f" transform="translate(141.113281 0)"/>
      <use xlink:href="#DejaVuSans-4d" transform="translate(174.804688 0)"/>
     </g>
    </g>
    <g id="patch_30">
     <path d="M 248.053746 80.169028 
L 260.053746 80.169028 
L 260.053746 75.969028 
L 248.053746 75.969028 
z
" style="fill: #526c94; opacity: 0.9; stroke: #ffffff; stroke-width: 0.2; stroke-linejoin: miter"/>
    </g>
    <g id="text_17">
     <!-- Polyploid -->
     <g transform="translate(264.853746 80.169028) scale(0.06 -0.06)">
      <use xlink:href="#DejaVuSans-50"/>
      <use xlink:href="#DejaVuSans-6f" transform="translate(56.677734 0)"/>
      <use xlink:href="#DejaVuSans-6c" transform="translate(117.859375 0)"/>
      <use xlink:href="#DejaVuSans-79" transform="translate(145.642578 0)"/>
      <use xlink:href="#DejaVuSans-70" transform="translate(204.822266 0)"/>
      <use xlink:href="#DejaVuSans-6c" transform="translate(268.298828 0)"/>
      <use xlink:href="#DejaVuSans-6f" transform="translate(296.082031 0)"/>
      <use xlink:href="#DejaVuSans-69" transform="translate(357.263672 0)"/>
      <use xlink:href="#DejaVuSans-64" transform="translate(385.046875 0)"/>
     </g>
    </g>
   </g>
  </g>
  <g id="text_18">
   <!-- qs cellcycle plot -->
   <g transform="translate(33.675123 19.718906) scale(0.07 -0.07)">
    <defs>
     <path id="DejaVuSans-Bold-71" d="M 2181 2772 
Q 1825 2772 1636 2509 
Q 1447 2247 1447 1747 
Q 1447 1247 1636 984 
Q 1825 722 2181 722 
Q 2541 722 2730 984 
Q 2919 1247 2919 1747 
Q 2919 2247 2730 2509 
Q 2541 2772 2181 2772 
z
M 2919 506 
Q 2688 197 2409 53 
Q 2131 -91 1766 -91 
Q 1119 -91 703 423 
Q 288 938 288 1747 
Q 288 2556 703 3067 
Q 1119 3578 1766 3578 
Q 2131 3578 2409 3434 
Q 2688 3291 2919 2981 
L 2919 3500 
L 4044 3500 
L 4044 -1331 
L 2919 -1331 
L 2919 506 
z
" transform="scale(0.015625)"/>
     <path id="DejaVuSans-Bold-73" d="M 3272 3391 
L 3272 2541 
Q 2913 2691 2578 2766 
Q 2244 2841 1947 2841 
Q 1628 2841 1473 2761 
Q 1319 2681 1319 2516 
Q 1319 2381 1436 2309 
Q 1553 2238 1856 2203 
L 2053 2175 
Q 2913 2066 3209 1816 
Q 3506 1566 3506 1031 
Q 3506 472 3093 190 
Q 2681 -91 1863 -91 
Q 1516 -91 1145 -36 
Q 775 19 384 128 
L 384 978 
Q 719 816 1070 734 
Q 1422 653 1784 653 
Q 2113 653 2278 743 
Q 2444 834 2444 1013 
Q 2444 1163 2330 1236 
Q 2216 1309 1875 1350 
L 1678 1375 
Q 931 1469 631 1722 
Q 331 1975 331 2491 
Q 331 3047 712 3315 
Q 1094 3584 1881 3584 
Q 2191 3584 2531 3537 
Q 2872 3491 3272 3391 
z
" transform="scale(0.015625)"/>
     <path id="DejaVuSans-Bold-20" transform="scale(0.015625)"/>
     <path id="DejaVuSans-Bold-63" d="M 3366 3391 
L 3366 2478 
Q 3138 2634 2908 2709 
Q 2678 2784 2431 2784 
Q 1963 2784 1702 2511 
Q 1441 2238 1441 1747 
Q 1441 1256 1702 982 
Q 1963 709 2431 709 
Q 2694 709 2930 787 
Q 3166 866 3366 1019 
L 3366 103 
Q 3103 6 2833 -42 
Q 2563 -91 2291 -91 
Q 1344 -91 809 395 
Q 275 881 275 1747 
Q 275 2613 809 3098 
Q 1344 3584 2291 3584 
Q 2566 3584 2833 3536 
Q 3100 3488 3366 3391 
z
" transform="scale(0.015625)"/>
     <path id="DejaVuSans-Bold-65" d="M 4031 1759 
L 4031 1441 
L 1416 1441 
Q 1456 1047 1700 850 
Q 1944 653 2381 653 
Q 2734 653 3104 758 
Q 3475 863 3866 1075 
L 3866 213 
Q 3469 63 3072 -14 
Q 2675 -91 2278 -91 
Q 1328 -91 801 392 
Q 275 875 275 1747 
Q 275 2603 792 3093 
Q 1309 3584 2216 3584 
Q 3041 3584 3536 3087 
Q 4031 2591 4031 1759 
z
M 2881 2131 
Q 2881 2450 2695 2645 
Q 2509 2841 2209 2841 
Q 1884 2841 1681 2658 
Q 1478 2475 1428 2131 
L 2881 2131 
z
" transform="scale(0.015625)"/>
     <path id="DejaVuSans-Bold-6c" d="M 538 4863 
L 1656 4863 
L 1656 0 
L 538 0 
L 538 4863 
z
" transform="scale(0.015625)"/>
     <path id="DejaVuSans-Bold-79" d="M 78 3500 
L 1197 3500 
L 2138 1125 
L 2938 3500 
L 4056 3500 
L 2584 -331 
Q 2363 -916 2067 -1148 
Q 1772 -1381 1288 -1381 
L 641 -1381 
L 641 -647 
L 991 -647 
Q 1275 -647 1404 -556 
Q 1534 -466 1606 -231 
L 1638 -134 
L 78 3500 
z
" transform="scale(0.015625)"/>
     <path id="DejaVuSans-Bold-70" d="M 1656 506 
L 1656 -1331 
L 538 -1331 
L 538 3500 
L 1656 3500 
L 1656 2988 
Q 1888 3294 2169 3439 
Q 2450 3584 2816 3584 
Q 3463 3584 3878 3070 
Q 4294 2556 4294 1747 
Q 4294 938 3878 423 
Q 3463 -91 2816 -91 
Q 2450 -91 2169 54 
Q 1888 200 1656 506 
z
M 2400 2772 
Q 2041 2772 1848 2508 
Q 1656 2244 1656 1747 
Q 1656 1250 1848 986 
Q 2041 722 2400 722 
Q 2759 722 2948 984 
Q 3138 1247 3138 1747 
Q 3138 2247 2948 2509 
Q 2759 2772 2400 2772 
z
" transform="scale(0.015625)"/>
     <path id="DejaVuSans-Bold-6f" d="M 2203 2784 
Q 1831 2784 1636 2517 
Q 1441 2250 1441 1747 
Q 1441 1244 1636 976 
Q 1831 709 2203 709 
Q 2569 709 2762 976 
Q 2956 1244 2956 1747 
Q 2956 2250 2762 2517 
Q 2569 2784 2203 2784 
z
M 2203 3584 
Q 3106 3584 3614 3096 
Q 4122 2609 4122 1747 
Q 4122 884 3614 396 
Q 3106 -91 2203 -91 
Q 1297 -91 786 396 
Q 275 884 275 1747 
Q 275 2609 786 3096 
Q 1297 3584 2203 3584 
z
" transform="scale(0.015625)"/>
     <path id="DejaVuSans-Bold-74" d="M 1759 4494 
L 1759 3500 
L 2913 3500 
L 2913 2700 
L 1759 2700 
L 1759 1216 
Q 1759 972 1856 886 
Q 1953 800 2241 800 
L 2816 800 
L 2816 0 
L 1856 0 
Q 1194 0 917 276 
Q 641 553 641 1216 
L 641 2700 
L 84 2700 
L 84 3500 
L 641 3500 
L 641 4494 
L 1759 4494 
z
" transform="scale(0.015625)"/>
    </defs>
    <use xlink:href="#DejaVuSans-Bold-71"/>
    <use xlink:href="#DejaVuSans-Bold-73" transform="translate(71.582031 0)"/>
    <use xlink:href="#DejaVuSans-Bold-20" transform="translate(131.103516 0)"/>
    <use xlink:href="#DejaVuSans-Bold-63" transform="translate(165.917969 0)"/>
    <use xlink:href="#DejaVuSans-Bold-65" transform="translate(225.195312 0)"/>
    <use xlink:href="#DejaVuSans-Bold-6c" transform="translate(293.017578 0)"/>
    <use xlink:href="#DejaVuSans-Bold-6c" transform="translate(327.294922 0)"/>
    <use xlink:href="#DejaVuSans-Bold-63" transform="translate(361.572266 0)"/>
    <use xlink:href="#DejaVuSans-Bold-79" transform="translate(420.849609 0)"/>
    <use xlink:href="#DejaVuSans-Bold-63" transform="translate(486.035156 0)"/>
    <use xlink:href="#DejaVuSans-Bold-6c" transform="translate(545.3125 0)"/>
    <use xlink:href="#DejaVuSans-Bold-65" transform="translate(579.589844 0)"/>
    <use xlink:href="#DejaVuSans-Bold-20" transform="translate(647.412109 0)"/>
    <use xlink:href="#DejaVuSans-Bold-70" transform="translate(682.226562 0)"/>
    <use xlink:href="#DejaVuSans-Bold-6c" transform="translate(753.808594 0)"/>
    <use xlink:href="#DejaVuSans-Bold-6f" transform="translate(788.085938 0)"/>
    <use xlink:href="#DejaVuSans-Bold-74" transform="translate(856.787109 0)"/>
   </g>
  </g>
 </g>
 <defs>
  <clipPath id="p5dcb83623c">
   <rect x="35.659375" y="33.675591" width="194.456693" height="98.645669"/>
  </clipPath>
 </defs>
</svg>
