<?xml version="1.0" encoding="UTF-8"?>
<svg id="Layer_1" xmlns="http://www.w3.org/2000/svg" xmlns:xlink="http://www.w3.org/1999/xlink" version="1.1" viewBox="0 0 595.3 841.9">
  <!-- Generator: Adobe Illustrator 29.3.1, SVG Export Plug-In . SVG Version: 2.1.0 Build 151)  -->
  <defs>
    <style>
      .st0, .st1, .st2, .st3, .st4 {
        fill: none;
      }

      .st5 {
        font-family: Arial-BoldMT, Arial;
        font-weight: 700;
      }

      .st5, .st6, .st7, .st8, .st9, .st10 {
        isolation: isolate;
      }

      .st5, .st7 {
        font-size: 7px;
      }

      .st5, .st7, .st9, .st10 {
        fill: #1d1d1b;
      }

      .st1 {
        stroke-dasharray: 2;
      }

      .st1, .st11, .st2, .st3, .st12, .st4, .st13, .st14 {
        stroke-miterlimit: 10;
        stroke-width: .5px;
      }

      .st1, .st11, .st3, .st12, .st13, .st14 {
        stroke: #1d1d1b;
      }

      .st11 {
        fill: #e6d4e9;
      }

      .st15 {
        fill: #14876a;
      }

      .st16 {
        fill: #312783;
      }

      .st2 {
        stroke: #e6332a;
      }

      .st17 {
        fill: #208ecd;
      }

      .st7, .st8, .st9, .st10 {
        font-family: ArialMT, Arial;
      }

      .st12 {
        fill: #d6e4f0;
      }

      .st4 {
        stroke: #312783;
      }

      .st8 {
        fill: #1e1e1c;
      }

      .st8, .st10 {
        font-size: 6px;
      }

      .st13 {
        fill: #d9ead3;
      }

      .st9 {
        font-size: 6.8px;
      }

      .st18 {
        fill: #1d4b87;
      }

      .st19 {
        fill: #df2c43;
      }

      .st20 {
        fill: #e6332a;
      }

      .st21 {
        fill: #1e4c88;
      }

      .st14 {
        fill: #fff2cc;
      }
    </style>
  </defs>
  <rect class="st11" x="250.3" y="184.5" width="82.9" height="19.5" rx="6.4" ry="6.4"/>
  <rect class="st13" x="156.8" y="184.5" width="72.2" height="19.5" rx="6.4" ry="6.4"/>
  <rect class="st13" x="257.5" y="78.4" width="72.2" height="79.2" rx="6.4" ry="6.4"/>
  <rect class="st14" x="31.4" y="67.3" width="72.2" height="92.9" rx="6.4" ry="6.4"/>
  <rect class="st3" x="20.5" y="64" width="316.4" height="148.3" rx="6.4" ry="6.4"/>
  <rect class="st3" x="145.3" y="15.1" width="70.8" height="48.6" rx="6.4" ry="6.4"/>
  <g class="st6">
    <text class="st7" transform="translate(45.9 74.9)"><tspan x="0" y="0">omero-screen</tspan></text>
  </g>
  <g class="st6">
    <text class="st10" transform="translate(44.1 87.6)"><tspan x="0" y="0">metadata-parsing</tspan></text>
  </g>
  <g class="st6">
    <text class="st10" transform="translate(107.5 123.2)"><tspan x="0" y="0">plate/well md</tspan></text>
  </g>
  <rect class="st3" x="38.1" y="79.2" width="58.9" height="13" rx="6.4" ry="6.4"/>
  <g class="st6">
    <text class="st10" transform="translate(51.2 102.6)"><tspan x="0" y="0">flatfield-corr.</tspan></text>
  </g>
  <rect class="st3" x="38.1" y="94.1" width="58.9" height="13" rx="6.4" ry="6.4"/>
  <g class="st6">
    <text class="st10" transform="translate(48.3 119.2)"><tspan x="0" y="0">segmentation*</tspan></text>
  </g>
  <rect class="st3" x="38.1" y="110.8" width="58.9" height="13" rx="6.4" ry="6.4"/>
  <g class="st6">
    <text class="st10" transform="translate(50.5 135.1)"><tspan x="0" y="0">classification</tspan></text>
  </g>
  <rect class="st3" x="38.1" y="126.6" width="58.9" height="13" rx="6.4" ry="6.4"/>
  <g class="st6">
    <text class="st10" transform="translate(44.3 150.8)"><tspan x="0" y="0">feature extraction</tspan></text>
  </g>
  <rect class="st3" x="38.1" y="142.4" width="58.9" height="13" rx="6.4" ry="6.4"/>
  <g>
    <line class="st0" x1="226.8" y1="94" x2="251.4" y2="94"/>
    <g>
      <line class="st4" x1="226.8" y1="94" x2="247.8" y2="94"/>
      <polygon class="st16" points="247.1 96.5 251.4 94 247.1 91.5 247.1 96.5"/>
    </g>
  </g>
  <g>
    <line class="st0" x1="232.2" y1="193.6" x2="248.4" y2="193.6"/>
    <g>
      <line class="st4" x1="232.2" y1="193.6" x2="244.8" y2="193.6"/>
      <polygon class="st16" points="244 196.1 248.4 193.6 244 191.1 244 196.1"/>
    </g>
  </g>
  <g>
    <line class="st0" x1="187.3" y1="170.1" x2="187.3" y2="182.5"/>
    <g>
      <line class="st4" x1="187.3" y1="170.1" x2="187.3" y2="178.9"/>
      <polygon class="st16" points="184.8 178.1 187.3 182.5 189.8 178.1 184.8 178.1"/>
    </g>
  </g>
  <g class="st6">
    <text class="st10" transform="translate(106 131.2)"><tspan x="0" y="0">flatfield masks</tspan></text>
  </g>
  <g>
    <line class="st0" x1="112.7" y1="109.6" x2="137.3" y2="109.6"/>
    <g>
      <line class="st2" x1="112.7" y1="109.6" x2="133.8" y2="109.6"/>
      <polygon class="st20" points="133 112.1 137.3 109.6 133 107.1 133 112.1"/>
    </g>
  </g>
  <g>
    <line class="st0" x1="251.4" y1="120.3" x2="226.8" y2="120.3"/>
    <g>
      <line class="st2" x1="251.4" y1="120.3" x2="230.4" y2="120.3"/>
      <polygon class="st20" points="231.1 117.8 226.8 120.3 231.1 122.7 231.1 117.8"/>
    </g>
  </g>
  <g class="st6">
    <text class="st10" transform="translate(108.2 139.1)"><tspan x="0" y="0">segm.masks</tspan></text>
  </g>
  <g class="st6">
    <text class="st10" transform="translate(111.3 147)"><tspan x="0" y="0">qc, results</tspan></text>
  </g>
  <g class="st6">
    <text class="st10" transform="translate(124.1 192.8)"><tspan x="0" y="0">aligned</tspan></text>
    <text class="st10" transform="translate(113.9 200)"><tspan x="0" y="0">single cell data</tspan></text>
  </g>
  <g class="st6">
    <text class="st10" transform="translate(195.5 172.7)"><tspan x="0" y="0">single cell </tspan></text>
    <text class="st10" transform="translate(193.5 179.9)"><tspan x="0" y="0">feature data</tspan></text>
  </g>
  <g>
    <line class="st0" x1="116.3" y1="188.5" x2="137.6" y2="176.3"/>
    <g>
      <line class="st2" x1="116.3" y1="188.5" x2="134.5" y2="178.1"/>
      <polygon class="st20" points="135.1 180.6 137.6 176.3 132.6 176.3 135.1 180.6"/>
    </g>
  </g>
  <g>
    <line class="st0" x1="232" y1="184.6" x2="248.6" y2="166.4"/>
    <g>
      <line class="st4" x1="232" y1="184.6" x2="246.1" y2="169"/>
      <polygon class="st16" points="247.5 171.2 248.6 166.4 243.8 167.9 247.5 171.2"/>
    </g>
  </g>
  <g>
    <line class="st0" x1="137.2" y1="85.6" x2="112.9" y2="85.6"/>
    <g>
      <line class="st4" x1="137.2" y1="85.6" x2="116.5" y2="85.6"/>
      <polygon class="st16" points="117.2 83.1 112.9 85.6 117.2 88.1 117.2 83.1"/>
    </g>
  </g>
  <g>
    <line class="st0" x1="133.7" y1="173.6" x2="112.4" y2="185.2"/>
    <g>
      <line class="st4" x1="133.7" y1="173.6" x2="115.6" y2="183.5"/>
      <polygon class="st16" points="115 181 112.4 185.2 117.4 185.3 115 181"/>
    </g>
  </g>
  <rect class="st12" x="152.8" y="81.4" width="61.2" height="66.6"/>
  <g class="st6">
    <text class="st10" transform="translate(154.7 129.7)"><tspan x="0" y="0">Metadata</tspan></text>
    <text class="st10" transform="translate(154.7 136.9)"><tspan x="0" y="0">Masks</tspan></text>
    <text class="st10" transform="translate(154.7 144.1)"><tspan x="0" y="0">Feature Data</tspan></text>
  </g>
  <g class="st6">
    <text class="st7" transform="translate(165.6 77.9)"><tspan x="0" y="0">omero-utils</tspan></text>
  </g>
  <g class="st6">
    <text class="st7" transform="translate(154.9 104)"><tspan x="0" y="0">OMERO</tspan></text>
    <text class="st7" transform="translate(158.4 112.4)"><tspan x="0" y="0">server</tspan></text>
  </g>
  <g class="st6">
    <text class="st7" transform="translate(148.9 30.5)"><tspan x="0" y="0">Images</tspan></text>
  </g>
  <g class="st6">
    <text class="st5" transform="translate(149.1 22.6)"><tspan x="0" y="0">User Input</tspan></text>
  </g>
  <g class="st6">
    <text class="st5" transform="translate(26.2 61.5)"><tspan x="0" y="0">Analysis Pipeline</tspan></text>
  </g>
  <g class="st6">
    <text class="st5" transform="translate(277.7 61.5)"><tspan x="0" y="0">User Interface</tspan></text>
  </g>
  <g class="st6">
    <text class="st7" transform="translate(182 30.5)"><tspan x="0" y="0">Metadata</tspan></text>
  </g>
  <g class="st6">
    <text class="st10" transform="translate(149.1 154.6)"><tspan x="0" y="0">Connections Attachments</tspan></text>
  </g>
  <g class="st6">
    <text class="st10" transform="translate(164.2 161.2)"><tspan x="0" y="0">Annotations</tspan></text>
  </g>
  <rect class="st1" x="146.8" y="70.3" width="72.2" height="92.9" rx="6.4" ry="6.4"/>
  <image id="GDZRNo" class="st6" width="458" height="416" transform="translate(184.5 36.4) scale(0)" xlink:href="Figure1A_vs3-1.png"/>
  <image id="Layer_0" class="st6" width="1812" height="2938" transform="translate(154.3 32) scale(0)" xlink:href="Figure1A_vs3-2.png"/>
  <g class="st6">
    <text class="st10" transform="translate(154.7 88.7)"><tspan x="0" y="0">Plates, Wells, Images</tspan></text>
  </g>
  <g class="st6">
    <text class="st8" transform="translate(28.6 147.7) rotate(-90)"><tspan x="0" y="0">Iterates: wells → images</tspan></text>
  </g>
  <g>
    <rect class="st14" x="32.3" y="162.5" width="72.2" height="46.5" rx="6.4" ry="6.4"/>
    <g class="st6">
      <text class="st7" transform="translate(53.2 170.1)"><tspan x="0" y="0">cyclic IF</tspan></text>
    </g>
    <g class="st6">
      <text class="st10" transform="translate(51.4 183.4)"><tspan x="0" y="0">registration</tspan></text>
    </g>
    <rect class="st3" x="39" y="174.4" width="58.9" height="13" rx="6.4" ry="6.4"/>
    <g class="st6">
      <text class="st10" transform="translate(46.4 197.8)"><tspan x="0" y="0">feature alignment</tspan></text>
    </g>
    <rect class="st3" x="39" y="189.3" width="58.9" height="13" rx="6.4" ry="6.4"/>
  </g>
  <g class="st6">
    <text class="st7" transform="translate(261.2 86)"><tspan x="0" y="0">omero-screen-napari</tspan></text>
  </g>
  <g class="st6">
    <text class="st10" transform="translate(272.9 98.8)"><tspan x="0" y="0">welldata-viewer</tspan></text>
  </g>
  <rect class="st3" x="264.2" y="90.3" width="58.9" height="13" rx="6.4" ry="6.4"/>
  <g class="st6">
    <text class="st10" transform="translate(277.1 113.7)"><tspan x="0" y="0">cell galleries</tspan></text>
  </g>
  <rect class="st3" x="264.2" y="105.3" width="58.9" height="13" rx="6.4" ry="6.4"/>
  <g class="st6">
    <text class="st10" transform="translate(269.3 130.3)"><tspan x="0" y="0">classifier manager</tspan></text>
  </g>
  <rect class="st3" x="264.2" y="121.9" width="58.9" height="13" rx="6.4" ry="6.4"/>
  <g class="st6">
    <text class="st10" transform="translate(277 146.2)"><tspan x="0" y="0">local cache</tspan></text>
  </g>
  <g class="st6">
    <text class="st10" transform="translate(222.1 132.6)"><tspan x="0" y="0">CNN models</tspan></text>
  </g>
  <g class="st6">
    <text class="st9" transform="translate(116.3 94.5) scale(.9 1)"><tspan x="0" y="0">Images</tspan></text>
  </g>
  <rect class="st3" x="264.2" y="137.8" width="58.9" height="13" rx="6.4" ry="6.4"/>
  <g class="st6">
    <text class="st7" transform="translate(172.4 192.1)"><tspan x="0" y="0">cellview db</tspan></text>
  </g>
  <g class="st6">
    <text class="st10" transform="translate(161.8 200.4)"><tspan x="0" y="0">local duck-db database</tspan></text>
  </g>
  <g class="st6">
    <text class="st7" transform="translate(260.9 192.1)"><tspan x="0" y="0">omero-screen-plots</tspan></text>
  </g>
  <g class="st6">
    <text class="st10" transform="translate(254.3 200.4)"><tspan x="0" y="0">notebooks, plotting functions</tspan></text>
  </g>
  <g>
    <g>
      <path class="st21" d="M193.3,104c-.4,2.9-3.9,6.8-7,5.2s1.5-4.2,2.1-5.2h4.9Z"/>
      <path class="st15" d="M204.1,104c1.5,1.6,4.9,5.7.4,5.5s-5.1-3.3-5.1-5.5h4.6Z"/>
    </g>
    <g>
      <path class="st17" d="M204.1,131.2h-4.6c0-2.3,2.8-5.5,5.1-5.5s2.5.4,2.4,1.3-2.1,3.7-2.9,4.3Z"/>
      <path class="st21" d="M193.1,131.2h-4.3c-.9-.6-3.7-4.3-2.6-5.1s2.4-.5,3.3-.1c1.6.6,4.1,3.3,3.6,5.2Z"/>
    </g>
    <g>
      <g>
        <path class="st19" d="M180.3,118.2v-1.2c.6-.5,2-3.9,2.7-3.8s1.6,1.8,1.9,2.2c1.3,2.7.2,4.6-1.9,6.5-.7.2-2.1-3.3-2.7-3.8Z"/>
        <path class="st18" d="M194.9,113.2c2.6-.6,4.8.2,5.8,2.7,1.8,4.6-3.6,8.4-7.4,5.4s-2-7.3,1.6-8.1Z"/>
      </g>
      <path class="st21" d="M209.5,113.3c.9-.2,2.8,3.6,2.8,4.5s-1.9,4.1-2.5,4.1c-1,0-2.5-3.1-2.5-4.1s1.3-4.3,2.2-4.5Z"/>
    </g>
  </g>
</svg>
