<?xml version="1.0" encoding="utf-8" standalone="no"?>
<!DOCTYPE svg PUBLIC "-//W3C//DTD SVG 1.1//EN"
  "http://www.w3.org/Graphics/SVG/1.1/DTD/svg11.dtd">
<svg xmlns:xlink="http://www.w3.org/1999/xlink" width="211.481912pt" height="225.314678pt" viewBox="0 0 211.481912 225.314678" xmlns="http://www.w3.org/2000/svg" version="1.1">
 <metadata>
  <rdf:RDF xmlns:dc="http://purl.org/dc/elements/1.1/" xmlns:cc="http://creativecommons.org/ns#" xmlns:rdf="http://www.w3.org/1999/02/22-rdf-syntax-ns#">
   <cc:Work>
    <dc:type rdf:resource="http://purl.org/dc/dcmitype/StillImage"/>
    <dc:date>2025-09-10T14:02:52.326518</dc:date>
    <dc:format>image/svg+xml</dc:format>
    <dc:creator>
     <cc:Agent>
      <dc:title>Matplotlib v3.10.1, https://matplotlib.org/</dc:title>
     </cc:Agent>
    </dc:creator>
   </cc:Work>
  </rdf:RDF>
 </metadata>
 <defs>
  <style type="text/css">*{stroke-linejoin: round; stroke-linecap: butt}</style>
 </defs>
 <g id="figure_1">
  <g id="patch_1">
   <path d="M 0 225.314678
L 211.481913 225.314678
L 211.481913 -0
L 0 -0
z
" style="fill: #ffffff"/>
  </g>
  <g id="axes_1">
   <g id="patch_2">
    <path d="M 30.560313 110.482036
L 106.251949 110.482036
L 106.251949 43.2864
L 30.560313 43.2864
z
" style="fill: #ffffff"/>
   </g>
   <g id="patch_3">
    <path d="M 32.452603 110.482036
L 47.590931 110.482036
L 47.590931 62.363598
L 32.452603 62.363598
z
" clip-path="url(#pe82573afcb)" style="fill: #80adc3"/>
   </g>
   <g id="patch_4">
    <path d="M 51.375512 110.482036
L 66.51384 110.482036
L 66.51384 69.198893
L 51.375512 69.198893
z
" clip-path="url(#pe82573afcb)" style="fill: #80adc3"/>
   </g>
   <g id="patch_5">
    <path d="M 70.298422 110.482036
L 85.436749 110.482036
L 85.436749 50.540793
L 70.298422 50.540793
z
" clip-path="url(#pe82573afcb)" style="fill: #80adc3"/>
   </g>
   <g id="patch_6">
    <path d="M 89.221331 110.482036
L 104.359658 110.482036
L 104.359658 73.025815
L 89.221331 73.025815
z
" clip-path="url(#pe82573afcb)" style="fill: #80adc3"/>
   </g>
   <g id="matplotlib.axis_1">
    <g id="xtick_1">
     <g id="line2d_1"/>
    </g>
    <g id="xtick_2">
     <g id="line2d_2"/>
    </g>
    <g id="xtick_3">
     <g id="line2d_3"/>
    </g>
    <g id="xtick_4">
     <g id="line2d_4"/>
    </g>
   </g>
   <g id="matplotlib.axis_2">
    <g id="ytick_1">
     <g id="line2d_5"/>
     <g id="text_1">
      <!-- 0 -->
      <g transform="translate(25.22375 112.62938) scale(0.06 -0.06)">
       <defs>
        <path id="ArialMT-30" d="M 266 2259
Q 266 3072 433 3567
Q 600 4063 929 4331
Q 1259 4600 1759 4600
Q 2128 4600 2406 4451
Q 2684 4303 2865 4023
Q 3047 3744 3150 3342
Q 3253 2941 3253 2259
Q 3253 1453 3087 958
Q 2922 463 2592 192
Q 2263 -78 1759 -78
Q 1097 -78 719 397
Q 266 969 266 2259
z
M 844 2259
Q 844 1131 1108 757
Q 1372 384 1759 384
Q 2147 384 2411 759
Q 2675 1134 2675 2259
Q 2675 3391 2411 3762
Q 2147 4134 1753 4134
Q 1366 4134 1134 3806
Q 844 3388 844 2259
z
" transform="scale(0.015625)"/>
       </defs>
       <use xlink:href="#ArialMT-30"/>
      </g>
     </g>
    </g>
    <g id="ytick_2">
     <g id="line2d_6"/>
     <g id="text_2">
      <!-- 20 -->
      <g transform="translate(21.887188 95.792663) scale(0.06 -0.06)">
       <defs>
        <path id="ArialMT-32" d="M 3222 541
L 3222 0
L 194 0
Q 188 203 259 391
Q 375 700 629 1000
Q 884 1300 1366 1694
Q 2113 2306 2375 2664
Q 2638 3022 2638 3341
Q 2638 3675 2398 3904
Q 2159 4134 1775 4134
Q 1369 4134 1125 3890
Q 881 3647 878 3216
L 300 3275
Q 359 3922 746 4261
Q 1134 4600 1788 4600
Q 2447 4600 2831 4234
Q 3216 3869 3216 3328
Q 3216 3053 3103 2787
Q 2991 2522 2730 2228
Q 2469 1934 1863 1422
Q 1356 997 1212 845
Q 1069 694 975 541
L 3222 541
z
" transform="scale(0.015625)"/>
       </defs>
       <use xlink:href="#ArialMT-32"/>
       <use xlink:href="#ArialMT-30" transform="translate(55.615234 0)"/>
      </g>
     </g>
    </g>
    <g id="ytick_3">
     <g id="line2d_7"/>
     <g id="text_3">
      <!-- 40 -->
      <g transform="translate(21.887188 78.955945) scale(0.06 -0.06)">
       <defs>
        <path id="ArialMT-34" d="M 2069 0
L 2069 1097
L 81 1097
L 81 1613
L 2172 4581
L 2631 4581
L 2631 1613
L 3250 1613
L 3250 1097
L 2631 1097
L 2631 0
L 2069 0
z
M 2069 1613
L 2069 3678
L 634 1613
L 2069 1613
z
" transform="scale(0.015625)"/>
       </defs>
       <use xlink:href="#ArialMT-34"/>
       <use xlink:href="#ArialMT-30" transform="translate(55.615234 0)"/>
      </g>
     </g>
    </g>
    <g id="ytick_4">
     <g id="line2d_8"/>
     <g id="text_4">
      <!-- 60 -->
      <g transform="translate(21.887188 62.119227) scale(0.06 -0.06)">
       <defs>
        <path id="ArialMT-36" d="M 3184 3459
L 2625 3416
Q 2550 3747 2413 3897
Q 2184 4138 1850 4138
Q 1581 4138 1378 3988
Q 1113 3794 959 3422
Q 806 3050 800 2363
Q 1003 2672 1297 2822
Q 1591 2972 1913 2972
Q 2475 2972 2870 2558
Q 3266 2144 3266 1488
Q 3266 1056 3080 686
Q 2894 316 2569 119
Q 2244 -78 1831 -78
Q 1128 -78 684 439
Q 241 956 241 2144
Q 241 3472 731 4075
Q 1159 4600 1884 4600
Q 2425 4600 2770 4297
Q 3116 3994 3184 3459
z
M 888 1484
Q 888 1194 1011 928
Q 1134 663 1356 523
Q 1578 384 1822 384
Q 2178 384 2434 671
Q 2691 959 2691 1453
Q 2691 1928 2437 2201
Q 2184 2475 1800 2475
Q 1419 2475 1153 2201
Q 888 1928 888 1484
z
" transform="scale(0.015625)"/>
       </defs>
       <use xlink:href="#ArialMT-36"/>
       <use xlink:href="#ArialMT-30" transform="translate(55.615234 0)"/>
      </g>
     </g>
    </g>
    <g id="text_5">
     <!-- percent -->
     <g transform="translate(18.694688 86.889687) rotate(-90) scale(0.06 -0.06)">
      <defs>
       <path id="ArialMT-70" d="M 422 -1272
L 422 3319
L 934 3319
L 934 2888
Q 1116 3141 1344 3267
Q 1572 3394 1897 3394
Q 2322 3394 2647 3175
Q 2972 2956 3137 2557
Q 3303 2159 3303 1684
Q 3303 1175 3120 767
Q 2938 359 2589 142
Q 2241 -75 1856 -75
Q 1575 -75 1351 44
Q 1128 163 984 344
L 984 -1272
L 422 -1272
z
M 931 1641
Q 931 1000 1190 694
Q 1450 388 1819 388
Q 2194 388 2461 705
Q 2728 1022 2728 1688
Q 2728 2322 2467 2637
Q 2206 2953 1844 2953
Q 1484 2953 1207 2617
Q 931 2281 931 1641
z
" transform="scale(0.015625)"/>
       <path id="ArialMT-65" d="M 2694 1069
L 3275 997
Q 3138 488 2766 206
Q 2394 -75 1816 -75
Q 1088 -75 661 373
Q 234 822 234 1631
Q 234 2469 665 2931
Q 1097 3394 1784 3394
Q 2450 3394 2872 2941
Q 3294 2488 3294 1666
Q 3294 1616 3291 1516
L 816 1516
Q 847 969 1125 678
Q 1403 388 1819 388
Q 2128 388 2347 550
Q 2566 713 2694 1069
z
M 847 1978
L 2700 1978
Q 2663 2397 2488 2606
Q 2219 2931 1791 2931
Q 1403 2931 1139 2672
Q 875 2413 847 1978
z
" transform="scale(0.015625)"/>
       <path id="ArialMT-72" d="M 416 0
L 416 3319
L 922 3319
L 922 2816
Q 1116 3169 1280 3281
Q 1444 3394 1641 3394
Q 1925 3394 2219 3213
L 2025 2691
Q 1819 2813 1613 2813
Q 1428 2813 1281 2702
Q 1134 2591 1072 2394
Q 978 2094 978 1738
L 978 0
L 416 0
z
" transform="scale(0.015625)"/>
       <path id="ArialMT-63" d="M 2588 1216
L 3141 1144
Q 3050 572 2676 248
Q 2303 -75 1759 -75
Q 1078 -75 664 370
Q 250 816 250 1647
Q 250 2184 428 2587
Q 606 2991 970 3192
Q 1334 3394 1763 3394
Q 2303 3394 2647 3120
Q 2991 2847 3088 2344
L 2541 2259
Q 2463 2594 2264 2762
Q 2066 2931 1784 2931
Q 1359 2931 1093 2626
Q 828 2322 828 1663
Q 828 994 1084 691
Q 1341 388 1753 388
Q 2084 388 2306 591
Q 2528 794 2588 1216
z
" transform="scale(0.015625)"/>
       <path id="ArialMT-6e" d="M 422 0
L 422 3319
L 928 3319
L 928 2847
Q 1294 3394 1984 3394
Q 2284 3394 2536 3286
Q 2788 3178 2913 3003
Q 3038 2828 3088 2588
Q 3119 2431 3119 2041
L 3119 0
L 2556 0
L 2556 2019
Q 2556 2363 2490 2533
Q 2425 2703 2258 2804
Q 2091 2906 1866 2906
Q 1506 2906 1245 2678
Q 984 2450 984 1813
L 984 0
L 422 0
z
" transform="scale(0.015625)"/>
       <path id="ArialMT-74" d="M 1650 503
L 1731 6
Q 1494 -44 1306 -44
Q 1000 -44 831 53
Q 663 150 594 308
Q 525 466 525 972
L 525 2881
L 113 2881
L 113 3319
L 525 3319
L 525 4141
L 1084 4478
L 1084 3319
L 1650 3319
L 1650 2881
L 1084 2881
L 1084 941
Q 1084 700 1114 631
Q 1144 563 1211 522
Q 1278 481 1403 481
Q 1497 481 1650 503
z
" transform="scale(0.015625)"/>
      </defs>
      <use xlink:href="#ArialMT-70"/>
      <use xlink:href="#ArialMT-65" transform="translate(55.615234 0)"/>
      <use xlink:href="#ArialMT-72" transform="translate(111.230469 0)"/>
      <use xlink:href="#ArialMT-63" transform="translate(144.53125 0)"/>
      <use xlink:href="#ArialMT-65" transform="translate(194.53125 0)"/>
      <use xlink:href="#ArialMT-6e" transform="translate(250.146484 0)"/>
      <use xlink:href="#ArialMT-74" transform="translate(305.761719 0)"/>
     </g>
    </g>
   </g>
   <g id="line2d_9">
    <path d="M 40.021767 64.871718
L 40.021767 60.635039
" clip-path="url(#pe82573afcb)" style="fill: none; stroke: #424242; stroke-width: 0.75"/>
   </g>
   <g id="line2d_10">
    <path d="M 58.944676 72.234539
L 58.944676 66.528826
" clip-path="url(#pe82573afcb)" style="fill: none; stroke: #424242; stroke-width: 0.75"/>
   </g>
   <g id="line2d_11">
    <path d="M 77.867585 54.427481
L 77.867585 46.486192
" clip-path="url(#pe82573afcb)" style="fill: none; stroke: #424242; stroke-width: 0.75"/>
   </g>
   <g id="line2d_12">
    <path d="M 96.790494 74.684792
L 96.790494 70.048111
" clip-path="url(#pe82573afcb)" style="fill: none; stroke: #424242; stroke-width: 0.75"/>
   </g>
   <g id="patch_7">
    <path d="M 30.560313 110.482036
L 30.560313 43.2864
" style="fill: none; stroke: #000000; stroke-width: 0.5; stroke-linejoin: miter; stroke-linecap: square"/>
   </g>
   <g id="patch_8">
    <path d="M 30.560313 110.482036
L 106.251949 110.482036
" style="fill: none; stroke: #000000; stroke-width: 0.5; stroke-linejoin: miter; stroke-linecap: square"/>
   </g>
   <g id="text_6">
    <!-- G1 -->
    <g transform="translate(30.560313 36.926618) scale(0.06 -0.06)">
     <defs>
      <path id="ArialMT-47" d="M 2638 1797
L 2638 2334
L 4578 2338
L 4578 638
Q 4131 281 3656 101
Q 3181 -78 2681 -78
Q 2006 -78 1454 211
Q 903 500 622 1047
Q 341 1594 341 2269
Q 341 2938 620 3517
Q 900 4097 1425 4378
Q 1950 4659 2634 4659
Q 3131 4659 3532 4498
Q 3934 4338 4162 4050
Q 4391 3763 4509 3300
L 3963 3150
Q 3859 3500 3706 3700
Q 3553 3900 3268 4020
Q 2984 4141 2638 4141
Q 2222 4141 1919 4014
Q 1616 3888 1430 3681
Q 1244 3475 1141 3228
Q 966 2803 966 2306
Q 966 1694 1177 1281
Q 1388 869 1791 669
Q 2194 469 2647 469
Q 3041 469 3416 620
Q 3791 772 3984 944
L 3984 1797
L 2638 1797
z
" transform="scale(0.015625)"/>
      <path id="ArialMT-31" d="M 2384 0
L 1822 0
L 1822 3584
Q 1619 3391 1289 3197
Q 959 3003 697 2906
L 697 3450
Q 1169 3672 1522 3987
Q 1875 4303 2022 4600
L 2384 4600
L 2384 0
z
" transform="scale(0.015625)"/>
     </defs>
     <use xlink:href="#ArialMT-47"/>
     <use xlink:href="#ArialMT-31" transform="translate(77.783203 0)"/>
    </g>
   </g>
  </g>
  <g id="axes_2">
   <g id="patch_9">
    <path d="M 121.390276 110.482036
L 197.081912 110.482036
L 197.081912 43.2864
L 121.390276 43.2864
z
" style="fill: #ffffff"/>
   </g>
   <g id="patch_10">
    <path d="M 123.282567 110.482036
L 138.420894 110.482036
L 138.420894 54.574369
L 123.282567 54.574369
z
" clip-path="url(#p8891b1123b)" style="fill: #caba75"/>
   </g>
   <g id="patch_11">
    <path d="M 142.205476 110.482036
L 157.343803 110.482036
L 157.343803 84.859154
L 142.205476 84.859154
z
" clip-path="url(#p8891b1123b)" style="fill: #caba75"/>
   </g>
   <g id="patch_12">
    <path d="M 161.128385 110.482036
L 176.266712 110.482036
L 176.266712 73.754281
L 161.128385 73.754281
z
" clip-path="url(#p8891b1123b)" style="fill: #caba75"/>
   </g>
   <g id="patch_13">
    <path d="M 180.051294 110.482036
L 195.189622 110.482036
L 195.189622 103.564127
L 180.051294 103.564127
z
" clip-path="url(#p8891b1123b)" style="fill: #caba75"/>
   </g>
   <g id="matplotlib.axis_3">
    <g id="xtick_5">
     <g id="line2d_13"/>
    </g>
    <g id="xtick_6">
     <g id="line2d_14"/>
    </g>
    <g id="xtick_7">
     <g id="line2d_15"/>
    </g>
    <g id="xtick_8">
     <g id="line2d_16"/>
    </g>
   </g>
   <g id="matplotlib.axis_4">
    <g id="ytick_5">
     <g id="line2d_17"/>
     <g id="text_7">
      <!-- 0 -->
      <g transform="translate(116.053714 112.62938) scale(0.06 -0.06)">
       <use xlink:href="#ArialMT-30"/>
      </g>
     </g>
    </g>
    <g id="ytick_6">
     <g id="line2d_18"/>
     <g id="text_8">
      <!-- 5 -->
      <g transform="translate(116.053714 98.945681) scale(0.06 -0.06)">
       <defs>
        <path id="ArialMT-35" d="M 266 1200
L 856 1250
Q 922 819 1161 601
Q 1400 384 1738 384
Q 2144 384 2425 690
Q 2706 997 2706 1503
Q 2706 1984 2436 2262
Q 2166 2541 1728 2541
Q 1456 2541 1237 2417
Q 1019 2294 894 2097
L 366 2166
L 809 4519
L 3088 4519
L 3088 3981
L 1259 3981
L 1013 2750
Q 1425 3038 1878 3038
Q 2478 3038 2890 2622
Q 3303 2206 3303 1553
Q 3303 931 2941 478
Q 2500 -78 1738 -78
Q 1113 -78 717 272
Q 322 622 266 1200
z
" transform="scale(0.015625)"/>
       </defs>
       <use xlink:href="#ArialMT-35"/>
      </g>
     </g>
    </g>
    <g id="ytick_7">
     <g id="line2d_19"/>
     <g id="text_9">
      <!-- 10 -->
      <g transform="translate(112.717151 85.261983) scale(0.06 -0.06)">
       <use xlink:href="#ArialMT-31"/>
       <use xlink:href="#ArialMT-30" transform="translate(55.615234 0)"/>
      </g>
     </g>
    </g>
    <g id="ytick_8">
     <g id="line2d_20"/>
     <g id="text_10">
      <!-- 15 -->
      <g transform="translate(112.717151 71.578284) scale(0.06 -0.06)">
       <use xlink:href="#ArialMT-31"/>
       <use xlink:href="#ArialMT-35" transform="translate(55.615234 0)"/>
      </g>
     </g>
    </g>
    <g id="ytick_9">
     <g id="line2d_21"/>
     <g id="text_11">
      <!-- 20 -->
      <g transform="translate(112.717151 57.894585) scale(0.06 -0.06)">
       <use xlink:href="#ArialMT-32"/>
       <use xlink:href="#ArialMT-30" transform="translate(55.615234 0)"/>
      </g>
     </g>
    </g>
   </g>
   <g id="line2d_22">
    <path d="M 130.851731 61.883608
L 130.851731 46.486192
" clip-path="url(#p8891b1123b)" style="fill: none; stroke: #424242; stroke-width: 0.75"/>
   </g>
   <g id="line2d_23">
    <path d="M 149.77464 88.329842
L 149.77464 80.301628
" clip-path="url(#p8891b1123b)" style="fill: none; stroke: #424242; stroke-width: 0.75"/>
   </g>
   <g id="line2d_24">
    <path d="M 168.697549 81.654247
L 168.697549 68.617493
" clip-path="url(#p8891b1123b)" style="fill: none; stroke: #424242; stroke-width: 0.75"/>
   </g>
   <g id="line2d_25">
    <path d="M 187.620458 106.665281
L 187.620458 100.484814
" clip-path="url(#p8891b1123b)" style="fill: none; stroke: #424242; stroke-width: 0.75"/>
   </g>
   <g id="patch_14">
    <path d="M 121.390276 110.482036
L 121.390276 43.2864
" style="fill: none; stroke: #000000; stroke-width: 0.5; stroke-linejoin: miter; stroke-linecap: square"/>
   </g>
   <g id="patch_15">
    <path d="M 121.390276 110.482036
L 197.081912 110.482036
" style="fill: none; stroke: #000000; stroke-width: 0.5; stroke-linejoin: miter; stroke-linecap: square"/>
   </g>
   <g id="text_12">
    <!-- S -->
    <g transform="translate(121.390276 36.926618) scale(0.06 -0.06)">
     <defs>
      <path id="ArialMT-53" d="M 288 1472
L 859 1522
Q 900 1178 1048 958
Q 1197 738 1509 602
Q 1822 466 2213 466
Q 2559 466 2825 569
Q 3091 672 3220 851
Q 3350 1031 3350 1244
Q 3350 1459 3225 1620
Q 3100 1781 2813 1891
Q 2628 1963 1997 2114
Q 1366 2266 1113 2400
Q 784 2572 623 2826
Q 463 3081 463 3397
Q 463 3744 659 4045
Q 856 4347 1234 4503
Q 1613 4659 2075 4659
Q 2584 4659 2973 4495
Q 3363 4331 3572 4012
Q 3781 3694 3797 3291
L 3216 3247
Q 3169 3681 2898 3903
Q 2628 4125 2100 4125
Q 1550 4125 1298 3923
Q 1047 3722 1047 3438
Q 1047 3191 1225 3031
Q 1400 2872 2139 2705
Q 2878 2538 3153 2413
Q 3553 2228 3743 1945
Q 3934 1663 3934 1294
Q 3934 928 3725 604
Q 3516 281 3123 101
Q 2731 -78 2241 -78
Q 1619 -78 1198 103
Q 778 284 539 648
Q 300 1013 288 1472
z
" transform="scale(0.015625)"/>
     </defs>
     <use xlink:href="#ArialMT-53"/>
    </g>
   </g>
  </g>
  <g id="axes_3">
   <g id="patch_16">
    <path d="M 30.560313 191.1168
L 106.251949 191.1168
L 106.251949 123.921164
L 30.560313 123.921164
z
" style="fill: #ffffff"/>
   </g>
   <g id="patch_17">
    <path d="M 32.452603 191.1168
L 47.590931 191.1168
L 47.590931 156.820871
L 32.452603 156.820871
z
" clip-path="url(#p4225d8c9e7)" style="fill: #5a6e8c"/>
   </g>
   <g id="patch_18">
    <path d="M 51.375512 191.1168
L 66.51384 191.1168
L 66.51384 147.131724
L 51.375512 147.131724
z
" clip-path="url(#p4225d8c9e7)" style="fill: #5a6e8c"/>
   </g>
   <g id="patch_19">
    <path d="M 70.298422 191.1168
L 85.436749 191.1168
L 85.436749 167.661592
L 70.298422 167.661592
z
" clip-path="url(#p4225d8c9e7)" style="fill: #5a6e8c"/>
   </g>
   <g id="patch_20">
    <path d="M 89.221331 191.1168
L 104.359658 191.1168
L 104.359658 131.245927
L 89.221331 131.245927
z
" clip-path="url(#p4225d8c9e7)" style="fill: #5a6e8c"/>
   </g>
   <g id="matplotlib.axis_5">
    <g id="xtick_9">
     <g id="line2d_26"/>
     <g id="text_13">
      <!-- control -->
      <g transform="translate(26.445317 208.886828) rotate(-45) scale(0.06 -0.06)">
       <defs>
        <path id="ArialMT-6f" d="M 213 1659
Q 213 2581 725 3025
Q 1153 3394 1769 3394
Q 2453 3394 2887 2945
Q 3322 2497 3322 1706
Q 3322 1066 3130 698
Q 2938 331 2570 128
Q 2203 -75 1769 -75
Q 1072 -75 642 372
Q 213 819 213 1659
z
M 791 1659
Q 791 1022 1069 705
Q 1347 388 1769 388
Q 2188 388 2466 706
Q 2744 1025 2744 1678
Q 2744 2294 2464 2611
Q 2184 2928 1769 2928
Q 1347 2928 1069 2612
Q 791 2297 791 1659
z
" transform="scale(0.015625)"/>
        <path id="ArialMT-6c" d="M 409 0
L 409 4581
L 972 4581
L 972 0
L 409 0
z
" transform="scale(0.015625)"/>
       </defs>
       <use xlink:href="#ArialMT-63"/>
       <use xlink:href="#ArialMT-6f" transform="translate(50 0)"/>
       <use xlink:href="#ArialMT-6e" transform="translate(105.615234 0)"/>
       <use xlink:href="#ArialMT-74" transform="translate(161.230469 0)"/>
       <use xlink:href="#ArialMT-72" transform="translate(189.013672 0)"/>
       <use xlink:href="#ArialMT-6f" transform="translate(222.314453 0)"/>
       <use xlink:href="#ArialMT-6c" transform="translate(277.929688 0)"/>
      </g>
     </g>
    </g>
    <g id="xtick_10">
     <g id="line2d_27"/>
     <g id="text_14">
      <!-- cond01 -->
      <g transform="translate(44.183601 210.071453) rotate(-45) scale(0.06 -0.06)">
       <defs>
        <path id="ArialMT-64" d="M 2575 0
L 2575 419
Q 2259 -75 1647 -75
Q 1250 -75 917 144
Q 584 363 401 755
Q 219 1147 219 1656
Q 219 2153 384 2558
Q 550 2963 881 3178
Q 1213 3394 1622 3394
Q 1922 3394 2156 3267
Q 2391 3141 2538 2938
L 2538 4581
L 3097 4581
L 3097 0
L 2575 0
z
M 797 1656
Q 797 1019 1065 703
Q 1334 388 1700 388
Q 2069 388 2326 689
Q 2584 991 2584 1609
Q 2584 2291 2321 2609
Q 2059 2928 1675 2928
Q 1300 2928 1048 2622
Q 797 2316 797 1656
z
" transform="scale(0.015625)"/>
       </defs>
       <use xlink:href="#ArialMT-63"/>
       <use xlink:href="#ArialMT-6f" transform="translate(50 0)"/>
       <use xlink:href="#ArialMT-6e" transform="translate(105.615234 0)"/>
       <use xlink:href="#ArialMT-64" transform="translate(161.230469 0)"/>
       <use xlink:href="#ArialMT-30" transform="translate(216.845703 0)"/>
       <use xlink:href="#ArialMT-31" transform="translate(272.460938 0)"/>
      </g>
     </g>
    </g>
    <g id="xtick_11">
     <g id="line2d_28"/>
     <g id="text_15">
      <!-- cond02 -->
      <g transform="translate(63.10651 210.071453) rotate(-45) scale(0.06 -0.06)">
       <use xlink:href="#ArialMT-63"/>
       <use xlink:href="#ArialMT-6f" transform="translate(50 0)"/>
       <use xlink:href="#ArialMT-6e" transform="translate(105.615234 0)"/>
       <use xlink:href="#ArialMT-64" transform="translate(161.230469 0)"/>
       <use xlink:href="#ArialMT-30" transform="translate(216.845703 0)"/>
       <use xlink:href="#ArialMT-32" transform="translate(272.460938 0)"/>
      </g>
     </g>
    </g>
    <g id="xtick_12">
     <g id="line2d_29"/>
     <g id="text_16">
      <!-- cond03 -->
      <g transform="translate(82.029419 210.071453) rotate(-45) scale(0.06 -0.06)">
       <defs>
        <path id="ArialMT-33" d="M 269 1209
L 831 1284
Q 928 806 1161 595
Q 1394 384 1728 384
Q 2125 384 2398 659
Q 2672 934 2672 1341
Q 2672 1728 2419 1979
Q 2166 2231 1775 2231
Q 1616 2231 1378 2169
L 1441 2663
Q 1497 2656 1531 2656
Q 1891 2656 2178 2843
Q 2466 3031 2466 3422
Q 2466 3731 2256 3934
Q 2047 4138 1716 4138
Q 1388 4138 1169 3931
Q 950 3725 888 3313
L 325 3413
Q 428 3978 793 4289
Q 1159 4600 1703 4600
Q 2078 4600 2393 4439
Q 2709 4278 2876 4000
Q 3044 3722 3044 3409
Q 3044 3113 2884 2869
Q 2725 2625 2413 2481
Q 2819 2388 3044 2092
Q 3269 1797 3269 1353
Q 3269 753 2831 336
Q 2394 -81 1725 -81
Q 1122 -81 723 278
Q 325 638 269 1209
z
" transform="scale(0.015625)"/>
       </defs>
       <use xlink:href="#ArialMT-63"/>
       <use xlink:href="#ArialMT-6f" transform="translate(50 0)"/>
       <use xlink:href="#ArialMT-6e" transform="translate(105.615234 0)"/>
       <use xlink:href="#ArialMT-64" transform="translate(161.230469 0)"/>
       <use xlink:href="#ArialMT-30" transform="translate(216.845703 0)"/>
       <use xlink:href="#ArialMT-33" transform="translate(272.460938 0)"/>
      </g>
     </g>
    </g>
   </g>
   <g id="matplotlib.axis_6">
    <g id="ytick_10">
     <g id="line2d_30"/>
     <g id="text_17">
      <!-- 0 -->
      <g transform="translate(25.22375 193.264144) scale(0.06 -0.06)">
       <use xlink:href="#ArialMT-30"/>
      </g>
     </g>
    </g>
    <g id="ytick_11">
     <g id="line2d_31"/>
     <g id="text_18">
      <!-- 10 -->
      <g transform="translate(21.887188 174.560012) scale(0.06 -0.06)">
       <use xlink:href="#ArialMT-31"/>
       <use xlink:href="#ArialMT-30" transform="translate(55.615234 0)"/>
      </g>
     </g>
    </g>
    <g id="ytick_12">
     <g id="line2d_32"/>
     <g id="text_19">
      <!-- 20 -->
      <g transform="translate(21.887188 155.85588) scale(0.06 -0.06)">
       <use xlink:href="#ArialMT-32"/>
       <use xlink:href="#ArialMT-30" transform="translate(55.615234 0)"/>
      </g>
     </g>
    </g>
    <g id="ytick_13">
     <g id="line2d_33"/>
     <g id="text_20">
      <!-- 30 -->
      <g transform="translate(21.887188 137.151747) scale(0.06 -0.06)">
       <use xlink:href="#ArialMT-33"/>
       <use xlink:href="#ArialMT-30" transform="translate(55.615234 0)"/>
      </g>
     </g>
    </g>
    <g id="text_21">
     <!-- percent -->
     <g transform="translate(18.694688 167.524451) rotate(-90) scale(0.06 -0.06)">
      <use xlink:href="#ArialMT-70"/>
      <use xlink:href="#ArialMT-65" transform="translate(55.615234 0)"/>
      <use xlink:href="#ArialMT-72" transform="translate(111.230469 0)"/>
      <use xlink:href="#ArialMT-63" transform="translate(144.53125 0)"/>
      <use xlink:href="#ArialMT-65" transform="translate(194.53125 0)"/>
      <use xlink:href="#ArialMT-6e" transform="translate(250.146484 0)"/>
      <use xlink:href="#ArialMT-74" transform="translate(305.761719 0)"/>
     </g>
    </g>
   </g>
   <g id="line2d_34">
    <path d="M 40.021767 157.513299
L 40.021767 155.592587
" clip-path="url(#p4225d8c9e7)" style="fill: none; stroke: #424242; stroke-width: 0.75"/>
   </g>
   <g id="line2d_35">
    <path d="M 58.944676 150.924981
L 58.944676 143.825651
" clip-path="url(#p4225d8c9e7)" style="fill: none; stroke: #424242; stroke-width: 0.75"/>
   </g>
   <g id="line2d_36">
    <path d="M 77.867585 170.303728
L 77.867585 165.597129
" clip-path="url(#p4225d8c9e7)" style="fill: none; stroke: #424242; stroke-width: 0.75"/>
   </g>
   <g id="line2d_37">
    <path d="M 96.790494 137.417151
L 96.790494 127.120956
" clip-path="url(#p4225d8c9e7)" style="fill: none; stroke: #424242; stroke-width: 0.75"/>
   </g>
   <g id="patch_21">
    <path d="M 30.560313 191.1168
L 30.560313 123.921164
" style="fill: none; stroke: #000000; stroke-width: 0.5; stroke-linejoin: miter; stroke-linecap: square"/>
   </g>
   <g id="patch_22">
    <path d="M 30.560313 191.1168
L 106.251949 191.1168
" style="fill: none; stroke: #000000; stroke-width: 0.5; stroke-linejoin: miter; stroke-linecap: square"/>
   </g>
   <g id="text_22">
    <!-- G2/M -->
    <g transform="translate(30.560313 117.561382) scale(0.06 -0.06)">
     <defs>
      <path id="ArialMT-2f" d="M 0 -78
L 1328 4659
L 1778 4659
L 453 -78
L 0 -78
z
" transform="scale(0.015625)"/>
      <path id="ArialMT-4d" d="M 475 0
L 475 4581
L 1388 4581
L 2472 1338
Q 2622 884 2691 659
Q 2769 909 2934 1394
L 4031 4581
L 4847 4581
L 4847 0
L 4263 0
L 4263 3834
L 2931 0
L 2384 0
L 1059 3900
L 1059 0
L 475 0
z
" transform="scale(0.015625)"/>
     </defs>
     <use xlink:href="#ArialMT-47"/>
     <use xlink:href="#ArialMT-32" transform="translate(77.783203 0)"/>
     <use xlink:href="#ArialMT-2f" transform="translate(133.398438 0)"/>
     <use xlink:href="#ArialMT-4d" transform="translate(161.181641 0)"/>
    </g>
   </g>
  </g>
  <g id="axes_4">
   <g id="patch_23">
    <path d="M 121.390276 191.1168
L 197.081912 191.1168
L 197.081912 123.921164
L 121.390276 123.921164
z
" style="fill: #ffffff"/>
   </g>
   <g id="patch_24">
    <path d="M 123.282567 191.1168
L 138.420894 191.1168
L 138.420894 182.584278
L 123.282567 182.584278
z
" clip-path="url(#p63210b0c6a)" style="fill: #5a6e8c"/>
   </g>
   <g id="patch_25">
    <path d="M 142.205476 191.1168
L 157.343803 191.1168
L 157.343803 148.49856
L 142.205476 148.49856
z
" clip-path="url(#p63210b0c6a)" style="fill: #5a6e8c"/>
   </g>
   <g id="patch_26">
    <path d="M 161.128385 191.1168
L 176.266712 191.1168
L 176.266712 184.153985
L 161.128385 184.153985
z
" clip-path="url(#p63210b0c6a)" style="fill: #5a6e8c"/>
   </g>
   <g id="patch_27">
    <path d="M 180.051294 191.1168
L 195.189622 191.1168
L 195.189622 137.585019
L 180.051294 137.585019
z
" clip-path="url(#p63210b0c6a)" style="fill: #5a6e8c"/>
   </g>
   <g id="matplotlib.axis_7">
    <g id="xtick_13">
     <g id="line2d_38"/>
     <g id="text_23">
      <!-- control -->
      <g transform="translate(117.27528 208.886828) rotate(-45) scale(0.06 -0.06)">
       <use xlink:href="#ArialMT-63"/>
       <use xlink:href="#ArialMT-6f" transform="translate(50 0)"/>
       <use xlink:href="#ArialMT-6e" transform="translate(105.615234 0)"/>
       <use xlink:href="#ArialMT-74" transform="translate(161.230469 0)"/>
       <use xlink:href="#ArialMT-72" transform="translate(189.013672 0)"/>
       <use xlink:href="#ArialMT-6f" transform="translate(222.314453 0)"/>
       <use xlink:href="#ArialMT-6c" transform="translate(277.929688 0)"/>
      </g>
     </g>
    </g>
    <g id="xtick_14">
     <g id="line2d_39"/>
     <g id="text_24">
      <!-- cond01 -->
      <g transform="translate(135.013565 210.071453) rotate(-45) scale(0.06 -0.06)">
       <use xlink:href="#ArialMT-63"/>
       <use xlink:href="#ArialMT-6f" transform="translate(50 0)"/>
       <use xlink:href="#ArialMT-6e" transform="translate(105.615234 0)"/>
       <use xlink:href="#ArialMT-64" transform="translate(161.230469 0)"/>
       <use xlink:href="#ArialMT-30" transform="translate(216.845703 0)"/>
       <use xlink:href="#ArialMT-31" transform="translate(272.460938 0)"/>
      </g>
     </g>
    </g>
    <g id="xtick_15">
     <g id="line2d_40"/>
     <g id="text_25">
      <!-- cond02 -->
      <g transform="translate(153.936474 210.071453) rotate(-45) scale(0.06 -0.06)">
       <use xlink:href="#ArialMT-63"/>
       <use xlink:href="#ArialMT-6f" transform="translate(50 0)"/>
       <use xlink:href="#ArialMT-6e" transform="translate(105.615234 0)"/>
       <use xlink:href="#ArialMT-64" transform="translate(161.230469 0)"/>
       <use xlink:href="#ArialMT-30" transform="translate(216.845703 0)"/>
       <use xlink:href="#ArialMT-32" transform="translate(272.460938 0)"/>
      </g>
     </g>
    </g>
    <g id="xtick_16">
     <g id="line2d_41"/>
     <g id="text_26">
      <!-- cond03 -->
      <g transform="translate(172.859383 210.071453) rotate(-45) scale(0.06 -0.06)">
       <use xlink:href="#ArialMT-63"/>
       <use xlink:href="#ArialMT-6f" transform="translate(50 0)"/>
       <use xlink:href="#ArialMT-6e" transform="translate(105.615234 0)"/>
       <use xlink:href="#ArialMT-64" transform="translate(161.230469 0)"/>
       <use xlink:href="#ArialMT-30" transform="translate(216.845703 0)"/>
       <use xlink:href="#ArialMT-33" transform="translate(272.460938 0)"/>
      </g>
     </g>
    </g>
   </g>
   <g id="matplotlib.axis_8">
    <g id="ytick_14">
     <g id="line2d_42"/>
     <g id="text_27">
      <!-- 0 -->
      <g transform="translate(116.053714 193.264144) scale(0.06 -0.06)">
       <use xlink:href="#ArialMT-30"/>
      </g>
     </g>
    </g>
    <g id="ytick_15">
     <g id="line2d_43"/>
     <g id="text_28">
      <!-- 10 -->
      <g transform="translate(112.717151 166.944726) scale(0.06 -0.06)">
       <use xlink:href="#ArialMT-31"/>
       <use xlink:href="#ArialMT-30" transform="translate(55.615234 0)"/>
      </g>
     </g>
    </g>
    <g id="ytick_16">
     <g id="line2d_44"/>
     <g id="text_29">
      <!-- 20 -->
      <g transform="translate(112.717151 140.625309) scale(0.06 -0.06)">
       <use xlink:href="#ArialMT-32"/>
       <use xlink:href="#ArialMT-30" transform="translate(55.615234 0)"/>
      </g>
     </g>
    </g>
   </g>
   <g id="line2d_45">
    <path d="M 130.851731 184.513669
L 130.851731 181.243448
" clip-path="url(#p63210b0c6a)" style="fill: none; stroke: #424242; stroke-width: 0.75"/>
   </g>
   <g id="line2d_46">
    <path d="M 149.77464 161.382247
L 149.77464 141.343963
" clip-path="url(#p63210b0c6a)" style="fill: none; stroke: #424242; stroke-width: 0.75"/>
   </g>
   <g id="line2d_47">
    <path d="M 168.697549 185.657566
L 168.697549 181.945352
" clip-path="url(#p63210b0c6a)" style="fill: none; stroke: #424242; stroke-width: 0.75"/>
   </g>
   <g id="line2d_48">
    <path d="M 187.620458 146.908246
L 187.620458 127.120956
" clip-path="url(#p63210b0c6a)" style="fill: none; stroke: #424242; stroke-width: 0.75"/>
   </g>
   <g id="patch_28">
    <path d="M 121.390276 191.1168
L 121.390276 123.921164
" style="fill: none; stroke: #000000; stroke-width: 0.5; stroke-linejoin: miter; stroke-linecap: square"/>
   </g>
   <g id="patch_29">
    <path d="M 121.390276 191.1168
L 197.081912 191.1168
" style="fill: none; stroke: #000000; stroke-width: 0.5; stroke-linejoin: miter; stroke-linecap: square"/>
   </g>
   <g id="text_30">
    <!-- Polyploid -->
    <g transform="translate(121.390276 117.561382) scale(0.06 -0.06)">
     <defs>
      <path id="ArialMT-50" d="M 494 0
L 494 4581
L 2222 4581
Q 2678 4581 2919 4538
Q 3256 4481 3484 4323
Q 3713 4166 3852 3881
Q 3991 3597 3991 3256
Q 3991 2672 3619 2267
Q 3247 1863 2275 1863
L 1100 1863
L 1100 0
L 494 0
z
M 1100 2403
L 2284 2403
Q 2872 2403 3119 2622
Q 3366 2841 3366 3238
Q 3366 3525 3220 3729
Q 3075 3934 2838 4000
Q 2684 4041 2272 4041
L 1100 4041
L 1100 2403
z
" transform="scale(0.015625)"/>
      <path id="ArialMT-79" d="M 397 -1278
L 334 -750
Q 519 -800 656 -800
Q 844 -800 956 -737
Q 1069 -675 1141 -563
Q 1194 -478 1313 -144
Q 1328 -97 1363 -6
L 103 3319
L 709 3319
L 1400 1397
Q 1534 1031 1641 628
Q 1738 1016 1872 1384
L 2581 3319
L 3144 3319
L 1881 -56
Q 1678 -603 1566 -809
Q 1416 -1088 1222 -1217
Q 1028 -1347 759 -1347
Q 597 -1347 397 -1278
z
" transform="scale(0.015625)"/>
      <path id="ArialMT-69" d="M 425 3934
L 425 4581
L 988 4581
L 988 3934
L 425 3934
z
M 425 0
L 425 3319
L 988 3319
L 988 0
L 425 0
z
" transform="scale(0.015625)"/>
     </defs>
     <use xlink:href="#ArialMT-50"/>
     <use xlink:href="#ArialMT-6f" transform="translate(66.699219 0)"/>
     <use xlink:href="#ArialMT-6c" transform="translate(122.314453 0)"/>
     <use xlink:href="#ArialMT-79" transform="translate(144.53125 0)"/>
     <use xlink:href="#ArialMT-70" transform="translate(194.53125 0)"/>
     <use xlink:href="#ArialMT-6c" transform="translate(250.146484 0)"/>
     <use xlink:href="#ArialMT-6f" transform="translate(272.363281 0)"/>
     <use xlink:href="#ArialMT-69" transform="translate(327.978516 0)"/>
     <use xlink:href="#ArialMT-64" transform="translate(350.195312 0)"/>
    </g>
   </g>
  </g>
  <g id="text_31">
   <!-- cellcycle plot clean -->
   <g transform="translate(28.861113 19.410469) scale(0.07 -0.07)">
    <defs>
     <path id="Arial-BoldMT-63" d="M 3353 2338
L 2488 2181
Q 2444 2441 2289 2572
Q 2134 2703 1888 2703
Q 1559 2703 1364 2476
Q 1169 2250 1169 1719
Q 1169 1128 1367 884
Q 1566 641 1900 641
Q 2150 641 2309 783
Q 2469 925 2534 1272
L 3397 1125
Q 3263 531 2881 228
Q 2500 -75 1859 -75
Q 1131 -75 698 384
Q 266 844 266 1656
Q 266 2478 700 2936
Q 1134 3394 1875 3394
Q 2481 3394 2839 3133
Q 3197 2872 3353 2338
z
" transform="scale(0.015625)"/>
     <path id="Arial-BoldMT-65" d="M 2381 1056
L 3256 909
Q 3088 428 2723 176
Q 2359 -75 1813 -75
Q 947 -75 531 491
Q 203 944 203 1634
Q 203 2459 634 2926
Q 1066 3394 1725 3394
Q 2466 3394 2894 2905
Q 3322 2416 3303 1406
L 1103 1406
Q 1113 1016 1316 798
Q 1519 581 1822 581
Q 2028 581 2168 693
Q 2309 806 2381 1056
z
M 2431 1944
Q 2422 2325 2234 2523
Q 2047 2722 1778 2722
Q 1491 2722 1303 2513
Q 1116 2303 1119 1944
L 2431 1944
z
" transform="scale(0.015625)"/>
     <path id="Arial-BoldMT-6c" d="M 459 0
L 459 4581
L 1338 4581
L 1338 0
L 459 0
z
" transform="scale(0.015625)"/>
     <path id="Arial-BoldMT-79" d="M 44 3319
L 978 3319
L 1772 963
L 2547 3319
L 3456 3319
L 2284 125
L 2075 -453
Q 1959 -744 1854 -897
Q 1750 -1050 1614 -1145
Q 1478 -1241 1279 -1294
Q 1081 -1347 831 -1347
Q 578 -1347 334 -1294
L 256 -606
Q 463 -647 628 -647
Q 934 -647 1081 -467
Q 1228 -288 1306 -9
L 44 3319
z
" transform="scale(0.015625)"/>
     <path id="Arial-BoldMT-20" transform="scale(0.015625)"/>
     <path id="Arial-BoldMT-70" d="M 434 3319
L 1253 3319
L 1253 2831
Q 1413 3081 1684 3237
Q 1956 3394 2288 3394
Q 2866 3394 3269 2941
Q 3672 2488 3672 1678
Q 3672 847 3265 386
Q 2859 -75 2281 -75
Q 2006 -75 1782 34
Q 1559 144 1313 409
L 1313 -1263
L 434 -1263
L 434 3319
z
M 1303 1716
Q 1303 1156 1525 889
Q 1747 622 2066 622
Q 2372 622 2575 867
Q 2778 1113 2778 1672
Q 2778 2194 2568 2447
Q 2359 2700 2050 2700
Q 1728 2700 1515 2451
Q 1303 2203 1303 1716
z
" transform="scale(0.015625)"/>
     <path id="Arial-BoldMT-6f" d="M 256 1706
Q 256 2144 472 2553
Q 688 2963 1083 3178
Q 1478 3394 1966 3394
Q 2719 3394 3200 2905
Q 3681 2416 3681 1669
Q 3681 916 3195 420
Q 2709 -75 1972 -75
Q 1516 -75 1102 131
Q 688 338 472 736
Q 256 1134 256 1706
z
M 1156 1659
Q 1156 1166 1390 903
Q 1625 641 1969 641
Q 2313 641 2545 903
Q 2778 1166 2778 1666
Q 2778 2153 2545 2415
Q 2313 2678 1969 2678
Q 1625 2678 1390 2415
Q 1156 2153 1156 1659
z
" transform="scale(0.015625)"/>
     <path id="Arial-BoldMT-74" d="M 1981 3319
L 1981 2619
L 1381 2619
L 1381 1281
Q 1381 875 1398 808
Q 1416 741 1477 697
Q 1538 653 1625 653
Q 1747 653 1978 738
L 2053 56
Q 1747 -75 1359 -75
Q 1122 -75 931 4
Q 741 84 652 211
Q 563 338 528 553
Q 500 706 500 1172
L 500 2619
L 97 2619
L 97 3319
L 500 3319
L 500 3978
L 1381 4491
L 1381 3319
L 1981 3319
z
" transform="scale(0.015625)"/>
     <path id="Arial-BoldMT-61" d="M 1116 2306
L 319 2450
Q 453 2931 781 3162
Q 1109 3394 1756 3394
Q 2344 3394 2631 3255
Q 2919 3116 3036 2902
Q 3153 2688 3153 2116
L 3144 1091
Q 3144 653 3186 445
Q 3228 238 3344 0
L 2475 0
Q 2441 88 2391 259
Q 2369 338 2359 363
Q 2134 144 1878 34
Q 1622 -75 1331 -75
Q 819 -75 523 203
Q 228 481 228 906
Q 228 1188 362 1408
Q 497 1628 739 1745
Q 981 1863 1438 1950
Q 2053 2066 2291 2166
L 2291 2253
Q 2291 2506 2166 2614
Q 2041 2722 1694 2722
Q 1459 2722 1328 2630
Q 1197 2538 1116 2306
z
M 2291 1594
Q 2122 1538 1756 1459
Q 1391 1381 1278 1306
Q 1106 1184 1106 997
Q 1106 813 1243 678
Q 1381 544 1594 544
Q 1831 544 2047 700
Q 2206 819 2256 991
Q 2291 1103 2291 1419
L 2291 1594
z
" transform="scale(0.015625)"/>
     <path id="Arial-BoldMT-6e" d="M 3478 0
L 2600 0
L 2600 1694
Q 2600 2231 2544 2389
Q 2488 2547 2361 2634
Q 2234 2722 2056 2722
Q 1828 2722 1647 2597
Q 1466 2472 1398 2265
Q 1331 2059 1331 1503
L 1331 0
L 453 0
L 453 3319
L 1269 3319
L 1269 2831
Q 1703 3394 2363 3394
Q 2653 3394 2893 3289
Q 3134 3184 3257 3021
Q 3381 2859 3429 2653
Q 3478 2447 3478 2063
L 3478 0
z
" transform="scale(0.015625)"/>
    </defs>
    <use xlink:href="#Arial-BoldMT-63"/>
    <use xlink:href="#Arial-BoldMT-65" transform="translate(55.615234 0)"/>
    <use xlink:href="#Arial-BoldMT-6c" transform="translate(111.230469 0)"/>
    <use xlink:href="#Arial-BoldMT-6c" transform="translate(139.013672 0)"/>
    <use xlink:href="#Arial-BoldMT-63" transform="translate(166.796875 0)"/>
    <use xlink:href="#Arial-BoldMT-79" transform="translate(222.412109 0)"/>
    <use xlink:href="#Arial-BoldMT-63" transform="translate(278.027344 0)"/>
    <use xlink:href="#Arial-BoldMT-6c" transform="translate(333.642578 0)"/>
    <use xlink:href="#Arial-BoldMT-65" transform="translate(361.425781 0)"/>
    <use xlink:href="#Arial-BoldMT-20" transform="translate(417.041016 0)"/>
    <use xlink:href="#Arial-BoldMT-70" transform="translate(444.824219 0)"/>
    <use xlink:href="#Arial-BoldMT-6c" transform="translate(505.908203 0)"/>
    <use xlink:href="#Arial-BoldMT-6f" transform="translate(533.691406 0)"/>
    <use xlink:href="#Arial-BoldMT-74" transform="translate(594.775391 0)"/>
    <use xlink:href="#Arial-BoldMT-20" transform="translate(628.076172 0)"/>
    <use xlink:href="#Arial-BoldMT-63" transform="translate(655.859375 0)"/>
    <use xlink:href="#Arial-BoldMT-6c" transform="translate(711.474609 0)"/>
    <use xlink:href="#Arial-BoldMT-65" transform="translate(739.257812 0)"/>
    <use xlink:href="#Arial-BoldMT-61" transform="translate(794.873047 0)"/>
    <use xlink:href="#Arial-BoldMT-6e" transform="translate(850.488281 0)"/>
   </g>
  </g>
 </g>
 <defs>
  <clipPath id="pe82573afcb">
   <rect x="30.560313" y="43.2864" width="75.691636" height="67.195636"/>
  </clipPath>
  <clipPath id="p8891b1123b">
   <rect x="121.390276" y="43.2864" width="75.691636" height="67.195636"/>
  </clipPath>
  <clipPath id="p4225d8c9e7">
   <rect x="30.560313" y="123.921164" width="75.691636" height="67.195636"/>
  </clipPath>
  <clipPath id="p63210b0c6a">
   <rect x="121.390276" y="123.921164" width="75.691636" height="67.195636"/>
  </clipPath>
 </defs>
</svg>
